<svg xmlns="http://www.w3.org/2000/svg" xmlns:xlink="http://www.w3.org/1999/xlink" width="50" zoomAndPan="magnify" viewBox="0 0 37.5 37.499999" height="50" preserveAspectRatio="xMidYMid meet" version="1.0"><defs><clipPath id="f3e875abcd"><path d="M 1.628906 1.628906 L 35.378906 1.628906 L 35.378906 35.378906 L 1.628906 35.378906 Z M 1.628906 1.628906 " clip-rule="nonzero"/></clipPath><clipPath id="d2755096ba"><path d="M 18.503906 1.628906 C 9.183594 1.628906 1.628906 9.183594 1.628906 18.503906 C 1.628906 27.824219 9.183594 35.378906 18.503906 35.378906 C 27.824219 35.378906 35.378906 27.824219 35.378906 18.503906 C 35.378906 9.183594 27.824219 1.628906 18.503906 1.628906 Z M 18.503906 1.628906 " clip-rule="nonzero"/></clipPath><clipPath id="7828fc03f9"><path d="M 0.628906 0.628906 L 34.378906 0.628906 L 34.378906 34.378906 L 0.628906 34.378906 Z M 0.628906 0.628906 " clip-rule="nonzero"/></clipPath><clipPath id="6814f85214"><path d="M 17.503906 0.628906 C 8.183594 0.628906 0.628906 8.183594 0.628906 17.503906 C 0.628906 26.824219 8.183594 34.378906 17.503906 34.378906 C 26.824219 34.378906 34.378906 26.824219 34.378906 17.503906 C 34.378906 8.183594 26.824219 0.628906 17.503906 0.628906 Z M 17.503906 0.628906 " clip-rule="nonzero"/></clipPath><clipPath id="6b41d50e32"><rect x="0" width="35" y="0" height="35"/></clipPath><clipPath id="497275da01"><path d="M 23 23 L 29.457031 23 L 29.457031 29.457031 L 23 29.457031 Z M 23 23 " clip-rule="nonzero"/></clipPath><clipPath id="f4a21bd459"><path d="M 7.253906 7.253906 L 14 7.253906 L 14 14 L 7.253906 14 Z M 7.253906 7.253906 " clip-rule="nonzero"/></clipPath></defs><g clip-path="url(#f3e875abcd)"><g clip-path="url(#d2755096ba)"><g transform="matrix(1, 0, 0, 1, 1, 1)"><g clip-path="url(#6b41d50e32)"><g clip-path="url(#7828fc03f9)"><g clip-path="url(#6814f85214)"><path fill="#1c2b36" d="M 0.628906 0.628906 L 34.378906 0.628906 L 34.378906 34.378906 L 0.628906 34.378906 Z M 0.628906 0.628906 " fill-opacity="1" fill-rule="nonzero"/></g></g></g></g></g></g><path fill="#ffffff" d="M 22.148438 25.753906 L 10.835938 25.753906 C 9.949219 25.753906 9.234375 25.035156 9.234375 24.144531 L 9.234375 15.449219 C 9.234375 15.039062 9.570312 14.695312 9.984375 14.695312 L 23.003906 14.695312 C 23.414062 14.695312 23.753906 15.039062 23.753906 15.449219 L 23.753906 20.28125 C 23.753906 20.460938 23.609375 20.609375 23.429688 20.609375 C 23.25 20.609375 23.105469 20.460938 23.105469 20.28125 L 23.105469 15.449219 C 23.105469 15.394531 23.054688 15.351562 23.003906 15.351562 L 9.984375 15.351562 C 9.925781 15.351562 9.882812 15.394531 9.882812 15.449219 L 9.882812 24.144531 C 9.882812 24.671875 10.3125 25.101562 10.835938 25.101562 L 22.148438 25.101562 C 22.621094 25.101562 23.03125 24.746094 23.089844 24.28125 C 23.117188 24.105469 23.28125 23.976562 23.464844 24.003906 C 23.640625 24.03125 23.765625 24.195312 23.738281 24.371094 C 23.628906 25.160156 22.945312 25.753906 22.148438 25.753906 Z M 22.148438 25.753906 " fill-opacity="1" fill-rule="evenodd"/><path fill="#ffffff" d="M 26.96875 23.316406 C 26.789062 23.316406 26.640625 23.171875 26.640625 22.992188 L 26.640625 21.515625 C 26.640625 21.339844 26.789062 21.191406 26.96875 21.191406 C 27.152344 21.191406 27.296875 21.339844 27.296875 21.515625 L 27.296875 22.992188 C 27.296875 23.171875 27.152344 23.316406 26.96875 23.316406 Z M 26.96875 23.316406 " fill-opacity="1" fill-rule="evenodd"/><path fill="#ffffff" d="M 22.140625 24.730469 C 20.046875 24.730469 18.691406 24.136719 18.609375 24.097656 C 18.492188 24.042969 18.414062 23.929688 18.414062 23.800781 L 18.414062 21.941406 C 18.414062 21.761719 18.5625 21.617188 18.742188 21.617188 C 18.921875 21.617188 19.066406 21.761719 19.066406 21.941406 L 19.066406 23.578125 C 19.761719 23.828125 22.253906 24.5625 25.425781 23.5625 L 25.425781 21.941406 C 25.425781 21.761719 25.570312 21.617188 25.753906 21.617188 C 25.929688 21.617188 26.074219 21.761719 26.074219 21.941406 L 26.074219 23.800781 C 26.074219 23.941406 25.988281 24.066406 25.855469 24.109375 C 24.472656 24.574219 23.207031 24.730469 22.140625 24.730469 Z M 22.140625 24.730469 " fill-opacity="1" fill-rule="evenodd"/><g clip-path="url(#497275da01)"><path fill="#ffffff" d="M 29.746094 26.308594 C 29.746094 26.746094 29.664062 27.164062 29.496094 27.5625 C 29.332031 27.964844 29.09375 28.320312 28.785156 28.628906 C 28.480469 28.933594 28.125 29.171875 27.722656 29.335938 C 27.320312 29.503906 26.902344 29.585938 26.46875 29.585938 C 26.035156 29.585938 25.617188 29.503906 25.214844 29.335938 C 24.816406 29.171875 24.460938 28.933594 24.152344 28.628906 C 23.84375 28.320312 23.609375 27.964844 23.441406 27.5625 C 23.277344 27.164062 23.191406 26.746094 23.191406 26.308594 C 23.191406 25.875 23.277344 25.457031 23.441406 25.054688 C 23.609375 24.65625 23.84375 24.300781 24.152344 23.992188 C 24.460938 23.6875 24.816406 23.449219 25.214844 23.285156 C 25.617188 23.117188 26.035156 23.035156 26.46875 23.035156 C 26.902344 23.035156 27.320312 23.117188 27.722656 23.285156 C 28.125 23.449219 28.480469 23.6875 28.785156 23.992188 C 29.09375 24.300781 29.332031 24.65625 29.496094 25.054688 C 29.664062 25.457031 29.746094 25.875 29.746094 26.308594 Z M 29.746094 26.308594 " fill-opacity="1" fill-rule="nonzero"/></g><g clip-path="url(#f4a21bd459)"><path fill="#ffffff" d="M 13.804688 10.6875 C 13.804688 11.125 13.722656 11.542969 13.558594 11.941406 C 13.390625 12.34375 13.152344 12.699219 12.847656 13.007812 C 12.539062 13.3125 12.183594 13.550781 11.785156 13.714844 C 11.382812 13.882812 10.964844 13.964844 10.53125 13.964844 C 10.09375 13.964844 9.675781 13.882812 9.277344 13.714844 C 8.875 13.550781 8.519531 13.3125 8.214844 13.007812 C 7.90625 12.699219 7.667969 12.34375 7.503906 11.941406 C 7.335938 11.542969 7.253906 11.125 7.253906 10.6875 C 7.253906 10.253906 7.335938 9.835938 7.503906 9.433594 C 7.667969 9.035156 7.90625 8.679688 8.214844 8.371094 C 8.519531 8.066406 8.875 7.828125 9.277344 7.660156 C 9.675781 7.496094 10.09375 7.414062 10.53125 7.414062 C 10.964844 7.414062 11.382812 7.496094 11.785156 7.660156 C 12.183594 7.828125 12.539062 8.066406 12.847656 8.371094 C 13.152344 8.679688 13.390625 9.035156 13.558594 9.433594 C 13.722656 9.835938 13.804688 10.253906 13.804688 10.6875 Z M 13.804688 10.6875 " fill-opacity="1" fill-rule="nonzero"/></g><path fill="#ffffff" d="M 22.246094 23.488281 C 22.210938 23.488281 22.175781 23.484375 22.140625 23.472656 L 17.414062 21.824219 C 17.285156 21.777344 17.199219 21.65625 17.199219 21.515625 C 17.199219 21.378906 17.285156 21.253906 17.414062 21.210938 L 22.140625 19.5625 C 22.210938 19.535156 22.285156 19.535156 22.351562 19.5625 L 27.078125 21.210938 C 27.210938 21.253906 27.296875 21.378906 27.296875 21.515625 C 27.296875 21.65625 27.210938 21.777344 27.078125 21.824219 L 22.351562 23.472656 C 22.320312 23.484375 22.28125 23.488281 22.246094 23.488281 Z M 22.246094 23.488281 " fill-opacity="1" fill-rule="evenodd"/><path fill="#ffffff" d="M 26.96875 24.628906 C 26.527344 24.628906 26.167969 24.269531 26.167969 23.832031 L 26.167969 23.464844 C 26.167969 23.023438 26.527344 22.667969 26.96875 22.667969 C 27.410156 22.667969 27.765625 23.023438 27.765625 23.464844 L 27.765625 23.832031 C 27.765625 24.269531 27.410156 24.628906 26.96875 24.628906 Z M 26.96875 23.316406 C 26.890625 23.316406 26.824219 23.382812 26.824219 23.464844 L 26.824219 23.832031 C 26.824219 23.910156 26.890625 23.976562 26.96875 23.976562 C 27.050781 23.976562 27.117188 23.910156 27.117188 23.832031 L 27.117188 23.464844 C 27.117188 23.382812 27.050781 23.316406 26.96875 23.316406 Z M 26.96875 23.316406 " fill-opacity="1" fill-rule="evenodd"/><path fill="#ffffff" d="M 20.304688 15.351562 C 20.128906 15.351562 19.984375 15.207031 19.984375 15.023438 L 19.984375 13.976562 C 19.984375 12.828125 19.050781 11.898438 17.90625 11.898438 L 15.078125 11.898438 C 13.933594 11.898438 13.003906 12.828125 13.003906 13.976562 L 13.003906 15.023438 C 13.003906 15.207031 12.859375 15.351562 12.675781 15.351562 C 12.5 15.351562 12.355469 15.207031 12.355469 15.023438 L 12.355469 13.976562 C 12.355469 12.46875 13.574219 11.246094 15.078125 11.246094 L 17.90625 11.246094 C 19.410156 11.246094 20.632812 12.46875 20.632812 13.976562 L 20.632812 15.023438 C 20.632812 15.207031 20.488281 15.351562 20.304688 15.351562 Z M 20.304688 15.351562 " fill-opacity="1" fill-rule="evenodd"/><path fill="#ffffff" d="M 18.976562 15.351562 C 18.796875 15.351562 18.648438 15.207031 18.648438 15.023438 L 18.648438 14.097656 C 18.648438 13.488281 18.148438 12.988281 17.539062 12.988281 L 15.445312 12.988281 C 14.832031 12.988281 14.335938 13.488281 14.335938 14.097656 L 14.335938 15.023438 C 14.335938 15.207031 14.191406 15.351562 14.011719 15.351562 C 13.828125 15.351562 13.683594 15.207031 13.683594 15.023438 L 13.683594 14.097656 C 13.683594 13.128906 14.476562 12.335938 15.445312 12.335938 L 17.539062 12.335938 C 18.511719 12.335938 19.300781 13.128906 19.300781 14.097656 L 19.300781 15.023438 C 19.300781 15.207031 19.15625 15.351562 18.976562 15.351562 Z M 18.976562 15.351562 " fill-opacity="1" fill-rule="evenodd"/><path fill="#ffffff" d="M 15.113281 19.855469 C 15.09375 19.855469 15.074219 19.855469 15.054688 19.851562 C 12.53125 19.382812 10.386719 17.703125 9.324219 15.359375 C 9.25 15.195312 9.324219 15 9.488281 14.925781 C 9.652344 14.851562 9.84375 14.925781 9.917969 15.089844 C 10.894531 17.242188 12.859375 18.777344 15.175781 19.207031 C 15.351562 19.242188 15.46875 19.410156 15.4375 19.589844 C 15.40625 19.742188 15.265625 19.855469 15.113281 19.855469 Z M 18.066406 19.816406 C 17.914062 19.816406 17.78125 19.714844 17.75 19.558594 C 17.710938 19.382812 17.824219 19.207031 18 19.171875 C 20.230469 18.695312 22.125 17.167969 23.066406 15.089844 C 23.140625 14.925781 23.335938 14.851562 23.5 14.925781 C 23.664062 15 23.734375 15.195312 23.65625 15.359375 C 22.636719 17.628906 20.566406 19.289062 18.136719 19.808594 C 18.113281 19.816406 18.09375 19.816406 18.066406 19.816406 Z M 18.066406 19.816406 " fill-opacity="1" fill-rule="evenodd"/><path fill="#ffffff" d="M 17.25 20.8125 L 15.9375 20.8125 C 15.296875 20.8125 14.78125 20.292969 14.78125 19.65625 C 14.78125 19.019531 15.296875 18.496094 15.9375 18.496094 L 17.25 18.496094 C 17.890625 18.496094 18.410156 19.019531 18.410156 19.65625 C 18.410156 20.292969 17.890625 20.8125 17.25 20.8125 Z M 15.9375 19.144531 C 15.65625 19.144531 15.429688 19.375 15.429688 19.65625 C 15.429688 19.933594 15.65625 20.160156 15.9375 20.160156 L 17.25 20.160156 C 17.53125 20.160156 17.761719 19.933594 17.761719 19.65625 C 17.761719 19.375 17.53125 19.144531 17.25 19.144531 Z M 15.9375 19.144531 " fill-opacity="1" fill-rule="evenodd"/><path fill="#ffffff" d="M 13.910156 21.429688 L 11.210938 21.429688 C 11.03125 21.429688 10.882812 21.285156 10.882812 21.109375 C 10.882812 20.925781 11.03125 20.78125 11.210938 20.78125 L 13.910156 20.78125 C 14.089844 20.78125 14.234375 20.925781 14.234375 21.109375 C 14.234375 21.285156 14.089844 21.429688 13.910156 21.429688 Z M 13.910156 21.429688 " fill-opacity="1" fill-rule="evenodd"/><path fill="#ffffff" d="M 13.910156 22.617188 L 11.210938 22.617188 C 11.03125 22.617188 10.882812 22.472656 10.882812 22.289062 C 10.882812 22.109375 11.03125 21.960938 11.210938 21.960938 L 13.910156 21.960938 C 14.089844 21.960938 14.234375 22.109375 14.234375 22.289062 C 14.234375 22.472656 14.089844 22.617188 13.910156 22.617188 Z M 13.910156 22.617188 " fill-opacity="1" fill-rule="evenodd"/><path fill="#ffffff" d="M 13.910156 23.800781 L 11.210938 23.800781 C 11.03125 23.800781 10.882812 23.652344 10.882812 23.472656 C 10.882812 23.296875 11.03125 23.148438 11.210938 23.148438 L 13.910156 23.148438 C 14.089844 23.148438 14.234375 23.296875 14.234375 23.472656 C 14.234375 23.652344 14.089844 23.800781 13.910156 23.800781 Z M 13.910156 23.800781 " fill-opacity="1" fill-rule="evenodd"/></svg>