<svg xmlns="http://www.w3.org/2000/svg" xmlns:xlink="http://www.w3.org/1999/xlink" width="50" zoomAndPan="magnify" viewBox="0 0 37.5 37.499999" height="50" preserveAspectRatio="xMidYMid meet" version="1.0"><defs><clipPath id="898d2f5226"><path d="M 1.628906 1.628906 L 35.378906 1.628906 L 35.378906 35.378906 L 1.628906 35.378906 Z M 1.628906 1.628906 " clip-rule="nonzero"/></clipPath><clipPath id="6caec1b156"><path d="M 18.503906 1.628906 C 9.183594 1.628906 1.628906 9.183594 1.628906 18.503906 C 1.628906 27.824219 9.183594 35.378906 18.503906 35.378906 C 27.824219 35.378906 35.378906 27.824219 35.378906 18.503906 C 35.378906 9.183594 27.824219 1.628906 18.503906 1.628906 Z M 18.503906 1.628906 " clip-rule="nonzero"/></clipPath><clipPath id="64995cd8eb"><path d="M 0.628906 0.628906 L 34.378906 0.628906 L 34.378906 34.378906 L 0.628906 34.378906 Z M 0.628906 0.628906 " clip-rule="nonzero"/></clipPath><clipPath id="b1dbea682a"><path d="M 17.503906 0.628906 C 8.183594 0.628906 0.628906 8.183594 0.628906 17.503906 C 0.628906 26.824219 8.183594 34.378906 17.503906 34.378906 C 26.824219 34.378906 34.378906 26.824219 34.378906 17.503906 C 34.378906 8.183594 26.824219 0.628906 17.503906 0.628906 Z M 17.503906 0.628906 " clip-rule="nonzero"/></clipPath><clipPath id="37b020acb5"><rect x="0" width="35" y="0" height="35"/></clipPath><clipPath id="897f6b6a6b"><path d="M 25 9.828125 L 30 9.828125 L 30 14 L 25 14 Z M 25 9.828125 " clip-rule="nonzero"/></clipPath><clipPath id="fa86c8a6ee"><path d="M 22 14 L 30 14 L 30 26.851562 L 22 26.851562 Z M 22 14 " clip-rule="nonzero"/></clipPath><clipPath id="790e39e339"><path d="M 26 16 L 31.878906 16 L 31.878906 24 L 26 24 Z M 26 16 " clip-rule="nonzero"/></clipPath><clipPath id="7dc7e2237d"><path d="M 27 22 L 29 22 L 29 26.851562 L 27 26.851562 Z M 27 22 " clip-rule="nonzero"/></clipPath><clipPath id="20ca8d9bf1"><path d="M 7 9.828125 L 12 9.828125 L 12 14 L 7 14 Z M 7 9.828125 " clip-rule="nonzero"/></clipPath><clipPath id="4977a634ce"><path d="M 5.234375 16 L 11 16 L 11 24 L 5.234375 24 Z M 5.234375 16 " clip-rule="nonzero"/></clipPath><clipPath id="9cd2d366c0"><path d="M 8 22 L 10 22 L 10 26.851562 L 8 26.851562 Z M 8 22 " clip-rule="nonzero"/></clipPath><clipPath id="0dde4872cc"><path d="M 7 26 L 11 26 L 11 26.851562 L 7 26.851562 Z M 7 26 " clip-rule="nonzero"/></clipPath><clipPath id="10b8ce4f32"><path d="M 7 14 L 15 14 L 15 26.851562 L 7 26.851562 Z M 7 14 " clip-rule="nonzero"/></clipPath><clipPath id="c0412003e3"><path d="M 5.234375 26 L 31 26 L 31 26.851562 L 5.234375 26.851562 Z M 5.234375 26 " clip-rule="nonzero"/></clipPath><clipPath id="7edd2b1900"><path d="M 18 20 L 19 20 L 19 26.851562 L 18 26.851562 Z M 18 20 " clip-rule="nonzero"/></clipPath><clipPath id="f356d48dc0"><path d="M 21 20 L 22 20 L 22 26.851562 L 21 26.851562 Z M 21 20 " clip-rule="nonzero"/></clipPath></defs><g clip-path="url(#898d2f5226)"><g clip-path="url(#6caec1b156)"><g transform="matrix(1, 0, 0, 1, 1, 1)"><g clip-path="url(#37b020acb5)"><g clip-path="url(#64995cd8eb)"><g clip-path="url(#b1dbea682a)"><path fill="#1c2b36" d="M 0.628906 0.628906 L 34.378906 0.628906 L 34.378906 34.378906 L 0.628906 34.378906 Z M 0.628906 0.628906 " fill-opacity="1" fill-rule="nonzero"/></g></g></g></g></g></g><path fill="#ffffff" d="M 24.195312 20.847656 L 16.167969 20.847656 C 15.960938 20.847656 15.792969 20.679688 15.792969 20.472656 L 15.792969 19.054688 C 15.792969 18.847656 15.960938 18.679688 16.167969 18.679688 L 24.195312 18.679688 C 24.402344 18.679688 24.570312 18.847656 24.570312 19.054688 L 24.570312 20.472656 C 24.570312 20.679688 24.402344 20.847656 24.195312 20.847656 Z M 16.546875 20.09375 L 23.816406 20.09375 L 23.816406 19.433594 L 16.546875 19.433594 Z M 16.546875 20.09375 " fill-opacity="1" fill-rule="nonzero"/><g clip-path="url(#897f6b6a6b)"><path fill="#ffffff" d="M 27.714844 13.796875 C 26.625 13.796875 25.738281 12.910156 25.738281 11.816406 C 25.738281 10.726562 26.625 9.839844 27.714844 9.839844 C 28.804688 9.839844 29.695312 10.726562 29.695312 11.816406 C 29.695312 12.910156 28.804688 13.796875 27.714844 13.796875 Z M 27.714844 10.59375 C 27.039062 10.59375 26.492188 11.140625 26.492188 11.816406 C 26.492188 12.492188 27.039062 13.042969 27.714844 13.042969 C 28.390625 13.042969 28.941406 12.492188 28.941406 11.816406 C 28.941406 11.140625 28.390625 10.59375 27.714844 10.59375 Z M 27.714844 10.59375 " fill-opacity="1" fill-rule="nonzero"/></g><path fill="#ffffff" d="M 25.839844 19.390625 C 25.757812 19.390625 25.679688 19.363281 25.613281 19.316406 C 25.519531 19.242188 25.460938 19.132812 25.460938 19.011719 L 25.460938 19.003906 C 25.460938 18.832031 25.578125 18.679688 25.742188 18.636719 C 25.796875 18.625 25.847656 18.605469 25.894531 18.578125 C 26.074219 18.476562 26.300781 18.539062 26.402344 18.714844 C 26.507812 18.894531 26.449219 19.121094 26.273438 19.226562 C 26.171875 19.292969 26.0625 19.339844 25.945312 19.375 C 25.910156 19.386719 25.875 19.390625 25.839844 19.390625 Z M 25.839844 19.390625 " fill-opacity="1" fill-rule="nonzero"/><path fill="#ffffff" d="M 29.417969 21.960938 C 29.3125 21.960938 29.214844 21.917969 29.144531 21.839844 C 29.074219 21.765625 29.039062 21.667969 29.042969 21.566406 C 29.042969 21.355469 29.210938 21.1875 29.417969 21.1875 C 29.625 21.1875 29.796875 21.355469 29.796875 21.566406 L 29.796875 21.582031 C 29.796875 21.792969 29.625 21.960938 29.417969 21.960938 Z M 29.417969 21.960938 " fill-opacity="1" fill-rule="nonzero"/><path fill="#ffffff" d="M 25.539062 19.433594 L 22.652344 19.433594 C 21.871094 19.433594 21.234375 18.796875 21.234375 18.015625 C 21.234375 17.636719 21.382812 17.28125 21.648438 17.015625 C 21.917969 16.746094 22.273438 16.601562 22.652344 16.601562 L 24.933594 16.601562 L 25.957031 15.222656 C 25.960938 15.21875 25.964844 15.214844 25.96875 15.207031 C 26.484375 14.585938 27.183594 14.558594 27.484375 14.542969 C 27.503906 14.542969 27.519531 14.542969 27.539062 14.542969 C 27.550781 14.542969 27.5625 14.542969 27.574219 14.542969 C 27.589844 14.542969 27.605469 14.539062 27.621094 14.539062 C 27.828125 14.539062 27.996094 14.710938 27.996094 14.917969 C 27.996094 15.125 27.828125 15.292969 27.621094 15.292969 C 27.609375 15.292969 27.601562 15.292969 27.59375 15.296875 C 27.589844 15.296875 27.585938 15.296875 27.582031 15.296875 L 27.574219 15.296875 C 27.558594 15.296875 27.539062 15.296875 27.515625 15.296875 C 27.265625 15.308594 26.855469 15.324219 26.554688 15.683594 L 25.425781 17.203125 C 25.351562 17.300781 25.242188 17.355469 25.121094 17.355469 L 22.652344 17.355469 C 22.472656 17.355469 22.308594 17.425781 22.183594 17.550781 C 22.058594 17.675781 21.988281 17.839844 21.988281 18.015625 C 21.988281 18.382812 22.285156 18.679688 22.652344 18.679688 L 25.539062 18.679688 C 25.582031 18.679688 25.625 18.675781 25.664062 18.667969 C 25.691406 18.65625 25.714844 18.644531 25.742188 18.640625 C 25.792969 18.625 25.839844 18.605469 25.886719 18.582031 C 25.890625 18.578125 25.894531 18.578125 25.898438 18.574219 C 25.949219 18.546875 25.996094 18.511719 26.039062 18.46875 L 27.488281 17.019531 C 27.636719 16.871094 27.875 16.871094 28.023438 17.019531 C 28.167969 17.164062 28.167969 17.402344 28.023438 17.550781 L 26.574219 19 C 26.484375 19.089844 26.382812 19.167969 26.273438 19.230469 C 26.269531 19.230469 26.265625 19.234375 26.261719 19.234375 C 26.1875 19.277344 26.105469 19.3125 26.023438 19.339844 C 26 19.355469 25.972656 19.367188 25.945312 19.375 C 25.816406 19.414062 25.679688 19.433594 25.539062 19.433594 Z M 25.539062 19.433594 " fill-opacity="1" fill-rule="nonzero"/><path fill="#ffffff" d="M 25.839844 19.390625 C 25.675781 19.390625 25.523438 19.285156 25.476562 19.121094 C 25.417969 18.921875 25.53125 18.710938 25.730469 18.652344 C 25.78125 18.636719 25.832031 18.613281 25.878906 18.585938 C 25.886719 18.582031 25.890625 18.578125 25.898438 18.574219 C 25.949219 18.546875 25.996094 18.511719 26.039062 18.46875 C 26.1875 18.320312 26.425781 18.320312 26.574219 18.46875 C 26.71875 18.613281 26.71875 18.855469 26.574219 19 C 26.484375 19.089844 26.382812 19.167969 26.273438 19.230469 C 26.171875 19.292969 26.0625 19.339844 25.945312 19.375 C 25.910156 19.386719 25.875 19.390625 25.839844 19.390625 Z M 25.839844 19.390625 " fill-opacity="1" fill-rule="nonzero"/><g clip-path="url(#fa86c8a6ee)"><path fill="#ffffff" d="M 24.195312 27.167969 C 23.800781 27.167969 23.433594 27.015625 23.152344 26.738281 C 22.875 26.457031 22.722656 26.089844 22.722656 25.695312 L 22.722656 21.566406 C 22.722656 20.753906 23.382812 20.09375 24.195312 20.09375 L 25.839844 20.09375 C 26.046875 20.09375 26.214844 20.261719 26.214844 20.472656 C 26.214844 20.679688 26.046875 20.847656 25.839844 20.847656 L 24.195312 20.847656 C 23.796875 20.847656 23.476562 21.167969 23.476562 21.566406 L 23.476562 25.695312 C 23.476562 25.886719 23.550781 26.066406 23.6875 26.203125 C 23.824219 26.339844 24.003906 26.414062 24.195312 26.414062 C 24.589844 26.414062 24.910156 26.089844 24.910156 25.695312 L 24.910156 22.660156 C 24.910156 22.453125 25.078125 22.28125 25.289062 22.28125 L 28.324219 22.28125 C 28.714844 22.28125 29.035156 21.964844 29.042969 21.578125 C 29.042969 21.574219 29.042969 21.570312 29.042969 21.566406 L 29.042969 16.707031 C 29.042969 16.328125 28.894531 15.972656 28.628906 15.707031 C 28.359375 15.441406 28.007812 15.292969 27.628906 15.292969 L 27.621094 15.292969 C 27.410156 15.292969 27.242188 15.125 27.242188 14.917969 C 27.242188 14.707031 27.410156 14.539062 27.621094 14.539062 L 27.628906 14.539062 C 28.207031 14.539062 28.753906 14.765625 29.160156 15.175781 C 29.570312 15.582031 29.796875 16.128906 29.796875 16.707031 L 29.796875 21.566406 C 29.796875 21.574219 29.796875 21.585938 29.796875 21.59375 C 29.78125 22.390625 29.121094 23.035156 28.324219 23.035156 L 25.664062 23.035156 L 25.664062 25.695312 C 25.664062 26.507812 25.003906 27.167969 24.195312 27.167969 Z M 29.042969 21.558594 C 29.042969 21.558594 29.042969 21.558594 29.042969 21.5625 C 29.042969 21.558594 29.042969 21.558594 29.042969 21.558594 Z M 29.042969 21.558594 " fill-opacity="1" fill-rule="nonzero"/></g><path fill="#ffffff" d="M 25.839844 19.390625 C 25.757812 19.390625 25.679688 19.363281 25.613281 19.316406 C 25.519531 19.242188 25.460938 19.132812 25.460938 19.011719 L 25.460938 19.003906 C 25.460938 18.832031 25.578125 18.679688 25.742188 18.636719 C 25.796875 18.625 25.847656 18.605469 25.894531 18.578125 C 26.074219 18.476562 26.300781 18.539062 26.402344 18.714844 C 26.507812 18.894531 26.449219 19.121094 26.273438 19.226562 C 26.171875 19.292969 26.0625 19.339844 25.945312 19.375 C 25.910156 19.386719 25.875 19.390625 25.839844 19.390625 Z M 25.839844 19.390625 " fill-opacity="1" fill-rule="nonzero"/><g clip-path="url(#790e39e339)"><path fill="#ffffff" d="M 29.417969 23.035156 L 26.949219 23.035156 C 26.742188 23.035156 26.570312 22.867188 26.570312 22.660156 C 26.570312 22.453125 26.742188 22.28125 26.949219 22.28125 L 29.148438 22.28125 L 30.980469 16.847656 C 31.046875 16.652344 31.261719 16.542969 31.457031 16.609375 C 31.65625 16.679688 31.761719 16.890625 31.695312 17.089844 L 29.777344 22.78125 C 29.722656 22.933594 29.582031 23.035156 29.417969 23.035156 Z M 29.417969 23.035156 " fill-opacity="1" fill-rule="nonzero"/></g><g clip-path="url(#7dc7e2237d)"><path fill="#ffffff" d="M 27.628906 27.167969 C 27.421875 27.167969 27.25 27 27.25 26.789062 L 27.25 22.660156 C 27.25 22.453125 27.421875 22.28125 27.628906 22.28125 C 27.835938 22.28125 28.007812 22.453125 28.007812 22.660156 L 28.007812 26.789062 C 28.007812 27 27.835938 27.167969 27.628906 27.167969 Z M 27.628906 27.167969 " fill-opacity="1" fill-rule="nonzero"/></g><g clip-path="url(#20ca8d9bf1)"><path fill="#ffffff" d="M 9.453125 13.796875 C 8.363281 13.796875 7.476562 12.910156 7.476562 11.816406 C 7.476562 10.726562 8.363281 9.839844 9.453125 9.839844 C 10.542969 9.839844 11.433594 10.726562 11.433594 11.816406 C 11.433594 12.910156 10.542969 13.796875 9.453125 13.796875 Z M 9.453125 10.59375 C 8.777344 10.59375 8.230469 11.140625 8.230469 11.816406 C 8.230469 12.492188 8.777344 13.042969 9.453125 13.042969 C 10.128906 13.042969 10.675781 12.492188 10.675781 11.816406 C 10.675781 11.140625 10.128906 10.59375 9.453125 10.59375 Z M 9.453125 10.59375 " fill-opacity="1" fill-rule="nonzero"/></g><g clip-path="url(#4977a634ce)"><path fill="#ffffff" d="M 10.046875 23.035156 L 7.578125 23.035156 C 7.414062 23.035156 7.269531 22.933594 7.21875 22.78125 L 5.300781 17.089844 C 5.234375 16.890625 5.339844 16.675781 5.535156 16.609375 C 5.734375 16.542969 5.949219 16.652344 6.015625 16.847656 L 7.847656 22.28125 L 10.046875 22.28125 C 10.253906 22.28125 10.421875 22.453125 10.421875 22.660156 C 10.421875 22.867188 10.253906 23.035156 10.046875 23.035156 Z M 10.046875 23.035156 " fill-opacity="1" fill-rule="nonzero"/></g><g clip-path="url(#9cd2d366c0)"><path fill="#ffffff" d="M 9.367188 27.167969 C 9.160156 27.167969 8.988281 27 8.988281 26.789062 L 8.988281 22.660156 C 8.988281 22.453125 9.160156 22.28125 9.367188 22.28125 C 9.574219 22.28125 9.742188 22.453125 9.742188 22.660156 L 9.742188 26.789062 C 9.742188 27 9.574219 27.167969 9.367188 27.167969 Z M 9.367188 27.167969 " fill-opacity="1" fill-rule="nonzero"/></g><g clip-path="url(#0dde4872cc)"><path fill="#ffffff" d="M 10.617188 27.167969 L 8.117188 27.167969 C 7.910156 27.167969 7.738281 27 7.738281 26.789062 C 7.738281 26.582031 7.910156 26.414062 8.117188 26.414062 L 10.617188 26.414062 C 10.824219 26.414062 10.992188 26.582031 10.992188 26.789062 C 10.992188 27 10.824219 27.167969 10.617188 27.167969 Z M 10.617188 27.167969 " fill-opacity="1" fill-rule="nonzero"/></g><path fill="#ffffff" d="M 22.164062 17.476562 C 22.023438 17.476562 21.890625 17.398438 21.824219 17.265625 L 20.507812 14.601562 C 20.417969 14.417969 20.492188 14.191406 20.679688 14.097656 C 20.867188 14.003906 21.09375 14.082031 21.183594 14.269531 L 22.5 16.933594 C 22.59375 17.117188 22.519531 17.34375 22.332031 17.4375 C 22.277344 17.464844 22.21875 17.476562 22.164062 17.476562 Z M 22.164062 17.476562 " fill-opacity="1" fill-rule="nonzero"/><g clip-path="url(#10b8ce4f32)"><path fill="#ffffff" d="M 12.800781 27.167969 C 11.992188 27.167969 11.332031 26.507812 11.332031 25.695312 L 11.332031 23.035156 L 8.671875 23.035156 C 7.875 23.035156 7.214844 22.390625 7.199219 21.59375 C 7.199219 21.585938 7.199219 21.574219 7.199219 21.566406 L 7.199219 16.707031 C 7.199219 16.128906 7.425781 15.582031 7.835938 15.175781 C 8.242188 14.765625 8.789062 14.539062 9.367188 14.539062 L 9.375 14.539062 C 9.457031 14.539062 10.167969 14.546875 10.632812 14.839844 L 10.644531 14.847656 C 10.882812 14.996094 11.515625 15.394531 11.636719 16.234375 C 11.636719 16.242188 11.636719 16.25 11.636719 16.253906 L 11.792969 17.964844 L 13.738281 19.15625 C 14.058594 19.351562 14.285156 19.664062 14.375 20.03125 C 14.464844 20.398438 14.402344 20.78125 14.207031 21.101562 C 14.203125 21.105469 14.203125 21.105469 14.199219 21.109375 C 14.25 21.257812 14.273438 21.410156 14.273438 21.566406 L 14.273438 25.695312 C 14.273438 26.089844 14.121094 26.457031 13.84375 26.734375 C 13.5625 27.015625 13.195312 27.167969 12.800781 27.167969 Z M 7.953125 21.558594 C 7.953125 21.566406 7.953125 21.570312 7.953125 21.578125 C 7.960938 21.964844 8.28125 22.28125 8.671875 22.28125 L 11.707031 22.28125 C 11.914062 22.28125 12.085938 22.453125 12.085938 22.660156 L 12.085938 25.695312 C 12.085938 26.09375 12.40625 26.414062 12.800781 26.414062 C 12.992188 26.414062 13.171875 26.339844 13.308594 26.203125 C 13.445312 26.066406 13.519531 25.886719 13.519531 25.695312 L 13.519531 21.679688 C 13.457031 21.707031 13.394531 21.726562 13.328125 21.742188 C 12.960938 21.828125 12.582031 21.769531 12.257812 21.570312 L 9.792969 20.0625 C 9.675781 19.992188 9.570312 19.902344 9.476562 19.800781 C 9.460938 19.777344 9.445312 19.757812 9.429688 19.730469 C 9.375 19.664062 9.324219 19.59375 9.28125 19.515625 C 9.277344 19.511719 9.277344 19.507812 9.273438 19.503906 C 9.214844 19.394531 9.167969 19.277344 9.140625 19.15625 L 8.660156 17.160156 C 8.609375 16.957031 8.734375 16.753906 8.9375 16.707031 C 9.140625 16.65625 9.34375 16.78125 9.390625 16.984375 L 9.871094 18.976562 C 9.886719 19.039062 9.910156 19.09375 9.9375 19.144531 C 9.9375 19.148438 9.941406 19.152344 9.941406 19.15625 C 9.96875 19.199219 10 19.242188 10.035156 19.277344 C 10.054688 19.300781 10.070312 19.320312 10.085938 19.34375 C 10.117188 19.371094 10.152344 19.398438 10.1875 19.421875 L 12.652344 20.929688 C 12.800781 21.019531 12.980469 21.050781 13.152344 21.007812 C 13.28125 20.976562 13.394531 20.910156 13.480469 20.816406 C 13.484375 20.808594 13.492188 20.800781 13.496094 20.796875 C 13.519531 20.769531 13.542969 20.738281 13.5625 20.710938 C 13.652344 20.558594 13.683594 20.378906 13.640625 20.207031 C 13.597656 20.035156 13.492188 19.890625 13.34375 19.796875 L 11.234375 18.507812 C 11.132812 18.445312 11.066406 18.339844 11.054688 18.222656 L 10.886719 16.332031 C 10.8125 15.84375 10.441406 15.613281 10.242188 15.488281 L 10.230469 15.476562 C 10.019531 15.34375 9.59375 15.292969 9.375 15.292969 L 9.367188 15.292969 C 8.988281 15.292969 8.632812 15.441406 8.367188 15.707031 C 8.097656 15.976562 7.953125 16.328125 7.953125 16.707031 L 7.953125 21.566406 C 7.953125 21.566406 7.953125 21.5625 7.953125 21.558594 Z M 7.953125 21.558594 " fill-opacity="1" fill-rule="nonzero"/></g><g clip-path="url(#c0412003e3)"><path fill="#ffffff" d="M 30.492188 27.167969 L 6.355469 27.167969 C 6.148438 27.167969 5.980469 27 5.980469 26.789062 C 5.980469 26.582031 6.148438 26.414062 6.355469 26.414062 L 30.492188 26.414062 C 30.699219 26.414062 30.867188 26.582031 30.867188 26.789062 C 30.867188 27 30.699219 27.167969 30.492188 27.167969 Z M 30.492188 27.167969 " fill-opacity="1" fill-rule="nonzero"/></g><g clip-path="url(#7edd2b1900)"><path fill="#ffffff" d="M 18.425781 27.167969 C 18.214844 27.167969 18.046875 27 18.046875 26.789062 L 18.046875 20.472656 C 18.046875 20.261719 18.214844 20.09375 18.425781 20.09375 C 18.632812 20.09375 18.800781 20.261719 18.800781 20.472656 L 18.800781 26.789062 C 18.800781 27 18.632812 27.167969 18.425781 27.167969 Z M 18.425781 27.167969 " fill-opacity="1" fill-rule="nonzero"/></g><g clip-path="url(#f356d48dc0)"><path fill="#ffffff" d="M 21.503906 27.167969 C 21.296875 27.167969 21.128906 27 21.128906 26.789062 L 21.128906 20.472656 C 21.128906 20.261719 21.296875 20.09375 21.503906 20.09375 C 21.714844 20.09375 21.882812 20.261719 21.882812 20.472656 L 21.882812 26.789062 C 21.882812 27 21.714844 27.167969 21.503906 27.167969 Z M 21.503906 27.167969 " fill-opacity="1" fill-rule="nonzero"/></g></svg>