<svg xmlns="http://www.w3.org/2000/svg" xmlns:xlink="http://www.w3.org/1999/xlink" width="50" zoomAndPan="magnify" viewBox="0 0 37.5 37.499999" height="50" preserveAspectRatio="xMidYMid meet" version="1.0"><defs><clipPath id="cd9af30088"><path d="M 1.628906 1.628906 L 35.378906 1.628906 L 35.378906 35.378906 L 1.628906 35.378906 Z M 1.628906 1.628906 " clip-rule="nonzero"/></clipPath><clipPath id="7453c40438"><path d="M 18.503906 1.628906 C 9.183594 1.628906 1.628906 9.183594 1.628906 18.503906 C 1.628906 27.824219 9.183594 35.378906 18.503906 35.378906 C 27.824219 35.378906 35.378906 27.824219 35.378906 18.503906 C 35.378906 9.183594 27.824219 1.628906 18.503906 1.628906 Z M 18.503906 1.628906 " clip-rule="nonzero"/></clipPath><clipPath id="818b270cd1"><path d="M 0.628906 0.628906 L 34.378906 0.628906 L 34.378906 34.378906 L 0.628906 34.378906 Z M 0.628906 0.628906 " clip-rule="nonzero"/></clipPath><clipPath id="88ef53e142"><path d="M 17.503906 0.628906 C 8.183594 0.628906 0.628906 8.183594 0.628906 17.503906 C 0.628906 26.824219 8.183594 34.378906 17.503906 34.378906 C 26.824219 34.378906 34.378906 26.824219 34.378906 17.503906 C 34.378906 8.183594 26.824219 0.628906 17.503906 0.628906 Z M 17.503906 0.628906 " clip-rule="nonzero"/></clipPath><clipPath id="83bf132fd0"><rect x="0" width="35" y="0" height="35"/></clipPath><clipPath id="7c837df452"><path d="M 6.601562 12 L 30.285156 12 L 30.285156 29.316406 L 6.601562 29.316406 Z M 6.601562 12 " clip-rule="nonzero"/></clipPath><clipPath id="f4ea23cc2a"><path d="M 21 7.851562 L 29 7.851562 L 29 13 L 21 13 Z M 21 7.851562 " clip-rule="nonzero"/></clipPath></defs><g clip-path="url(#cd9af30088)"><g clip-path="url(#7453c40438)"><g transform="matrix(1, 0, 0, 1, 1, 1)"><g clip-path="url(#83bf132fd0)"><g clip-path="url(#818b270cd1)"><g clip-path="url(#88ef53e142)"><path fill="#1c2b36" d="M 0.628906 0.628906 L 34.378906 0.628906 L 34.378906 34.378906 L 0.628906 34.378906 Z M 0.628906 0.628906 " fill-opacity="1" fill-rule="nonzero"/></g></g></g></g></g></g><g clip-path="url(#7c837df452)"><path fill="#ffffff" d="M 6.726562 29.152344 C 7.019531 27.714844 7.925781 26.503906 8.472656 25.167969 C 8.585938 24.882812 8.75 24.480469 8.820312 24.191406 C 8.878906 23.929688 8.875 23.671875 8.953125 23.402344 C 8.980469 23.296875 9.132812 22.972656 9.136719 22.929688 C 9.136719 22.890625 9.097656 22.765625 9.085938 22.722656 C 9.023438 22.515625 8.703125 22.042969 8.570312 21.839844 C 8.042969 21.03125 7.328125 20.375 6.613281 19.734375 C 6.601562 19.683594 6.984375 19.226562 7.046875 19.15625 C 7.273438 18.90625 7.792969 18.523438 7.894531 18.230469 C 7.929688 18.125 7.910156 18.058594 7.992188 17.953125 C 8.089844 17.824219 8.691406 17.519531 8.710938 17.464844 C 8.726562 17.414062 8.652344 17.257812 8.644531 17.183594 C 8.632812 17.0625 8.660156 16.925781 8.636719 16.8125 C 8.621094 16.726562 8.511719 16.574219 8.472656 16.480469 C 8.398438 16.304688 8.335938 16.128906 8.265625 15.953125 C 8.269531 15.917969 8.519531 15.875 8.570312 15.871094 C 8.554688 15.53125 8.613281 15.132812 8.519531 14.804688 C 8.457031 14.589844 7.941406 14.070312 7.78125 13.863281 C 7.734375 13.800781 7.535156 13.4375 7.726562 13.488281 C 7.800781 13.507812 7.933594 13.78125 8.027344 13.816406 C 7.976562 13.636719 7.617188 13.316406 7.648438 13.144531 C 7.660156 13.074219 7.738281 13.0625 7.792969 13.097656 C 7.855469 13.132812 8.039062 13.5 8.144531 13.558594 C 8.109375 13.335938 7.828125 13.070312 7.777344 12.871094 C 7.757812 12.796875 7.835938 12.769531 7.898438 12.777344 C 8.027344 12.792969 8.214844 13.285156 8.335938 13.367188 C 8.308594 13.207031 8.140625 12.984375 8.128906 12.832031 C 8.125 12.777344 8.164062 12.726562 8.21875 12.742188 C 8.339844 12.773438 8.542969 13.238281 8.632812 13.367188 C 8.671875 13.417969 8.847656 13.632812 8.894531 13.648438 C 9.03125 13.6875 8.945312 13.410156 8.949219 13.332031 C 8.953125 13.207031 9.050781 12.988281 9.167969 13.136719 C 9.183594 13.363281 9.28125 13.613281 9.304688 13.828125 C 9.339844 14.1875 9.214844 14.53125 9.230469 14.894531 C 9.238281 15.003906 9.308594 15.660156 9.375 15.695312 C 9.414062 15.71875 9.480469 15.699219 9.492188 15.707031 C 9.523438 15.738281 9.597656 16.460938 9.617188 16.5625 C 9.984375 17.101562 9.898438 18.464844 10.261719 18.894531 C 10.3125 18.957031 10.417969 18.964844 10.390625 19.085938 C 10.703125 18.851562 10.816406 18.480469 11.148438 18.25 C 12.074219 17.609375 13.085938 18.257812 13.15625 19.3125 C 13.183594 19.707031 13 20.160156 13.253906 20.511719 C 13.308594 20.585938 13.367188 20.632812 13.441406 20.683594 L 13.226562 20.683594 C 13.308594 20.886719 13.421875 21.109375 13.652344 21.167969 C 13.65625 21.203125 13.574219 21.207031 13.550781 21.203125 C 13.492188 21.203125 13.421875 21.1875 13.371094 21.167969 C 13.347656 21.195312 13.542969 21.554688 13.652344 21.519531 C 13.621094 21.628906 13.40625 21.507812 13.367188 21.542969 C 13.371094 21.613281 13.359375 21.691406 13.378906 21.757812 C 13.425781 21.902344 13.542969 21.898438 13.644531 21.964844 C 13.699219 21.996094 13.933594 22.195312 13.984375 22.242188 C 14.40625 22.640625 14.449219 23.515625 14.644531 24.0625 C 14.800781 24.5 15.066406 24.839844 15.21875 25.285156 C 15.382812 25.769531 15.464844 26.296875 15.71875 26.742188 C 15.894531 25.15625 16.132812 23.574219 16.457031 22.007812 L 15.636719 20.589844 C 15.191406 20.183594 14.703125 19.84375 14.34375 19.355469 C 14.167969 19.117188 14.035156 18.839844 13.859375 18.605469 C 13.773438 18.488281 13.667969 18.390625 13.582031 18.273438 C 13.988281 18.019531 14.066406 17.515625 14.410156 17.207031 C 14.644531 16.996094 14.859375 16.960938 15.109375 16.824219 C 15.171875 16.789062 15.230469 16.722656 15.300781 16.679688 C 15.363281 16.644531 15.585938 16.554688 15.617188 16.519531 C 15.730469 16.375 15.585938 16.183594 15.589844 16.027344 C 15.59375 15.898438 15.691406 15.734375 15.707031 15.597656 C 15.722656 15.457031 15.675781 15.140625 15.710938 15.039062 C 15.734375 14.96875 15.941406 14.976562 15.992188 14.9375 C 16.003906 14.929688 16.082031 14.753906 16.085938 14.726562 C 16.140625 14.371094 16.027344 14.039062 15.992188 13.707031 C 15.976562 13.53125 16.085938 13.5 16.152344 13.351562 C 16.203125 13.242188 16.21875 13.125 16.265625 13.011719 C 16.289062 12.949219 16.46875 12.597656 16.5 12.5625 C 16.550781 12.503906 16.640625 12.464844 16.667969 12.5625 C 16.730469 12.789062 16.582031 12.894531 16.546875 13.082031 C 16.527344 13.183594 16.539062 13.289062 16.511719 13.390625 C 16.601562 13.359375 16.804688 13.34375 16.878906 13.390625 C 16.96875 13.441406 16.964844 13.589844 16.996094 13.671875 C 17.007812 13.699219 17.050781 13.722656 17.066406 13.769531 C 17.105469 13.875 17.089844 14.101562 17.011719 14.183594 C 16.957031 14.238281 16.875 14.210938 16.867188 14.21875 C 16.855469 14.226562 16.863281 14.425781 16.835938 14.507812 C 16.8125 14.578125 16.742188 14.636719 16.730469 14.683594 C 16.679688 14.875 16.703125 15.320312 16.675781 15.550781 C 16.671875 15.59375 16.636719 15.628906 16.632812 15.652344 C 16.628906 15.679688 16.746094 15.792969 16.746094 15.886719 C 16.75 15.972656 16.621094 16.117188 16.675781 16.167969 C 16.703125 16.191406 16.769531 16.199219 16.773438 16.203125 C 16.800781 16.242188 16.59375 16.445312 16.796875 16.441406 L 16.699219 16.675781 C 16.722656 16.679688 16.816406 16.695312 16.820312 16.699219 C 16.828125 16.710938 16.746094 16.953125 16.722656 16.996094 C 16.929688 17.035156 16.761719 17.335938 16.773438 17.46875 C 16.777344 17.507812 16.875 17.628906 16.902344 17.691406 C 16.945312 17.800781 16.960938 17.921875 17.011719 18.03125 C 17.042969 18.097656 17.121094 18.179688 17.140625 18.234375 C 17.167969 18.328125 17.128906 18.421875 17.167969 18.511719 C 17.199219 18.59375 17.421875 18.707031 17.292969 18.742188 C 17.472656 18.863281 17.40625 19.015625 17.433594 19.167969 C 17.46875 19.351562 17.808594 19.277344 17.9375 19.304688 C 18.179688 19.355469 18.304688 19.664062 18.308594 19.890625 L 18.34375 19.699219 C 18.351562 19.660156 18.402344 19.632812 18.414062 19.605469 C 18.460938 19.503906 18.214844 19.179688 18.214844 19.039062 C 17.988281 19.144531 17.964844 18.707031 18.113281 18.601562 L 18.082031 18.046875 L 17.101562 17.160156 L 19.226562 16.09375 L 21.238281 17.917969 C 21.09375 18.039062 20.09375 18.386719 20.042969 18.472656 C 19.972656 18.59375 20.085938 18.617188 20.109375 18.667969 C 20.164062 18.777344 20.160156 19.0625 20.035156 19.121094 C 20.011719 19.128906 19.984375 19.105469 19.953125 19.132812 C 19.832031 19.242188 19.792969 19.703125 19.820312 19.855469 C 19.839844 19.957031 20.011719 20.175781 20.03125 20.304688 C 20.285156 20.253906 20.527344 20.316406 20.695312 20.515625 C 20.746094 20.578125 20.773438 20.667969 20.824219 20.71875 C 20.972656 20.867188 21.277344 21.003906 21.453125 21.15625 C 21.761719 21.421875 21.789062 21.691406 21.882812 22.070312 C 22.023438 22.628906 22.28125 23.527344 22.34375 24.066406 C 22.394531 24.527344 22.359375 25.007812 22.421875 25.476562 C 22.472656 25.832031 22.582031 26.144531 22.679688 26.484375 C 22.71875 26.476562 22.726562 26.394531 22.734375 26.363281 C 22.9375 25.566406 23.09375 24.761719 23.292969 23.964844 C 23.296875 23.320312 23.273438 22.671875 23.359375 22.03125 C 22.976562 21.589844 22.726562 21.070312 22.4375 20.570312 C 22.371094 20.449219 22.265625 20.351562 22.195312 20.222656 C 22.113281 20.074219 22.066406 19.898438 21.980469 19.75 C 21.84375 19.511719 21.636719 19.355469 21.480469 19.140625 C 21.398438 19.035156 21.160156 18.664062 21.148438 18.550781 C 21.128906 18.339844 21.625 17.601562 21.773438 17.410156 C 21.835938 17.328125 22.011719 17.183594 22.019531 17.089844 C 22.027344 17 21.980469 16.875 21.972656 16.78125 C 21.964844 16.675781 21.980469 16.5625 21.96875 16.453125 C 21.953125 16.324219 21.871094 16.191406 21.855469 16.070312 C 21.816406 15.785156 21.921875 15.5 21.828125 15.222656 L 22.066406 15.1875 C 21.980469 15.074219 22.050781 14.921875 22.039062 14.824219 C 22.023438 14.726562 21.800781 14.4375 21.746094 14.3125 C 21.6875 14.175781 21.570312 13.859375 21.535156 13.722656 C 21.519531 13.667969 21.496094 13.578125 21.5 13.523438 C 21.503906 13.441406 21.5625 13.441406 21.570312 13.421875 C 21.582031 13.363281 21.566406 13.265625 21.621094 13.207031 C 21.710938 13.125 21.765625 13.269531 21.792969 13.269531 C 21.808594 13.265625 21.828125 13.234375 21.847656 13.230469 C 21.976562 13.207031 22.246094 14.089844 22.539062 14.027344 C 22.53125 13.929688 22.542969 13.71875 22.667969 13.699219 C 22.835938 13.671875 22.761719 13.902344 22.773438 14.015625 C 22.789062 14.144531 22.828125 14.234375 22.824219 14.371094 C 22.816406 14.523438 22.746094 14.664062 22.730469 14.800781 C 22.699219 15.054688 22.859375 15.488281 22.890625 15.769531 C 22.898438 15.84375 22.871094 15.90625 22.875 15.953125 C 22.878906 15.996094 22.941406 16.03125 22.941406 16.074219 C 22.9375 16.109375 22.890625 16.136719 22.894531 16.164062 C 22.898438 16.1875 22.992188 16.253906 23.015625 16.304688 C 23.058594 16.390625 23.046875 16.503906 23.082031 16.59375 C 23.144531 16.78125 23.308594 17.015625 23.382812 17.214844 C 23.480469 17.472656 23.5 17.777344 23.589844 18.023438 C 23.632812 18.132812 23.730469 18.222656 23.777344 18.332031 C 23.839844 18.457031 24.078125 19.265625 24.125 19.292969 C 24.140625 19.304688 24.28125 19.316406 24.332031 19.335938 C 24.582031 19.421875 24.902344 19.664062 24.855469 19.960938 C 24.910156 19.949219 24.9375 19.933594 24.996094 19.945312 C 25.09375 19.96875 25.078125 20.042969 25.160156 20.054688 C 25.171875 19.835938 25.371094 19.882812 25.394531 19.664062 C 25.417969 19.46875 25.304688 19.34375 25.28125 19.15625 C 25.183594 19.21875 25.164062 19.144531 25.128906 19.058594 C 25.09375 18.957031 25.097656 18.804688 25.042969 18.71875 C 24.957031 18.574219 24.550781 18.238281 24.40625 18.082031 C 24.363281 18.039062 24.09375 17.75 24.097656 17.726562 L 26.34375 16.371094 L 27.878906 18.023438 C 27.910156 17.90625 27.910156 17.785156 27.9375 17.667969 C 27.988281 17.441406 28.058594 17.105469 28.132812 16.894531 C 28.183594 16.746094 28.28125 16.65625 28.332031 16.527344 C 28.46875 16.183594 28.410156 15.519531 28.421875 15.128906 C 28.421875 15.078125 28.460938 15.054688 28.464844 15.015625 C 28.464844 14.988281 28.433594 14.777344 28.421875 14.757812 C 28.410156 14.730469 28.324219 14.6875 28.285156 14.628906 C 28.242188 14.5625 28.105469 14.269531 28.082031 14.195312 C 28.011719 13.984375 28 13.738281 27.929688 13.527344 C 28.140625 13.320312 28.210938 13.734375 28.269531 13.839844 C 28.386719 14.042969 28.464844 13.714844 28.488281 13.609375 C 28.511719 13.480469 28.527344 12.898438 28.585938 12.859375 C 28.675781 12.804688 28.730469 12.964844 28.730469 13.023438 L 28.730469 13.4375 C 28.761719 13.445312 28.765625 13.398438 28.769531 13.375 C 28.796875 13.253906 28.789062 12.785156 28.910156 12.757812 C 28.9375 12.75 29.007812 12.765625 29.015625 12.792969 C 29.058594 12.972656 28.941406 13.3125 28.964844 13.507812 L 29.109375 12.96875 C 29.175781 12.960938 29.234375 12.949219 29.25 13.023438 C 29.285156 13.222656 29.183594 13.5 29.15625 13.699219 C 29.246094 13.667969 29.257812 13.335938 29.273438 13.320312 C 29.28125 13.316406 29.359375 13.316406 29.375 13.320312 C 29.429688 13.332031 29.417969 13.558594 29.410156 13.609375 C 29.359375 13.925781 29.148438 14.339844 29.09375 14.667969 C 29.082031 14.753906 29.09375 15.050781 29.144531 15.117188 C 29.179688 15.164062 29.375 15.164062 29.4375 15.164062 C 29.421875 15.460938 29.347656 15.746094 29.367188 16.050781 C 29.394531 16.410156 29.390625 16.539062 29.367188 16.902344 C 29.359375 17.019531 29.332031 17.347656 29.347656 17.441406 C 29.359375 17.527344 29.550781 17.761719 29.617188 17.835938 C 29.753906 17.992188 30.402344 18.546875 30.382812 18.71875 C 30.257812 18.890625 30.207031 19.15625 30.085938 19.320312 C 30.007812 19.429688 29.871094 19.5 29.78125 19.605469 C 29.683594 19.722656 29.488281 20.117188 29.425781 20.269531 C 29.300781 20.582031 29.300781 20.863281 29.039062 21.132812 C 29 21.171875 28.917969 21.195312 28.894531 21.230469 C 28.816406 21.347656 28.722656 21.832031 28.730469 21.984375 C 28.761719 22.964844 28.855469 23.953125 28.894531 24.933594 C 28.917969 25.484375 29.007812 26.234375 28.863281 26.75 C 28.707031 27.324219 28.457031 27.710938 28.421875 28.359375 C 28.40625 28.628906 28.472656 28.890625 28.421875 29.152344 L 21.949219 29.152344 L 22.492188 27.191406 C 22.058594 27.421875 21.546875 27.367188 21.085938 27.5 C 20.964844 27.789062 20.96875 28.105469 20.765625 28.363281 C 20.703125 28.441406 20.527344 28.558594 20.496094 28.613281 C 20.421875 28.742188 20.410156 29.007812 20.339844 29.152344 L 15.542969 29.152344 C 15.550781 28.847656 15.546875 28.523438 15.589844 28.21875 C 15.59375 28.183594 15.59375 28.179688 15.554688 28.183594 C 15.472656 28.199219 15.28125 28.300781 15.195312 28.347656 C 14.710938 28.601562 14.285156 29.046875 13.675781 28.894531 L 13.652344 29.152344 Z M 27.785156 18.402344 L 27.074219 18.730469 C 27.242188 18.828125 27.171875 19.03125 27.105469 19.171875 C 27.042969 19.296875 26.992188 19.375 26.863281 19.300781 C 26.804688 19.527344 26.648438 19.691406 26.769531 19.9375 C 26.890625 19.925781 26.855469 19.777344 26.898438 19.675781 C 26.992188 19.460938 27.25 19.492188 27.417969 19.394531 C 27.574219 19.308594 27.632812 19.078125 27.832031 19.0625 C 27.773438 18.90625 27.691406 18.761719 27.71875 18.585938 C 27.730469 18.515625 27.777344 18.46875 27.785156 18.402344 Z M 27.785156 18.402344 " fill-opacity="1" fill-rule="nonzero"/></g><path fill="#ffffff" d="M 15.070312 9.703125 C 15.074219 9.707031 15.144531 9.707031 15.183594 9.722656 C 15.324219 9.789062 15.410156 9.917969 15.574219 9.96875 C 15.804688 10.039062 16.117188 10.050781 16.351562 10.011719 C 16.425781 10.097656 16.480469 10.109375 16.359375 10.179688 L 16.0625 10.246094 C 16.234375 10.269531 16.410156 10.230469 16.570312 10.222656 C 16.832031 10.210938 16.53125 10.417969 16.503906 10.484375 C 16.484375 10.535156 16.542969 10.59375 16.441406 10.601562 C 16.429688 10.640625 16.476562 10.621094 16.484375 10.628906 C 16.535156 10.703125 16.425781 10.707031 16.371094 10.722656 L 16.394531 10.769531 L 15.945312 10.648438 L 16.179688 10.78125 L 16.226562 10.863281 C 15.84375 10.730469 15.0625 10.300781 14.9375 9.894531 C 14.929688 9.863281 14.933594 9.78125 14.925781 9.777344 C 14.914062 9.765625 14.835938 9.796875 14.777344 9.703125 C 14.707031 9.589844 14.800781 9.558594 14.761719 9.484375 L 14.421875 9.113281 L 13.890625 9.835938 C 14.175781 10.0625 14.441406 10.371094 14.609375 10.695312 C 14.695312 10.863281 14.765625 10.960938 14.714844 11.15625 C 14.550781 11.789062 13.402344 12.242188 12.816406 12.347656 C 12.601562 12.070312 12.34375 11.820312 12.152344 11.523438 C 12.121094 11.46875 12.042969 11.257812 11.988281 11.265625 L 10.4375 12.234375 C 10.421875 12.128906 10.414062 12.101562 10.464844 12.011719 C 10.894531 11.28125 11.558594 10.578125 11.996094 9.839844 C 12.925781 9.3125 13.886719 8.847656 14.824219 8.335938 C 14.910156 8.355469 14.921875 8.421875 14.890625 8.496094 C 14.859375 8.589844 14.480469 8.980469 14.484375 9.027344 C 14.511719 9.085938 14.554688 9.144531 14.597656 9.195312 C 14.625 9.230469 14.808594 9.4375 14.820312 9.445312 C 14.867188 9.476562 14.902344 9.441406 14.953125 9.453125 C 15.113281 9.496094 15.058594 9.691406 15.070312 9.703125 Z M 15.070312 9.703125 " fill-opacity="1" fill-rule="nonzero"/><g clip-path="url(#f4ea23cc2a)"><path fill="#ffffff" d="M 28.042969 11.359375 C 28.023438 11.4375 27.949219 11.414062 27.996094 11.5 C 27.90625 11.476562 27.90625 11.539062 27.871094 11.5625 C 27.851562 11.578125 27.820312 11.574219 27.796875 11.597656 C 27.792969 11.601562 27.71875 11.71875 27.71875 11.726562 C 27.71875 11.738281 27.777344 11.785156 27.761719 11.808594 C 27.753906 11.816406 27.660156 11.820312 27.648438 11.835938 C 27.632812 11.855469 27.648438 11.890625 27.640625 11.902344 C 27.640625 11.90625 27.5625 11.875 27.539062 11.878906 C 27.519531 11.882812 27.527344 11.917969 27.519531 11.921875 C 27.507812 11.933594 27.253906 11.804688 27.207031 11.78125 C 27.097656 11.722656 27 11.640625 26.886719 11.59375 C 26.910156 11.683594 27.429688 11.945312 27.359375 12.019531 C 27.296875 12.007812 27.234375 11.960938 27.179688 11.925781 C 26.828125 11.707031 26.269531 11.234375 26.203125 10.800781 C 26.191406 10.734375 26.214844 10.648438 26.203125 10.59375 C 26.191406 10.558594 26.050781 10.554688 26.082031 10.378906 C 26.089844 10.335938 26.128906 10.316406 26.128906 10.261719 C 26.128906 10.21875 25.988281 9.691406 25.964844 9.667969 C 25.949219 9.648438 25.933594 9.636719 25.90625 9.632812 L 25.136719 9.5625 C 25.117188 9.894531 24.828125 10.710938 24.507812 10.835938 C 23.992188 11.035156 23.203125 10.542969 22.808594 10.222656 C 22.671875 10.113281 22.539062 9.988281 22.421875 9.851562 L 22.90625 8.734375 L 21.546875 7.96875 C 21.488281 7.921875 21.648438 7.863281 21.675781 7.863281 C 21.839844 7.851562 22.152344 7.917969 22.335938 7.933594 C 23.058594 7.980469 23.785156 7.996094 24.5 8.085938 L 27.007812 9.597656 C 27.0625 9.671875 27 9.71875 26.921875 9.730469 C 26.789062 9.746094 26.09375 9.628906 26.058594 9.65625 C 26.09375 9.753906 26.167969 10.222656 26.226562 10.257812 C 26.261719 10.285156 26.328125 10.265625 26.367188 10.3125 C 26.460938 10.421875 26.359375 10.542969 26.367188 10.554688 C 26.371094 10.558594 26.460938 10.597656 26.496094 10.625 C 26.671875 10.78125 26.738281 10.902344 26.980469 10.992188 C 27.351562 11.125 27.800781 11.113281 28.1875 11.097656 C 28.179688 11.144531 28.105469 11.121094 28.0625 11.144531 C 28.042969 11.15625 28.039062 11.195312 28.003906 11.210938 C 27.871094 11.273438 27.574219 11.296875 27.429688 11.265625 C 27.425781 11.296875 27.472656 11.296875 27.496094 11.304688 C 27.53125 11.316406 27.683594 11.359375 27.703125 11.359375 Z M 28.042969 11.359375 " fill-opacity="1" fill-rule="nonzero"/></g><path fill="#ffffff" d="M 21.042969 11 C 20.96875 11.074219 20.253906 10.953125 20.105469 10.957031 C 20.117188 11.121094 20.015625 11.484375 20.070312 11.617188 C 20.082031 11.644531 20.128906 11.671875 20.140625 11.710938 C 20.1875 11.855469 20.035156 11.929688 20.03125 11.941406 C 20.023438 12 20.132812 12.457031 20.171875 12.53125 C 20.277344 12.75 20.476562 12.878906 20.578125 13.082031 L 20.457031 13.097656 L 20.789062 13.308594 C 20.710938 13.394531 20.730469 13.316406 20.703125 13.296875 C 20.5625 13.207031 20.417969 13.125 20.292969 13.011719 C 20.257812 13.054688 20.597656 13.414062 20.695312 13.390625 C 20.671875 13.445312 20.597656 13.417969 20.648438 13.484375 C 20.535156 13.488281 20.3125 13.460938 20.269531 13.578125 C 20.230469 13.59375 20.257812 13.519531 20.234375 13.53125 C 20.214844 13.542969 20.199219 13.582031 20.199219 13.605469 L 20.117188 13.53125 L 20.09375 13.582031 L 19.980469 13.40625 L 19.890625 13.179688 C 19.882812 13.265625 19.9375 13.34375 19.9375 13.425781 C 19.941406 13.449219 19.929688 13.535156 19.890625 13.53125 C 19.769531 13.121094 19.597656 12.496094 19.75 12.078125 C 19.769531 12.019531 19.832031 11.949219 19.839844 11.910156 C 19.851562 11.828125 19.765625 11.738281 19.867188 11.652344 C 19.894531 11.625 19.941406 11.625 19.957031 11.613281 C 20 11.570312 20.003906 11.054688 20.011719 10.957031 L 19.183594 10.898438 C 19.15625 11.039062 19.140625 11.171875 19.105469 11.316406 C 19.011719 11.671875 18.804688 12.207031 18.386719 12.253906 C 17.722656 12.332031 16.90625 11.730469 16.46875 11.269531 L 16.769531 10.539062 L 17.007812 10.105469 L 15.449219 9.292969 C 15.492188 9.25 15.5625 9.210938 15.625 9.207031 C 15.765625 9.199219 15.996094 9.25 16.144531 9.253906 C 16.914062 9.292969 17.683594 9.316406 18.453125 9.359375 C 19.332031 9.820312 20.167969 10.371094 21.035156 10.867188 C 21.089844 10.886719 21.078125 10.964844 21.042969 11 Z M 21.042969 11 " fill-opacity="1" fill-rule="nonzero"/></svg>