<svg xmlns="http://www.w3.org/2000/svg" xmlns:xlink="http://www.w3.org/1999/xlink" width="50" zoomAndPan="magnify" viewBox="0 0 37.5 37.499999" height="50" preserveAspectRatio="xMidYMid meet" version="1.0"><defs><clipPath id="fe7e318587"><path d="M 1.628906 1.628906 L 35.378906 1.628906 L 35.378906 35.378906 L 1.628906 35.378906 Z M 1.628906 1.628906 " clip-rule="nonzero"/></clipPath><clipPath id="aa67aa2776"><path d="M 18.503906 1.628906 C 9.183594 1.628906 1.628906 9.183594 1.628906 18.503906 C 1.628906 27.824219 9.183594 35.378906 18.503906 35.378906 C 27.824219 35.378906 35.378906 27.824219 35.378906 18.503906 C 35.378906 9.183594 27.824219 1.628906 18.503906 1.628906 Z M 18.503906 1.628906 " clip-rule="nonzero"/></clipPath><clipPath id="17b22d814d"><path d="M 0.628906 0.628906 L 34.378906 0.628906 L 34.378906 34.378906 L 0.628906 34.378906 Z M 0.628906 0.628906 " clip-rule="nonzero"/></clipPath><clipPath id="0816cb789c"><path d="M 17.503906 0.628906 C 8.183594 0.628906 0.628906 8.183594 0.628906 17.503906 C 0.628906 26.824219 8.183594 34.378906 17.503906 34.378906 C 26.824219 34.378906 34.378906 26.824219 34.378906 17.503906 C 34.378906 8.183594 26.824219 0.628906 17.503906 0.628906 Z M 17.503906 0.628906 " clip-rule="nonzero"/></clipPath><clipPath id="1afd057f84"><rect x="0" width="35" y="0" height="35"/></clipPath><clipPath id="65132994ea"><path d="M 7.179688 7.179688 L 30 7.179688 L 30 30 L 7.179688 30 Z M 7.179688 7.179688 " clip-rule="nonzero"/></clipPath></defs><g clip-path="url(#fe7e318587)"><g clip-path="url(#aa67aa2776)"><g transform="matrix(1, 0, 0, 1, 1, 1)"><g clip-path="url(#1afd057f84)"><g clip-path="url(#17b22d814d)"><g clip-path="url(#0816cb789c)"><path fill="#1c2b36" d="M 0.628906 0.628906 L 34.378906 0.628906 L 34.378906 34.378906 L 0.628906 34.378906 Z M 0.628906 0.628906 " fill-opacity="1" fill-rule="nonzero"/></g></g></g></g></g></g><g clip-path="url(#65132994ea)"><path fill="#ffffff" d="M 28.3125 25.292969 L 8.6875 25.292969 C 8.273438 25.292969 7.933594 24.953125 7.933594 24.539062 L 7.933594 23.785156 L 29.066406 23.785156 L 29.066406 24.539062 C 29.066406 24.953125 28.730469 25.292969 28.3125 25.292969 Z M 21.339844 27.179688 L 15.660156 27.179688 L 16.113281 26.046875 L 20.886719 26.046875 Z M 23.785156 28.3125 L 23.785156 29.066406 L 13.21875 29.066406 L 13.21875 28.3125 C 13.21875 28.105469 13.386719 27.9375 13.59375 27.9375 L 23.40625 27.9375 C 23.613281 27.9375 23.785156 28.105469 23.785156 28.3125 Z M 8.6875 8.6875 L 13.792969 8.6875 C 13.429688 9.226562 13.21875 9.878906 13.21875 10.574219 L 13.21875 11.707031 C 13.21875 12.207031 13.542969 12.632812 13.992188 12.78125 C 14.082031 13.542969 14.503906 14.207031 15.105469 14.625 L 15.105469 15.179688 L 13.855469 15.457031 C 12.589844 15.738281 11.707031 16.839844 11.707031 18.136719 L 11.707031 23.03125 L 7.933594 23.03125 L 7.933594 9.445312 C 7.933594 9.027344 8.273438 8.6875 8.6875 8.6875 Z M 16.613281 7.933594 C 18.070312 7.933594 19.253906 9.121094 19.253906 10.574219 L 19.253906 10.644531 C 19.242188 10.636719 19.226562 10.632812 19.214844 10.628906 C 19.128906 10.328125 18.925781 10.070312 18.640625 9.917969 C 18.265625 9.71875 17.816406 9.738281 17.46875 9.96875 C 17.234375 10.121094 16.949219 10.199219 16.613281 10.199219 C 16.28125 10.199219 15.992188 10.121094 15.761719 9.96875 C 15.410156 9.738281 14.960938 9.71875 14.585938 9.917969 C 14.300781 10.070312 14.097656 10.328125 14.011719 10.628906 C 14 10.632812 13.984375 10.636719 13.972656 10.644531 L 13.972656 10.574219 C 13.972656 9.121094 15.15625 7.933594 16.613281 7.933594 Z M 24.996094 17.085938 C 25.261719 16.917969 25.640625 16.984375 25.820312 17.234375 C 25.902344 17.347656 25.929688 17.480469 25.90625 17.613281 C 25.878906 17.753906 25.792969 17.875 25.660156 17.960938 C 25.628906 17.980469 25.59375 17.996094 25.5625 18.007812 C 25.121094 18.132812 24.734375 18.371094 24.433594 18.59375 L 24.089844 18.226562 C 24.382812 17.949219 24.691406 17.601562 24.902344 17.171875 C 24.914062 17.148438 24.945312 17.117188 24.996094 17.085938 Z M 15.308594 15.90625 C 15.425781 16.058594 15.613281 16.25 15.890625 16.394531 C 15.765625 16.574219 15.664062 16.78125 15.589844 17.023438 C 15.574219 17.085938 15.523438 17.109375 15.496094 17.117188 C 15.472656 17.125 15.414062 17.140625 15.359375 17.097656 C 14.972656 16.816406 14.726562 16.410156 14.570312 16.070312 Z M 16.613281 15.105469 C 16.875 15.105469 17.128906 15.066406 17.367188 14.992188 L 17.367188 15.382812 C 17.292969 15.503906 17.074219 15.769531 16.613281 15.851562 C 16.152344 15.769531 15.933594 15.5 15.859375 15.386719 L 15.859375 14.992188 C 16.097656 15.066406 16.351562 15.105469 16.613281 15.105469 Z M 16.613281 14.351562 C 15.574219 14.351562 14.726562 13.503906 14.726562 12.460938 C 14.726562 12.253906 14.558594 12.085938 14.351562 12.085938 C 14.140625 12.085938 13.972656 11.914062 13.972656 11.707031 C 13.972656 11.5 14.140625 11.332031 14.351562 11.332031 C 14.554688 11.332031 14.722656 11.132812 14.726562 10.925781 C 14.730469 10.78125 14.808594 10.652344 14.941406 10.585938 C 15 10.550781 15.066406 10.535156 15.132812 10.535156 C 15.207031 10.535156 15.28125 10.554688 15.347656 10.597656 C 15.703125 10.832031 16.128906 10.953125 16.613281 10.953125 C 17.097656 10.953125 17.523438 10.832031 17.882812 10.597656 C 18.003906 10.519531 18.15625 10.515625 18.289062 10.585938 C 18.417969 10.652344 18.496094 10.78125 18.5 10.953125 C 18.5 11.160156 18.671875 11.332031 18.878906 11.332031 C 19.085938 11.332031 19.253906 11.5 19.253906 11.707031 C 19.253906 11.914062 19.085938 12.085938 18.878906 12.085938 C 18.671875 12.085938 18.5 12.253906 18.5 12.460938 C 18.5 13.503906 17.65625 14.351562 16.613281 14.351562 Z M 17.867188 17.097656 C 17.8125 17.140625 17.753906 17.125 17.730469 17.117188 C 17.703125 17.109375 17.65625 17.085938 17.636719 17.019531 C 17.566406 16.777344 17.460938 16.574219 17.335938 16.394531 C 17.609375 16.25 17.792969 16.070312 17.914062 15.917969 L 18.636719 16.113281 C 18.484375 16.4375 18.242188 16.828125 17.867188 17.097656 Z M 16.128906 17.746094 L 16.085938 17.613281 C 16.195312 17.507812 16.273438 17.378906 16.316406 17.234375 C 16.386719 17 16.484375 16.816406 16.613281 16.695312 C 16.742188 16.816406 16.839844 16.996094 16.910156 17.230469 C 16.953125 17.378906 17.035156 17.507812 17.140625 17.613281 L 17.097656 17.746094 Z M 17.363281 20.632812 L 16.613281 21.128906 L 15.863281 20.632812 L 16.183594 18.5 L 17.042969 18.5 Z M 13.972656 18.5 C 13.765625 18.5 13.59375 18.671875 13.59375 18.878906 L 13.59375 23.03125 L 12.460938 23.03125 L 12.460938 18.136719 C 12.460938 17.265625 13.015625 16.523438 13.828125 16.253906 C 14.015625 16.703125 14.347656 17.292969 14.910156 17.707031 C 15.046875 17.808594 15.210938 17.859375 15.378906 17.871094 L 15.472656 18.15625 L 15.113281 20.566406 C 15.074219 20.828125 15.191406 21.089844 15.410156 21.238281 L 16.230469 21.78125 C 16.347656 21.859375 16.480469 21.898438 16.613281 21.898438 C 16.746094 21.898438 16.878906 21.859375 16.996094 21.78125 L 17.816406 21.238281 C 18.035156 21.089844 18.15625 20.828125 18.117188 20.566406 L 17.753906 18.15625 L 17.847656 17.875 C 18.015625 17.863281 18.179688 17.808594 18.316406 17.707031 C 18.859375 17.308594 19.1875 16.742188 19.375 16.3125 L 19.433594 16.328125 C 20.089844 16.472656 20.625 16.9375 20.863281 17.570312 L 21.371094 18.921875 C 21.453125 19.144531 21.636719 19.3125 21.863281 19.375 C 22.09375 19.4375 22.335938 19.386719 22.519531 19.238281 L 23.371094 18.5625 L 23.992188 19.226562 L 21.601562 21 C 21.464844 21.121094 21.285156 21.167969 21.105469 21.128906 C 20.925781 21.089844 20.78125 20.96875 20.695312 20.769531 L 19.589844 18.699219 C 19.507812 18.546875 19.332031 18.46875 19.164062 18.511719 C 18.996094 18.554688 18.878906 18.703125 18.878906 18.878906 L 18.878906 23.03125 L 14.351562 23.03125 L 14.351562 18.878906 C 14.351562 18.671875 14.179688 18.5 13.972656 18.5 Z M 29.066406 9.445312 L 29.066406 23.03125 L 19.632812 23.03125 L 19.632812 20.382812 L 20.015625 21.097656 C 20.183594 21.492188 20.519531 21.773438 20.941406 21.863281 C 21.359375 21.957031 21.785156 21.847656 22.078125 21.585938 L 24.558594 19.742188 C 24.691406 19.621094 24.769531 19.457031 24.78125 19.28125 C 25.144531 19 25.464844 18.820312 25.777344 18.730469 C 25.878906 18.699219 25.984375 18.652344 26.070312 18.59375 C 26.375 18.398438 26.578125 18.101562 26.648438 17.757812 C 26.710938 17.421875 26.636719 17.078125 26.433594 16.792969 C 26.246094 16.53125 25.96875 16.363281 25.671875 16.285156 L 25.671875 13.59375 C 25.671875 13.386719 25.5 13.21875 25.292969 13.21875 C 25.085938 13.21875 24.917969 13.386719 24.917969 13.59375 L 24.917969 16.304688 C 24.804688 16.339844 24.695312 16.382812 24.59375 16.449219 C 24.417969 16.554688 24.289062 16.691406 24.21875 16.847656 C 24.070312 17.152344 23.824219 17.449219 23.449219 17.785156 C 23.277344 17.765625 23.097656 17.8125 22.953125 17.925781 L 22.074219 18.65625 L 21.570312 17.304688 C 21.242188 16.433594 20.503906 15.792969 19.613281 15.59375 L 18.125 15.191406 L 18.125 14.625 C 18.726562 14.207031 19.144531 13.542969 19.238281 12.78125 C 19.6875 12.632812 20.011719 12.207031 20.011719 11.707031 L 20.011719 10.574219 C 20.011719 9.878906 19.796875 9.226562 19.4375 8.6875 L 28.3125 8.6875 C 28.730469 8.6875 29.066406 9.027344 29.066406 9.445312 Z M 28.3125 7.933594 L 18.746094 7.933594 C 18.160156 7.464844 17.421875 7.179688 16.613281 7.179688 C 15.808594 7.179688 15.066406 7.464844 14.484375 7.933594 L 8.6875 7.933594 C 7.855469 7.933594 7.179688 8.609375 7.179688 9.445312 L 7.179688 24.539062 C 7.179688 25.371094 7.855469 26.046875 8.6875 26.046875 L 15.300781 26.046875 L 14.847656 27.179688 L 13.59375 27.179688 C 12.96875 27.179688 12.460938 27.6875 12.460938 28.3125 L 12.460938 29.066406 C 12.460938 29.484375 12.800781 29.824219 13.21875 29.824219 L 23.785156 29.824219 C 24.199219 29.824219 24.539062 29.484375 24.539062 29.066406 L 24.539062 28.3125 C 24.539062 27.6875 24.03125 27.179688 23.40625 27.179688 L 22.152344 27.179688 L 21.699219 26.046875 L 28.3125 26.046875 C 29.144531 26.046875 29.824219 25.371094 29.824219 24.539062 L 29.824219 9.445312 C 29.824219 8.609375 29.144531 7.933594 28.3125 7.933594 " fill-opacity="1" fill-rule="nonzero"/></g></svg>