<svg xmlns="http://www.w3.org/2000/svg" xmlns:xlink="http://www.w3.org/1999/xlink" width="50" zoomAndPan="magnify" viewBox="0 0 37.5 37.499999" height="50" preserveAspectRatio="xMidYMid meet" version="1.0"><defs><clipPath id="edb55a0c4e"><path d="M 1.628906 1.628906 L 35.378906 1.628906 L 35.378906 35.378906 L 1.628906 35.378906 Z M 1.628906 1.628906 " clip-rule="nonzero"/></clipPath><clipPath id="1b7993c581"><path d="M 18.503906 1.628906 C 9.183594 1.628906 1.628906 9.183594 1.628906 18.503906 C 1.628906 27.824219 9.183594 35.378906 18.503906 35.378906 C 27.824219 35.378906 35.378906 27.824219 35.378906 18.503906 C 35.378906 9.183594 27.824219 1.628906 18.503906 1.628906 Z M 18.503906 1.628906 " clip-rule="nonzero"/></clipPath><clipPath id="9d20820a09"><path d="M 0.628906 0.628906 L 34.378906 0.628906 L 34.378906 34.378906 L 0.628906 34.378906 Z M 0.628906 0.628906 " clip-rule="nonzero"/></clipPath><clipPath id="76d79bae65"><path d="M 17.503906 0.628906 C 8.183594 0.628906 0.628906 8.183594 0.628906 17.503906 C 0.628906 26.824219 8.183594 34.378906 17.503906 34.378906 C 26.824219 34.378906 34.378906 26.824219 34.378906 17.503906 C 34.378906 8.183594 26.824219 0.628906 17.503906 0.628906 Z M 17.503906 0.628906 " clip-rule="nonzero"/></clipPath><clipPath id="af42d9d7a2"><rect x="0" width="35" y="0" height="35"/></clipPath><clipPath id="00ba1f92ba"><path d="M 6.234375 5.34375 L 30.65625 5.34375 L 30.65625 31.988281 L 6.234375 31.988281 Z M 6.234375 5.34375 " clip-rule="nonzero"/></clipPath></defs><g clip-path="url(#edb55a0c4e)"><g clip-path="url(#1b7993c581)"><g transform="matrix(1, 0, 0, 1, 1, 1)"><g clip-path="url(#af42d9d7a2)"><g clip-path="url(#9d20820a09)"><g clip-path="url(#76d79bae65)"><path fill="#1c2b36" d="M 0.628906 0.628906 L 34.378906 0.628906 L 34.378906 34.378906 L 0.628906 34.378906 Z M 0.628906 0.628906 " fill-opacity="1" fill-rule="nonzero"/></g></g></g></g></g></g><g clip-path="url(#00ba1f92ba)"><path fill="#ffffff" d="M 14.53125 27.800781 C 14.480469 27.914062 14.367188 27.980469 14.25 27.980469 C 14.207031 27.980469 14.164062 27.972656 14.121094 27.953125 C 12.375 27.144531 10.867188 25.835938 9.804688 24.230469 L 9.753906 24.441406 C 9.722656 24.585938 9.59375 24.683594 9.453125 24.683594 C 9.429688 24.683594 9.40625 24.679688 9.382812 24.675781 C 9.21875 24.636719 9.113281 24.472656 9.148438 24.304688 L 9.367188 23.351562 C 9.367188 23.347656 9.371094 23.34375 9.371094 23.34375 C 9.371094 23.335938 9.371094 23.332031 9.375 23.328125 C 9.375 23.320312 9.378906 23.316406 9.378906 23.3125 C 9.382812 23.308594 9.382812 23.304688 9.382812 23.300781 C 9.386719 23.292969 9.390625 23.289062 9.390625 23.285156 C 9.394531 23.28125 9.394531 23.277344 9.398438 23.273438 C 9.398438 23.265625 9.402344 23.261719 9.40625 23.257812 C 9.40625 23.253906 9.410156 23.25 9.414062 23.246094 C 9.417969 23.242188 9.417969 23.238281 9.421875 23.230469 C 9.425781 23.230469 9.429688 23.226562 9.429688 23.222656 C 9.433594 23.21875 9.4375 23.214844 9.441406 23.210938 C 9.445312 23.207031 9.449219 23.203125 9.453125 23.199219 C 9.457031 23.195312 9.460938 23.191406 9.464844 23.1875 C 9.464844 23.183594 9.46875 23.183594 9.472656 23.179688 C 9.476562 23.175781 9.484375 23.171875 9.488281 23.167969 C 9.492188 23.167969 9.496094 23.164062 9.496094 23.160156 C 9.503906 23.15625 9.507812 23.15625 9.515625 23.152344 C 9.515625 23.148438 9.515625 23.148438 9.519531 23.148438 C 9.519531 23.148438 9.523438 23.144531 9.523438 23.144531 C 9.53125 23.140625 9.535156 23.140625 9.542969 23.136719 C 9.546875 23.136719 9.546875 23.132812 9.550781 23.132812 C 9.558594 23.128906 9.5625 23.128906 9.570312 23.125 C 9.574219 23.125 9.578125 23.125 9.582031 23.121094 C 9.585938 23.121094 9.59375 23.117188 9.597656 23.117188 C 9.601562 23.117188 9.605469 23.117188 9.609375 23.113281 C 9.617188 23.113281 9.621094 23.113281 9.628906 23.113281 C 9.632812 23.109375 9.636719 23.109375 9.640625 23.109375 C 9.644531 23.109375 9.652344 23.109375 9.660156 23.109375 C 9.664062 23.109375 9.667969 23.109375 9.671875 23.109375 C 9.675781 23.109375 9.683594 23.109375 9.6875 23.109375 C 9.691406 23.109375 9.695312 23.109375 9.703125 23.109375 C 9.707031 23.109375 9.710938 23.113281 9.71875 23.113281 C 9.722656 23.113281 9.726562 23.113281 9.734375 23.113281 C 9.734375 23.117188 9.738281 23.117188 9.738281 23.117188 L 10.695312 23.332031 C 10.863281 23.371094 10.964844 23.539062 10.929688 23.707031 C 10.890625 23.871094 10.722656 23.976562 10.554688 23.9375 L 10.316406 23.882812 C 11.316406 25.398438 12.738281 26.628906 14.382812 27.390625 C 14.535156 27.460938 14.605469 27.648438 14.53125 27.800781 Z M 22.738281 9.667969 C 24.238281 10.386719 25.515625 11.46875 26.476562 12.8125 L 26.320312 12.769531 C 26.152344 12.726562 25.984375 12.824219 25.9375 12.988281 C 25.894531 13.15625 25.992188 13.324219 26.15625 13.371094 L 27.101562 13.625 C 27.101562 13.625 27.101562 13.625 27.105469 13.625 C 27.113281 13.628906 27.121094 13.632812 27.132812 13.632812 C 27.136719 13.632812 27.140625 13.632812 27.144531 13.636719 C 27.15625 13.636719 27.171875 13.636719 27.183594 13.636719 C 27.207031 13.636719 27.230469 13.632812 27.253906 13.628906 C 27.257812 13.628906 27.261719 13.628906 27.261719 13.628906 C 27.269531 13.625 27.277344 13.621094 27.285156 13.621094 C 27.289062 13.617188 27.296875 13.617188 27.300781 13.613281 C 27.308594 13.609375 27.3125 13.609375 27.320312 13.605469 C 27.324219 13.601562 27.332031 13.601562 27.335938 13.597656 C 27.339844 13.597656 27.339844 13.59375 27.339844 13.59375 C 27.339844 13.59375 27.339844 13.59375 27.34375 13.59375 C 27.359375 13.585938 27.371094 13.574219 27.386719 13.5625 C 27.386719 13.5625 27.386719 13.5625 27.386719 13.558594 C 27.402344 13.546875 27.414062 13.535156 27.425781 13.519531 C 27.429688 13.519531 27.429688 13.515625 27.429688 13.515625 C 27.441406 13.5 27.449219 13.484375 27.460938 13.46875 C 27.460938 13.464844 27.460938 13.464844 27.460938 13.464844 C 27.46875 13.445312 27.476562 13.429688 27.480469 13.410156 C 27.480469 13.410156 27.484375 13.410156 27.484375 13.410156 L 27.738281 12.464844 C 27.785156 12.296875 27.6875 12.128906 27.523438 12.082031 C 27.355469 12.039062 27.1875 12.136719 27.140625 12.300781 L 27.066406 12.574219 C 26.039062 11.085938 24.648438 9.894531 23.007812 9.109375 C 22.855469 9.035156 22.667969 9.097656 22.59375 9.253906 C 22.519531 9.40625 22.585938 9.59375 22.738281 9.667969 Z M 9.539062 13.8125 C 9.585938 13.839844 9.640625 13.851562 9.691406 13.851562 C 9.800781 13.851562 9.90625 13.796875 9.960938 13.695312 C 10.839844 12.140625 12.152344 10.835938 13.703125 9.960938 L 13.632812 10.226562 C 13.585938 10.390625 13.683594 10.5625 13.851562 10.605469 C 13.878906 10.613281 13.90625 10.617188 13.929688 10.617188 C 14.070312 10.617188 14.195312 10.523438 14.230469 10.386719 L 14.484375 9.441406 C 14.484375 9.4375 14.484375 9.4375 14.484375 9.4375 C 14.488281 9.429688 14.488281 9.425781 14.488281 9.417969 C 14.488281 9.414062 14.492188 9.410156 14.492188 9.40625 C 14.492188 9.402344 14.492188 9.394531 14.492188 9.386719 C 14.492188 9.382812 14.496094 9.378906 14.496094 9.378906 C 14.496094 9.371094 14.496094 9.359375 14.496094 9.351562 C 14.496094 9.351562 14.496094 9.347656 14.496094 9.347656 C 14.496094 9.339844 14.492188 9.332031 14.492188 9.324219 C 14.492188 9.320312 14.492188 9.320312 14.492188 9.316406 C 14.492188 9.3125 14.488281 9.308594 14.488281 9.300781 C 14.488281 9.296875 14.488281 9.292969 14.484375 9.285156 C 14.484375 9.285156 14.484375 9.28125 14.484375 9.277344 C 14.480469 9.269531 14.480469 9.265625 14.476562 9.257812 C 14.476562 9.253906 14.476562 9.25 14.472656 9.246094 C 14.472656 9.242188 14.46875 9.234375 14.464844 9.230469 C 14.464844 9.226562 14.464844 9.226562 14.464844 9.226562 C 14.464844 9.222656 14.460938 9.222656 14.460938 9.21875 C 14.457031 9.210938 14.453125 9.207031 14.453125 9.203125 C 14.449219 9.199219 14.445312 9.191406 14.441406 9.1875 C 14.441406 9.183594 14.4375 9.179688 14.433594 9.175781 C 14.433594 9.171875 14.429688 9.167969 14.425781 9.164062 C 14.421875 9.160156 14.417969 9.15625 14.417969 9.152344 C 14.414062 9.148438 14.410156 9.144531 14.40625 9.140625 C 14.402344 9.136719 14.398438 9.136719 14.394531 9.132812 C 14.390625 9.128906 14.386719 9.125 14.382812 9.121094 C 14.378906 9.117188 14.375 9.117188 14.371094 9.113281 C 14.367188 9.109375 14.363281 9.105469 14.359375 9.105469 C 14.355469 9.101562 14.351562 9.097656 14.347656 9.09375 C 14.34375 9.09375 14.339844 9.089844 14.332031 9.089844 C 14.328125 9.085938 14.324219 9.082031 14.320312 9.082031 C 14.316406 9.078125 14.308594 9.078125 14.304688 9.074219 C 14.300781 9.074219 14.296875 9.070312 14.292969 9.070312 C 14.285156 9.066406 14.28125 9.066406 14.273438 9.0625 C 14.269531 9.0625 14.269531 9.0625 14.265625 9.058594 L 13.320312 8.808594 C 13.152344 8.761719 12.984375 8.859375 12.9375 9.027344 C 12.894531 9.191406 12.992188 9.363281 13.15625 9.40625 L 13.332031 9.453125 C 11.699219 10.386719 10.355469 11.734375 9.421875 13.390625 C 9.335938 13.539062 9.390625 13.730469 9.539062 13.8125 Z M 27.304688 23.472656 C 27.160156 23.382812 26.96875 23.429688 26.878906 23.574219 C 25.960938 25.089844 24.671875 26.308594 23.125 27.136719 L 23.179688 26.898438 C 23.214844 26.730469 23.109375 26.566406 22.941406 26.527344 C 22.777344 26.492188 22.609375 26.597656 22.574219 26.765625 L 22.359375 27.71875 C 22.324219 27.886719 22.429688 28.054688 22.597656 28.089844 L 23.550781 28.304688 C 23.574219 28.308594 23.597656 28.308594 23.621094 28.308594 C 23.761719 28.308594 23.890625 28.210938 23.921875 28.066406 C 23.960938 27.898438 23.855469 27.734375 23.6875 27.695312 L 23.480469 27.652344 C 25.097656 26.769531 26.445312 25.484375 27.410156 23.898438 C 27.5 23.75 27.453125 23.5625 27.304688 23.472656 Z M 30.765625 20.867188 L 30.765625 22.449219 C 30.765625 22.621094 30.625 22.761719 30.457031 22.761719 L 24.359375 22.761719 C 24.1875 22.761719 24.046875 22.621094 24.046875 22.449219 L 24.046875 20.867188 C 24.046875 19.539062 24.90625 18.40625 26.097656 17.996094 C 25.613281 17.609375 25.300781 17.015625 25.300781 16.347656 C 25.300781 15.183594 26.246094 14.238281 27.40625 14.238281 C 28.570312 14.238281 29.515625 15.183594 29.515625 16.347656 C 29.515625 17.015625 29.199219 17.609375 28.714844 17.996094 C 29.90625 18.40625 30.765625 19.539062 30.765625 20.867188 Z M 25.917969 16.347656 C 25.917969 17.167969 26.585938 17.832031 27.40625 17.832031 C 28.226562 17.832031 28.894531 17.167969 28.894531 16.347656 C 28.894531 15.527344 28.226562 14.859375 27.40625 14.859375 C 26.585938 14.859375 25.917969 15.527344 25.917969 16.347656 Z M 30.144531 20.867188 C 30.144531 19.535156 29.0625 18.453125 27.734375 18.453125 L 27.082031 18.453125 C 25.75 18.453125 24.667969 19.535156 24.667969 20.867188 L 24.667969 22.140625 L 25.53125 22.140625 L 25.53125 20.453125 C 25.53125 20.28125 25.671875 20.144531 25.84375 20.144531 C 26.015625 20.144531 26.152344 20.28125 26.152344 20.453125 L 26.152344 22.140625 L 28.660156 22.140625 L 28.660156 20.453125 C 28.660156 20.28125 28.796875 20.144531 28.96875 20.144531 C 29.140625 20.144531 29.28125 20.28125 29.28125 20.453125 L 29.28125 22.140625 L 30.144531 22.140625 Z M 6.546875 22.761719 C 6.375 22.761719 6.234375 22.621094 6.234375 22.449219 L 6.234375 20.867188 C 6.234375 19.539062 7.09375 18.40625 8.285156 17.996094 C 7.800781 17.609375 7.488281 17.015625 7.488281 16.347656 C 7.488281 15.183594 8.433594 14.238281 9.59375 14.238281 C 10.757812 14.238281 11.703125 15.183594 11.703125 16.347656 C 11.703125 17.015625 11.386719 17.609375 10.902344 17.996094 C 12.09375 18.40625 12.953125 19.539062 12.953125 20.867188 L 12.953125 22.449219 C 12.953125 22.621094 12.8125 22.761719 12.644531 22.761719 Z M 8.109375 16.347656 C 8.109375 17.167969 8.773438 17.832031 9.59375 17.832031 C 10.414062 17.832031 11.082031 17.167969 11.082031 16.347656 C 11.082031 15.527344 10.414062 14.859375 9.59375 14.859375 C 8.773438 14.859375 8.109375 15.527344 8.109375 16.347656 Z M 6.855469 22.140625 L 7.722656 22.140625 L 7.722656 20.453125 C 7.722656 20.28125 7.859375 20.144531 8.03125 20.144531 C 8.203125 20.144531 8.339844 20.28125 8.339844 20.453125 L 8.339844 22.140625 L 10.847656 22.140625 L 10.847656 20.453125 C 10.847656 20.28125 10.984375 20.144531 11.15625 20.144531 C 11.328125 20.144531 11.46875 20.28125 11.46875 20.453125 L 11.46875 22.140625 L 12.332031 22.140625 L 12.332031 20.867188 C 12.332031 19.535156 11.25 18.453125 9.921875 18.453125 L 9.269531 18.453125 C 7.9375 18.453125 6.855469 19.535156 6.855469 20.867188 Z M 15.140625 22.382812 L 14.617188 21.859375 C 14.386719 21.632812 14.332031 21.285156 14.480469 20.996094 L 14.523438 20.910156 C 14.597656 20.761719 14.601562 20.609375 14.527344 20.460938 C 14.441406 20.289062 14.367188 20.105469 14.304688 19.921875 C 14.25 19.765625 14.144531 19.660156 13.984375 19.609375 L 13.890625 19.578125 C 13.585938 19.476562 13.378906 19.195312 13.378906 18.871094 L 13.378906 18.128906 C 13.378906 17.804688 13.585938 17.523438 13.890625 17.421875 L 13.984375 17.390625 C 14.144531 17.339844 14.25 17.234375 14.304688 17.078125 C 14.367188 16.894531 14.441406 16.714844 14.527344 16.539062 C 14.601562 16.390625 14.597656 16.238281 14.523438 16.089844 L 14.480469 16.003906 C 14.332031 15.714844 14.386719 15.367188 14.617188 15.140625 L 15.140625 14.617188 C 15.367188 14.386719 15.714844 14.332031 16.003906 14.480469 L 16.089844 14.523438 C 16.238281 14.597656 16.390625 14.601562 16.539062 14.527344 C 16.714844 14.441406 16.894531 14.367188 17.078125 14.304688 C 17.234375 14.25 17.339844 14.140625 17.390625 13.984375 L 17.421875 13.890625 C 17.523438 13.582031 17.808594 13.378906 18.128906 13.378906 L 18.871094 13.378906 C 19.195312 13.378906 19.480469 13.582031 19.578125 13.890625 L 19.609375 13.984375 C 19.660156 14.140625 19.765625 14.25 19.925781 14.304688 C 20.105469 14.367188 20.289062 14.441406 20.460938 14.527344 C 20.609375 14.601562 20.761719 14.597656 20.910156 14.523438 L 20.996094 14.480469 C 21.285156 14.332031 21.632812 14.386719 21.859375 14.617188 L 22.382812 15.140625 C 22.613281 15.367188 22.667969 15.714844 22.523438 16.003906 L 22.476562 16.089844 C 22.402344 16.238281 22.402344 16.390625 22.472656 16.539062 C 22.558594 16.714844 22.636719 16.894531 22.695312 17.078125 C 22.75 17.234375 22.859375 17.339844 23.015625 17.390625 L 23.109375 17.421875 C 23.417969 17.523438 23.625 17.804688 23.625 18.128906 L 23.625 18.871094 C 23.625 19.195312 23.417969 19.476562 23.109375 19.578125 L 23.015625 19.609375 C 22.859375 19.660156 22.75 19.765625 22.695312 19.921875 C 22.636719 20.105469 22.558594 20.285156 22.472656 20.460938 C 22.402344 20.609375 22.402344 20.761719 22.476562 20.910156 L 22.523438 20.996094 C 22.667969 21.285156 22.613281 21.632812 22.382812 21.859375 L 21.859375 22.382812 C 21.632812 22.613281 21.285156 22.667969 20.996094 22.519531 L 20.910156 22.476562 C 20.761719 22.402344 20.609375 22.398438 20.460938 22.472656 C 20.289062 22.558594 20.105469 22.636719 19.925781 22.695312 C 19.765625 22.75 19.660156 22.859375 19.609375 23.015625 L 19.578125 23.109375 C 19.480469 23.417969 19.195312 23.621094 18.871094 23.621094 L 18.128906 23.621094 C 17.808594 23.621094 17.523438 23.417969 17.421875 23.109375 L 17.390625 23.015625 C 17.339844 22.859375 17.234375 22.75 17.078125 22.695312 C 16.894531 22.632812 16.714844 22.558594 16.539062 22.472656 C 16.390625 22.398438 16.238281 22.402344 16.089844 22.476562 L 16.003906 22.519531 C 15.714844 22.667969 15.367188 22.613281 15.140625 22.382812 Z M 15.054688 21.421875 L 15.578125 21.945312 C 15.617188 21.984375 15.671875 21.996094 15.722656 21.96875 L 15.808594 21.925781 C 15.972656 21.839844 16.144531 21.800781 16.316406 21.800781 C 16.484375 21.800781 16.652344 21.839844 16.816406 21.917969 C 16.964844 21.992188 17.117188 22.054688 17.277344 22.109375 C 17.621094 22.226562 17.871094 22.480469 17.980469 22.824219 L 18.011719 22.917969 C 18.03125 22.972656 18.074219 23.003906 18.128906 23.003906 L 18.871094 23.003906 C 18.925781 23.003906 18.96875 22.972656 18.988281 22.917969 L 19.019531 22.824219 C 19.128906 22.480469 19.382812 22.226562 19.722656 22.109375 C 19.882812 22.054688 20.035156 21.992188 20.1875 21.917969 C 20.511719 21.757812 20.867188 21.757812 21.191406 21.925781 L 21.277344 21.96875 C 21.328125 21.996094 21.382812 21.984375 21.421875 21.945312 L 21.945312 21.421875 C 21.984375 21.382812 21.996094 21.328125 21.96875 21.277344 L 21.925781 21.191406 C 21.757812 20.867188 21.757812 20.511719 21.917969 20.1875 C 21.992188 20.035156 22.054688 19.882812 22.109375 19.722656 C 22.226562 19.382812 22.480469 19.128906 22.824219 19.019531 L 22.917969 18.988281 C 22.972656 18.96875 23.003906 18.925781 23.003906 18.871094 L 23.003906 18.128906 C 23.003906 18.074219 22.972656 18.03125 22.917969 18.011719 L 22.824219 17.980469 C 22.480469 17.871094 22.226562 17.621094 22.109375 17.277344 C 22.054688 17.117188 21.992188 16.964844 21.917969 16.816406 C 21.757812 16.488281 21.757812 16.132812 21.925781 15.808594 L 21.96875 15.722656 C 21.996094 15.671875 21.984375 15.617188 21.945312 15.578125 L 21.421875 15.054688 C 21.382812 15.015625 21.328125 15.007812 21.277344 15.03125 L 21.191406 15.078125 C 20.867188 15.242188 20.511719 15.242188 20.1875 15.082031 C 20.035156 15.007812 19.882812 14.945312 19.722656 14.890625 C 19.382812 14.773438 19.128906 14.519531 19.019531 14.175781 L 18.988281 14.082031 C 18.96875 14.027344 18.925781 13.996094 18.871094 13.996094 L 18.128906 13.996094 C 18.074219 13.996094 18.03125 14.027344 18.011719 14.082031 L 17.980469 14.175781 C 17.871094 14.519531 17.621094 14.773438 17.277344 14.890625 C 17.117188 14.945312 16.964844 15.007812 16.816406 15.082031 C 16.488281 15.242188 16.132812 15.242188 15.808594 15.074219 L 15.722656 15.03125 C 15.671875 15.007812 15.617188 15.015625 15.578125 15.054688 L 15.054688 15.578125 C 15.015625 15.617188 15.007812 15.671875 15.03125 15.722656 L 15.078125 15.808594 C 15.242188 16.132812 15.242188 16.488281 15.082031 16.816406 C 15.007812 16.964844 14.945312 17.117188 14.890625 17.277344 C 14.773438 17.621094 14.519531 17.871094 14.175781 17.980469 L 14.082031 18.011719 C 14.027344 18.03125 13.996094 18.074219 13.996094 18.128906 L 13.996094 18.871094 C 13.996094 18.925781 14.027344 18.96875 14.082031 18.988281 L 14.175781 19.019531 C 14.519531 19.128906 14.773438 19.378906 14.890625 19.722656 C 14.945312 19.882812 15.007812 20.035156 15.082031 20.183594 C 15.242188 20.511719 15.242188 20.867188 15.078125 21.191406 L 15.03125 21.277344 C 15.007812 21.328125 15.015625 21.382812 15.054688 21.421875 Z M 15.792969 18.5 C 15.792969 17.007812 17.007812 15.792969 18.5 15.792969 C 19.992188 15.792969 21.207031 17.007812 21.207031 18.5 C 21.207031 19.992188 19.992188 21.207031 18.5 21.207031 C 17.007812 21.207031 15.792969 19.992188 15.792969 18.5 Z M 16.414062 18.5 C 16.414062 19.652344 17.351562 20.585938 18.5 20.585938 C 19.652344 20.585938 20.585938 19.648438 20.585938 18.5 C 20.585938 17.351562 19.652344 16.414062 18.5 16.414062 C 17.351562 16.414062 16.414062 17.351562 16.414062 18.5 Z M 14.859375 9.257812 L 14.859375 8.746094 C 14.859375 8.480469 15.03125 8.25 15.28125 8.167969 L 15.347656 8.144531 C 15.425781 8.121094 15.480469 8.066406 15.507812 7.988281 C 15.550781 7.859375 15.605469 7.730469 15.664062 7.605469 C 15.703125 7.527344 15.703125 7.457031 15.664062 7.378906 L 15.632812 7.320312 C 15.511719 7.082031 15.558594 6.800781 15.746094 6.609375 L 16.109375 6.25 C 16.296875 6.0625 16.582031 6.015625 16.816406 6.136719 L 16.878906 6.167969 C 16.953125 6.207031 17.027344 6.207031 17.101562 6.167969 C 17.226562 6.109375 17.355469 6.054688 17.484375 6.011719 C 17.566406 5.984375 17.617188 5.929688 17.644531 5.851562 L 17.664062 5.785156 C 17.746094 5.535156 17.980469 5.363281 18.246094 5.363281 L 18.757812 5.363281 C 19.023438 5.363281 19.253906 5.535156 19.335938 5.785156 L 19.359375 5.851562 C 19.382812 5.929688 19.4375 5.984375 19.515625 6.011719 C 19.644531 6.054688 19.773438 6.109375 19.898438 6.167969 C 19.976562 6.207031 20.046875 6.207031 20.125 6.167969 C 20.125 6.167969 20.183594 6.136719 20.183594 6.136719 C 20.421875 6.015625 20.703125 6.0625 20.890625 6.25 L 21.253906 6.613281 C 21.441406 6.800781 21.488281 7.082031 21.367188 7.320312 L 21.335938 7.378906 C 21.296875 7.457031 21.296875 7.527344 21.335938 7.605469 C 21.394531 7.730469 21.449219 7.859375 21.492188 7.988281 C 21.519531 8.066406 21.574219 8.121094 21.652344 8.144531 L 21.71875 8.167969 C 21.96875 8.25 22.140625 8.480469 22.140625 8.746094 L 22.140625 9.257812 C 22.140625 9.523438 21.96875 9.757812 21.71875 9.839844 L 21.652344 9.859375 C 21.574219 9.886719 21.519531 9.9375 21.492188 10.019531 C 21.449219 10.148438 21.394531 10.277344 21.335938 10.402344 C 21.296875 10.476562 21.296875 10.550781 21.335938 10.625 L 21.367188 10.6875 C 21.488281 10.921875 21.441406 11.207031 21.253906 11.394531 L 20.890625 11.757812 C 20.703125 11.945312 20.421875 11.992188 20.183594 11.871094 L 20.125 11.839844 C 20.046875 11.800781 19.976562 11.800781 19.898438 11.839844 C 19.773438 11.898438 19.644531 11.953125 19.515625 11.996094 C 19.4375 12.023438 19.382812 12.078125 19.359375 12.15625 L 19.335938 12.222656 C 19.253906 12.472656 19.023438 12.644531 18.757812 12.644531 L 18.246094 12.644531 C 17.980469 12.644531 17.746094 12.472656 17.664062 12.222656 L 17.644531 12.15625 C 17.617188 12.078125 17.566406 12.023438 17.484375 11.996094 C 17.355469 11.953125 17.226562 11.898438 17.101562 11.839844 C 17.027344 11.800781 16.953125 11.800781 16.878906 11.839844 L 16.816406 11.871094 C 16.582031 11.992188 16.296875 11.945312 16.109375 11.757812 L 15.746094 11.394531 C 15.558594 11.207031 15.511719 10.921875 15.632812 10.6875 L 15.664062 10.625 C 15.703125 10.550781 15.703125 10.476562 15.664062 10.402344 C 15.605469 10.277344 15.550781 10.148438 15.507812 10.019531 C 15.480469 9.9375 15.425781 9.886719 15.347656 9.859375 L 15.285156 9.839844 C 15.03125 9.757812 14.859375 9.523438 14.859375 9.257812 Z M 15.480469 9.253906 L 15.539062 9.269531 C 15.808594 9.359375 16.003906 9.554688 16.09375 9.820312 C 16.128906 9.925781 16.171875 10.027344 16.222656 10.125 C 16.347656 10.378906 16.34375 10.65625 16.21875 10.910156 L 16.191406 10.960938 L 16.542969 11.3125 L 16.59375 11.285156 C 16.847656 11.160156 17.125 11.15625 17.375 11.28125 C 17.476562 11.332031 17.578125 11.375 17.683594 11.410156 C 17.949219 11.5 18.144531 11.695312 18.234375 11.964844 L 18.25 12.023438 L 18.75 12.023438 C 18.75 12.023438 18.765625 11.964844 18.765625 11.964844 C 18.855469 11.695312 19.050781 11.5 19.316406 11.410156 C 19.421875 11.375 19.523438 11.332031 19.625 11.28125 C 19.875 11.15625 20.152344 11.160156 20.40625 11.285156 L 20.457031 11.3125 L 20.8125 10.960938 L 20.785156 10.910156 C 20.65625 10.65625 20.652344 10.378906 20.777344 10.125 C 20.828125 10.027344 20.871094 9.925781 20.90625 9.820312 C 20.996094 9.550781 21.195312 9.359375 21.460938 9.269531 L 21.519531 9.253906 L 21.519531 8.753906 C 21.519531 8.753906 21.460938 8.734375 21.460938 8.734375 C 21.195312 8.648438 20.996094 8.453125 20.90625 8.1875 C 20.871094 8.082031 20.828125 7.980469 20.777344 7.878906 C 20.652344 7.628906 20.65625 7.351562 20.785156 7.097656 L 20.8125 7.046875 L 20.457031 6.691406 L 20.40625 6.71875 C 20.152344 6.847656 19.875 6.851562 19.625 6.726562 C 19.523438 6.675781 19.421875 6.632812 19.316406 6.597656 C 19.050781 6.507812 18.855469 6.308594 18.765625 6.042969 L 18.75 5.984375 L 18.25 5.984375 C 18.25 5.984375 18.234375 6.042969 18.234375 6.042969 C 18.144531 6.308594 17.949219 6.507812 17.683594 6.597656 C 17.578125 6.632812 17.476562 6.675781 17.375 6.726562 C 17.125 6.851562 16.847656 6.847656 16.59375 6.71875 L 16.542969 6.691406 L 16.191406 7.046875 L 16.21875 7.097656 C 16.34375 7.351562 16.347656 7.628906 16.222656 7.878906 C 16.171875 7.980469 16.128906 8.082031 16.09375 8.1875 C 16.003906 8.453125 15.804688 8.648438 15.539062 8.734375 L 15.480469 8.753906 Z M 16.765625 9.003906 C 16.765625 8.046875 17.542969 7.269531 18.5 7.269531 C 19.457031 7.269531 20.234375 8.046875 20.234375 9.003906 C 20.234375 9.960938 19.457031 10.738281 18.5 10.738281 C 17.542969 10.738281 16.765625 9.960938 16.765625 9.003906 Z M 17.386719 9.003906 C 17.386719 9.617188 17.886719 10.117188 18.5 10.117188 C 19.113281 10.117188 19.613281 9.617188 19.613281 9.003906 C 19.613281 8.390625 19.113281 7.890625 18.5 7.890625 C 17.886719 7.890625 17.386719 8.390625 17.386719 9.003906 Z M 22.140625 27.742188 L 22.140625 28.253906 C 22.140625 28.519531 21.96875 28.75 21.71875 28.832031 L 21.652344 28.855469 C 21.574219 28.878906 21.519531 28.933594 21.492188 29.011719 C 21.449219 29.140625 21.394531 29.269531 21.335938 29.394531 C 21.296875 29.472656 21.296875 29.542969 21.335938 29.621094 L 21.367188 29.679688 C 21.488281 29.917969 21.441406 30.199219 21.253906 30.390625 L 20.890625 30.75 C 20.703125 30.9375 20.421875 30.984375 20.183594 30.863281 L 20.125 30.832031 C 20.046875 30.792969 19.976562 30.792969 19.898438 30.832031 C 19.773438 30.890625 19.644531 30.945312 19.515625 30.988281 C 19.4375 31.015625 19.382812 31.070312 19.359375 31.148438 L 19.335938 31.214844 C 19.253906 31.464844 19.023438 31.636719 18.757812 31.636719 L 18.246094 31.636719 C 17.980469 31.636719 17.746094 31.464844 17.664062 31.214844 L 17.644531 31.148438 C 17.617188 31.070312 17.566406 31.015625 17.484375 30.988281 C 17.355469 30.945312 17.226562 30.890625 17.101562 30.832031 C 17.027344 30.792969 16.953125 30.792969 16.878906 30.832031 L 16.816406 30.863281 C 16.582031 30.984375 16.296875 30.9375 16.109375 30.75 L 15.746094 30.390625 C 15.558594 30.203125 15.511719 29.917969 15.632812 29.679688 L 15.664062 29.621094 C 15.703125 29.542969 15.703125 29.472656 15.664062 29.394531 C 15.605469 29.269531 15.550781 29.140625 15.507812 29.011719 C 15.480469 28.933594 15.425781 28.878906 15.347656 28.855469 L 15.28125 28.832031 C 15.03125 28.75 14.859375 28.519531 14.859375 28.253906 L 14.859375 27.742188 C 14.859375 27.476562 15.03125 27.242188 15.28125 27.160156 L 15.347656 27.140625 C 15.425781 27.113281 15.480469 27.0625 15.507812 26.980469 C 15.550781 26.851562 15.605469 26.722656 15.664062 26.597656 C 15.703125 26.523438 15.703125 26.449219 15.664062 26.375 L 15.632812 26.3125 C 15.511719 26.078125 15.558594 25.792969 15.746094 25.605469 L 16.109375 25.242188 C 16.296875 25.054688 16.582031 25.007812 16.816406 25.128906 L 16.878906 25.160156 C 16.953125 25.199219 17.027344 25.199219 17.101562 25.160156 C 17.226562 25.101562 17.355469 25.046875 17.484375 25.003906 C 17.566406 24.976562 17.617188 24.921875 17.644531 24.84375 L 17.664062 24.78125 C 17.746094 24.527344 17.980469 24.359375 18.246094 24.359375 L 18.757812 24.359375 C 19.023438 24.359375 19.253906 24.527344 19.335938 24.78125 L 19.359375 24.84375 C 19.382812 24.921875 19.4375 24.976562 19.515625 25.003906 C 19.644531 25.046875 19.773438 25.101562 19.898438 25.160156 C 19.972656 25.199219 20.046875 25.199219 20.125 25.160156 C 20.125 25.160156 20.183594 25.128906 20.183594 25.128906 C 20.417969 25.007812 20.703125 25.054688 20.890625 25.242188 L 21.253906 25.605469 C 21.441406 25.792969 21.488281 26.078125 21.367188 26.3125 L 21.335938 26.375 C 21.296875 26.449219 21.296875 26.523438 21.335938 26.597656 C 21.394531 26.722656 21.449219 26.851562 21.492188 26.980469 C 21.519531 27.0625 21.574219 27.113281 21.652344 27.140625 L 21.71875 27.160156 C 21.96875 27.242188 22.140625 27.476562 22.140625 27.742188 Z M 21.519531 27.746094 L 21.460938 27.730469 C 21.195312 27.640625 20.996094 27.449219 20.90625 27.179688 C 20.871094 27.074219 20.828125 26.972656 20.777344 26.875 C 20.652344 26.621094 20.65625 26.34375 20.785156 26.089844 L 20.8125 26.039062 L 20.457031 25.6875 L 20.40625 25.714844 C 20.152344 25.839844 19.875 25.84375 19.625 25.71875 C 19.523438 25.667969 19.421875 25.625 19.316406 25.589844 C 19.050781 25.5 18.855469 25.304688 18.765625 25.035156 L 18.75 24.976562 L 18.25 24.976562 C 18.25 24.976562 18.234375 25.035156 18.234375 25.035156 C 18.144531 25.304688 17.949219 25.5 17.683594 25.589844 C 17.578125 25.625 17.476562 25.667969 17.375 25.71875 C 17.125 25.84375 16.847656 25.839844 16.59375 25.714844 L 16.542969 25.6875 L 16.191406 26.039062 L 16.21875 26.089844 C 16.34375 26.34375 16.347656 26.621094 16.222656 26.875 C 16.171875 26.972656 16.128906 27.074219 16.09375 27.179688 C 16.003906 27.449219 15.804688 27.640625 15.539062 27.730469 L 15.480469 27.746094 L 15.480469 28.246094 C 15.480469 28.246094 15.539062 28.265625 15.539062 28.265625 C 15.808594 28.351562 16.003906 28.546875 16.09375 28.8125 C 16.128906 28.917969 16.171875 29.019531 16.222656 29.121094 C 16.347656 29.371094 16.34375 29.648438 16.21875 29.902344 L 16.191406 29.953125 L 16.542969 30.308594 L 16.59375 30.28125 C 16.847656 30.152344 17.125 30.148438 17.375 30.273438 C 17.476562 30.324219 17.578125 30.367188 17.683594 30.402344 C 17.949219 30.492188 18.144531 30.691406 18.234375 30.957031 L 18.25 31.015625 L 18.75 31.015625 C 18.75 31.015625 18.765625 30.957031 18.765625 30.957031 C 18.855469 30.691406 19.050781 30.492188 19.316406 30.402344 C 19.421875 30.367188 19.523438 30.324219 19.625 30.273438 C 19.875 30.148438 20.152344 30.152344 20.40625 30.28125 L 20.457031 30.308594 L 20.808594 29.953125 L 20.785156 29.902344 C 20.65625 29.648438 20.652344 29.371094 20.777344 29.121094 C 20.828125 29.019531 20.871094 28.917969 20.90625 28.8125 C 20.996094 28.546875 21.195312 28.351562 21.460938 28.265625 L 21.519531 28.246094 Z M 20.234375 27.996094 C 20.234375 28.953125 19.457031 29.730469 18.5 29.730469 C 17.542969 29.730469 16.765625 28.953125 16.765625 27.996094 C 16.765625 27.039062 17.542969 26.261719 18.5 26.261719 C 19.457031 26.261719 20.234375 27.039062 20.234375 27.996094 Z M 19.613281 27.996094 C 19.613281 27.382812 19.113281 26.882812 18.5 26.882812 C 17.886719 26.882812 17.386719 27.382812 17.386719 27.996094 C 17.386719 28.609375 17.886719 29.109375 18.5 29.109375 C 19.113281 29.109375 19.613281 28.609375 19.613281 27.996094 Z M 17.976562 19.417969 C 18.035156 19.480469 18.113281 19.515625 18.199219 19.515625 C 18.199219 19.515625 18.203125 19.515625 18.203125 19.515625 C 18.285156 19.515625 18.363281 19.484375 18.421875 19.425781 L 19.851562 18.015625 C 19.972656 17.894531 19.972656 17.699219 19.851562 17.578125 C 19.734375 17.453125 19.535156 17.453125 19.414062 17.574219 L 18.210938 18.761719 L 17.59375 18.105469 C 17.476562 17.980469 17.28125 17.972656 17.15625 18.089844 C 17.03125 18.207031 17.023438 18.40625 17.140625 18.53125 Z M 17.976562 19.417969 " fill-opacity="1" fill-rule="nonzero"/></g></svg>