<svg xmlns="http://www.w3.org/2000/svg" xmlns:xlink="http://www.w3.org/1999/xlink" width="50" zoomAndPan="magnify" viewBox="0 0 37.5 37.499999" height="50" preserveAspectRatio="xMidYMid meet" version="1.0"><defs><clipPath id="7c1a5c300c"><path d="M 1.628906 1.628906 L 35.378906 1.628906 L 35.378906 35.378906 L 1.628906 35.378906 Z M 1.628906 1.628906 " clip-rule="nonzero"/></clipPath><clipPath id="d6a9f1d910"><path d="M 18.503906 1.628906 C 9.183594 1.628906 1.628906 9.183594 1.628906 18.503906 C 1.628906 27.824219 9.183594 35.378906 18.503906 35.378906 C 27.824219 35.378906 35.378906 27.824219 35.378906 18.503906 C 35.378906 9.183594 27.824219 1.628906 18.503906 1.628906 Z M 18.503906 1.628906 " clip-rule="nonzero"/></clipPath><clipPath id="6172fa6b40"><path d="M 0.628906 0.628906 L 34.378906 0.628906 L 34.378906 34.378906 L 0.628906 34.378906 Z M 0.628906 0.628906 " clip-rule="nonzero"/></clipPath><clipPath id="fb8f74a520"><path d="M 17.503906 0.628906 C 8.183594 0.628906 0.628906 8.183594 0.628906 17.503906 C 0.628906 26.824219 8.183594 34.378906 17.503906 34.378906 C 26.824219 34.378906 34.378906 26.824219 34.378906 17.503906 C 34.378906 8.183594 26.824219 0.628906 17.503906 0.628906 Z M 17.503906 0.628906 " clip-rule="nonzero"/></clipPath><clipPath id="7e2b3a43d0"><rect x="0" width="35" y="0" height="35"/></clipPath><clipPath id="221962c8be"><path d="M 5.855469 8.132812 L 29 8.132812 L 29 28.855469 L 5.855469 28.855469 Z M 5.855469 8.132812 " clip-rule="nonzero"/></clipPath><clipPath id="ec87588950"><path d="M 24 8.132812 L 26 8.132812 L 26 10 L 24 10 Z M 24 8.132812 " clip-rule="nonzero"/></clipPath><clipPath id="206bf92611"><path d="M 25 12 L 31.023438 12 L 31.023438 19 L 25 19 Z M 25 12 " clip-rule="nonzero"/></clipPath></defs><g clip-path="url(#7c1a5c300c)"><g clip-path="url(#d6a9f1d910)"><g transform="matrix(1, 0, 0, 1, 1, 1)"><g clip-path="url(#7e2b3a43d0)"><g clip-path="url(#6172fa6b40)"><g clip-path="url(#fb8f74a520)"><path fill="#1c2b36" d="M 0.628906 0.628906 L 34.378906 0.628906 L 34.378906 34.378906 L 0.628906 34.378906 Z M 0.628906 0.628906 " fill-opacity="1" fill-rule="nonzero"/></g></g></g></g></g></g><g clip-path="url(#221962c8be)"><path fill="#ffffff" d="M 26.902344 25.09375 C 26.691406 24.933594 26.464844 24.796875 26.226562 24.6875 C 26.566406 24.324219 26.75 23.847656 26.75 23.34375 C 26.75 22.816406 26.542969 22.320312 26.171875 21.945312 C 25.824219 21.601562 25.375 21.398438 24.894531 21.367188 L 25.574219 20.6875 C 25.671875 20.589844 25.671875 20.433594 25.574219 20.335938 C 25.476562 20.238281 25.320312 20.238281 25.222656 20.335938 L 24.890625 20.667969 L 24.890625 17.992188 C 24.890625 17.984375 24.890625 17.972656 24.890625 17.964844 L 26.34375 17.964844 C 26.449219 17.964844 26.535156 17.878906 26.535156 17.769531 C 26.535156 17.664062 26.449219 17.578125 26.34375 17.578125 L 21.484375 17.578125 L 21.484375 9.835938 L 22.949219 9.835938 L 22.949219 10.230469 C 22.949219 10.335938 23.035156 10.425781 23.140625 10.425781 L 26.589844 10.425781 C 26.695312 10.425781 26.78125 10.335938 26.78125 10.230469 L 26.78125 9.835938 L 28.246094 9.835938 L 28.246094 12.660156 C 28.246094 12.765625 28.332031 12.851562 28.4375 12.851562 C 28.542969 12.851562 28.632812 12.765625 28.632812 12.660156 L 28.632812 9.640625 C 28.632812 9.535156 28.542969 9.449219 28.4375 9.449219 L 26.78125 9.449219 L 26.78125 9.054688 C 26.78125 8.945312 26.695312 8.859375 26.589844 8.859375 L 25.765625 8.859375 C 25.675781 8.445312 25.308594 8.132812 24.863281 8.132812 C 24.421875 8.132812 24.050781 8.445312 23.960938 8.859375 L 23.140625 8.859375 C 23.035156 8.859375 22.949219 8.945312 22.949219 9.054688 L 22.949219 9.449219 L 21.292969 9.449219 C 21.183594 9.449219 21.097656 9.535156 21.097656 9.640625 L 21.097656 17.769531 C 21.097656 17.875 21.183594 17.964844 21.292969 17.964844 L 24.398438 17.964844 C 24.398438 17.972656 24.394531 17.984375 24.394531 17.992188 L 24.394531 20.667969 L 24.066406 20.335938 C 23.96875 20.238281 23.8125 20.238281 23.714844 20.335938 C 23.617188 20.433594 23.617188 20.589844 23.714844 20.6875 L 24.394531 21.371094 L 24.394531 21.398438 C 24.007812 21.472656 23.652344 21.660156 23.371094 21.945312 C 22.996094 22.320312 22.789062 22.816406 22.789062 23.34375 C 22.789062 23.847656 22.976562 24.324219 23.316406 24.6875 C 23.0625 24.804688 22.824219 24.949219 22.601562 25.121094 C 22.328125 25.335938 22.085938 25.589844 21.886719 25.875 C 21.753906 26.066406 21.640625 26.265625 21.550781 26.472656 C 21.535156 26.472656 21.519531 26.46875 21.5 26.46875 L 17.574219 26.46875 C 16.910156 26.46875 16.367188 25.929688 16.367188 25.261719 L 16.367188 24.84375 L 17.527344 24.84375 C 17.886719 24.84375 18.175781 24.550781 18.175781 24.191406 C 18.175781 23.761719 18.046875 23.347656 17.796875 23 C 17.609375 22.738281 17.375 22.53125 17.097656 22.382812 C 17.242188 22.183594 17.328125 21.9375 17.328125 21.675781 C 17.328125 21.09375 16.914062 20.609375 16.367188 20.496094 L 16.367188 19.910156 C 16.367188 19.75 16.328125 19.597656 16.25 19.453125 C 16.175781 19.320312 16.074219 19.203125 15.945312 19.101562 C 15.691406 18.902344 15.355469 18.796875 15.003906 18.796875 L 12.269531 18.796875 L 12.269531 18.761719 L 12.859375 18.167969 C 12.957031 18.074219 12.957031 17.914062 12.859375 17.816406 C 12.765625 17.722656 12.605469 17.722656 12.511719 17.816406 L 12.269531 18.058594 L 12.269531 16.683594 L 12.511719 16.921875 C 12.558594 16.972656 12.621094 16.996094 12.6875 16.996094 C 12.75 16.996094 12.8125 16.972656 12.859375 16.921875 C 12.957031 16.828125 12.957031 16.667969 12.859375 16.574219 L 12.253906 15.964844 L 14.5625 15.964844 C 15.101562 15.964844 15.539062 15.527344 15.539062 14.988281 C 15.539062 14.464844 15.421875 13.957031 15.203125 13.492188 L 20.210938 13.492188 L 19.882812 13.824219 C 19.785156 13.921875 19.785156 14.078125 19.882812 14.175781 C 19.929688 14.226562 19.992188 14.25 20.054688 14.25 C 20.121094 14.25 20.183594 14.226562 20.230469 14.175781 L 20.914062 13.492188 L 20.980469 13.492188 L 20.980469 13.429688 L 20.988281 13.421875 C 21.035156 13.375 21.058594 13.3125 21.058594 13.246094 C 21.058594 13.179688 21.035156 13.117188 20.988281 13.070312 L 20.980469 13.0625 L 20.980469 12.996094 L 20.914062 12.996094 L 20.230469 12.316406 C 20.136719 12.21875 19.976562 12.21875 19.882812 12.316406 C 19.785156 12.414062 19.785156 12.570312 19.882812 12.667969 L 20.210938 12.996094 L 14.917969 12.996094 C 14.90625 12.980469 14.894531 12.964844 14.886719 12.949219 C 14.679688 12.660156 14.433594 12.40625 14.152344 12.191406 C 13.941406 12.03125 13.714844 11.894531 13.476562 11.785156 C 13.816406 11.417969 14 10.945312 14 10.441406 C 14 9.914062 13.792969 9.417969 13.421875 9.042969 C 13.046875 8.667969 12.550781 8.460938 12.019531 8.460938 C 11.492188 8.460938 10.992188 8.667969 10.621094 9.042969 C 10.246094 9.417969 10.039062 9.914062 10.039062 10.441406 C 10.039062 10.945312 10.226562 11.417969 10.566406 11.785156 C 10.3125 11.902344 10.074219 12.046875 9.851562 12.21875 C 9.578125 12.433594 9.339844 12.6875 9.136719 12.972656 C 8.722656 13.566406 8.503906 14.261719 8.503906 14.988281 C 8.503906 15.527344 8.9375 15.964844 9.476562 15.964844 L 11.789062 15.964844 L 11.179688 16.574219 C 11.082031 16.667969 11.082031 16.828125 11.179688 16.921875 C 11.277344 17.019531 11.433594 17.019531 11.53125 16.921875 L 11.773438 16.683594 L 11.773438 18.058594 L 11.53125 17.816406 C 11.433594 17.722656 11.277344 17.722656 11.179688 17.816406 C 11.082031 17.914062 11.082031 18.074219 11.179688 18.167969 L 11.773438 18.761719 L 11.773438 18.796875 L 9.039062 18.796875 C 8.683594 18.796875 8.351562 18.902344 8.09375 19.101562 C 7.964844 19.203125 7.863281 19.320312 7.789062 19.453125 C 7.710938 19.597656 7.671875 19.75 7.671875 19.910156 L 7.671875 20.496094 C 7.125 20.609375 6.714844 21.09375 6.714844 21.675781 C 6.714844 21.941406 6.796875 22.183594 6.941406 22.382812 C 6.660156 22.535156 6.421875 22.75 6.234375 23.011719 C 5.992188 23.359375 5.863281 23.769531 5.863281 24.191406 C 5.863281 24.550781 6.15625 24.84375 6.511719 24.84375 L 7.671875 24.84375 L 7.671875 25.578125 C 7.671875 25.949219 7.816406 26.296875 8.078125 26.558594 C 8.339844 26.820312 8.6875 26.964844 9.058594 26.964844 L 21.375 26.964844 C 21.292969 27.265625 21.253906 27.574219 21.253906 27.894531 C 21.253906 28.429688 21.6875 28.867188 22.226562 28.867188 L 27.3125 28.867188 C 27.851562 28.867188 28.289062 28.429688 28.289062 27.894531 C 28.289062 27.15625 28.0625 26.449219 27.632812 25.851562 C 27.429688 25.5625 27.183594 25.308594 26.902344 25.09375 Z M 23.335938 9.246094 L 24.136719 9.246094 C 24.242188 9.246094 24.328125 9.160156 24.328125 9.054688 C 24.328125 8.757812 24.570312 8.519531 24.863281 8.519531 C 25.160156 8.519531 25.398438 8.757812 25.398438 9.054688 C 25.398438 9.160156 25.484375 9.246094 25.59375 9.246094 L 26.394531 9.246094 L 26.394531 10.039062 L 23.335938 10.039062 Z M 10.972656 9.394531 C 11.25 9.113281 11.625 8.957031 12.019531 8.957031 C 12.417969 8.957031 12.789062 9.113281 13.070312 9.394531 C 13.351562 9.671875 13.503906 10.046875 13.503906 10.441406 C 13.503906 10.839844 13.351562 11.210938 13.070312 11.492188 C 12.789062 11.773438 12.417969 11.925781 12.019531 11.925781 C 11.625 11.925781 11.25 11.773438 10.972656 11.492188 C 10.691406 11.210938 10.535156 10.839844 10.535156 10.441406 C 10.535156 10.046875 10.691406 9.671875 10.972656 9.394531 Z M 9 14.988281 C 9 14.367188 9.1875 13.765625 9.542969 13.257812 C 9.714844 13.011719 9.921875 12.792969 10.160156 12.609375 C 10.398438 12.421875 10.660156 12.273438 10.941406 12.167969 C 10.960938 12.160156 10.980469 12.148438 10.996094 12.136719 C 11.300781 12.324219 11.652344 12.421875 12.019531 12.421875 C 12.382812 12.421875 12.734375 12.324219 13.035156 12.144531 C 13.039062 12.144531 13.042969 12.148438 13.046875 12.148438 C 13.335938 12.253906 13.605469 12.398438 13.851562 12.585938 C 14.09375 12.769531 14.304688 12.988281 14.480469 13.238281 C 14.847656 13.75 15.042969 14.355469 15.042969 14.988281 C 15.042969 15.253906 14.828125 15.46875 14.5625 15.46875 L 9.476562 15.46875 C 9.214844 15.46875 9 15.253906 9 14.988281 Z M 17.390625 23.285156 C 17.582031 23.550781 17.679688 23.867188 17.679688 24.191406 C 17.679688 24.277344 17.613281 24.347656 17.527344 24.347656 L 14.710938 24.347656 C 14.628906 24.347656 14.558594 24.277344 14.558594 24.191406 C 14.558594 23.871094 14.65625 23.5625 14.839844 23.296875 C 15.019531 23.042969 15.261719 22.851562 15.546875 22.738281 C 15.71875 22.832031 15.914062 22.882812 16.121094 22.882812 C 16.324219 22.882812 16.519531 22.832031 16.691406 22.738281 C 16.972656 22.851562 17.214844 23.039062 17.390625 23.285156 Z M 16.832031 21.675781 C 16.832031 22.066406 16.511719 22.386719 16.121094 22.386719 C 15.726562 22.386719 15.410156 22.066406 15.410156 21.675781 C 15.410156 21.285156 15.726562 20.964844 16.121094 20.964844 C 16.511719 20.964844 16.832031 21.285156 16.832031 21.675781 Z M 7.921875 20.964844 C 8.3125 20.964844 8.632812 21.285156 8.632812 21.675781 C 8.632812 22.066406 8.3125 22.386719 7.921875 22.386719 C 7.527344 22.386719 7.210938 22.066406 7.210938 21.675781 C 7.210938 21.285156 7.527344 20.964844 7.921875 20.964844 Z M 6.359375 24.191406 C 6.359375 23.871094 6.457031 23.5625 6.640625 23.296875 C 6.820312 23.042969 7.0625 22.851562 7.351562 22.738281 C 7.519531 22.832031 7.714844 22.882812 7.921875 22.882812 C 8.128906 22.882812 8.320312 22.832031 8.492188 22.738281 C 8.773438 22.851562 9.015625 23.039062 9.191406 23.285156 C 9.382812 23.550781 9.480469 23.867188 9.480469 24.191406 C 9.480469 24.277344 9.414062 24.347656 9.328125 24.347656 L 6.511719 24.347656 C 6.429688 24.347656 6.359375 24.277344 6.359375 24.191406 Z M 9.058594 26.46875 C 8.570312 26.46875 8.167969 26.070312 8.167969 25.578125 L 8.167969 24.84375 L 9.328125 24.84375 C 9.6875 24.84375 9.976562 24.550781 9.976562 24.191406 C 9.976562 23.761719 9.847656 23.347656 9.597656 23 C 9.410156 22.738281 9.175781 22.53125 8.898438 22.382812 C 9.042969 22.183594 9.128906 21.941406 9.128906 21.675781 C 9.128906 21.097656 8.714844 20.609375 8.167969 20.496094 L 8.167969 19.910156 C 8.167969 19.757812 8.25 19.609375 8.398438 19.492188 C 8.566406 19.363281 8.792969 19.292969 9.035156 19.292969 L 15.003906 19.292969 C 15.246094 19.292969 15.472656 19.363281 15.640625 19.492188 C 15.789062 19.609375 15.871094 19.757812 15.871094 19.910156 L 15.871094 20.496094 C 15.324219 20.609375 14.914062 21.097656 14.914062 21.675781 C 14.914062 21.941406 14.996094 22.183594 15.140625 22.382812 C 14.859375 22.535156 14.621094 22.75 14.433594 23.011719 C 14.191406 23.359375 14.0625 23.769531 14.0625 24.191406 C 14.0625 24.550781 14.351562 24.84375 14.710938 24.84375 L 15.871094 24.84375 L 15.871094 25.261719 C 15.871094 25.71875 16.046875 26.144531 16.371094 26.46875 Z M 23.71875 22.296875 C 24 22.015625 24.375 21.863281 24.769531 21.863281 C 25.167969 21.863281 25.539062 22.015625 25.820312 22.296875 C 26.101562 22.578125 26.253906 22.949219 26.253906 23.34375 C 26.253906 23.742188 26.097656 24.113281 25.820312 24.394531 C 25.539062 24.675781 25.167969 24.828125 24.769531 24.828125 C 24.375 24.828125 24 24.675781 23.71875 24.394531 C 23.441406 24.113281 23.285156 23.742188 23.285156 23.34375 C 23.285156 22.949219 23.441406 22.578125 23.71875 22.296875 Z M 27.3125 28.371094 L 22.226562 28.371094 C 21.964844 28.371094 21.75 28.15625 21.75 27.894531 C 21.75 27.269531 21.9375 26.667969 22.292969 26.160156 C 22.464844 25.914062 22.671875 25.699219 22.910156 25.511719 C 23.148438 25.328125 23.410156 25.175781 23.691406 25.070312 C 23.710938 25.0625 23.730469 25.050781 23.746094 25.042969 C 24.050781 25.226562 24.402344 25.324219 24.769531 25.324219 C 25.132812 25.324219 25.480469 25.230469 25.785156 25.046875 C 25.789062 25.046875 25.792969 25.050781 25.796875 25.050781 C 26.085938 25.15625 26.355469 25.300781 26.601562 25.488281 C 26.839844 25.671875 27.054688 25.890625 27.230469 26.140625 C 27.597656 26.652344 27.789062 27.257812 27.789062 27.894531 C 27.789062 28.15625 27.578125 28.371094 27.3125 28.371094 Z M 27.3125 28.371094 " fill-opacity="1" fill-rule="nonzero"/></g><path fill="#ffffff" d="M 23.25 11.359375 L 22.671875 11.9375 L 22.5 11.769531 L 22.226562 12.042969 L 22.671875 12.488281 L 23.523438 11.632812 Z M 23.25 11.359375 " fill-opacity="1" fill-rule="nonzero"/><path fill="#ffffff" d="M 24.125 11.402344 L 27.367188 11.402344 L 27.367188 11.789062 L 24.125 11.789062 Z M 24.125 11.402344 " fill-opacity="1" fill-rule="nonzero"/><path fill="#ffffff" d="M 24.125 12.019531 L 25.359375 12.019531 L 25.359375 12.40625 L 24.125 12.40625 Z M 24.125 12.019531 " fill-opacity="1" fill-rule="nonzero"/><path fill="#ffffff" d="M 23.25 13.378906 L 22.671875 13.960938 L 22.5 13.789062 L 22.226562 14.0625 L 22.671875 14.507812 L 23.523438 13.652344 Z M 23.25 13.378906 " fill-opacity="1" fill-rule="nonzero"/><path fill="#ffffff" d="M 24.125 13.425781 L 26.242188 13.425781 L 26.242188 13.8125 L 24.125 13.8125 Z M 24.125 13.425781 " fill-opacity="1" fill-rule="nonzero"/><path fill="#ffffff" d="M 24.125 14.039062 L 25.359375 14.039062 L 25.359375 14.425781 L 24.125 14.425781 Z M 24.125 14.039062 " fill-opacity="1" fill-rule="nonzero"/><path fill="#ffffff" d="M 22.5 15.8125 L 22.226562 16.085938 L 22.671875 16.527344 L 23.523438 15.675781 L 23.25 15.402344 L 22.671875 15.980469 Z M 22.5 15.8125 " fill-opacity="1" fill-rule="nonzero"/><path fill="#ffffff" d="M 24.125 15.445312 L 25.746094 15.445312 L 25.746094 15.832031 L 24.125 15.832031 Z M 24.125 15.445312 " fill-opacity="1" fill-rule="nonzero"/><path fill="#ffffff" d="M 24.125 16.0625 L 25.359375 16.0625 L 25.359375 16.449219 L 24.125 16.449219 Z M 24.125 16.0625 " fill-opacity="1" fill-rule="nonzero"/><path fill="#ffffff" d="M 28.195312 15.789062 L 27.972656 15.5625 L 27.699219 15.835938 L 28.195312 16.335938 L 29.175781 15.355469 L 28.902344 15.082031 Z M 28.195312 15.789062 " fill-opacity="1" fill-rule="nonzero"/><g clip-path="url(#ec87588950)"><path fill="#ffffff" d="M 24.863281 8.671875 C 24.667969 8.671875 24.503906 8.832031 24.503906 9.03125 C 24.503906 9.230469 24.667969 9.390625 24.863281 9.390625 C 25.0625 9.390625 25.222656 9.230469 25.222656 9.03125 C 25.222656 8.832031 25.0625 8.671875 24.863281 8.671875 Z M 24.863281 9.101562 C 24.828125 9.101562 24.796875 9.070312 24.796875 9.03125 C 24.796875 8.992188 24.828125 8.964844 24.863281 8.964844 C 24.902344 8.964844 24.933594 8.992188 24.933594 9.03125 C 24.933594 9.070312 24.902344 9.101562 24.863281 9.101562 Z M 24.863281 9.101562 " fill-opacity="1" fill-rule="nonzero"/></g><g clip-path="url(#206bf92611)"><path fill="#ffffff" d="M 31.039062 16 L 30.683594 15.792969 L 30.683594 15.488281 L 31.039062 15.277344 C 31.109375 15.238281 31.144531 15.148438 31.117188 15.070312 L 30.941406 14.523438 C 30.914062 14.445312 30.835938 14.394531 30.753906 14.402344 L 30.34375 14.445312 L 30.164062 14.199219 L 30.328125 13.820312 C 30.363281 13.742188 30.339844 13.652344 30.269531 13.605469 L 29.808594 13.265625 C 29.738281 13.21875 29.648438 13.222656 29.585938 13.277344 L 29.277344 13.550781 L 28.988281 13.457031 L 28.898438 13.054688 C 28.878906 12.972656 28.808594 12.914062 28.726562 12.914062 L 28.152344 12.914062 C 28.066406 12.914062 27.996094 12.972656 27.976562 13.054688 L 27.890625 13.457031 L 27.601562 13.550781 L 27.292969 13.277344 C 27.230469 13.222656 27.136719 13.21875 27.070312 13.265625 L 26.605469 13.605469 C 26.539062 13.652344 26.511719 13.742188 26.546875 13.820312 L 26.710938 14.199219 L 26.53125 14.445312 L 26.121094 14.402344 C 26.039062 14.394531 25.960938 14.445312 25.9375 14.523438 L 25.757812 15.070312 C 25.734375 15.148438 25.765625 15.238281 25.835938 15.277344 L 26.195312 15.488281 L 26.195312 15.792969 L 25.835938 16 C 25.765625 16.042969 25.734375 16.128906 25.757812 16.207031 L 25.9375 16.753906 C 25.960938 16.832031 26.039062 16.882812 26.121094 16.875 L 26.53125 16.835938 L 26.710938 17.082031 L 26.546875 17.460938 C 26.511719 17.535156 26.539062 17.625 26.605469 17.675781 L 27.070312 18.011719 C 27.136719 18.0625 27.230469 18.058594 27.292969 18 L 27.601562 17.726562 L 27.890625 17.820312 L 27.976562 18.226562 C 27.996094 18.304688 28.066406 18.363281 28.152344 18.363281 L 28.726562 18.363281 C 28.808594 18.363281 28.878906 18.304688 28.898438 18.226562 L 28.988281 17.820312 L 29.277344 17.726562 L 29.585938 18 C 29.648438 18.058594 29.738281 18.0625 29.808594 18.011719 L 30.269531 17.675781 C 30.339844 17.625 30.363281 17.535156 30.328125 17.460938 L 30.164062 17.082031 L 30.34375 16.835938 L 30.753906 16.875 C 30.835938 16.882812 30.914062 16.832031 30.941406 16.753906 L 31.117188 16.207031 C 31.144531 16.128906 31.109375 16.042969 31.039062 16 Z M 30.648438 16.507812 L 30.277344 16.472656 C 30.214844 16.46875 30.152344 16.496094 30.117188 16.546875 L 29.816406 16.957031 C 29.78125 17.007812 29.773438 17.074219 29.796875 17.128906 L 29.949219 17.472656 L 29.714844 17.640625 L 29.433594 17.394531 C 29.386719 17.351562 29.324219 17.339844 29.261719 17.359375 L 28.78125 17.515625 C 28.722656 17.535156 28.675781 17.585938 28.664062 17.644531 L 28.582031 18.007812 L 28.292969 18.007812 L 28.214844 17.644531 C 28.199219 17.585938 28.15625 17.535156 28.09375 17.515625 L 27.613281 17.359375 C 27.554688 17.339844 27.488281 17.351562 27.441406 17.394531 L 27.164062 17.640625 L 26.929688 17.472656 L 27.078125 17.128906 C 27.101562 17.074219 27.09375 17.007812 27.058594 16.957031 L 26.761719 16.546875 C 26.722656 16.496094 26.664062 16.46875 26.597656 16.472656 L 26.230469 16.507812 L 26.140625 16.234375 L 26.460938 16.046875 C 26.515625 16.015625 26.546875 15.957031 26.546875 15.894531 L 26.546875 15.386719 C 26.546875 15.324219 26.515625 15.265625 26.460938 15.234375 L 26.140625 15.046875 L 26.230469 14.769531 L 26.597656 14.804688 C 26.660156 14.8125 26.722656 14.785156 26.761719 14.734375 L 27.058594 14.324219 C 27.09375 14.273438 27.101562 14.207031 27.078125 14.148438 L 26.929688 13.808594 L 27.164062 13.636719 L 27.441406 13.886719 C 27.488281 13.925781 27.554688 13.941406 27.613281 13.921875 L 28.09375 13.765625 C 28.15625 13.746094 28.199219 13.695312 28.214844 13.632812 L 28.292969 13.269531 L 28.582031 13.269531 L 28.664062 13.632812 C 28.675781 13.695312 28.722656 13.746094 28.78125 13.765625 L 29.261719 13.921875 C 29.324219 13.941406 29.386719 13.925781 29.433594 13.886719 L 29.714844 13.636719 L 29.949219 13.808594 L 29.796875 14.148438 C 29.773438 14.207031 29.78125 14.273438 29.816406 14.324219 L 30.117188 14.734375 C 30.152344 14.785156 30.214844 14.8125 30.277344 14.804688 L 30.648438 14.769531 L 30.734375 15.046875 L 30.414062 15.234375 C 30.359375 15.265625 30.328125 15.324219 30.328125 15.386719 L 30.328125 15.894531 C 30.328125 15.957031 30.359375 16.015625 30.414062 16.046875 L 30.734375 16.234375 Z M 30.648438 16.507812 " fill-opacity="1" fill-rule="nonzero"/></g><path fill="#ffffff" d="M 28.4375 14.121094 C 28.03125 14.121094 27.652344 14.277344 27.363281 14.566406 C 27.078125 14.851562 26.917969 15.234375 26.917969 15.640625 C 26.917969 16.046875 27.078125 16.425781 27.363281 16.714844 C 27.652344 17 28.03125 17.160156 28.4375 17.160156 C 28.84375 17.160156 29.226562 17 29.511719 16.714844 C 29.800781 16.425781 29.957031 16.046875 29.957031 15.640625 C 29.957031 15.234375 29.800781 14.851562 29.511719 14.566406 C 29.226562 14.277344 28.84375 14.121094 28.4375 14.121094 Z M 28.4375 16.804688 C 27.796875 16.804688 27.273438 16.28125 27.273438 15.640625 C 27.273438 14.996094 27.796875 14.476562 28.4375 14.476562 C 29.082031 14.476562 29.601562 14.996094 29.601562 15.640625 C 29.601562 16.28125 29.082031 16.804688 28.4375 16.804688 Z M 28.4375 16.804688 " fill-opacity="1" fill-rule="nonzero"/></svg>