<svg xmlns="http://www.w3.org/2000/svg" xmlns:xlink="http://www.w3.org/1999/xlink" width="50" zoomAndPan="magnify" viewBox="0 0 37.5 37.499999" height="50" preserveAspectRatio="xMidYMid meet" version="1.0"><defs><clipPath id="9186f33019"><path d="M 1.628906 1.628906 L 35.378906 1.628906 L 35.378906 35.378906 L 1.628906 35.378906 Z M 1.628906 1.628906 " clip-rule="nonzero"/></clipPath><clipPath id="9539c8adbe"><path d="M 18.503906 1.628906 C 9.183594 1.628906 1.628906 9.183594 1.628906 18.503906 C 1.628906 27.824219 9.183594 35.378906 18.503906 35.378906 C 27.824219 35.378906 35.378906 27.824219 35.378906 18.503906 C 35.378906 9.183594 27.824219 1.628906 18.503906 1.628906 Z M 18.503906 1.628906 " clip-rule="nonzero"/></clipPath><clipPath id="d5f83c656a"><path d="M 0.628906 0.628906 L 34.378906 0.628906 L 34.378906 34.378906 L 0.628906 34.378906 Z M 0.628906 0.628906 " clip-rule="nonzero"/></clipPath><clipPath id="c49f485136"><path d="M 17.503906 0.628906 C 8.183594 0.628906 0.628906 8.183594 0.628906 17.503906 C 0.628906 26.824219 8.183594 34.378906 17.503906 34.378906 C 26.824219 34.378906 34.378906 26.824219 34.378906 17.503906 C 34.378906 8.183594 26.824219 0.628906 17.503906 0.628906 Z M 17.503906 0.628906 " clip-rule="nonzero"/></clipPath><clipPath id="9ea5cdc257"><rect x="0" width="35" y="0" height="35"/></clipPath><clipPath id="dc8e1cdf5e"><path d="M 6.492188 6.058594 L 30.175781 6.058594 L 30.175781 31.222656 L 6.492188 31.222656 Z M 6.492188 6.058594 " clip-rule="nonzero"/></clipPath><clipPath id="1e5766aa77"><path d="M 20 6.058594 L 27 6.058594 L 27 11 L 20 11 Z M 20 6.058594 " clip-rule="nonzero"/></clipPath></defs><g clip-path="url(#9186f33019)"><g clip-path="url(#9539c8adbe)"><g transform="matrix(1, 0, 0, 1, 1, 1)"><g clip-path="url(#9ea5cdc257)"><g clip-path="url(#d5f83c656a)"><g clip-path="url(#c49f485136)"><path fill="#1c2b36" d="M 0.628906 0.628906 L 34.378906 0.628906 L 34.378906 34.378906 L 0.628906 34.378906 Z M 0.628906 0.628906 " fill-opacity="1" fill-rule="nonzero"/></g></g></g></g></g></g><path fill="#ffffff" d="M 24.5625 25.574219 L 21.796875 25.574219 L 21.796875 25 L 22.886719 25 L 22.886719 23.878906 L 21.796875 23.878906 L 21.796875 23.308594 L 24.5625 23.308594 L 24.5625 23.878906 L 23.351562 23.878906 L 23.351562 25 L 24.5625 25 Z M 24.5625 25.574219 " fill-opacity="1" fill-rule="nonzero"/><path fill="#ffffff" d="M 23.195312 22.832031 C 22.914062 22.832031 22.679688 22.789062 22.488281 22.703125 C 22.347656 22.636719 22.21875 22.546875 22.109375 22.4375 C 21.996094 22.324219 21.914062 22.203125 21.859375 22.070312 C 21.785156 21.894531 21.75 21.691406 21.75 21.460938 C 21.75 21.042969 21.875 20.707031 22.128906 20.457031 C 22.382812 20.207031 22.734375 20.082031 23.183594 20.082031 C 23.628906 20.082031 23.980469 20.203125 24.230469 20.453125 C 24.484375 20.703125 24.609375 21.035156 24.609375 21.453125 C 24.609375 21.875 24.484375 22.207031 24.234375 22.457031 C 23.980469 22.707031 23.636719 22.832031 23.195312 22.832031 Z M 23.179688 22.242188 C 23.492188 22.242188 23.726562 22.167969 23.890625 22.019531 C 24.050781 21.871094 24.132812 21.683594 24.132812 21.453125 C 24.132812 21.226562 24.050781 21.039062 23.890625 20.890625 C 23.730469 20.746094 23.492188 20.671875 23.171875 20.671875 C 22.851562 20.671875 22.617188 20.742188 22.460938 20.886719 C 22.304688 21.027344 22.226562 21.21875 22.226562 21.453125 C 22.226562 21.691406 22.304688 21.878906 22.464844 22.023438 C 22.621094 22.167969 22.859375 22.242188 23.179688 22.242188 Z M 23.179688 22.242188 " fill-opacity="1" fill-rule="nonzero"/><path fill="#ffffff" d="M 21.796875 19.636719 L 21.796875 19.066406 L 23.292969 19.066406 C 23.53125 19.066406 23.6875 19.058594 23.757812 19.042969 C 23.871094 19.019531 23.960938 18.960938 24.03125 18.867188 C 24.097656 18.777344 24.132812 18.648438 24.132812 18.488281 C 24.132812 18.328125 24.101562 18.203125 24.035156 18.121094 C 23.96875 18.039062 23.890625 17.992188 23.796875 17.972656 C 23.703125 17.957031 23.546875 17.949219 23.328125 17.949219 L 21.796875 17.949219 L 21.796875 17.375 L 23.25 17.375 C 23.582031 17.375 23.816406 17.390625 23.953125 17.421875 C 24.089844 17.453125 24.207031 17.511719 24.300781 17.59375 C 24.394531 17.675781 24.46875 17.789062 24.527344 17.925781 C 24.582031 18.066406 24.609375 18.25 24.609375 18.472656 C 24.609375 18.742188 24.578125 18.949219 24.519531 19.089844 C 24.457031 19.230469 24.378906 19.339844 24.28125 19.421875 C 24.183594 19.5 24.082031 19.554688 23.972656 19.582031 C 23.816406 19.617188 23.582031 19.636719 23.273438 19.636719 Z M 21.796875 19.636719 " fill-opacity="1" fill-rule="nonzero"/><path fill="#ffffff" d="M 24.5625 16.769531 L 21.796875 16.769531 L 21.796875 15.566406 C 21.796875 15.261719 21.820312 15.042969 21.871094 14.90625 C 21.921875 14.765625 22.007812 14.65625 22.136719 14.574219 C 22.261719 14.492188 22.410156 14.449219 22.574219 14.449219 C 22.78125 14.449219 22.953125 14.511719 23.085938 14.640625 C 23.222656 14.765625 23.308594 14.949219 23.34375 15.199219 C 23.414062 15.074219 23.488281 14.972656 23.574219 14.894531 C 23.660156 14.8125 23.808594 14.703125 24.023438 14.566406 L 24.5625 14.222656 L 24.5625 14.90625 L 23.960938 15.320312 C 23.746094 15.464844 23.609375 15.566406 23.554688 15.621094 C 23.5 15.675781 23.460938 15.734375 23.4375 15.792969 C 23.417969 15.855469 23.40625 15.949219 23.40625 16.082031 L 23.40625 16.199219 L 24.5625 16.199219 Z M 22.964844 16.199219 L 22.964844 15.773438 C 22.964844 15.5 22.957031 15.328125 22.933594 15.257812 C 22.910156 15.191406 22.871094 15.136719 22.816406 15.097656 C 22.761719 15.058594 22.691406 15.039062 22.609375 15.039062 C 22.515625 15.039062 22.441406 15.066406 22.382812 15.117188 C 22.324219 15.167969 22.289062 15.242188 22.273438 15.332031 C 22.269531 15.378906 22.265625 15.519531 22.265625 15.75 L 22.265625 16.199219 Z M 22.964844 16.199219 " fill-opacity="1" fill-rule="nonzero"/><path fill="#ffffff" d="M 23.664062 14.054688 L 23.609375 13.5 C 23.792969 13.464844 23.925781 13.398438 24.011719 13.296875 C 24.097656 13.191406 24.140625 13.054688 24.140625 12.878906 C 24.140625 12.695312 24.101562 12.558594 24.027344 12.464844 C 23.949219 12.371094 23.859375 12.324219 23.757812 12.324219 C 23.695312 12.324219 23.636719 12.34375 23.59375 12.382812 C 23.546875 12.421875 23.507812 12.488281 23.472656 12.589844 C 23.449219 12.65625 23.410156 12.808594 23.351562 13.046875 C 23.277344 13.355469 23.1875 13.570312 23.078125 13.691406 C 22.925781 13.867188 22.738281 13.953125 22.519531 13.953125 C 22.378906 13.953125 22.25 13.914062 22.125 13.832031 C 22.003906 13.75 21.910156 13.632812 21.847656 13.476562 C 21.78125 13.324219 21.75 13.136719 21.75 12.917969 C 21.75 12.5625 21.824219 12.296875 21.976562 12.113281 C 22.128906 11.933594 22.332031 11.839844 22.585938 11.832031 L 22.613281 12.40625 C 22.46875 12.429688 22.367188 12.480469 22.304688 12.5625 C 22.242188 12.644531 22.210938 12.761719 22.210938 12.925781 C 22.210938 13.089844 22.246094 13.222656 22.3125 13.316406 C 22.355469 13.375 22.410156 13.40625 22.484375 13.40625 C 22.550781 13.40625 22.605469 13.378906 22.652344 13.320312 C 22.710938 13.25 22.773438 13.074219 22.835938 12.796875 C 22.902344 12.515625 22.96875 12.308594 23.035156 12.175781 C 23.105469 12.042969 23.199219 11.9375 23.316406 11.863281 C 23.433594 11.789062 23.582031 11.75 23.757812 11.75 C 23.914062 11.75 24.0625 11.796875 24.203125 11.886719 C 24.339844 11.976562 24.441406 12.105469 24.511719 12.269531 C 24.578125 12.433594 24.613281 12.640625 24.613281 12.886719 C 24.613281 13.246094 24.53125 13.519531 24.367188 13.710938 C 24.207031 13.902344 23.972656 14.019531 23.664062 14.054688 Z M 23.664062 14.054688 " fill-opacity="1" fill-rule="nonzero"/><path fill="#ffffff" d="M 21.085938 23.121094 L 21.085938 25.574219 L 12.058594 25.574219 C 12.15625 24.648438 12.449219 23.769531 12.9375 22.9375 C 13.425781 22.109375 14.390625 21.007812 15.835938 19.632812 C 16.996094 18.523438 17.707031 17.773438 17.96875 17.378906 C 18.324219 16.832031 18.5 16.296875 18.5 15.761719 C 18.5 15.171875 18.347656 14.722656 18.039062 14.40625 C 17.730469 14.089844 17.304688 13.929688 16.761719 13.929688 C 16.222656 13.929688 15.792969 14.097656 15.476562 14.429688 C 15.160156 14.761719 14.976562 15.3125 14.925781 16.082031 L 12.359375 15.820312 C 12.515625 14.367188 12.992188 13.320312 13.800781 12.6875 C 14.605469 12.054688 15.613281 11.738281 16.824219 11.738281 C 18.148438 11.738281 19.191406 12.105469 19.949219 12.839844 C 20.707031 13.574219 21.085938 14.484375 21.085938 15.574219 C 21.085938 16.195312 20.976562 16.785156 20.761719 17.347656 C 20.542969 17.90625 20.199219 18.496094 19.730469 19.109375 C 19.417969 19.515625 18.855469 20.101562 18.042969 20.867188 C 17.230469 21.628906 16.714844 22.136719 16.5 22.386719 C 16.28125 22.640625 16.105469 22.882812 15.972656 23.121094 Z M 21.085938 23.121094 " fill-opacity="1" fill-rule="nonzero"/><g clip-path="url(#dc8e1cdf5e)"><path fill="#ffffff" d="M 18.335938 31.214844 C 16.738281 31.214844 15.1875 30.894531 13.726562 30.261719 C 12.316406 29.648438 11.046875 28.773438 9.960938 27.660156 C 8.875 26.542969 8.019531 25.246094 7.425781 23.800781 C 6.804688 22.300781 6.492188 20.710938 6.492188 19.070312 C 6.492188 17.433594 6.804688 15.84375 7.425781 14.34375 C 8.019531 12.898438 8.875 11.597656 9.960938 10.484375 C 11.046875 9.371094 12.316406 8.496094 13.726562 7.882812 C 15.1875 7.25 16.738281 6.929688 18.335938 6.929688 C 19.933594 6.929688 21.484375 7.25 22.945312 7.882812 C 22.996094 7.90625 23.046875 7.925781 23.097656 7.949219 C 23.46875 8.117188 23.636719 8.5625 23.472656 8.941406 C 23.351562 9.222656 23.082031 9.390625 22.800781 9.390625 C 22.703125 9.390625 22.601562 9.371094 22.507812 9.328125 C 22.460938 9.308594 22.417969 9.289062 22.375 9.269531 C 21.09375 8.714844 19.734375 8.433594 18.335938 8.433594 C 16.933594 8.433594 15.574219 8.714844 14.296875 9.269531 C 13.0625 9.804688 11.953125 10.570312 11 11.546875 C 10.046875 12.527344 9.296875 13.664062 8.777344 14.929688 C 8.234375 16.242188 7.960938 17.636719 7.960938 19.070312 C 7.960938 20.507812 8.234375 21.902344 8.777344 23.214844 C 9.296875 24.480469 10.046875 25.617188 11 26.59375 C 11.953125 27.570312 13.0625 28.339844 14.296875 28.875 C 15.574219 29.429688 16.933594 29.710938 18.335938 29.710938 C 19.734375 29.710938 21.09375 29.429688 22.375 28.875 C 23.609375 28.339844 24.71875 27.570312 25.671875 26.59375 C 26.625 25.617188 27.371094 24.480469 27.894531 23.214844 C 28.4375 21.902344 28.710938 20.507812 28.710938 19.070312 C 28.710938 18.65625 29.039062 18.320312 29.445312 18.320312 C 29.847656 18.320312 30.175781 18.65625 30.175781 19.070312 C 30.175781 20.710938 29.863281 22.300781 29.246094 23.800781 C 28.648438 25.246094 27.796875 26.542969 26.707031 27.660156 C 25.621094 28.773438 24.355469 29.648438 22.945312 30.261719 C 21.484375 30.894531 19.933594 31.214844 18.335938 31.214844 Z M 18.335938 31.214844 " fill-opacity="1" fill-rule="nonzero"/></g><path fill="#ffffff" d="M 29.347656 16.828125 C 29.078125 16.828125 28.832031 16.644531 28.761719 16.367188 L 28.757812 16.355469 C 28.667969 16.023438 28.859375 15.683594 29.183594 15.59375 C 29.507812 15.503906 29.839844 15.699219 29.929688 16.03125 L 29.933594 16.042969 C 30.019531 16.375 29.828125 16.71875 29.503906 16.808594 C 29.453125 16.820312 29.398438 16.828125 29.347656 16.828125 Z M 28.445312 14.535156 C 28.226562 14.535156 28.011719 14.414062 27.90625 14.199219 L 27.898438 14.1875 C 27.746094 13.882812 27.859375 13.507812 28.160156 13.347656 C 28.457031 13.191406 28.824219 13.308594 28.976562 13.613281 L 28.984375 13.628906 C 29.136719 13.933594 29.019531 14.308594 28.722656 14.464844 C 28.632812 14.511719 28.539062 14.535156 28.445312 14.535156 Z M 27.121094 12.46875 C 26.964844 12.46875 26.808594 12.40625 26.6875 12.28125 L 26.679688 12.273438 C 26.445312 12.027344 26.449219 11.632812 26.6875 11.394531 C 26.925781 11.152344 27.308594 11.15625 27.546875 11.402344 L 27.554688 11.414062 C 27.789062 11.65625 27.785156 12.050781 27.546875 12.292969 C 27.429688 12.410156 27.273438 12.46875 27.121094 12.46875 Z M 27.121094 12.46875 " fill-opacity="1" fill-rule="nonzero"/><g clip-path="url(#1e5766aa77)"><path fill="#ffffff" d="M 21.109375 10.761719 L 25.769531 10.992188 C 26 11.003906 26.15625 10.753906 26.050781 10.542969 L 23.914062 6.289062 C 23.808594 6.078125 23.519531 6.066406 23.394531 6.265625 L 20.871094 10.289062 C 20.746094 10.488281 20.878906 10.75 21.109375 10.761719 Z M 21.109375 10.761719 " fill-opacity="1" fill-rule="nonzero"/></g></svg>