<svg xmlns="http://www.w3.org/2000/svg" xmlns:xlink="http://www.w3.org/1999/xlink" width="50" zoomAndPan="magnify" viewBox="0 0 37.5 37.499999" height="50" preserveAspectRatio="xMidYMid meet" version="1.0"><defs><clipPath id="465779f34c"><path d="M 1.703125 1.703125 L 35.007812 1.703125 L 35.007812 35.007812 L 1.703125 35.007812 Z M 1.703125 1.703125 " clip-rule="nonzero"/></clipPath><clipPath id="e6b520e214"><path d="M 6 22 L 31 22 L 31 35.007812 L 6 35.007812 Z M 6 22 " clip-rule="nonzero"/></clipPath></defs><g clip-path="url(#465779f34c)"><path fill="#16c6e2" d="M 35.011719 18.355469 C 35.011719 18.902344 34.984375 19.445312 34.929688 19.988281 C 34.878906 20.53125 34.796875 21.070312 34.691406 21.605469 C 34.585938 22.140625 34.453125 22.667969 34.292969 23.191406 C 34.136719 23.714844 33.953125 24.226562 33.742188 24.730469 C 33.535156 25.234375 33.300781 25.726562 33.042969 26.207031 C 32.789062 26.6875 32.507812 27.15625 32.203125 27.609375 C 31.902344 28.0625 31.578125 28.5 31.230469 28.921875 C 30.882812 29.34375 30.519531 29.746094 30.132812 30.132812 C 29.746094 30.519531 29.34375 30.882812 28.921875 31.230469 C 28.5 31.578125 28.0625 31.902344 27.609375 32.203125 C 27.15625 32.507812 26.6875 32.789062 26.207031 33.042969 C 25.726562 33.300781 25.234375 33.535156 24.730469 33.742188 C 24.226562 33.953125 23.714844 34.136719 23.191406 34.292969 C 22.667969 34.453125 22.140625 34.585938 21.605469 34.691406 C 21.070312 34.796875 20.53125 34.878906 19.988281 34.929688 C 19.445312 34.984375 18.902344 35.011719 18.355469 35.011719 C 17.8125 35.011719 17.265625 34.984375 16.722656 34.929688 C 16.179688 34.878906 15.640625 34.796875 15.109375 34.691406 C 14.574219 34.585938 14.042969 34.453125 13.523438 34.292969 C 13 34.136719 12.488281 33.953125 11.984375 33.742188 C 11.480469 33.535156 10.988281 33.300781 10.503906 33.042969 C 10.023438 32.789062 9.558594 32.507812 9.105469 32.203125 C 8.652344 31.902344 8.210938 31.578125 7.792969 31.230469 C 7.371094 30.882812 6.964844 30.519531 6.582031 30.132812 C 6.195312 29.746094 5.828125 29.34375 5.484375 28.921875 C 5.136719 28.5 4.8125 28.0625 4.507812 27.609375 C 4.207031 27.15625 3.925781 26.6875 3.667969 26.207031 C 3.410156 25.726562 3.179688 25.234375 2.96875 24.730469 C 2.761719 24.226562 2.578125 23.714844 2.417969 23.191406 C 2.261719 22.667969 2.128906 22.140625 2.023438 21.605469 C 1.914062 21.070312 1.835938 20.53125 1.78125 19.988281 C 1.730469 19.445312 1.703125 18.902344 1.703125 18.355469 C 1.703125 17.8125 1.730469 17.265625 1.78125 16.722656 C 1.835938 16.179688 1.914062 15.640625 2.023438 15.109375 C 2.128906 14.574219 2.261719 14.042969 2.417969 13.523438 C 2.578125 13 2.761719 12.488281 2.96875 11.984375 C 3.179688 11.480469 3.410156 10.988281 3.667969 10.503906 C 3.925781 10.023438 4.207031 9.558594 4.507812 9.105469 C 4.8125 8.652344 5.136719 8.210938 5.484375 7.792969 C 5.828125 7.371094 6.195312 6.964844 6.582031 6.582031 C 6.964844 6.195312 7.371094 5.828125 7.792969 5.484375 C 8.210938 5.136719 8.652344 4.8125 9.105469 4.507812 C 9.558594 4.207031 10.023438 3.925781 10.503906 3.667969 C 10.988281 3.410156 11.480469 3.179688 11.984375 2.96875 C 12.488281 2.761719 13 2.578125 13.523438 2.417969 C 14.042969 2.261719 14.574219 2.128906 15.109375 2.023438 C 15.640625 1.914062 16.179688 1.835938 16.722656 1.78125 C 17.265625 1.730469 17.8125 1.703125 18.355469 1.703125 C 18.902344 1.703125 19.445312 1.730469 19.988281 1.78125 C 20.53125 1.835938 21.070312 1.914062 21.605469 2.023438 C 22.140625 2.128906 22.667969 2.261719 23.191406 2.417969 C 23.714844 2.578125 24.226562 2.761719 24.730469 2.96875 C 25.234375 3.179688 25.726562 3.410156 26.207031 3.667969 C 26.6875 3.925781 27.15625 4.207031 27.609375 4.507812 C 28.0625 4.8125 28.5 5.136719 28.921875 5.484375 C 29.34375 5.828125 29.746094 6.195312 30.132812 6.582031 C 30.519531 6.964844 30.882812 7.371094 31.230469 7.792969 C 31.578125 8.210938 31.902344 8.652344 32.203125 9.105469 C 32.507812 9.558594 32.789062 10.023438 33.042969 10.503906 C 33.300781 10.988281 33.535156 11.480469 33.742188 11.984375 C 33.953125 12.488281 34.136719 13 34.292969 13.523438 C 34.453125 14.042969 34.585938 14.574219 34.691406 15.109375 C 34.796875 15.640625 34.878906 16.179688 34.929688 16.722656 C 34.984375 17.265625 35.011719 17.8125 35.011719 18.355469 Z M 35.011719 18.355469 " fill-opacity="1" fill-rule="nonzero"/></g><g clip-path="url(#e6b520e214)"><path fill="#ffffff" d="M 30.3125 29.960938 C 29.925781 30.359375 29.519531 30.738281 29.09375 31.097656 C 28.667969 31.453125 28.226562 31.789062 27.769531 32.105469 C 27.308594 32.417969 26.835938 32.707031 26.347656 32.976562 C 25.859375 33.242188 25.359375 33.484375 24.847656 33.699219 C 24.335938 33.917969 23.8125 34.109375 23.28125 34.273438 C 22.75 34.4375 22.214844 34.574219 21.667969 34.683594 C 21.125 34.792969 20.574219 34.878906 20.019531 34.933594 C 19.46875 34.988281 18.914062 35.015625 18.355469 35.015625 C 17.800781 35.015625 17.246094 34.988281 16.691406 34.933594 C 16.140625 34.878906 15.589844 34.792969 15.046875 34.683594 C 14.5 34.574219 13.960938 34.4375 13.429688 34.273438 C 12.898438 34.109375 12.378906 33.917969 11.867188 33.699219 C 11.351562 33.484375 10.851562 33.242188 10.367188 32.976562 C 9.878906 32.707031 9.402344 32.417969 8.945312 32.105469 C 8.484375 31.789062 8.042969 31.453125 7.617188 31.097656 C 7.195312 30.738281 6.789062 30.359375 6.398438 29.960938 C 6.898438 28.785156 7.550781 27.707031 8.367188 26.722656 C 9.179688 25.742188 10.121094 24.898438 11.183594 24.195312 C 12.246094 23.488281 13.390625 22.953125 14.609375 22.585938 C 15.832031 22.214844 17.082031 22.03125 18.355469 22.03125 C 19.632812 22.03125 20.882812 22.214844 22.101562 22.585938 C 23.324219 22.953125 24.464844 23.488281 25.53125 24.195312 C 26.59375 24.898438 27.53125 25.742188 28.347656 26.722656 C 29.160156 27.707031 29.816406 28.785156 30.3125 29.960938 Z M 30.3125 29.960938 " fill-opacity="1" fill-rule="nonzero"/></g><path fill="#ff9561" d="M 18.351562 18.355469 C 18.660156 18.355469 18.960938 18.417969 19.246094 18.535156 C 19.535156 18.652344 19.789062 18.824219 20.007812 19.042969 C 20.226562 19.261719 20.398438 19.515625 20.515625 19.804688 C 20.636719 20.089844 20.695312 20.390625 20.695312 20.703125 L 20.695312 22.769531 C 20.695312 23.082031 20.636719 23.378906 20.515625 23.667969 C 20.398438 23.953125 20.226562 24.207031 20.007812 24.429688 C 19.789062 24.648438 19.535156 24.816406 19.246094 24.9375 C 18.960938 25.054688 18.660156 25.113281 18.351562 25.113281 C 18.039062 25.113281 17.738281 25.054688 17.453125 24.9375 C 17.164062 24.816406 16.910156 24.648438 16.691406 24.429688 C 16.472656 24.207031 16.300781 23.953125 16.183594 23.667969 C 16.066406 23.378906 16.003906 23.082031 16.003906 22.769531 L 16.003906 20.703125 C 16.003906 20.390625 16.066406 20.089844 16.183594 19.804688 C 16.300781 19.515625 16.472656 19.261719 16.691406 19.042969 C 16.910156 18.824219 17.164062 18.652344 17.453125 18.535156 C 17.738281 18.417969 18.039062 18.355469 18.351562 18.355469 Z M 18.351562 18.355469 " fill-opacity="1" fill-rule="nonzero"/><path fill="#002c5c" d="M 12.820312 17.859375 C 12.007812 16.511719 10.882812 13.238281 11.257812 11.359375 C 11.632812 9.484375 12.820312 9.648438 12.820312 9.648438 C 12.820312 9.648438 12.277344 8.628906 13.636719 7.667969 C 14.992188 6.707031 21.417969 7.980469 23.3125 7.667969 C 25.210938 7.355469 25.941406 8.105469 26.066406 9.691406 C 26.191406 11.277344 24.371094 15.402344 24.371094 15.402344 C 24.371094 15.402344 22.960938 15.761719 22.6875 15.824219 " fill-opacity="1" fill-rule="nonzero"/><path fill="#ff9561" d="M 14.074219 16.878906 C 14.074219 17.078125 14.039062 17.265625 13.964844 17.445312 C 13.886719 17.628906 13.78125 17.785156 13.644531 17.925781 C 13.503906 18.0625 13.34375 18.171875 13.164062 18.246094 C 12.980469 18.320312 12.792969 18.359375 12.597656 18.359375 C 12.402344 18.359375 12.210938 18.320312 12.03125 18.246094 C 11.851562 18.171875 11.691406 18.0625 11.550781 17.925781 C 11.414062 17.785156 11.304688 17.628906 11.230469 17.445312 C 11.15625 17.265625 11.117188 17.078125 11.117188 16.878906 C 11.117188 16.683594 11.15625 16.496094 11.230469 16.3125 C 11.304688 16.132812 11.414062 15.972656 11.550781 15.835938 C 11.691406 15.695312 11.851562 15.589844 12.03125 15.515625 C 12.210938 15.4375 12.402344 15.402344 12.597656 15.402344 C 12.792969 15.402344 12.980469 15.4375 13.164062 15.515625 C 13.34375 15.589844 13.503906 15.695312 13.644531 15.835938 C 13.78125 15.972656 13.886719 16.132812 13.964844 16.3125 C 14.039062 16.496094 14.074219 16.683594 14.074219 16.878906 Z M 14.074219 16.878906 " fill-opacity="1" fill-rule="nonzero"/><path fill="#ff9561" d="M 25.445312 16.878906 C 25.445312 17.078125 25.40625 17.265625 25.332031 17.445312 C 25.257812 17.628906 25.148438 17.785156 25.011719 17.925781 C 24.871094 18.0625 24.710938 18.171875 24.53125 18.246094 C 24.351562 18.320312 24.160156 18.359375 23.964844 18.359375 C 23.769531 18.359375 23.582031 18.320312 23.398438 18.246094 C 23.21875 18.171875 23.058594 18.0625 22.917969 17.925781 C 22.78125 17.785156 22.675781 17.628906 22.597656 17.445312 C 22.523438 17.265625 22.488281 17.078125 22.488281 16.878906 C 22.488281 16.683594 22.523438 16.496094 22.597656 16.3125 C 22.675781 16.132812 22.78125 15.972656 22.917969 15.835938 C 23.058594 15.695312 23.21875 15.589844 23.398438 15.515625 C 23.582031 15.4375 23.769531 15.402344 23.964844 15.402344 C 24.160156 15.402344 24.351562 15.4375 24.53125 15.515625 C 24.710938 15.589844 24.871094 15.695312 25.011719 15.835938 C 25.148438 15.972656 25.257812 16.132812 25.332031 16.3125 C 25.40625 16.496094 25.445312 16.683594 25.445312 16.878906 Z M 25.445312 16.878906 " fill-opacity="1" fill-rule="nonzero"/><path fill="#ffc9ac" d="M 18.355469 9.023438 C 18.734375 9.023438 19.109375 9.0625 19.480469 9.132812 C 19.851562 9.207031 20.210938 9.316406 20.558594 9.460938 C 20.910156 9.605469 21.242188 9.785156 21.554688 9.996094 C 21.871094 10.203125 22.160156 10.445312 22.429688 10.710938 C 22.695312 10.976562 22.933594 11.269531 23.144531 11.582031 C 23.355469 11.898438 23.53125 12.230469 23.675781 12.578125 C 23.820312 12.929688 23.929688 13.289062 24.003906 13.660156 C 24.078125 14.03125 24.117188 14.40625 24.117188 14.785156 L 24.117188 16.273438 C 24.117188 16.652344 24.078125 17.023438 24.003906 17.394531 C 23.929688 17.765625 23.820312 18.128906 23.675781 18.476562 C 23.53125 18.824219 23.355469 19.15625 23.144531 19.472656 C 22.933594 19.785156 22.695312 20.078125 22.429688 20.34375 C 22.160156 20.613281 21.871094 20.851562 21.554688 21.0625 C 21.242188 21.269531 20.910156 21.449219 20.558594 21.59375 C 20.210938 21.738281 19.851562 21.847656 19.480469 21.921875 C 19.109375 21.996094 18.734375 22.03125 18.355469 22.03125 C 17.976562 22.03125 17.605469 21.996094 17.234375 21.921875 C 16.863281 21.847656 16.5 21.738281 16.152344 21.59375 C 15.804688 21.449219 15.472656 21.269531 15.15625 21.0625 C 14.84375 20.851562 14.550781 20.613281 14.285156 20.34375 C 14.015625 20.078125 13.777344 19.785156 13.566406 19.472656 C 13.359375 19.15625 13.179688 18.824219 13.035156 18.476562 C 12.890625 18.128906 12.78125 17.765625 12.707031 17.394531 C 12.632812 17.023438 12.597656 16.652344 12.597656 16.273438 L 12.597656 14.785156 C 12.597656 14.40625 12.632812 14.03125 12.707031 13.660156 C 12.78125 13.289062 12.890625 12.929688 13.035156 12.578125 C 13.179688 12.230469 13.359375 11.898438 13.566406 11.582031 C 13.777344 11.269531 14.015625 10.976562 14.285156 10.710938 C 14.550781 10.445312 14.84375 10.203125 15.15625 9.996094 C 15.472656 9.785156 15.804688 9.605469 16.152344 9.460938 C 16.5 9.316406 16.863281 9.207031 17.234375 9.132812 C 17.605469 9.0625 17.976562 9.023438 18.355469 9.023438 Z M 18.355469 9.023438 " fill-opacity="1" fill-rule="nonzero"/><path fill="#002c5c" d="M 12.597656 16.273438 C 13.070312 14.574219 12.90625 13.695312 12.90625 13.695312 C 12.90625 13.695312 17.742188 14.09375 19.808594 13.945312 C 21.089844 13.851562 22.347656 13.636719 23.585938 13.300781 L 24.0625 17.050781 C 24.0625 17.050781 25.042969 13.113281 24.117188 11.152344 C 23.1875 9.191406 18.140625 7.75 15.011719 9.191406 C 11.882812 10.628906 12.082031 15.238281 12.597656 16.273438 Z M 12.597656 16.273438 " fill-opacity="1" fill-rule="nonzero"/></svg>