<svg xmlns="http://www.w3.org/2000/svg" xmlns:xlink="http://www.w3.org/1999/xlink" width="50" zoomAndPan="magnify" viewBox="0 0 37.5 37.499999" height="50" preserveAspectRatio="xMidYMid meet" version="1.0"><defs><clipPath id="58413c1304"><path d="M 1.414062 1.347656 L 35.457031 1.347656 L 35.457031 35.394531 L 1.414062 35.394531 Z M 1.414062 1.347656 " clip-rule="nonzero"/></clipPath><clipPath id="bdf20df988"><path d="M 7 4 L 31 4 L 31 31 L 7 31 Z M 7 4 " clip-rule="nonzero"/></clipPath><clipPath id="3a16e6f971"><path d="M 1.417969 18.371094 C 1.417969 17.253906 1.527344 16.144531 1.746094 15.050781 C 1.964844 13.953125 2.285156 12.890625 2.714844 11.855469 C 3.140625 10.824219 3.667969 9.84375 4.285156 8.914062 C 4.90625 7.984375 5.613281 7.125 6.402344 6.335938 C 7.191406 5.542969 8.054688 4.839844 8.980469 4.21875 C 9.910156 3.597656 10.890625 3.070312 11.921875 2.644531 C 12.957031 2.214844 14.019531 1.894531 15.117188 1.675781 C 16.210938 1.457031 17.316406 1.347656 18.433594 1.347656 C 19.550781 1.347656 20.660156 1.457031 21.753906 1.675781 C 22.851562 1.894531 23.914062 2.214844 24.945312 2.644531 C 25.980469 3.070312 26.960938 3.597656 27.890625 4.21875 C 28.816406 4.839844 29.675781 5.542969 30.46875 6.335938 C 31.257812 7.125 31.964844 7.984375 32.582031 8.914062 C 33.203125 9.84375 33.730469 10.824219 34.15625 11.855469 C 34.582031 12.890625 34.90625 13.953125 35.125 15.050781 C 35.34375 16.144531 35.453125 17.253906 35.453125 18.371094 C 35.453125 19.488281 35.34375 20.597656 35.125 21.691406 C 34.90625 22.789062 34.582031 23.851562 34.15625 24.886719 C 33.730469 25.917969 33.203125 26.898438 32.582031 27.828125 C 31.964844 28.757812 31.257812 29.617188 30.46875 30.410156 C 29.675781 31.199219 28.816406 31.902344 27.890625 32.523438 C 26.960938 33.144531 25.980469 33.671875 24.945312 34.097656 C 23.914062 34.527344 22.851562 34.847656 21.753906 35.066406 C 20.660156 35.285156 19.550781 35.394531 18.433594 35.394531 C 17.316406 35.394531 16.210938 35.285156 15.117188 35.066406 C 14.019531 34.847656 12.957031 34.527344 11.921875 34.097656 C 10.890625 33.671875 9.910156 33.144531 8.980469 32.523438 C 8.054688 31.902344 7.191406 31.199219 6.402344 30.410156 C 5.613281 29.617188 4.90625 28.757812 4.285156 27.828125 C 3.667969 26.898438 3.140625 25.917969 2.714844 24.886719 C 2.285156 23.851562 1.964844 22.789062 1.746094 21.691406 C 1.527344 20.597656 1.417969 19.488281 1.417969 18.371094 Z M 1.417969 18.371094 " clip-rule="nonzero"/></clipPath><clipPath id="3b48c40cb6"><path d="M 15 18 L 23 18 L 23 27 L 15 27 Z M 15 18 " clip-rule="nonzero"/></clipPath><clipPath id="333ba3021d"><path d="M 1.417969 18.371094 C 1.417969 17.253906 1.527344 16.144531 1.746094 15.050781 C 1.964844 13.953125 2.285156 12.890625 2.714844 11.855469 C 3.140625 10.824219 3.667969 9.84375 4.285156 8.914062 C 4.90625 7.984375 5.613281 7.125 6.402344 6.335938 C 7.191406 5.542969 8.054688 4.839844 8.980469 4.21875 C 9.910156 3.597656 10.890625 3.070312 11.921875 2.644531 C 12.957031 2.214844 14.019531 1.894531 15.117188 1.675781 C 16.210938 1.457031 17.316406 1.347656 18.433594 1.347656 C 19.550781 1.347656 20.660156 1.457031 21.753906 1.675781 C 22.851562 1.894531 23.914062 2.214844 24.945312 2.644531 C 25.980469 3.070312 26.960938 3.597656 27.890625 4.21875 C 28.816406 4.839844 29.675781 5.542969 30.46875 6.335938 C 31.257812 7.125 31.964844 7.984375 32.582031 8.914062 C 33.203125 9.84375 33.730469 10.824219 34.15625 11.855469 C 34.582031 12.890625 34.90625 13.953125 35.125 15.050781 C 35.34375 16.144531 35.453125 17.253906 35.453125 18.371094 C 35.453125 19.488281 35.34375 20.597656 35.125 21.691406 C 34.90625 22.789062 34.582031 23.851562 34.15625 24.886719 C 33.730469 25.917969 33.203125 26.898438 32.582031 27.828125 C 31.964844 28.757812 31.257812 29.617188 30.46875 30.410156 C 29.675781 31.199219 28.816406 31.902344 27.890625 32.523438 C 26.960938 33.144531 25.980469 33.671875 24.945312 34.097656 C 23.914062 34.527344 22.851562 34.847656 21.753906 35.066406 C 20.660156 35.285156 19.550781 35.394531 18.433594 35.394531 C 17.316406 35.394531 16.210938 35.285156 15.117188 35.066406 C 14.019531 34.847656 12.957031 34.527344 11.921875 34.097656 C 10.890625 33.671875 9.910156 33.144531 8.980469 32.523438 C 8.054688 31.902344 7.191406 31.199219 6.402344 30.410156 C 5.613281 29.617188 4.90625 28.757812 4.285156 27.828125 C 3.667969 26.898438 3.140625 25.917969 2.714844 24.886719 C 2.285156 23.851562 1.964844 22.789062 1.746094 21.691406 C 1.527344 20.597656 1.417969 19.488281 1.417969 18.371094 Z M 1.417969 18.371094 " clip-rule="nonzero"/></clipPath><clipPath id="4b99c8a6d2"><path d="M 15.664062 18.628906 L 22.296875 18.628906 L 22.296875 23 L 15.664062 23 Z M 15.664062 18.628906 " clip-rule="nonzero"/></clipPath><clipPath id="efddef86bc"><path d="M 1.417969 18.371094 C 1.417969 17.253906 1.527344 16.144531 1.746094 15.050781 C 1.964844 13.953125 2.285156 12.890625 2.714844 11.855469 C 3.140625 10.824219 3.667969 9.84375 4.285156 8.914062 C 4.90625 7.984375 5.613281 7.125 6.402344 6.335938 C 7.191406 5.542969 8.054688 4.839844 8.980469 4.21875 C 9.910156 3.597656 10.890625 3.070312 11.921875 2.644531 C 12.957031 2.214844 14.019531 1.894531 15.117188 1.675781 C 16.210938 1.457031 17.316406 1.347656 18.433594 1.347656 C 19.550781 1.347656 20.660156 1.457031 21.753906 1.675781 C 22.851562 1.894531 23.914062 2.214844 24.945312 2.644531 C 25.980469 3.070312 26.960938 3.597656 27.890625 4.21875 C 28.816406 4.839844 29.675781 5.542969 30.46875 6.335938 C 31.257812 7.125 31.964844 7.984375 32.582031 8.914062 C 33.203125 9.84375 33.730469 10.824219 34.15625 11.855469 C 34.582031 12.890625 34.90625 13.953125 35.125 15.050781 C 35.34375 16.144531 35.453125 17.253906 35.453125 18.371094 C 35.453125 19.488281 35.34375 20.597656 35.125 21.691406 C 34.90625 22.789062 34.582031 23.851562 34.15625 24.886719 C 33.730469 25.917969 33.203125 26.898438 32.582031 27.828125 C 31.964844 28.757812 31.257812 29.617188 30.46875 30.410156 C 29.675781 31.199219 28.816406 31.902344 27.890625 32.523438 C 26.960938 33.144531 25.980469 33.671875 24.945312 34.097656 C 23.914062 34.527344 22.851562 34.847656 21.753906 35.066406 C 20.660156 35.285156 19.550781 35.394531 18.433594 35.394531 C 17.316406 35.394531 16.210938 35.285156 15.117188 35.066406 C 14.019531 34.847656 12.957031 34.527344 11.921875 34.097656 C 10.890625 33.671875 9.910156 33.144531 8.980469 32.523438 C 8.054688 31.902344 7.191406 31.199219 6.402344 30.410156 C 5.613281 29.617188 4.90625 28.757812 4.285156 27.828125 C 3.667969 26.898438 3.140625 25.917969 2.714844 24.886719 C 2.285156 23.851562 1.964844 22.789062 1.746094 21.691406 C 1.527344 20.597656 1.417969 19.488281 1.417969 18.371094 Z M 1.417969 18.371094 " clip-rule="nonzero"/></clipPath><clipPath id="9feaec78e6"><path d="M 15.707031 19.339844 C 15.679688 20.128906 15.945312 23.953125 15.796875 25.152344 C 17.777344 25.605469 20.34375 26.632812 22.277344 25.492188 C 22 24.683594 21.988281 23.707031 21.949219 22.863281 C 21.875 21.226562 21.601562 20.273438 21.800781 18.648438 Z M 15.707031 19.339844 " clip-rule="evenodd"/></clipPath><clipPath id="7807af5027"><path d="M 5 23 L 32 23 L 32 35.394531 L 5 35.394531 Z M 5 23 " clip-rule="nonzero"/></clipPath><clipPath id="0d6337b77f"><path d="M 1.417969 18.371094 C 1.417969 17.253906 1.527344 16.144531 1.746094 15.050781 C 1.964844 13.953125 2.285156 12.890625 2.714844 11.855469 C 3.140625 10.824219 3.667969 9.84375 4.285156 8.914062 C 4.90625 7.984375 5.613281 7.125 6.402344 6.335938 C 7.191406 5.542969 8.054688 4.839844 8.980469 4.21875 C 9.910156 3.597656 10.890625 3.070312 11.921875 2.644531 C 12.957031 2.214844 14.019531 1.894531 15.117188 1.675781 C 16.210938 1.457031 17.316406 1.347656 18.433594 1.347656 C 19.550781 1.347656 20.660156 1.457031 21.753906 1.675781 C 22.851562 1.894531 23.914062 2.214844 24.945312 2.644531 C 25.980469 3.070312 26.960938 3.597656 27.890625 4.21875 C 28.816406 4.839844 29.675781 5.542969 30.46875 6.335938 C 31.257812 7.125 31.964844 7.984375 32.582031 8.914062 C 33.203125 9.84375 33.730469 10.824219 34.15625 11.855469 C 34.582031 12.890625 34.90625 13.953125 35.125 15.050781 C 35.34375 16.144531 35.453125 17.253906 35.453125 18.371094 C 35.453125 19.488281 35.34375 20.597656 35.125 21.691406 C 34.90625 22.789062 34.582031 23.851562 34.15625 24.886719 C 33.730469 25.917969 33.203125 26.898438 32.582031 27.828125 C 31.964844 28.757812 31.257812 29.617188 30.46875 30.410156 C 29.675781 31.199219 28.816406 31.902344 27.890625 32.523438 C 26.960938 33.144531 25.980469 33.671875 24.945312 34.097656 C 23.914062 34.527344 22.851562 34.847656 21.753906 35.066406 C 20.660156 35.285156 19.550781 35.394531 18.433594 35.394531 C 17.316406 35.394531 16.210938 35.285156 15.117188 35.066406 C 14.019531 34.847656 12.957031 34.527344 11.921875 34.097656 C 10.890625 33.671875 9.910156 33.144531 8.980469 32.523438 C 8.054688 31.902344 7.191406 31.199219 6.402344 30.410156 C 5.613281 29.617188 4.90625 28.757812 4.285156 27.828125 C 3.667969 26.898438 3.140625 25.917969 2.714844 24.886719 C 2.285156 23.851562 1.964844 22.789062 1.746094 21.691406 C 1.527344 20.597656 1.417969 19.488281 1.417969 18.371094 Z M 1.417969 18.371094 " clip-rule="nonzero"/></clipPath><clipPath id="41cac051b3"><path d="M 18 24 L 20 24 L 20 35.394531 L 18 35.394531 Z M 18 24 " clip-rule="nonzero"/></clipPath><clipPath id="e5022ac7d9"><path d="M 1.417969 18.371094 C 1.417969 17.253906 1.527344 16.144531 1.746094 15.050781 C 1.964844 13.953125 2.285156 12.890625 2.714844 11.855469 C 3.140625 10.824219 3.667969 9.84375 4.285156 8.914062 C 4.90625 7.984375 5.613281 7.125 6.402344 6.335938 C 7.191406 5.542969 8.054688 4.839844 8.980469 4.21875 C 9.910156 3.597656 10.890625 3.070312 11.921875 2.644531 C 12.957031 2.214844 14.019531 1.894531 15.117188 1.675781 C 16.210938 1.457031 17.316406 1.347656 18.433594 1.347656 C 19.550781 1.347656 20.660156 1.457031 21.753906 1.675781 C 22.851562 1.894531 23.914062 2.214844 24.945312 2.644531 C 25.980469 3.070312 26.960938 3.597656 27.890625 4.21875 C 28.816406 4.839844 29.675781 5.542969 30.46875 6.335938 C 31.257812 7.125 31.964844 7.984375 32.582031 8.914062 C 33.203125 9.84375 33.730469 10.824219 34.15625 11.855469 C 34.582031 12.890625 34.90625 13.953125 35.125 15.050781 C 35.34375 16.144531 35.453125 17.253906 35.453125 18.371094 C 35.453125 19.488281 35.34375 20.597656 35.125 21.691406 C 34.90625 22.789062 34.582031 23.851562 34.15625 24.886719 C 33.730469 25.917969 33.203125 26.898438 32.582031 27.828125 C 31.964844 28.757812 31.257812 29.617188 30.46875 30.410156 C 29.675781 31.199219 28.816406 31.902344 27.890625 32.523438 C 26.960938 33.144531 25.980469 33.671875 24.945312 34.097656 C 23.914062 34.527344 22.851562 34.847656 21.753906 35.066406 C 20.660156 35.285156 19.550781 35.394531 18.433594 35.394531 C 17.316406 35.394531 16.210938 35.285156 15.117188 35.066406 C 14.019531 34.847656 12.957031 34.527344 11.921875 34.097656 C 10.890625 33.671875 9.910156 33.144531 8.980469 32.523438 C 8.054688 31.902344 7.191406 31.199219 6.402344 30.410156 C 5.613281 29.617188 4.90625 28.757812 4.285156 27.828125 C 3.667969 26.898438 3.140625 25.917969 2.714844 24.886719 C 2.285156 23.851562 1.964844 22.789062 1.746094 21.691406 C 1.527344 20.597656 1.417969 19.488281 1.417969 18.371094 Z M 1.417969 18.371094 " clip-rule="nonzero"/></clipPath><clipPath id="02b8aade79"><path d="M 5.609375 34.003906 C 6.292969 32.21875 6.949219 28.355469 8.082031 26.773438 C 8.773438 25.808594 14.328125 24.050781 15.8125 23.269531 C 16.492188 23.9375 18.191406 25.402344 19.210938 25.199219 C 20.121094 25.019531 21.222656 24.246094 21.980469 23.121094 C 23.464844 23.917969 27.382812 24.628906 28.9375 25.976562 C 30.167969 27.039062 31.21875 30.546875 31.792969 32.464844 C 22.496094 41.132812 13.359375 42.496094 5.609375 34.003906 " clip-rule="evenodd"/></clipPath><clipPath id="342d9296b9"><path d="M 12 23.089844 L 26 23.089844 L 26 28 L 12 28 Z M 12 23.089844 " clip-rule="nonzero"/></clipPath><clipPath id="feaccf0143"><path d="M 1.417969 18.371094 C 1.417969 17.253906 1.527344 16.144531 1.746094 15.050781 C 1.964844 13.953125 2.285156 12.890625 2.714844 11.855469 C 3.140625 10.824219 3.667969 9.84375 4.285156 8.914062 C 4.90625 7.984375 5.613281 7.125 6.402344 6.335938 C 7.191406 5.542969 8.054688 4.839844 8.980469 4.21875 C 9.910156 3.597656 10.890625 3.070312 11.921875 2.644531 C 12.957031 2.214844 14.019531 1.894531 15.117188 1.675781 C 16.210938 1.457031 17.316406 1.347656 18.433594 1.347656 C 19.550781 1.347656 20.660156 1.457031 21.753906 1.675781 C 22.851562 1.894531 23.914062 2.214844 24.945312 2.644531 C 25.980469 3.070312 26.960938 3.597656 27.890625 4.21875 C 28.816406 4.839844 29.675781 5.542969 30.46875 6.335938 C 31.257812 7.125 31.964844 7.984375 32.582031 8.914062 C 33.203125 9.84375 33.730469 10.824219 34.15625 11.855469 C 34.582031 12.890625 34.90625 13.953125 35.125 15.050781 C 35.34375 16.144531 35.453125 17.253906 35.453125 18.371094 C 35.453125 19.488281 35.34375 20.597656 35.125 21.691406 C 34.90625 22.789062 34.582031 23.851562 34.15625 24.886719 C 33.730469 25.917969 33.203125 26.898438 32.582031 27.828125 C 31.964844 28.757812 31.257812 29.617188 30.46875 30.410156 C 29.675781 31.199219 28.816406 31.902344 27.890625 32.523438 C 26.960938 33.144531 25.980469 33.671875 24.945312 34.097656 C 23.914062 34.527344 22.851562 34.847656 21.753906 35.066406 C 20.660156 35.285156 19.550781 35.394531 18.433594 35.394531 C 17.316406 35.394531 16.210938 35.285156 15.117188 35.066406 C 14.019531 34.847656 12.957031 34.527344 11.921875 34.097656 C 10.890625 33.671875 9.910156 33.144531 8.980469 32.523438 C 8.054688 31.902344 7.191406 31.199219 6.402344 30.410156 C 5.613281 29.617188 4.90625 28.757812 4.285156 27.828125 C 3.667969 26.898438 3.140625 25.917969 2.714844 24.886719 C 2.285156 23.851562 1.964844 22.789062 1.746094 21.691406 C 1.527344 20.597656 1.417969 19.488281 1.417969 18.371094 Z M 1.417969 18.371094 " clip-rule="nonzero"/></clipPath><clipPath id="75d51bedc9"><path d="M 5.609375 34.003906 C 6.292969 32.21875 6.949219 28.355469 8.082031 26.773438 C 8.773438 25.808594 14.328125 24.050781 15.8125 23.269531 C 16.492188 23.9375 18.191406 25.402344 19.210938 25.199219 C 20.121094 25.019531 21.222656 24.246094 21.980469 23.121094 C 23.464844 23.917969 27.382812 24.628906 28.9375 25.976562 C 30.167969 27.039062 31.21875 30.546875 31.792969 32.464844 C 22.496094 41.132812 13.359375 42.496094 5.609375 34.003906 " clip-rule="evenodd"/></clipPath><clipPath id="302f41718c"><path d="M 12 7 L 25 7 L 25 22 L 12 22 Z M 12 7 " clip-rule="nonzero"/></clipPath><clipPath id="b45210f5e8"><path d="M 1.417969 18.371094 C 1.417969 17.253906 1.527344 16.144531 1.746094 15.050781 C 1.964844 13.953125 2.285156 12.890625 2.714844 11.855469 C 3.140625 10.824219 3.667969 9.84375 4.285156 8.914062 C 4.90625 7.984375 5.613281 7.125 6.402344 6.335938 C 7.191406 5.542969 8.054688 4.839844 8.980469 4.21875 C 9.910156 3.597656 10.890625 3.070312 11.921875 2.644531 C 12.957031 2.214844 14.019531 1.894531 15.117188 1.675781 C 16.210938 1.457031 17.316406 1.347656 18.433594 1.347656 C 19.550781 1.347656 20.660156 1.457031 21.753906 1.675781 C 22.851562 1.894531 23.914062 2.214844 24.945312 2.644531 C 25.980469 3.070312 26.960938 3.597656 27.890625 4.21875 C 28.816406 4.839844 29.675781 5.542969 30.46875 6.335938 C 31.257812 7.125 31.964844 7.984375 32.582031 8.914062 C 33.203125 9.84375 33.730469 10.824219 34.15625 11.855469 C 34.582031 12.890625 34.90625 13.953125 35.125 15.050781 C 35.34375 16.144531 35.453125 17.253906 35.453125 18.371094 C 35.453125 19.488281 35.34375 20.597656 35.125 21.691406 C 34.90625 22.789062 34.582031 23.851562 34.15625 24.886719 C 33.730469 25.917969 33.203125 26.898438 32.582031 27.828125 C 31.964844 28.757812 31.257812 29.617188 30.46875 30.410156 C 29.675781 31.199219 28.816406 31.902344 27.890625 32.523438 C 26.960938 33.144531 25.980469 33.671875 24.945312 34.097656 C 23.914062 34.527344 22.851562 34.847656 21.753906 35.066406 C 20.660156 35.285156 19.550781 35.394531 18.433594 35.394531 C 17.316406 35.394531 16.210938 35.285156 15.117188 35.066406 C 14.019531 34.847656 12.957031 34.527344 11.921875 34.097656 C 10.890625 33.671875 9.910156 33.144531 8.980469 32.523438 C 8.054688 31.902344 7.191406 31.199219 6.402344 30.410156 C 5.613281 29.617188 4.90625 28.757812 4.285156 27.828125 C 3.667969 26.898438 3.140625 25.917969 2.714844 24.886719 C 2.285156 23.851562 1.964844 22.789062 1.746094 21.691406 C 1.527344 20.597656 1.417969 19.488281 1.417969 18.371094 Z M 1.417969 18.371094 " clip-rule="nonzero"/></clipPath><clipPath id="5b3bc177a1"><path d="M 11 5 L 24 5 L 24 17 L 11 17 Z M 11 5 " clip-rule="nonzero"/></clipPath><clipPath id="d500f65d68"><path d="M 1.417969 18.371094 C 1.417969 17.253906 1.527344 16.144531 1.746094 15.050781 C 1.964844 13.953125 2.285156 12.890625 2.714844 11.855469 C 3.140625 10.824219 3.667969 9.84375 4.285156 8.914062 C 4.90625 7.984375 5.613281 7.125 6.402344 6.335938 C 7.191406 5.542969 8.054688 4.839844 8.980469 4.21875 C 9.910156 3.597656 10.890625 3.070312 11.921875 2.644531 C 12.957031 2.214844 14.019531 1.894531 15.117188 1.675781 C 16.210938 1.457031 17.316406 1.347656 18.433594 1.347656 C 19.550781 1.347656 20.660156 1.457031 21.753906 1.675781 C 22.851562 1.894531 23.914062 2.214844 24.945312 2.644531 C 25.980469 3.070312 26.960938 3.597656 27.890625 4.21875 C 28.816406 4.839844 29.675781 5.542969 30.46875 6.335938 C 31.257812 7.125 31.964844 7.984375 32.582031 8.914062 C 33.203125 9.84375 33.730469 10.824219 34.15625 11.855469 C 34.582031 12.890625 34.90625 13.953125 35.125 15.050781 C 35.34375 16.144531 35.453125 17.253906 35.453125 18.371094 C 35.453125 19.488281 35.34375 20.597656 35.125 21.691406 C 34.90625 22.789062 34.582031 23.851562 34.15625 24.886719 C 33.730469 25.917969 33.203125 26.898438 32.582031 27.828125 C 31.964844 28.757812 31.257812 29.617188 30.46875 30.410156 C 29.675781 31.199219 28.816406 31.902344 27.890625 32.523438 C 26.960938 33.144531 25.980469 33.671875 24.945312 34.097656 C 23.914062 34.527344 22.851562 34.847656 21.753906 35.066406 C 20.660156 35.285156 19.550781 35.394531 18.433594 35.394531 C 17.316406 35.394531 16.210938 35.285156 15.117188 35.066406 C 14.019531 34.847656 12.957031 34.527344 11.921875 34.097656 C 10.890625 33.671875 9.910156 33.144531 8.980469 32.523438 C 8.054688 31.902344 7.191406 31.199219 6.402344 30.410156 C 5.613281 29.617188 4.90625 28.757812 4.285156 27.828125 C 3.667969 26.898438 3.140625 25.917969 2.714844 24.886719 C 2.285156 23.851562 1.964844 22.789062 1.746094 21.691406 C 1.527344 20.597656 1.417969 19.488281 1.417969 18.371094 Z M 1.417969 18.371094 " clip-rule="nonzero"/></clipPath></defs><g clip-path="url(#58413c1304)"><path fill="#ffe6e6" d="M 35.453125 18.371094 C 35.453125 18.929688 35.425781 19.484375 35.371094 20.039062 C 35.316406 20.59375 35.234375 21.144531 35.125 21.691406 C 35.015625 22.238281 34.878906 22.777344 34.71875 23.3125 C 34.558594 23.847656 34.371094 24.371094 34.15625 24.886719 C 33.941406 25.402344 33.703125 25.902344 33.441406 26.394531 C 33.179688 26.886719 32.894531 27.363281 32.582031 27.828125 C 32.273438 28.292969 31.941406 28.738281 31.589844 29.171875 C 31.234375 29.601562 30.863281 30.015625 30.46875 30.410156 C 30.074219 30.800781 29.660156 31.175781 29.230469 31.53125 C 28.800781 31.882812 28.351562 32.214844 27.890625 32.523438 C 27.425781 32.835938 26.949219 33.121094 26.457031 33.382812 C 25.964844 33.648438 25.460938 33.886719 24.945312 34.097656 C 24.433594 34.3125 23.910156 34.5 23.375 34.660156 C 22.839844 34.824219 22.300781 34.957031 21.753906 35.066406 C 21.207031 35.175781 20.65625 35.257812 20.101562 35.3125 C 19.546875 35.367188 18.992188 35.394531 18.433594 35.394531 C 17.878906 35.394531 17.320312 35.367188 16.765625 35.3125 C 16.214844 35.257812 15.664062 35.175781 15.117188 35.066406 C 14.570312 34.957031 14.027344 34.824219 13.496094 34.660156 C 12.960938 34.5 12.4375 34.3125 11.921875 34.097656 C 11.410156 33.886719 10.90625 33.648438 10.414062 33.382812 C 9.921875 33.121094 9.445312 32.835938 8.980469 32.523438 C 8.519531 32.214844 8.070312 31.882812 7.640625 31.53125 C 7.210938 31.175781 6.796875 30.800781 6.402344 30.410156 C 6.007812 30.015625 5.636719 29.601562 5.28125 29.171875 C 4.929688 28.738281 4.597656 28.292969 4.285156 27.828125 C 3.976562 27.363281 3.691406 26.886719 3.429688 26.394531 C 3.164062 25.902344 2.929688 25.402344 2.714844 24.886719 C 2.5 24.371094 2.3125 23.847656 2.152344 23.3125 C 1.992188 22.777344 1.855469 22.238281 1.746094 21.691406 C 1.636719 21.144531 1.554688 20.59375 1.5 20.039062 C 1.445312 19.484375 1.417969 18.929688 1.417969 18.371094 C 1.417969 17.8125 1.445312 17.257812 1.5 16.703125 C 1.554688 16.148438 1.636719 15.597656 1.746094 15.050781 C 1.855469 14.503906 1.992188 13.964844 2.152344 13.429688 C 2.3125 12.894531 2.5 12.371094 2.714844 11.855469 C 2.929688 11.339844 3.164062 10.839844 3.429688 10.347656 C 3.691406 9.855469 3.976562 9.378906 4.285156 8.914062 C 4.597656 8.449219 4.929688 8.003906 5.28125 7.570312 C 5.636719 7.140625 6.007812 6.726562 6.402344 6.335938 C 6.796875 5.941406 7.210938 5.566406 7.640625 5.210938 C 8.070312 4.859375 8.519531 4.527344 8.980469 4.21875 C 9.445312 3.90625 9.921875 3.621094 10.414062 3.359375 C 10.90625 3.09375 11.410156 2.855469 11.921875 2.644531 C 12.4375 2.429688 12.960938 2.242188 13.496094 2.082031 C 14.027344 1.917969 14.570312 1.785156 15.117188 1.675781 C 15.664062 1.566406 16.214844 1.484375 16.765625 1.429688 C 17.320312 1.375 17.878906 1.347656 18.433594 1.347656 C 18.992188 1.347656 19.546875 1.375 20.101562 1.429688 C 20.65625 1.484375 21.207031 1.566406 21.753906 1.675781 C 22.300781 1.785156 22.839844 1.917969 23.375 2.082031 C 23.910156 2.242188 24.433594 2.429688 24.945312 2.644531 C 25.460938 2.855469 25.964844 3.09375 26.457031 3.359375 C 26.949219 3.621094 27.425781 3.90625 27.890625 4.21875 C 28.351562 4.527344 28.800781 4.859375 29.230469 5.210938 C 29.660156 5.566406 30.074219 5.941406 30.46875 6.335938 C 30.863281 6.726562 31.234375 7.140625 31.589844 7.570312 C 31.941406 8.003906 32.273438 8.449219 32.582031 8.914062 C 32.894531 9.378906 33.179688 9.855469 33.441406 10.347656 C 33.703125 10.839844 33.941406 11.339844 34.15625 11.855469 C 34.371094 12.371094 34.558594 12.894531 34.71875 13.429688 C 34.878906 13.964844 35.015625 14.503906 35.125 15.050781 C 35.234375 15.597656 35.316406 16.148438 35.371094 16.703125 C 35.425781 17.257812 35.453125 17.8125 35.453125 18.371094 Z M 35.453125 18.371094 " fill-opacity="1" fill-rule="nonzero"/></g><g clip-path="url(#bdf20df988)"><g clip-path="url(#3a16e6f971)"><path fill="#2c2c2c" d="M 17.65625 5.261719 C 13.367188 4.933594 11.191406 8.519531 10.609375 11.246094 C 9.375 17.023438 12.882812 18.539062 11.59375 20.902344 C 10.847656 22.261719 8.132812 22.382812 7.710938 29.039062 L 29.183594 30.535156 C 32.867188 24.71875 23.207031 21.46875 23.992188 19.839844 C 25.25 17.238281 25.820312 14.566406 25.707031 12.105469 C 25.515625 8.09375 21.976562 3.714844 17.65625 5.261719 " fill-opacity="1" fill-rule="evenodd"/></g></g><g clip-path="url(#3b48c40cb6)"><g clip-path="url(#333ba3021d)"><path fill="#ffd6a9" d="M 15.707031 19.339844 C 15.679688 20.128906 15.945312 23.953125 15.796875 25.152344 C 17.777344 25.605469 20.34375 26.632812 22.277344 25.492188 C 22 24.683594 21.988281 23.707031 21.949219 22.863281 C 21.875 21.226562 21.601562 20.273438 21.800781 18.648438 Z M 15.707031 19.339844 " fill-opacity="1" fill-rule="evenodd"/></g></g><g clip-path="url(#4b99c8a6d2)"><g clip-path="url(#efddef86bc)"><g clip-path="url(#9feaec78e6)"><path fill="#2c2c2c" d="M 12.730469 19.308594 C 13.136719 19.796875 14.316406 20.429688 14.730469 20.910156 C 15.941406 22.324219 18.292969 23.222656 19.78125 22.324219 C 21.308594 21.402344 22.070312 19.59375 22.433594 17.925781 Z M 12.730469 19.308594 " fill-opacity="1" fill-rule="evenodd"/></g></g></g><g clip-path="url(#7807af5027)"><g clip-path="url(#0d6337b77f)"><path fill="#e0714b" d="M 5.609375 34.003906 C 6.292969 32.21875 6.949219 28.355469 8.082031 26.773438 C 8.773438 25.808594 14.328125 24.050781 15.8125 23.269531 C 16.492188 23.9375 18.191406 25.402344 19.210938 25.199219 C 20.121094 25.019531 21.222656 24.246094 21.980469 23.121094 C 23.464844 23.917969 27.382812 24.628906 28.9375 25.976562 C 30.167969 27.039062 31.21875 30.546875 31.792969 32.464844 C 22.496094 41.132812 13.359375 42.496094 5.609375 34.003906 " fill-opacity="1" fill-rule="evenodd"/></g></g><g clip-path="url(#41cac051b3)"><g clip-path="url(#e5022ac7d9)"><g clip-path="url(#02b8aade79)"><path fill="#ffffff" d="M 18.308594 36.757812 C 18.214844 33.703125 18.589844 26.863281 18.992188 24.238281 C 19.050781 24.246094 19.28125 24.378906 19.398438 24.308594 C 19.136719 27.339844 18.769531 33.015625 18.828125 36.746094 Z M 18.308594 36.757812 " fill-opacity="1" fill-rule="evenodd"/></g></g></g><g clip-path="url(#342d9296b9)"><g clip-path="url(#feaccf0143)"><g clip-path="url(#75d51bedc9)"><path fill="#ffffff" d="M 12.453125 22.980469 C 12.988281 24.320312 16.449219 27.855469 17.105469 27.636719 C 17.511719 27.503906 18.578125 26.226562 19.082031 25.214844 C 19.503906 26.144531 20.78125 27.761719 21.171875 27.753906 C 21.171875 27.753906 24.582031 25.074219 25.511719 22.425781 C 21.21875 21.378906 16.636719 21.570312 12.453125 22.980469 Z M 12.453125 22.980469 " fill-opacity="1" fill-rule="evenodd"/></g></g></g><g clip-path="url(#302f41718c)"><g clip-path="url(#b45210f5e8)"><path fill="#ffd6a9" d="M 12.414062 11.234375 C 12.363281 13.75 12.4375 17.128906 14.058594 19.21875 C 14.664062 20.003906 15.351562 20.671875 16.203125 21.152344 C 16.867188 21.53125 17.703125 21.898438 18.480469 21.839844 C 19.394531 21.769531 20.027344 21.371094 20.585938 20.898438 C 21.878906 19.804688 22.789062 18.195312 23.277344 16.59375 C 24.113281 16.128906 25.03125 15.21875 24.777344 14.167969 C 24.613281 13.496094 23.902344 13.285156 23.328125 13.605469 C 22.933594 13.828125 22.703125 14.199219 22.515625 14.597656 C 22.691406 12.839844 22.238281 10.089844 21.03125 8.734375 C 18.53125 5.917969 13.929688 7.371094 12.414062 11.234375 Z M 12.414062 11.234375 " fill-opacity="1" fill-rule="evenodd"/></g></g><g clip-path="url(#5b3bc177a1)"><g clip-path="url(#d500f65d68)"><path fill="#2c2c2c" d="M 22.519531 14.835938 C 22.066406 12.085938 20.808594 7.996094 18.554688 9.476562 C 16.695312 8.082031 14.375 9.117188 12.625 16.277344 C 10.421875 10.71875 13.613281 7.050781 14.667969 6.367188 C 16.042969 5.480469 19.273438 5.28125 19.875 6.34375 C 20.0625 6.675781 22.234375 7.949219 23.058594 9.84375 C 23.878906 11.734375 22.730469 12.804688 22.519531 14.835938 Z M 22.519531 14.835938 " fill-opacity="1" fill-rule="evenodd"/></g></g></svg>