<svg xmlns="http://www.w3.org/2000/svg" xmlns:xlink="http://www.w3.org/1999/xlink" width="50" zoomAndPan="magnify" viewBox="0 0 37.5 37.499999" height="50" preserveAspectRatio="xMidYMid meet" version="1.0"><defs><clipPath id="9f71a81cbd"><path d="M 1.480469 1.480469 L 35.527344 1.480469 L 35.527344 35.527344 L 1.480469 35.527344 Z M 1.480469 1.480469 " clip-rule="nonzero"/></clipPath><clipPath id="0701489304"><path d="M 7 27 L 30 27 L 30 35.527344 L 7 35.527344 Z M 7 27 " clip-rule="nonzero"/></clipPath></defs><g clip-path="url(#9f71a81cbd)"><path fill="#59c7b6" d="M 35.492188 18.503906 C 35.480469 27.898438 27.859375 35.503906 18.464844 35.492188 C 9.074219 35.480469 1.46875 27.859375 1.480469 18.46875 C 1.492188 9.074219 9.113281 1.46875 18.503906 1.480469 C 27.898438 1.492188 35.5 9.113281 35.492188 18.503906 " fill-opacity="1" fill-rule="nonzero"/></g><path fill="#f8a692" d="M 20.9375 31.578125 L 16.078125 31.570312 L 16.085938 22.089844 L 20.949219 22.09375 L 20.9375 31.578125 " fill-opacity="1" fill-rule="nonzero"/><path fill="#fbd9c9" d="M 18.507812 23.003906 C 16.84375 23.003906 16.445312 21.347656 16.445312 21.347656 C 16.445312 21.347656 18.375 22.097656 20.570312 21.347656 C 20.570312 21.347656 20.167969 23.003906 18.507812 23.003906 Z M 25.421875 18.78125 C 25.671875 17.820312 27.597656 9.488281 18.472656 9.441406 C 18.460938 9.441406 18.449219 9.441406 18.4375 9.441406 C 18.425781 9.441406 18.410156 9.441406 18.398438 9.441406 C 8.71875 9.488281 11.621094 18.875 11.621094 18.875 C 12.402344 21.21875 14.203125 23.523438 16.050781 24.730469 C 16.890625 25.28125 17.738281 25.605469 18.507812 25.605469 C 19.273438 25.605469 20.125 25.28125 20.960938 24.730469 C 22.8125 23.523438 24.609375 21.21875 25.390625 18.875 L 25.394531 18.875 C 25.394531 18.875 25.402344 18.851562 25.414062 18.808594 C 25.417969 18.800781 25.417969 18.792969 25.421875 18.785156 C 25.421875 18.78125 25.421875 18.78125 25.421875 18.78125 " fill-opacity="1" fill-rule="evenodd"/><path fill="#f03a1f" d="M 18.542969 31.308594 L 18.539062 31.316406 Z M 18.542969 31.308594 " fill-opacity="1" fill-rule="nonzero"/><path fill="#f03a1f" d="M 18.539062 31.316406 L 18.53125 31.308594 L 18.535156 31.316406 Z M 18.539062 31.316406 " fill-opacity="1" fill-rule="nonzero"/><path fill="#e882a3" d="M 18.507812 22.851562 C 16.84375 22.851562 16.445312 21.347656 16.445312 21.347656 C 16.445312 21.347656 16.84375 23.003906 18.507812 23.003906 C 20.167969 23.003906 20.570312 21.347656 20.570312 21.347656 C 20.570312 21.347656 20.167969 22.851562 18.507812 22.851562 " fill-opacity="1" fill-rule="nonzero"/><path fill="#e882a3" d="M 18.507812 21.863281 C 19.613281 21.863281 20.570312 21.347656 20.570312 21.347656 C 18.375 22.097656 16.445312 21.347656 16.445312 21.347656 C 16.445312 21.347656 17.398438 21.863281 18.507812 21.863281 " fill-opacity="1" fill-rule="nonzero"/><path fill="#ffffff" d="M 18.507812 21.863281 C 17.398438 21.863281 16.445312 21.347656 16.445312 21.347656 C 16.445312 21.347656 16.84375 22.851562 18.507812 22.851562 C 20.167969 22.851562 20.570312 21.347656 20.570312 21.347656 C 20.570312 21.347656 19.613281 21.863281 18.507812 21.863281 " fill-opacity="1" fill-rule="nonzero"/><path fill="#d39787" d="M 15.3125 17.011719 C 14.75 17.101562 14.347656 17.585938 14.3125 18.144531 L 16.625 17.765625 C 16.414062 17.246094 15.875 16.917969 15.3125 17.011719 " fill-opacity="1" fill-rule="nonzero"/><path fill="#d39787" d="M 21.699219 17.011719 C 21.136719 16.917969 20.601562 17.246094 20.386719 17.765625 L 22.703125 18.144531 C 22.667969 17.585938 22.261719 17.101562 21.699219 17.011719 " fill-opacity="1" fill-rule="nonzero"/><path fill="#9a4a28" d="M 20.867188 16.167969 C 20.867188 16.167969 22.550781 16.105469 23.285156 17.179688 C 23.285156 17.179688 22.84375 15.777344 20.867188 16.167969 " fill-opacity="1" fill-rule="nonzero"/><path fill="#9a4a28" d="M 13.730469 17.179688 C 14.394531 16.207031 15.835938 16.164062 16.101562 16.167969 L 16.113281 16.160156 C 14.164062 15.792969 13.730469 17.179688 13.730469 17.179688 " fill-opacity="1" fill-rule="nonzero"/><path fill="#fbd9c9" d="M 13.734375 27.867188 C 13.734375 27.867188 16.921875 26.832031 18.515625 26.832031 L 18.519531 32.222656 L 13.730469 31.316406 L 13.734375 27.867188 " fill-opacity="1" fill-rule="nonzero"/><path fill="#fbd9c9" d="M 23.261719 27.867188 C 23.261719 27.867188 20.070312 26.832031 18.480469 26.832031 L 18.472656 32.222656 L 23.265625 31.316406 L 23.261719 27.867188 " fill-opacity="1" fill-rule="nonzero"/><g clip-path="url(#0701489304)"><path fill="#facc07" d="M 26.898438 28.914062 L 23.351562 27.875 C 22.695312 30.007812 20.792969 31.550781 18.542969 31.550781 C 16.292969 31.550781 14.386719 30.003906 13.734375 27.867188 L 10.179688 28.894531 C 9.050781 29.144531 8.035156 30.144531 7.253906 31.195312 C 10.253906 33.863281 14.207031 35.488281 18.535156 35.492188 C 22.863281 35.496094 26.816406 33.882812 29.820312 31.222656 C 29.042969 30.167969 28.03125 29.167969 26.898438 28.914062 " fill-opacity="1" fill-rule="nonzero"/></g><path fill="#f8a692" d="M 16.078125 27.210938 C 17.039062 28.566406 19.984375 28.566406 20.945312 27.210938 L 20.945312 26.496094 L 16.078125 26.496094 L 16.078125 27.210938 " fill-opacity="1" fill-rule="nonzero"/><path fill="#82431c" d="M 29.367188 15.394531 C 29.40625 14.796875 28.898438 14.660156 28.785156 14.050781 C 28.601562 13.0625 28.949219 12.089844 28.203125 11.605469 C 28.414062 11.3125 28.746094 10.996094 28.695312 10.441406 C 28.625 10.007812 28.019531 9.96875 27.96875 9.511719 C 28.027344 8.503906 27.101562 9.070312 27.019531 8.648438 C 26.753906 5.839844 23.46875 5.527344 22.617188 6.019531 C 22.382812 4.8125 19.703125 3.734375 19.3125 3.773438 C 19.207031 4.117188 19.097656 4.402344 18.980469 4.632812 C 18.632812 4.136719 18.054688 3.8125 17.402344 3.8125 C 16.578125 3.8125 15.878906 4.324219 15.597656 5.046875 C 14.988281 4.890625 14.308594 4.824219 13.550781 5.070312 C 13.550781 5.070312 11.777344 5.597656 12.808594 7.304688 C 10.550781 6.65625 11.535156 9.917969 9.230469 9.046875 C 8.816406 9.390625 8.644531 10.121094 8.878906 10.792969 C 7.832031 11.144531 7.945312 12.648438 7.484375 13.585938 C 7.375 14.15625 8.03125 14.3125 7.949219 14.515625 C 6.433594 15.425781 7.238281 17.84375 8.878906 17.542969 C 7.71875 18.484375 8.726562 20.363281 9.8125 20.105469 C 9.351562 22.089844 12.039062 22.851562 12.71875 22.316406 C 12.601562 22.621094 12.582031 23.03125 12.605469 23.480469 C 12.921875 23.746094 13.828125 23.324219 14.394531 23.339844 C 14.273438 22.347656 13.8125 21.429688 13.089844 20.738281 C 12.679688 20.34375 12.328125 19.890625 12.253906 19.636719 C 13.632812 19.011719 14.105469 15.96875 13.1875 15.332031 C 14.441406 15.464844 15.929688 12.585938 14.082031 11.746094 C 14.765625 10.375 19.40625 10.195312 20.519531 11.605469 C 20.125 12.125 20.035156 14.722656 23.199219 14.75 C 23.097656 15.664062 23.660156 16.097656 24.246094 16.148438 C 23.808594 18.875 24.265625 21.472656 22.703125 23.257812 C 23.414062 24.066406 25.035156 23.917969 25.175781 22.664062 C 26.730469 23.195312 27.394531 21.972656 27.386719 21.617188 C 26.300781 21.492188 26.769531 20.546875 26.6875 20.453125 C 27.515625 20.4375 28.585938 19.460938 28.785156 18.941406 C 28.972656 18.441406 28.601562 17.550781 28.785156 16.84375 C 28.925781 16.308594 29.347656 15.757812 29.367188 15.394531 " fill-opacity="1" fill-rule="evenodd"/></svg>