<svg xmlns="http://www.w3.org/2000/svg" xmlns:xlink="http://www.w3.org/1999/xlink" width="50" zoomAndPan="magnify" viewBox="0 0 37.5 37.499999" height="50" preserveAspectRatio="xMidYMid meet" version="1.0"><defs><clipPath id="bca5aa8244"><path d="M 1.320312 1.445312 L 35.796875 1.445312 L 35.796875 35.492188 L 1.320312 35.492188 Z M 1.320312 1.445312 " clip-rule="nonzero"/></clipPath><clipPath id="34a0466cb1"><path d="M 28.742188 34.683594 C 21.96875 35.761719 15.191406 35.761719 8.417969 34.683594 C 5.632812 34.199219 2.75 31.335938 2.265625 28.566406 C 1.175781 21.835938 1.175781 15.105469 2.265625 8.375 C 2.75 5.605469 5.632812 2.742188 8.417969 2.257812 C 15.195312 1.175781 21.96875 1.175781 28.742188 2.257812 C 31.527344 2.742188 34.410156 5.605469 34.894531 8.375 C 35.984375 15.105469 35.984375 21.835938 34.894531 28.566406 C 34.410156 31.335938 31.527344 34.199219 28.742188 34.683594 Z M 28.742188 34.683594 " clip-rule="nonzero"/></clipPath><clipPath id="e3cafdc55e"><path d="M 4 22 L 33 22 L 33 35.492188 L 4 35.492188 Z M 4 22 " clip-rule="nonzero"/></clipPath><clipPath id="2af8ca2c4d"><path d="M 28.742188 34.683594 C 21.96875 35.761719 15.191406 35.761719 8.417969 34.683594 C 5.632812 34.199219 2.75 31.335938 2.265625 28.566406 C 1.175781 21.835938 1.175781 15.105469 2.265625 8.375 C 2.75 5.605469 5.632812 2.742188 8.417969 2.257812 C 15.195312 1.175781 21.96875 1.175781 28.742188 2.257812 C 31.527344 2.742188 34.410156 5.605469 34.894531 8.375 C 35.984375 15.105469 35.984375 21.835938 34.894531 28.566406 C 34.410156 31.335938 31.527344 34.199219 28.742188 34.683594 Z M 28.742188 34.683594 " clip-rule="nonzero"/></clipPath><clipPath id="812cc53b3b"><path d="M 15 23 L 21 23 L 21 35.492188 L 15 35.492188 Z M 15 23 " clip-rule="nonzero"/></clipPath><clipPath id="3998978410"><path d="M 28.742188 34.683594 C 21.96875 35.761719 15.191406 35.761719 8.417969 34.683594 C 5.632812 34.199219 2.75 31.335938 2.265625 28.566406 C 1.175781 21.835938 1.175781 15.105469 2.265625 8.375 C 2.75 5.605469 5.632812 2.742188 8.417969 2.257812 C 15.195312 1.175781 21.96875 1.175781 28.742188 2.257812 C 31.527344 2.742188 34.410156 5.605469 34.894531 8.375 C 35.984375 15.105469 35.984375 21.835938 34.894531 28.566406 C 34.410156 31.335938 31.527344 34.199219 28.742188 34.683594 Z M 28.742188 34.683594 " clip-rule="nonzero"/></clipPath><clipPath id="1a833ef0dc"><path d="M 18 22 L 19 22 L 19 23 L 18 23 Z M 18 22 " clip-rule="nonzero"/></clipPath><clipPath id="7b5354c141"><path d="M 28.742188 34.683594 C 21.96875 35.761719 15.191406 35.761719 8.417969 34.683594 C 5.632812 34.199219 2.75 31.335938 2.265625 28.566406 C 1.175781 21.835938 1.175781 15.105469 2.265625 8.375 C 2.75 5.605469 5.632812 2.742188 8.417969 2.257812 C 15.195312 1.175781 21.96875 1.175781 28.742188 2.257812 C 31.527344 2.742188 34.410156 5.605469 34.894531 8.375 C 35.984375 15.105469 35.984375 21.835938 34.894531 28.566406 C 34.410156 31.335938 31.527344 34.199219 28.742188 34.683594 Z M 28.742188 34.683594 " clip-rule="nonzero"/></clipPath><clipPath id="53a883f34a"><path d="M 16 16 L 22 16 L 22 24 L 16 24 Z M 16 16 " clip-rule="nonzero"/></clipPath><clipPath id="3567b38ab1"><path d="M 28.742188 34.683594 C 21.96875 35.761719 15.191406 35.761719 8.417969 34.683594 C 5.632812 34.199219 2.75 31.335938 2.265625 28.566406 C 1.175781 21.835938 1.175781 15.105469 2.265625 8.375 C 2.75 5.605469 5.632812 2.742188 8.417969 2.257812 C 15.195312 1.175781 21.96875 1.175781 28.742188 2.257812 C 31.527344 2.742188 34.410156 5.605469 34.894531 8.375 C 35.984375 15.105469 35.984375 21.835938 34.894531 28.566406 C 34.410156 31.335938 31.527344 34.199219 28.742188 34.683594 Z M 28.742188 34.683594 " clip-rule="nonzero"/></clipPath><clipPath id="e570c320f3"><path d="M 11 5 L 25 5 L 25 18 L 11 18 Z M 11 5 " clip-rule="nonzero"/></clipPath><clipPath id="193bdd8f8f"><path d="M 28.742188 34.683594 C 21.96875 35.761719 15.191406 35.761719 8.417969 34.683594 C 5.632812 34.199219 2.75 31.335938 2.265625 28.566406 C 1.175781 21.835938 1.175781 15.105469 2.265625 8.375 C 2.75 5.605469 5.632812 2.742188 8.417969 2.257812 C 15.195312 1.175781 21.96875 1.175781 28.742188 2.257812 C 31.527344 2.742188 34.410156 5.605469 34.894531 8.375 C 35.984375 15.105469 35.984375 21.835938 34.894531 28.566406 C 34.410156 31.335938 31.527344 34.199219 28.742188 34.683594 Z M 28.742188 34.683594 " clip-rule="nonzero"/></clipPath><clipPath id="05130536ab"><path d="M 12 10 L 25 10 L 25 21 L 12 21 Z M 12 10 " clip-rule="nonzero"/></clipPath><clipPath id="a464745189"><path d="M 28.742188 34.683594 C 21.96875 35.761719 15.191406 35.761719 8.417969 34.683594 C 5.632812 34.199219 2.75 31.335938 2.265625 28.566406 C 1.175781 21.835938 1.175781 15.105469 2.265625 8.375 C 2.75 5.605469 5.632812 2.742188 8.417969 2.257812 C 15.195312 1.175781 21.96875 1.175781 28.742188 2.257812 C 31.527344 2.742188 34.410156 5.605469 34.894531 8.375 C 35.984375 15.105469 35.984375 21.835938 34.894531 28.566406 C 34.410156 31.335938 31.527344 34.199219 28.742188 34.683594 Z M 28.742188 34.683594 " clip-rule="nonzero"/></clipPath><clipPath id="a6d90ab2cc"><path d="M 22 14 L 24 14 L 24 17 L 22 17 Z M 22 14 " clip-rule="nonzero"/></clipPath><clipPath id="914df329b0"><path d="M 28.742188 34.683594 C 21.96875 35.761719 15.191406 35.761719 8.417969 34.683594 C 5.632812 34.199219 2.75 31.335938 2.265625 28.566406 C 1.175781 21.835938 1.175781 15.105469 2.265625 8.375 C 2.75 5.605469 5.632812 2.742188 8.417969 2.257812 C 15.195312 1.175781 21.96875 1.175781 28.742188 2.257812 C 31.527344 2.742188 34.410156 5.605469 34.894531 8.375 C 35.984375 15.105469 35.984375 21.835938 34.894531 28.566406 C 34.410156 31.335938 31.527344 34.199219 28.742188 34.683594 Z M 28.742188 34.683594 " clip-rule="nonzero"/></clipPath><clipPath id="ee2dba2bcf"><path d="M 22 15 L 24 15 L 24 16 L 22 16 Z M 22 15 " clip-rule="nonzero"/></clipPath><clipPath id="26ab99473d"><path d="M 28.742188 34.683594 C 21.96875 35.761719 15.191406 35.761719 8.417969 34.683594 C 5.632812 34.199219 2.75 31.335938 2.265625 28.566406 C 1.175781 21.835938 1.175781 15.105469 2.265625 8.375 C 2.75 5.605469 5.632812 2.742188 8.417969 2.257812 C 15.195312 1.175781 21.96875 1.175781 28.742188 2.257812 C 31.527344 2.742188 34.410156 5.605469 34.894531 8.375 C 35.984375 15.105469 35.984375 21.835938 34.894531 28.566406 C 34.410156 31.335938 31.527344 34.199219 28.742188 34.683594 Z M 28.742188 34.683594 " clip-rule="nonzero"/></clipPath><clipPath id="676dbf4bff"><path d="M 17 20 L 23 20 L 23 26 L 17 26 Z M 17 20 " clip-rule="nonzero"/></clipPath><clipPath id="1b80659b0a"><path d="M 28.742188 34.683594 C 21.96875 35.761719 15.191406 35.761719 8.417969 34.683594 C 5.632812 34.199219 2.75 31.335938 2.265625 28.566406 C 1.175781 21.835938 1.175781 15.105469 2.265625 8.375 C 2.75 5.605469 5.632812 2.742188 8.417969 2.257812 C 15.195312 1.175781 21.96875 1.175781 28.742188 2.257812 C 31.527344 2.742188 34.410156 5.605469 34.894531 8.375 C 35.984375 15.105469 35.984375 21.835938 34.894531 28.566406 C 34.410156 31.335938 31.527344 34.199219 28.742188 34.683594 Z M 28.742188 34.683594 " clip-rule="nonzero"/></clipPath><clipPath id="eb325507d9"><path d="M 14 21 L 18 21 L 18 26 L 14 26 Z M 14 21 " clip-rule="nonzero"/></clipPath><clipPath id="2d741da5fd"><path d="M 28.742188 34.683594 C 21.96875 35.761719 15.191406 35.761719 8.417969 34.683594 C 5.632812 34.199219 2.75 31.335938 2.265625 28.566406 C 1.175781 21.835938 1.175781 15.105469 2.265625 8.375 C 2.75 5.605469 5.632812 2.742188 8.417969 2.257812 C 15.195312 1.175781 21.96875 1.175781 28.742188 2.257812 C 31.527344 2.742188 34.410156 5.605469 34.894531 8.375 C 35.984375 15.105469 35.984375 21.835938 34.894531 28.566406 C 34.410156 31.335938 31.527344 34.199219 28.742188 34.683594 Z M 28.742188 34.683594 " clip-rule="nonzero"/></clipPath><clipPath id="096310216e"><path d="M 9 29 L 10 29 L 10 35.492188 L 9 35.492188 Z M 9 29 " clip-rule="nonzero"/></clipPath><clipPath id="33b2fa7c1e"><path d="M 28.742188 34.683594 C 21.96875 35.761719 15.191406 35.761719 8.417969 34.683594 C 5.632812 34.199219 2.75 31.335938 2.265625 28.566406 C 1.175781 21.835938 1.175781 15.105469 2.265625 8.375 C 2.75 5.605469 5.632812 2.742188 8.417969 2.257812 C 15.195312 1.175781 21.96875 1.175781 28.742188 2.257812 C 31.527344 2.742188 34.410156 5.605469 34.894531 8.375 C 35.984375 15.105469 35.984375 21.835938 34.894531 28.566406 C 34.410156 31.335938 31.527344 34.199219 28.742188 34.683594 Z M 28.742188 34.683594 " clip-rule="nonzero"/></clipPath><clipPath id="4998444528"><path d="M 25 29 L 27 29 L 27 35.492188 L 25 35.492188 Z M 25 29 " clip-rule="nonzero"/></clipPath><clipPath id="471a64001a"><path d="M 28.742188 34.683594 C 21.96875 35.761719 15.191406 35.761719 8.417969 34.683594 C 5.632812 34.199219 2.75 31.335938 2.265625 28.566406 C 1.175781 21.835938 1.175781 15.105469 2.265625 8.375 C 2.75 5.605469 5.632812 2.742188 8.417969 2.257812 C 15.195312 1.175781 21.96875 1.175781 28.742188 2.257812 C 31.527344 2.742188 34.410156 5.605469 34.894531 8.375 C 35.984375 15.105469 35.984375 21.835938 34.894531 28.566406 C 34.410156 31.335938 31.527344 34.199219 28.742188 34.683594 Z M 28.742188 34.683594 " clip-rule="nonzero"/></clipPath></defs><g clip-path="url(#bca5aa8244)"><g clip-path="url(#34a0466cb1)"><path fill="#e8eff7" d="M 28.742188 34.683594 C 21.96875 35.761719 15.191406 35.761719 8.417969 34.683594 C 5.632812 34.199219 2.75 31.335938 2.265625 28.566406 C 1.175781 21.835938 1.175781 15.105469 2.265625 8.375 C 2.75 5.605469 5.632812 2.742188 8.417969 2.257812 C 15.195312 1.175781 21.96875 1.175781 28.742188 2.257812 C 31.527344 2.742188 34.410156 5.605469 34.894531 8.375 C 35.984375 15.105469 35.984375 21.835938 34.894531 28.566406 C 34.410156 31.335938 31.527344 34.199219 28.742188 34.683594 Z M 28.742188 34.683594 " fill-opacity="1" fill-rule="nonzero"/></g></g><g clip-path="url(#e3cafdc55e)"><g clip-path="url(#2af8ca2c4d)"><path fill="#00b2ff" d="M 32.832031 37.378906 L 4.300781 37.378906 C 4.300781 37.378906 5.902344 27.171875 7.5 25.65625 C 9.101562 24.140625 16.199219 22.578125 16.199219 22.578125 L 18.527344 22.121094 L 18.566406 22.113281 L 18.601562 22.121094 L 20.933594 22.578125 C 20.933594 22.578125 28.03125 24.140625 29.632812 25.65625 C 31.230469 27.171875 32.832031 37.378906 32.832031 37.378906 Z M 32.832031 37.378906 " fill-opacity="1" fill-rule="nonzero"/></g></g><g clip-path="url(#812cc53b3b)"><g clip-path="url(#3998978410)"><path fill="#fefefe" d="M 16.976562 24.265625 C 16.351562 30.203125 15.691406 37.378906 15.691406 37.378906 L 20.101562 37.378906 L 18.707031 23.507812 L 17.550781 23.445312 Z M 16.976562 24.265625 " fill-opacity="1" fill-rule="nonzero"/></g></g><g clip-path="url(#1a833ef0dc)"><g clip-path="url(#7b5354c141)"><path fill="#fefefe" d="M 18.09375 22.464844 L 18.132812 22.472656 L 18.09375 22.476562 Z M 18.09375 22.464844 " fill-opacity="1" fill-rule="nonzero"/><path fill="#fefefe" d="M 18.167969 22.464844 L 18.167969 22.476562 L 18.132812 22.472656 Z M 18.167969 22.464844 " fill-opacity="1" fill-rule="nonzero"/></g></g><g clip-path="url(#53a883f34a)"><g clip-path="url(#3567b38ab1)"><path fill="#eaa494" d="M 16.03125 19.945312 C 16.03125 19.945312 16.117188 21.769531 16.101562 22.03125 C 16.085938 22.296875 16.851562 23.488281 17.878906 23.507812 C 18.902344 23.523438 21.132812 21.519531 21.101562 21.136719 C 21.066406 20.757812 20.816406 16.949219 20.816406 16.949219 Z M 16.03125 19.945312 " fill-opacity="1" fill-rule="nonzero"/></g></g><g clip-path="url(#e570c320f3)"><g clip-path="url(#193bdd8f8f)"><path fill="#3c4966" d="M 13.316406 12.808594 C 11.144531 11.980469 11.648438 8.488281 12.09375 8.238281 C 12.539062 7.988281 13.316406 8.507812 13.316406 8.507812 C 13.136719 8.027344 13.109375 7.535156 13.234375 7.039062 C 13.359375 6.539062 13.609375 6.117188 13.996094 5.773438 C 15.3125 4.519531 16.996094 5.753906 18.445312 6.003906 C 19.890625 6.253906 24.019531 6.195312 24.496094 9.261719 C 24.972656 12.324219 22.609375 17.996094 20.472656 17.9375 Z M 13.316406 12.808594 " fill-opacity="1" fill-rule="nonzero"/></g></g><g clip-path="url(#05130536ab)"><g clip-path="url(#a464745189)"><path fill="#ffd5c2" d="M 21.273438 11.046875 C 21.273438 11.046875 20.34375 13.984375 21.632812 15.15625 C 22.105469 13.394531 23.890625 13.191406 24.457031 14.03125 C 25.023438 14.871094 24.003906 17.171875 22.898438 17.398438 C 21.789062 17.621094 21.570312 16.695312 21.570312 16.695312 C 21.570312 16.695312 20.476562 20.671875 16.667969 20.550781 C 16.398438 20.535156 16.136719 20.5 15.878906 20.433594 C 15.617188 20.371094 15.367188 20.28125 15.128906 20.167969 C 14.886719 20.054688 14.65625 19.917969 14.445312 19.761719 C 14.230469 19.601562 14.03125 19.425781 13.855469 19.226562 C 13.675781 19.03125 13.515625 18.816406 13.382812 18.589844 C 13.246094 18.363281 13.132812 18.121094 13.042969 17.871094 C 12.953125 17.621094 12.890625 17.367188 12.851562 17.101562 C 12.816406 16.839844 12.804688 16.578125 12.816406 16.3125 C 12.875 14.535156 13.136719 10.96875 13.136719 10.96875 C 14.136719 12.898438 17.511719 11.492188 21.273438 11.046875 Z M 21.273438 11.046875 " fill-opacity="1" fill-rule="nonzero"/></g></g><g clip-path="url(#a6d90ab2cc)"><g clip-path="url(#914df329b0)"><path stroke-linecap="round" transform="matrix(0.134674, 0, 0, 0.133819, 1.454316, 1.452709)" fill="none" stroke-linejoin="round" d="M 156.0978 111.073314 C 154.29947 99.630602 163.697194 98.959218 163.697194 98.959218 " stroke="#eaa494" stroke-width="1.918" stroke-opacity="1" stroke-miterlimit="4"/></g></g><g clip-path="url(#ee2dba2bcf)"><g clip-path="url(#26ab99473d)"><path stroke-linecap="round" transform="matrix(0.134674, 0, 0, 0.133819, 1.454316, 1.452709)" fill="none" stroke-linejoin="round" d="M 156.155811 105.643863 L 162.333944 105.848198 " stroke="#eaa494" stroke-width="1.918" stroke-opacity="1" stroke-miterlimit="4"/></g></g><g clip-path="url(#676dbf4bff)"><g clip-path="url(#1b80659b0a)"><path fill="#0083db" d="M 21.066406 20.679688 C 20.546875 21.679688 17.878906 23.421875 17.878906 23.507812 C 17.878906 23.589844 19.167969 25.394531 19.367188 25.394531 C 19.566406 25.394531 22.117188 23.132812 22.035156 22.832031 C 21.953125 22.53125 21.066406 20.679688 21.066406 20.679688 Z M 21.066406 20.679688 " fill-opacity="1" fill-rule="nonzero"/></g></g><g clip-path="url(#eb325507d9)"><g clip-path="url(#2d741da5fd)"><path fill="#0083db" d="M 16.085938 21.203125 C 16.234375 22.03125 17.878906 23.507812 17.878906 23.507812 C 17.878906 23.507812 16.4375 25.574219 16.167969 25.394531 C 15.902344 25.210938 14.972656 23.507812 14.941406 23.109375 C 14.910156 22.714844 16.085938 21.203125 16.085938 21.203125 Z M 16.085938 21.203125 " fill-opacity="1" fill-rule="nonzero"/></g></g><g clip-path="url(#096310216e)"><g clip-path="url(#33b2fa7c1e)"><path stroke-linecap="round" transform="matrix(0.134674, 0, 0, 0.133819, 1.454316, 1.452709)" fill="none" stroke-linejoin="round" d="M 57.189653 268.468986 L 60.322228 208.51151 " stroke="#0083db" stroke-width="2.233" stroke-opacity="1" stroke-miterlimit="4"/></g></g><g clip-path="url(#4998444528)"><g clip-path="url(#471a64001a)"><path stroke-linecap="round" transform="matrix(0.134674, 0, 0, 0.133819, 1.454316, 1.452709)" fill="none" stroke-linejoin="round" d="M 186.524382 268.468986 L 180.317243 208.51151 " stroke="#0083db" stroke-width="2.233" stroke-opacity="1" stroke-miterlimit="4"/></g></g></svg>