<svg xmlns="http://www.w3.org/2000/svg" xmlns:xlink="http://www.w3.org/1999/xlink" width="50" zoomAndPan="magnify" viewBox="0 0 37.5 37.499999" height="50" preserveAspectRatio="xMidYMid meet" version="1.0"><defs><clipPath id="2ccb91e6ac"><path d="M 1.925781 1.925781 L 35.230469 1.925781 L 35.230469 35.230469 L 1.925781 35.230469 Z M 1.925781 1.925781 " clip-rule="nonzero"/></clipPath><clipPath id="da589d2b3f"><path d="M 8 27 L 29 27 L 29 35.230469 L 8 35.230469 Z M 8 27 " clip-rule="nonzero"/></clipPath></defs><g clip-path="url(#2ccb91e6ac)"><path fill="#fabd70" d="M 35.230469 18.578125 C 35.230469 19.121094 35.203125 19.667969 35.148438 20.210938 C 35.097656 20.753906 35.015625 21.292969 34.910156 21.824219 C 34.804688 22.359375 34.671875 22.890625 34.511719 23.410156 C 34.355469 23.933594 34.171875 24.445312 33.960938 24.949219 C 33.753906 25.453125 33.519531 25.945312 33.265625 26.425781 C 33.007812 26.910156 32.726562 27.375 32.421875 27.828125 C 32.121094 28.28125 31.796875 28.71875 31.449219 29.140625 C 31.105469 29.5625 30.738281 29.96875 30.351562 30.351562 C 29.96875 30.738281 29.5625 31.105469 29.140625 31.449219 C 28.71875 31.796875 28.28125 32.121094 27.828125 32.421875 C 27.375 32.726562 26.910156 33.007812 26.425781 33.265625 C 25.945312 33.519531 25.453125 33.753906 24.949219 33.960938 C 24.445312 34.171875 23.933594 34.355469 23.410156 34.511719 C 22.890625 34.671875 22.359375 34.804688 21.824219 34.910156 C 21.292969 35.015625 20.753906 35.097656 20.210938 35.148438 C 19.667969 35.203125 19.121094 35.230469 18.578125 35.230469 C 18.03125 35.230469 17.488281 35.203125 16.945312 35.148438 C 16.402344 35.097656 15.863281 35.015625 15.328125 34.910156 C 14.792969 34.804688 14.265625 34.671875 13.742188 34.511719 C 13.222656 34.355469 12.707031 34.171875 12.203125 33.960938 C 11.699219 33.753906 11.207031 33.519531 10.726562 33.265625 C 10.246094 33.007812 9.777344 32.726562 9.324219 32.421875 C 8.871094 32.121094 8.433594 31.796875 8.011719 31.449219 C 7.589844 31.105469 7.1875 30.738281 6.800781 30.351562 C 6.417969 29.96875 6.050781 29.5625 5.703125 29.140625 C 5.359375 28.71875 5.035156 28.28125 4.730469 27.828125 C 4.429688 27.375 4.148438 26.910156 3.890625 26.425781 C 3.632812 25.945312 3.402344 25.453125 3.191406 24.949219 C 2.984375 24.445312 2.800781 23.933594 2.640625 23.410156 C 2.484375 22.890625 2.351562 22.359375 2.246094 21.824219 C 2.136719 21.292969 2.058594 20.753906 2.003906 20.210938 C 1.949219 19.667969 1.925781 19.121094 1.925781 18.578125 C 1.925781 18.03125 1.949219 17.488281 2.003906 16.945312 C 2.058594 16.402344 2.136719 15.863281 2.246094 15.328125 C 2.351562 14.792969 2.484375 14.265625 2.640625 13.742188 C 2.800781 13.222656 2.984375 12.707031 3.191406 12.203125 C 3.402344 11.699219 3.632812 11.207031 3.890625 10.726562 C 4.148438 10.246094 4.429688 9.777344 4.730469 9.324219 C 5.035156 8.871094 5.359375 8.433594 5.703125 8.011719 C 6.050781 7.589844 6.417969 7.1875 6.800781 6.800781 C 7.1875 6.417969 7.589844 6.050781 8.011719 5.703125 C 8.433594 5.359375 8.871094 5.035156 9.324219 4.730469 C 9.777344 4.429688 10.246094 4.148438 10.726562 3.890625 C 11.207031 3.632812 11.699219 3.402344 12.203125 3.191406 C 12.707031 2.984375 13.222656 2.800781 13.742188 2.640625 C 14.265625 2.484375 14.792969 2.351562 15.328125 2.246094 C 15.863281 2.136719 16.402344 2.058594 16.945312 2.003906 C 17.488281 1.949219 18.03125 1.925781 18.578125 1.925781 C 19.121094 1.925781 19.667969 1.949219 20.210938 2.003906 C 20.753906 2.058594 21.292969 2.136719 21.824219 2.246094 C 22.359375 2.351562 22.890625 2.484375 23.410156 2.640625 C 23.933594 2.800781 24.445312 2.984375 24.949219 3.191406 C 25.453125 3.402344 25.945312 3.632812 26.425781 3.890625 C 26.910156 4.148438 27.375 4.429688 27.828125 4.730469 C 28.28125 5.035156 28.71875 5.359375 29.140625 5.703125 C 29.5625 6.050781 29.96875 6.417969 30.351562 6.800781 C 30.738281 7.1875 31.105469 7.589844 31.449219 8.011719 C 31.796875 8.433594 32.121094 8.871094 32.421875 9.324219 C 32.726562 9.777344 33.007812 10.246094 33.265625 10.726562 C 33.519531 11.207031 33.753906 11.699219 33.960938 12.203125 C 34.171875 12.707031 34.355469 13.222656 34.511719 13.742188 C 34.671875 14.265625 34.804688 14.792969 34.910156 15.328125 C 35.015625 15.863281 35.097656 16.402344 35.148438 16.945312 C 35.203125 17.488281 35.230469 18.03125 35.230469 18.578125 Z M 35.230469 18.578125 " fill-opacity="1" fill-rule="nonzero"/></g><path fill="#a74335" d="M 21.144531 26.296875 C 21.15625 26.320312 21.179688 26.34375 21.191406 26.355469 L 21.226562 26.320312 C 21.203125 26.320312 21.167969 26.308594 21.144531 26.296875 Z M 21.144531 26.296875 " fill-opacity="1" fill-rule="nonzero"/><g clip-path="url(#da589d2b3f)"><path fill="#ea5f3c" d="M 23.992188 27.59375 C 23.695312 27.59375 23.425781 27.558594 23.167969 27.511719 C 21.601562 28.710938 21.261719 30.746094 21.261719 30.746094 L 18.800781 28.839844 L 17.375 30.757812 C 16.71875 29.214844 14.503906 28.074219 13.28125 27.546875 C 13.105469 27.605469 13 27.628906 13 27.628906 C 9.246094 28.214844 8.515625 30.5 8.421875 31.769531 C 11.234375 33.9375 14.753906 35.21875 18.578125 35.21875 C 22.109375 35.21875 25.378906 34.125 28.074219 32.242188 C 28.039062 29.6875 26.734375 28.523438 25.6875 27.992188 C 25.15625 27.734375 24.578125 27.59375 23.992188 27.59375 Z M 23.992188 27.59375 " fill-opacity="1" fill-rule="nonzero"/></g><path fill="#a74335" d="M 15.410156 26.167969 C 16.105469 25.390625 16.589844 24.238281 16.222656 22.554688 C 16.222656 22.554688 11.164062 19.105469 11.84375 16.613281 C 11.84375 16.613281 12.8125 15.140625 12.714844 14.539062 C 12.714844 14.539062 17.53125 12.515625 18.210938 10.667969 C 18.210938 10.667969 22.214844 14.671875 23.589844 14.71875 C 23.589844 14.71875 25.15625 17.152344 23.957031 19 L 19.988281 22.542969 C 19.988281 22.542969 19.917969 24.804688 21.132812 26.285156 C 21.167969 26.296875 21.191406 26.308594 21.226562 26.320312 L 22.097656 25.625 L 24.980469 26.542969 C 25.933594 26.261719 26.839844 25.625 27.511719 24.402344 C 27.511719 24.402344 29.898438 21.414062 29.441406 19.058594 C 29.191406 17.789062 29.191406 17.859375 29.25 18.1875 C 29.359375 18.636719 29.394531 18.941406 29.394531 18.941406 C 29.394531 18.941406 29.308594 18.472656 29.25 18.1875 C 28.957031 16.953125 28.050781 14.621094 25.496094 14.707031 C 25.496094 14.707031 27.886719 6.042969 18.566406 6.042969 C 18.566406 6.042969 9.855469 5.5625 10.457031 15.070312 C 10.457031 15.070312 6.078125 16.128906 6.984375 20.730469 C 6.984375 20.730469 7.078125 24.898438 10.527344 26.582031 C 10.527344 26.582031 11.574219 26.828125 12.953125 26.792969 L 14.492188 25.613281 Z M 15.410156 26.167969 " fill-opacity="1" fill-rule="nonzero"/><path fill="#a74335" d="M 29.25 18.210938 C 29.296875 18.496094 29.394531 18.964844 29.394531 18.964844 C 29.394531 18.964844 29.371094 18.660156 29.25 18.210938 Z M 29.25 18.210938 " fill-opacity="1" fill-rule="nonzero"/><path fill="#fbdab1" d="M 23.957031 19.011719 C 25.15625 17.164062 23.589844 14.730469 23.589844 14.730469 C 22.214844 14.683594 18.210938 10.679688 18.210938 10.679688 C 17.53125 12.527344 12.714844 14.550781 12.714844 14.550781 C 12.8125 15.152344 11.84375 16.625 11.84375 16.625 C 11.152344 19.105469 16.222656 22.566406 16.222656 22.566406 C 16.589844 24.25 16.105469 25.402344 15.410156 26.179688 L 15.648438 26.320312 L 18.894531 28.203125 L 21.191406 26.367188 C 21.179688 26.34375 21.15625 26.320312 21.144531 26.308594 C 19.941406 24.816406 20 22.566406 20 22.566406 Z M 23.957031 19.011719 " fill-opacity="1" fill-rule="nonzero"/><path fill="#a74335" d="M 21.226562 26.332031 C 22.214844 26.664062 23.636719 26.957031 24.980469 26.570312 L 22.097656 25.652344 Z M 21.226562 26.332031 " fill-opacity="1" fill-rule="nonzero"/><path fill="#a74335" d="M 15.410156 26.167969 L 14.492188 25.636719 L 12.953125 26.816406 C 13.609375 26.792969 14.351562 26.710938 15.082031 26.496094 C 15.199219 26.402344 15.304688 26.285156 15.410156 26.167969 Z M 15.410156 26.167969 " fill-opacity="1" fill-rule="nonzero"/><path fill="#a74335" d="M 15.082031 26.496094 C 15.269531 26.4375 15.457031 26.378906 15.648438 26.308594 L 15.410156 26.167969 C 15.304688 26.285156 15.199219 26.402344 15.082031 26.496094 Z M 15.082031 26.496094 " fill-opacity="1" fill-rule="nonzero"/><path fill="#f3f3f0" d="M 17.375 30.757812 L 18.800781 28.851562 L 21.261719 30.757812 C 21.261719 30.757812 21.601562 28.722656 23.167969 27.523438 C 22.285156 27.355469 21.648438 26.921875 21.191406 26.367188 L 18.894531 28.203125 L 15.410156 26.167969 C 15.304688 26.425781 13.941406 27.367188 13.28125 27.535156 C 14.503906 28.074219 16.71875 29.214844 17.375 30.757812 Z M 17.375 30.757812 " fill-opacity="1" fill-rule="nonzero"/></svg>