<svg xmlns="http://www.w3.org/2000/svg" xmlns:xlink="http://www.w3.org/1999/xlink" width="50" zoomAndPan="magnify" viewBox="0 0 37.5 37.499999" height="50" preserveAspectRatio="xMidYMid meet" version="1.0"><defs><clipPath id="6c43c44873"><path d="M 2 1.183594 L 35.96875 1.183594 L 35.96875 35 L 2 35 Z M 2 1.183594 " clip-rule="nonzero"/></clipPath><clipPath id="c5ae18265a"><path d="M 6 22 L 32 22 L 32 35 L 6 35 Z M 6 22 " clip-rule="nonzero"/></clipPath><clipPath id="ffef8d5673"><path d="M 31.210938 29.601562 C 30.800781 30.027344 30.367188 30.425781 29.910156 30.804688 C 29.457031 31.183594 28.980469 31.535156 28.488281 31.863281 C 27.996094 32.191406 27.488281 32.492188 26.964844 32.765625 C 26.441406 33.039062 25.90625 33.285156 25.355469 33.5 C 24.804688 33.71875 24.246094 33.902344 23.675781 34.0625 C 23.105469 34.21875 22.527344 34.34375 21.945312 34.441406 C 21.363281 34.539062 20.773438 34.601562 20.183594 34.636719 C 19.59375 34.671875 19.003906 34.671875 18.414062 34.644531 C 17.824219 34.617188 17.234375 34.558594 16.652344 34.464844 C 16.066406 34.375 15.488281 34.253906 14.917969 34.101562 C 14.347656 33.949219 13.785156 33.769531 13.234375 33.554688 C 12.679688 33.34375 12.140625 33.105469 11.617188 32.835938 C 11.089844 32.566406 10.578125 32.269531 10.082031 31.949219 C 9.585938 31.625 9.109375 31.277344 8.652344 30.902344 C 8.195312 30.53125 7.757812 30.132812 7.339844 29.710938 C 6.925781 29.292969 6.53125 28.851562 6.164062 28.390625 C 7.152344 26.925781 8.15625 25.578125 8.855469 24.960938 C 10.488281 23.519531 14.417969 23.589844 16.214844 22.886719 C 16.480469 22.792969 16.714844 22.648438 16.917969 22.453125 L 20.480469 22.453125 C 20.625 22.511719 20.777344 22.5625 20.929688 22.609375 C 23.636719 23.484375 27.539062 23.605469 29.914062 26.300781 C 30.652344 27.136719 31.035156 28.328125 31.210938 29.601562 Z M 31.210938 29.601562 " clip-rule="nonzero"/></clipPath><linearGradient x1="67.248536" gradientTransform="matrix(0.207555, 0, 0, 0.207555, 2.491807, 1.204965)" y1="90.032495" x2="88.106842" gradientUnits="userSpaceOnUse" y2="173.772373" id="55431b2cfb"><stop stop-opacity="1" stop-color="rgb(33.729553%, 69.018555%, 89.019775%)" offset="0"/><stop stop-opacity="1" stop-color="rgb(33.67157%, 68.902588%, 88.94043%)" offset="0.0625"/><stop stop-opacity="1" stop-color="rgb(33.561707%, 68.685913%, 88.792419%)" offset="0.078125"/><stop stop-opacity="1" stop-color="rgb(33.460999%, 68.484497%, 88.65509%)" offset="0.09375"/><stop stop-opacity="1" stop-color="rgb(33.360291%, 68.283081%, 88.519287%)" offset="0.109375"/><stop stop-opacity="1" stop-color="rgb(33.259583%, 68.080139%, 88.381958%)" offset="0.125"/><stop stop-opacity="1" stop-color="rgb(33.158875%, 67.878723%, 88.244629%)" offset="0.140625"/><stop stop-opacity="1" stop-color="rgb(33.058167%, 67.677307%, 88.1073%)" offset="0.15625"/><stop stop-opacity="1" stop-color="rgb(32.957458%, 67.475891%, 87.971497%)" offset="0.171875"/><stop stop-opacity="1" stop-color="rgb(32.85675%, 67.274475%, 87.834167%)" offset="0.1875"/><stop stop-opacity="1" stop-color="rgb(32.756042%, 67.073059%, 87.696838%)" offset="0.203125"/><stop stop-opacity="1" stop-color="rgb(32.655334%, 66.871643%, 87.559509%)" offset="0.21875"/><stop stop-opacity="1" stop-color="rgb(32.554626%, 66.670227%, 87.42218%)" offset="0.234375"/><stop stop-opacity="1" stop-color="rgb(32.452393%, 66.467285%, 87.286377%)" offset="0.25"/><stop stop-opacity="1" stop-color="rgb(32.351685%, 66.265869%, 87.149048%)" offset="0.265625"/><stop stop-opacity="1" stop-color="rgb(32.250977%, 66.064453%, 87.011719%)" offset="0.28125"/><stop stop-opacity="1" stop-color="rgb(32.150269%, 65.863037%, 86.87439%)" offset="0.296875"/><stop stop-opacity="1" stop-color="rgb(32.049561%, 65.661621%, 86.738586%)" offset="0.3125"/><stop stop-opacity="1" stop-color="rgb(31.948853%, 65.460205%, 86.601257%)" offset="0.328125"/><stop stop-opacity="1" stop-color="rgb(31.848145%, 65.258789%, 86.463928%)" offset="0.338007"/><stop stop-opacity="1" stop-color="rgb(31.797791%, 65.158081%, 86.395264%)" offset="0.34375"/><stop stop-opacity="1" stop-color="rgb(31.747437%, 65.057373%, 86.326599%)" offset="0.359375"/><stop stop-opacity="1" stop-color="rgb(31.646729%, 64.854431%, 86.190796%)" offset="0.375"/><stop stop-opacity="1" stop-color="rgb(31.546021%, 64.653015%, 86.053467%)" offset="0.390625"/><stop stop-opacity="1" stop-color="rgb(31.445312%, 64.451599%, 85.916138%)" offset="0.40625"/><stop stop-opacity="1" stop-color="rgb(31.344604%, 64.250183%, 85.778809%)" offset="0.421875"/><stop stop-opacity="1" stop-color="rgb(31.242371%, 64.048767%, 85.643005%)" offset="0.4375"/><stop stop-opacity="1" stop-color="rgb(31.141663%, 63.847351%, 85.505676%)" offset="0.453125"/><stop stop-opacity="1" stop-color="rgb(31.040955%, 63.645935%, 85.368347%)" offset="0.46875"/><stop stop-opacity="1" stop-color="rgb(30.940247%, 63.444519%, 85.231018%)" offset="0.484375"/><stop stop-opacity="1" stop-color="rgb(30.839539%, 63.241577%, 85.095215%)" offset="0.5"/><stop stop-opacity="1" stop-color="rgb(30.738831%, 63.040161%, 84.957886%)" offset="0.515625"/><stop stop-opacity="1" stop-color="rgb(30.638123%, 62.838745%, 84.820557%)" offset="0.53125"/><stop stop-opacity="1" stop-color="rgb(30.537415%, 62.637329%, 84.683228%)" offset="0.546875"/><stop stop-opacity="1" stop-color="rgb(30.436707%, 62.435913%, 84.547424%)" offset="0.5625"/><stop stop-opacity="1" stop-color="rgb(30.335999%, 62.234497%, 84.410095%)" offset="0.578125"/><stop stop-opacity="1" stop-color="rgb(30.235291%, 62.033081%, 84.272766%)" offset="0.59375"/><stop stop-opacity="1" stop-color="rgb(30.134583%, 61.830139%, 84.135437%)" offset="0.609375"/><stop stop-opacity="1" stop-color="rgb(30.032349%, 61.628723%, 83.999634%)" offset="0.625"/><stop stop-opacity="1" stop-color="rgb(29.931641%, 61.427307%, 83.862305%)" offset="0.640625"/><stop stop-opacity="1" stop-color="rgb(29.830933%, 61.225891%, 83.724976%)" offset="0.65625"/><stop stop-opacity="1" stop-color="rgb(29.730225%, 61.024475%, 83.587646%)" offset="0.661993"/><stop stop-opacity="1" stop-color="rgb(29.679871%, 60.923767%, 83.520508%)" offset="0.671875"/><stop stop-opacity="1" stop-color="rgb(29.629517%, 60.823059%, 83.451843%)" offset="0.6875"/><stop stop-opacity="1" stop-color="rgb(29.528809%, 60.621643%, 83.314514%)" offset="0.703125"/><stop stop-opacity="1" stop-color="rgb(29.428101%, 60.420227%, 83.177185%)" offset="0.71875"/><stop stop-opacity="1" stop-color="rgb(29.327393%, 60.217285%, 83.039856%)" offset="0.734375"/><stop stop-opacity="1" stop-color="rgb(29.226685%, 60.015869%, 82.904053%)" offset="0.75"/><stop stop-opacity="1" stop-color="rgb(29.125977%, 59.814453%, 82.766724%)" offset="0.765625"/><stop stop-opacity="1" stop-color="rgb(29.025269%, 59.613037%, 82.629395%)" offset="0.78125"/><stop stop-opacity="1" stop-color="rgb(28.924561%, 59.411621%, 82.492065%)" offset="0.796875"/><stop stop-opacity="1" stop-color="rgb(28.822327%, 59.210205%, 82.356262%)" offset="0.8125"/><stop stop-opacity="1" stop-color="rgb(28.721619%, 59.008789%, 82.218933%)" offset="0.828125"/><stop stop-opacity="1" stop-color="rgb(28.620911%, 58.807373%, 82.081604%)" offset="0.84375"/><stop stop-opacity="1" stop-color="rgb(28.520203%, 58.604431%, 81.944275%)" offset="0.859375"/><stop stop-opacity="1" stop-color="rgb(28.419495%, 58.403015%, 81.808472%)" offset="0.875"/><stop stop-opacity="1" stop-color="rgb(28.318787%, 58.201599%, 81.671143%)" offset="0.890625"/><stop stop-opacity="1" stop-color="rgb(28.218079%, 58.000183%, 81.533813%)" offset="0.90625"/><stop stop-opacity="1" stop-color="rgb(28.117371%, 57.798767%, 81.396484%)" offset="0.921875"/><stop stop-opacity="1" stop-color="rgb(28.016663%, 57.597351%, 81.260681%)" offset="0.9375"/><stop stop-opacity="1" stop-color="rgb(27.915955%, 57.395935%, 81.123352%)" offset="0.953125"/><stop stop-opacity="1" stop-color="rgb(27.815247%, 57.194519%, 80.986023%)" offset="0.96875"/><stop stop-opacity="1" stop-color="rgb(27.713013%, 56.991577%, 80.848694%)" offset="0.984375"/><stop stop-opacity="1" stop-color="rgb(27.612305%, 56.790161%, 80.712891%)" offset="1"/></linearGradient></defs><g clip-path="url(#6c43c44873)"><path fill="#dfe5f4" d="M 35.953125 17.933594 C 35.953125 18.480469 35.925781 19.027344 35.871094 19.574219 C 35.816406 20.117188 35.738281 20.660156 35.628906 21.199219 C 35.523438 21.734375 35.390625 22.265625 35.230469 22.789062 C 35.074219 23.316406 34.886719 23.832031 34.679688 24.335938 C 34.46875 24.84375 34.234375 25.335938 33.976562 25.820312 C 33.71875 26.304688 33.4375 26.773438 33.132812 27.230469 C 32.828125 27.683594 32.503906 28.125 32.15625 28.546875 C 31.808594 28.972656 31.4375 29.378906 31.050781 29.765625 C 30.664062 30.152344 30.257812 30.519531 29.835938 30.867188 C 29.410156 31.214844 28.972656 31.539062 28.515625 31.84375 C 28.0625 32.148438 27.589844 32.429688 27.109375 32.6875 C 26.625 32.949219 26.128906 33.179688 25.625 33.390625 C 25.117188 33.601562 24.601562 33.785156 24.078125 33.945312 C 23.554688 34.101562 23.023438 34.238281 22.484375 34.34375 C 21.949219 34.449219 21.40625 34.53125 20.863281 34.585938 C 20.316406 34.636719 19.769531 34.664062 19.222656 34.664062 C 18.671875 34.664062 18.128906 34.636719 17.582031 34.585938 C 17.035156 34.53125 16.496094 34.449219 15.957031 34.34375 C 15.421875 34.238281 14.890625 34.105469 14.363281 33.945312 C 13.839844 33.785156 13.324219 33.601562 12.820312 33.390625 C 12.3125 33.183594 11.820312 32.949219 11.335938 32.6875 C 10.851562 32.429688 10.382812 32.148438 9.925781 31.84375 C 9.472656 31.539062 9.03125 31.214844 8.609375 30.867188 C 8.183594 30.519531 7.777344 30.152344 7.390625 29.765625 C 7.003906 29.378906 6.636719 28.972656 6.289062 28.546875 C 5.941406 28.125 5.617188 27.683594 5.3125 27.230469 C 5.007812 26.773438 4.726562 26.304688 4.46875 25.820312 C 4.207031 25.335938 3.976562 24.84375 3.765625 24.335938 C 3.554688 23.832031 3.371094 23.316406 3.210938 22.789062 C 3.054688 22.265625 2.921875 21.734375 2.8125 21.199219 C 2.707031 20.660156 2.625 20.121094 2.574219 19.574219 C 2.519531 19.027344 2.492188 18.480469 2.492188 17.933594 C 2.492188 17.386719 2.519531 16.839844 2.574219 16.292969 C 2.625 15.75 2.707031 15.207031 2.8125 14.671875 C 2.921875 14.132812 3.054688 13.601562 3.210938 13.078125 C 3.371094 12.554688 3.554688 12.039062 3.765625 11.53125 C 3.976562 11.027344 4.210938 10.53125 4.46875 10.046875 C 4.726562 9.566406 5.007812 9.09375 5.3125 8.640625 C 5.617188 8.183594 5.941406 7.746094 6.289062 7.320312 C 6.636719 6.898438 7.003906 6.492188 7.394531 6.105469 C 7.78125 5.71875 8.1875 5.347656 8.609375 5 C 9.03125 4.652344 9.472656 4.328125 9.929688 4.023438 C 10.382812 3.71875 10.851562 3.4375 11.335938 3.179688 C 11.820312 2.921875 12.3125 2.6875 12.820312 2.476562 C 13.328125 2.269531 13.84375 2.085938 14.367188 1.925781 C 14.890625 1.765625 15.421875 1.632812 15.960938 1.527344 C 16.496094 1.417969 17.039062 1.339844 17.582031 1.285156 C 18.128906 1.230469 18.675781 1.203125 19.222656 1.203125 C 19.773438 1.203125 20.320312 1.226562 20.863281 1.28125 C 21.410156 1.332031 21.953125 1.410156 22.492188 1.515625 C 23.027344 1.625 23.558594 1.753906 24.085938 1.914062 C 24.609375 2.070312 25.125 2.253906 25.632812 2.464844 C 26.140625 2.671875 26.636719 2.90625 27.121094 3.164062 C 27.605469 3.421875 28.074219 3.703125 28.53125 4.007812 C 28.984375 4.3125 29.425781 4.636719 29.851562 4.984375 C 30.273438 5.332031 30.679688 5.703125 31.066406 6.089844 C 31.457031 6.476562 31.824219 6.882812 32.171875 7.308594 C 32.519531 7.730469 32.84375 8.171875 33.148438 8.628906 C 33.453125 9.082031 33.734375 9.554688 33.992188 10.039062 C 34.25 10.519531 34.484375 11.015625 34.691406 11.523438 C 34.902344 12.03125 35.085938 12.546875 35.242188 13.070312 C 35.402344 13.597656 35.535156 14.128906 35.640625 14.667969 C 35.746094 15.203125 35.824219 15.746094 35.875 16.292969 C 35.929688 16.839844 35.953125 17.386719 35.953125 17.933594 Z M 35.953125 17.933594 " fill-opacity="1" fill-rule="nonzero"/></g><g clip-path="url(#c5ae18265a)"><g clip-path="url(#ffef8d5673)"><path fill="url(#55431b2cfb)" d="M 6.164062 22.453125 L 6.164062 34.671875 L 31.210938 34.671875 L 31.210938 22.453125 Z M 6.164062 22.453125 " fill-rule="nonzero"/></g></g><path fill="#1c284e" d="M 13.542969 12.226562 C 13.757812 9.554688 17.644531 8.566406 21.242188 9.871094 C 24.839844 11.179688 22.898438 15.859375 22.230469 17.550781 C 21.5625 19.238281 19.789062 20.671875 18.222656 19.746094 " fill-opacity="1" fill-rule="nonzero"/><path fill="#f9b4ac" d="M 18.25 25.417969 C 16.949219 25.523438 16.328125 24.304688 16.226562 23.003906 L 16.214844 22.886719 L 15.851562 19.359375 L 20.558594 18.988281 L 20.644531 19.800781 L 20.933594 22.628906 C 21.039062 23.929688 19.546875 25.316406 18.25 25.417969 Z M 18.25 25.417969 " fill-opacity="1" fill-rule="nonzero"/><path fill="#f58f8c" d="M 20.644531 19.800781 C 19.769531 21.257812 18.257812 22.796875 16.214844 22.886719 L 15.851562 19.359375 L 20.558594 18.988281 Z M 20.644531 19.800781 " fill-opacity="1" fill-rule="nonzero"/><path fill="#f9b4ac" d="M 13.542969 12.226562 C 15.851562 13.664062 20.507812 12.929688 20.507812 12.929688 C 20.507812 12.929688 20.066406 16.832031 20.59375 16.945312 C 21.121094 17.0625 20.792969 15.050781 22.203125 15.050781 C 23.613281 15.050781 23.527344 18.714844 21.164062 18.042969 C 21.164062 18.042969 20.503906 21.4375 16.558594 21.222656 C 12.617188 21.007812 13.371094 15.324219 13.367188 14.964844 C 13.367188 14.65625 13.5 12.851562 13.542969 12.226562 Z M 13.542969 12.226562 " fill-opacity="1" fill-rule="nonzero"/></svg>