<svg xmlns="http://www.w3.org/2000/svg" xmlns:xlink="http://www.w3.org/1999/xlink" width="50" zoomAndPan="magnify" viewBox="0 0 37.5 37.499999" height="50" preserveAspectRatio="xMidYMid meet" version="1.0"><defs><clipPath id="6bcdf19a56"><path d="M 1.957031 1.8125 L 35.261719 1.8125 L 35.261719 35.117188 L 1.957031 35.117188 Z M 1.957031 1.8125 " clip-rule="nonzero"/></clipPath><clipPath id="b15de51e9a"><path d="M 10 4 L 28 4 L 28 32 L 10 32 Z M 10 4 " clip-rule="nonzero"/></clipPath><clipPath id="9473914352"><path d="M 1.957031 18.464844 C 1.957031 17.371094 2.066406 16.289062 2.277344 15.214844 C 2.492188 14.144531 2.808594 13.101562 3.226562 12.089844 C 3.644531 11.082031 4.15625 10.121094 4.765625 9.210938 C 5.371094 8.304688 6.0625 7.460938 6.835938 6.6875 C 7.609375 5.914062 8.449219 5.226562 9.359375 4.617188 C 10.269531 4.011719 11.226562 3.496094 12.238281 3.078125 C 13.246094 2.660156 14.289062 2.34375 15.359375 2.132812 C 16.433594 1.917969 17.515625 1.8125 18.609375 1.8125 C 19.703125 1.8125 20.785156 1.917969 21.859375 2.132812 C 22.929688 2.34375 23.972656 2.660156 24.980469 3.078125 C 25.992188 3.496094 26.953125 4.011719 27.859375 4.617188 C 28.769531 5.226562 29.609375 5.914062 30.382812 6.6875 C 31.15625 7.460938 31.847656 8.304688 32.457031 9.210938 C 33.0625 10.121094 33.574219 11.082031 33.992188 12.089844 C 34.414062 13.101562 34.726562 14.144531 34.941406 15.214844 C 35.15625 16.289062 35.261719 17.371094 35.261719 18.464844 C 35.261719 19.558594 35.15625 20.640625 34.941406 21.710938 C 34.726562 22.785156 34.414062 23.828125 33.992188 24.835938 C 33.574219 25.847656 33.0625 26.808594 32.457031 27.714844 C 31.847656 28.625 31.15625 29.464844 30.382812 30.238281 C 29.609375 31.011719 28.769531 31.703125 27.859375 32.308594 C 26.953125 32.917969 25.992188 33.429688 24.980469 33.847656 C 23.972656 34.269531 22.929688 34.582031 21.859375 34.796875 C 20.785156 35.011719 19.703125 35.117188 18.609375 35.117188 C 17.515625 35.117188 16.433594 35.011719 15.359375 34.796875 C 14.289062 34.582031 13.246094 34.269531 12.238281 33.847656 C 11.226562 33.429688 10.269531 32.917969 9.359375 32.308594 C 8.449219 31.703125 7.609375 31.011719 6.835938 30.238281 C 6.0625 29.464844 5.371094 28.625 4.765625 27.714844 C 4.15625 26.808594 3.644531 25.847656 3.226562 24.835938 C 2.808594 23.828125 2.492188 22.785156 2.277344 21.710938 C 2.066406 20.640625 1.957031 19.558594 1.957031 18.464844 Z M 1.957031 18.464844 " clip-rule="nonzero"/></clipPath><clipPath id="de449bf7c8"><path d="M 15 18 L 23 18 L 23 26 L 15 26 Z M 15 18 " clip-rule="nonzero"/></clipPath><clipPath id="4854ebc07f"><path d="M 1.957031 18.464844 C 1.957031 17.371094 2.066406 16.289062 2.277344 15.214844 C 2.492188 14.144531 2.808594 13.101562 3.226562 12.089844 C 3.644531 11.082031 4.15625 10.121094 4.765625 9.210938 C 5.371094 8.304688 6.0625 7.460938 6.835938 6.6875 C 7.609375 5.914062 8.449219 5.226562 9.359375 4.617188 C 10.269531 4.011719 11.226562 3.496094 12.238281 3.078125 C 13.246094 2.660156 14.289062 2.34375 15.359375 2.132812 C 16.433594 1.917969 17.515625 1.8125 18.609375 1.8125 C 19.703125 1.8125 20.785156 1.917969 21.859375 2.132812 C 22.929688 2.34375 23.972656 2.660156 24.980469 3.078125 C 25.992188 3.496094 26.953125 4.011719 27.859375 4.617188 C 28.769531 5.226562 29.609375 5.914062 30.382812 6.6875 C 31.15625 7.460938 31.847656 8.304688 32.457031 9.210938 C 33.0625 10.121094 33.574219 11.082031 33.992188 12.089844 C 34.414062 13.101562 34.726562 14.144531 34.941406 15.214844 C 35.15625 16.289062 35.261719 17.371094 35.261719 18.464844 C 35.261719 19.558594 35.15625 20.640625 34.941406 21.710938 C 34.726562 22.785156 34.414062 23.828125 33.992188 24.835938 C 33.574219 25.847656 33.0625 26.808594 32.457031 27.714844 C 31.847656 28.625 31.15625 29.464844 30.382812 30.238281 C 29.609375 31.011719 28.769531 31.703125 27.859375 32.308594 C 26.953125 32.917969 25.992188 33.429688 24.980469 33.847656 C 23.972656 34.269531 22.929688 34.582031 21.859375 34.796875 C 20.785156 35.011719 19.703125 35.117188 18.609375 35.117188 C 17.515625 35.117188 16.433594 35.011719 15.359375 34.796875 C 14.289062 34.582031 13.246094 34.269531 12.238281 33.847656 C 11.226562 33.429688 10.269531 32.917969 9.359375 32.308594 C 8.449219 31.703125 7.609375 31.011719 6.835938 30.238281 C 6.0625 29.464844 5.371094 28.625 4.765625 27.714844 C 4.15625 26.808594 3.644531 25.847656 3.226562 24.835938 C 2.808594 23.828125 2.492188 22.785156 2.277344 21.710938 C 2.066406 20.640625 1.957031 19.558594 1.957031 18.464844 Z M 1.957031 18.464844 " clip-rule="nonzero"/></clipPath><clipPath id="947d35660c"><path d="M 15.898438 18.71875 L 22.390625 18.71875 L 22.390625 23 L 15.898438 23 Z M 15.898438 18.71875 " clip-rule="nonzero"/></clipPath><clipPath id="f1bca3dc3e"><path d="M 1.957031 18.464844 C 1.957031 17.371094 2.066406 16.289062 2.277344 15.214844 C 2.492188 14.144531 2.808594 13.101562 3.226562 12.089844 C 3.644531 11.082031 4.15625 10.121094 4.765625 9.210938 C 5.371094 8.304688 6.0625 7.460938 6.835938 6.6875 C 7.609375 5.914062 8.449219 5.226562 9.359375 4.617188 C 10.269531 4.011719 11.226562 3.496094 12.238281 3.078125 C 13.246094 2.660156 14.289062 2.34375 15.359375 2.132812 C 16.433594 1.917969 17.515625 1.8125 18.609375 1.8125 C 19.703125 1.8125 20.785156 1.917969 21.859375 2.132812 C 22.929688 2.34375 23.972656 2.660156 24.980469 3.078125 C 25.992188 3.496094 26.953125 4.011719 27.859375 4.617188 C 28.769531 5.226562 29.609375 5.914062 30.382812 6.6875 C 31.15625 7.460938 31.847656 8.304688 32.457031 9.210938 C 33.0625 10.121094 33.574219 11.082031 33.992188 12.089844 C 34.414062 13.101562 34.726562 14.144531 34.941406 15.214844 C 35.15625 16.289062 35.261719 17.371094 35.261719 18.464844 C 35.261719 19.558594 35.15625 20.640625 34.941406 21.710938 C 34.726562 22.785156 34.414062 23.828125 33.992188 24.835938 C 33.574219 25.847656 33.0625 26.808594 32.457031 27.714844 C 31.847656 28.625 31.15625 29.464844 30.382812 30.238281 C 29.609375 31.011719 28.769531 31.703125 27.859375 32.308594 C 26.953125 32.917969 25.992188 33.429688 24.980469 33.847656 C 23.972656 34.269531 22.929688 34.582031 21.859375 34.796875 C 20.785156 35.011719 19.703125 35.117188 18.609375 35.117188 C 17.515625 35.117188 16.433594 35.011719 15.359375 34.796875 C 14.289062 34.582031 13.246094 34.269531 12.238281 33.847656 C 11.226562 33.429688 10.269531 32.917969 9.359375 32.308594 C 8.449219 31.703125 7.609375 31.011719 6.835938 30.238281 C 6.0625 29.464844 5.371094 28.625 4.765625 27.714844 C 4.15625 26.808594 3.644531 25.847656 3.226562 24.835938 C 2.808594 23.828125 2.492188 22.785156 2.277344 21.710938 C 2.066406 20.640625 1.957031 19.558594 1.957031 18.464844 Z M 1.957031 18.464844 " clip-rule="nonzero"/></clipPath><clipPath id="b00bd14c20"><path d="M 15.941406 19.414062 C 15.914062 20.183594 16.171875 23.921875 16.027344 25.097656 C 17.964844 25.542969 20.476562 26.546875 22.371094 25.433594 C 22.097656 24.640625 22.085938 23.6875 22.046875 22.859375 C 21.972656 21.257812 21.707031 20.328125 21.902344 18.734375 Z M 15.941406 19.414062 " clip-rule="evenodd"/></clipPath><clipPath id="835c1040e2"><path d="M 6 23 L 32 23 L 32 35.117188 L 6 35.117188 Z M 6 23 " clip-rule="nonzero"/></clipPath><clipPath id="be7f06332b"><path d="M 1.957031 18.464844 C 1.957031 17.371094 2.066406 16.289062 2.277344 15.214844 C 2.492188 14.144531 2.808594 13.101562 3.226562 12.089844 C 3.644531 11.082031 4.15625 10.121094 4.765625 9.210938 C 5.371094 8.304688 6.0625 7.460938 6.835938 6.6875 C 7.609375 5.914062 8.449219 5.226562 9.359375 4.617188 C 10.269531 4.011719 11.226562 3.496094 12.238281 3.078125 C 13.246094 2.660156 14.289062 2.34375 15.359375 2.132812 C 16.433594 1.917969 17.515625 1.8125 18.609375 1.8125 C 19.703125 1.8125 20.785156 1.917969 21.859375 2.132812 C 22.929688 2.34375 23.972656 2.660156 24.980469 3.078125 C 25.992188 3.496094 26.953125 4.011719 27.859375 4.617188 C 28.769531 5.226562 29.609375 5.914062 30.382812 6.6875 C 31.15625 7.460938 31.847656 8.304688 32.457031 9.210938 C 33.0625 10.121094 33.574219 11.082031 33.992188 12.089844 C 34.414062 13.101562 34.726562 14.144531 34.941406 15.214844 C 35.15625 16.289062 35.261719 17.371094 35.261719 18.464844 C 35.261719 19.558594 35.15625 20.640625 34.941406 21.710938 C 34.726562 22.785156 34.414062 23.828125 33.992188 24.835938 C 33.574219 25.847656 33.0625 26.808594 32.457031 27.714844 C 31.847656 28.625 31.15625 29.464844 30.382812 30.238281 C 29.609375 31.011719 28.769531 31.703125 27.859375 32.308594 C 26.953125 32.917969 25.992188 33.429688 24.980469 33.847656 C 23.972656 34.269531 22.929688 34.582031 21.859375 34.796875 C 20.785156 35.011719 19.703125 35.117188 18.609375 35.117188 C 17.515625 35.117188 16.433594 35.011719 15.359375 34.796875 C 14.289062 34.582031 13.246094 34.269531 12.238281 33.847656 C 11.226562 33.429688 10.269531 32.917969 9.359375 32.308594 C 8.449219 31.703125 7.609375 31.011719 6.835938 30.238281 C 6.0625 29.464844 5.371094 28.625 4.765625 27.714844 C 4.15625 26.808594 3.644531 25.847656 3.226562 24.835938 C 2.808594 23.828125 2.492188 22.785156 2.277344 21.710938 C 2.066406 20.640625 1.957031 19.558594 1.957031 18.464844 Z M 1.957031 18.464844 " clip-rule="nonzero"/></clipPath><clipPath id="76d984a090"><path d="M 18 24 L 20 24 L 20 35.117188 L 18 35.117188 Z M 18 24 " clip-rule="nonzero"/></clipPath><clipPath id="305d750eaa"><path d="M 1.957031 18.464844 C 1.957031 17.371094 2.066406 16.289062 2.277344 15.214844 C 2.492188 14.144531 2.808594 13.101562 3.226562 12.089844 C 3.644531 11.082031 4.15625 10.121094 4.765625 9.210938 C 5.371094 8.304688 6.0625 7.460938 6.835938 6.6875 C 7.609375 5.914062 8.449219 5.226562 9.359375 4.617188 C 10.269531 4.011719 11.226562 3.496094 12.238281 3.078125 C 13.246094 2.660156 14.289062 2.34375 15.359375 2.132812 C 16.433594 1.917969 17.515625 1.8125 18.609375 1.8125 C 19.703125 1.8125 20.785156 1.917969 21.859375 2.132812 C 22.929688 2.34375 23.972656 2.660156 24.980469 3.078125 C 25.992188 3.496094 26.953125 4.011719 27.859375 4.617188 C 28.769531 5.226562 29.609375 5.914062 30.382812 6.6875 C 31.15625 7.460938 31.847656 8.304688 32.457031 9.210938 C 33.0625 10.121094 33.574219 11.082031 33.992188 12.089844 C 34.414062 13.101562 34.726562 14.144531 34.941406 15.214844 C 35.15625 16.289062 35.261719 17.371094 35.261719 18.464844 C 35.261719 19.558594 35.15625 20.640625 34.941406 21.710938 C 34.726562 22.785156 34.414062 23.828125 33.992188 24.835938 C 33.574219 25.847656 33.0625 26.808594 32.457031 27.714844 C 31.847656 28.625 31.15625 29.464844 30.382812 30.238281 C 29.609375 31.011719 28.769531 31.703125 27.859375 32.308594 C 26.953125 32.917969 25.992188 33.429688 24.980469 33.847656 C 23.972656 34.269531 22.929688 34.582031 21.859375 34.796875 C 20.785156 35.011719 19.703125 35.117188 18.609375 35.117188 C 17.515625 35.117188 16.433594 35.011719 15.359375 34.796875 C 14.289062 34.582031 13.246094 34.269531 12.238281 33.847656 C 11.226562 33.429688 10.269531 32.917969 9.359375 32.308594 C 8.449219 31.703125 7.609375 31.011719 6.835938 30.238281 C 6.0625 29.464844 5.371094 28.625 4.765625 27.714844 C 4.15625 26.808594 3.644531 25.847656 3.226562 24.835938 C 2.808594 23.828125 2.492188 22.785156 2.277344 21.710938 C 2.066406 20.640625 1.957031 19.558594 1.957031 18.464844 Z M 1.957031 18.464844 " clip-rule="nonzero"/></clipPath><clipPath id="abd4e3387b"><path d="M 6.058594 33.757812 C 6.726562 32.011719 7.371094 28.230469 8.476562 26.683594 C 9.152344 25.738281 14.589844 24.019531 16.042969 23.253906 C 16.707031 23.910156 18.371094 25.34375 19.367188 25.144531 C 20.261719 24.96875 21.335938 24.210938 22.078125 23.113281 C 23.53125 23.890625 27.367188 24.585938 28.890625 25.902344 C 30.089844 26.945312 31.121094 30.375 31.679688 32.25 C 22.585938 40.730469 13.640625 42.0625 6.058594 33.757812 " clip-rule="evenodd"/></clipPath><clipPath id="5392488eed"><path d="M 12 23.082031 L 26 23.082031 L 26 28 L 12 28 Z M 12 23.082031 " clip-rule="nonzero"/></clipPath><clipPath id="6f990c8dbd"><path d="M 1.957031 18.464844 C 1.957031 17.371094 2.066406 16.289062 2.277344 15.214844 C 2.492188 14.144531 2.808594 13.101562 3.226562 12.089844 C 3.644531 11.082031 4.15625 10.121094 4.765625 9.210938 C 5.371094 8.304688 6.0625 7.460938 6.835938 6.6875 C 7.609375 5.914062 8.449219 5.226562 9.359375 4.617188 C 10.269531 4.011719 11.226562 3.496094 12.238281 3.078125 C 13.246094 2.660156 14.289062 2.34375 15.359375 2.132812 C 16.433594 1.917969 17.515625 1.8125 18.609375 1.8125 C 19.703125 1.8125 20.785156 1.917969 21.859375 2.132812 C 22.929688 2.34375 23.972656 2.660156 24.980469 3.078125 C 25.992188 3.496094 26.953125 4.011719 27.859375 4.617188 C 28.769531 5.226562 29.609375 5.914062 30.382812 6.6875 C 31.15625 7.460938 31.847656 8.304688 32.457031 9.210938 C 33.0625 10.121094 33.574219 11.082031 33.992188 12.089844 C 34.414062 13.101562 34.726562 14.144531 34.941406 15.214844 C 35.15625 16.289062 35.261719 17.371094 35.261719 18.464844 C 35.261719 19.558594 35.15625 20.640625 34.941406 21.710938 C 34.726562 22.785156 34.414062 23.828125 33.992188 24.835938 C 33.574219 25.847656 33.0625 26.808594 32.457031 27.714844 C 31.847656 28.625 31.15625 29.464844 30.382812 30.238281 C 29.609375 31.011719 28.769531 31.703125 27.859375 32.308594 C 26.953125 32.917969 25.992188 33.429688 24.980469 33.847656 C 23.972656 34.269531 22.929688 34.582031 21.859375 34.796875 C 20.785156 35.011719 19.703125 35.117188 18.609375 35.117188 C 17.515625 35.117188 16.433594 35.011719 15.359375 34.796875 C 14.289062 34.582031 13.246094 34.269531 12.238281 33.847656 C 11.226562 33.429688 10.269531 32.917969 9.359375 32.308594 C 8.449219 31.703125 7.609375 31.011719 6.835938 30.238281 C 6.0625 29.464844 5.371094 28.625 4.765625 27.714844 C 4.15625 26.808594 3.644531 25.847656 3.226562 24.835938 C 2.808594 23.828125 2.492188 22.785156 2.277344 21.710938 C 2.066406 20.640625 1.957031 19.558594 1.957031 18.464844 Z M 1.957031 18.464844 " clip-rule="nonzero"/></clipPath><clipPath id="78644efe95"><path d="M 6.058594 33.757812 C 6.726562 32.011719 7.371094 28.230469 8.476562 26.683594 C 9.152344 25.738281 14.589844 24.019531 16.042969 23.253906 C 16.707031 23.910156 18.371094 25.34375 19.367188 25.144531 C 20.261719 24.96875 21.335938 24.210938 22.078125 23.113281 C 23.53125 23.890625 27.367188 24.585938 28.890625 25.902344 C 30.089844 26.945312 31.121094 30.375 31.679688 32.25 C 22.585938 40.730469 13.640625 42.0625 6.058594 33.757812 " clip-rule="evenodd"/></clipPath><clipPath id="006dd6343a"><path d="M 12 7 L 25 7 L 25 22 L 12 22 Z M 12 7 " clip-rule="nonzero"/></clipPath><clipPath id="bf9f67afe0"><path d="M 1.957031 18.464844 C 1.957031 17.371094 2.066406 16.289062 2.277344 15.214844 C 2.492188 14.144531 2.808594 13.101562 3.226562 12.089844 C 3.644531 11.082031 4.15625 10.121094 4.765625 9.210938 C 5.371094 8.304688 6.0625 7.460938 6.835938 6.6875 C 7.609375 5.914062 8.449219 5.226562 9.359375 4.617188 C 10.269531 4.011719 11.226562 3.496094 12.238281 3.078125 C 13.246094 2.660156 14.289062 2.34375 15.359375 2.132812 C 16.433594 1.917969 17.515625 1.8125 18.609375 1.8125 C 19.703125 1.8125 20.785156 1.917969 21.859375 2.132812 C 22.929688 2.34375 23.972656 2.660156 24.980469 3.078125 C 25.992188 3.496094 26.953125 4.011719 27.859375 4.617188 C 28.769531 5.226562 29.609375 5.914062 30.382812 6.6875 C 31.15625 7.460938 31.847656 8.304688 32.457031 9.210938 C 33.0625 10.121094 33.574219 11.082031 33.992188 12.089844 C 34.414062 13.101562 34.726562 14.144531 34.941406 15.214844 C 35.15625 16.289062 35.261719 17.371094 35.261719 18.464844 C 35.261719 19.558594 35.15625 20.640625 34.941406 21.710938 C 34.726562 22.785156 34.414062 23.828125 33.992188 24.835938 C 33.574219 25.847656 33.0625 26.808594 32.457031 27.714844 C 31.847656 28.625 31.15625 29.464844 30.382812 30.238281 C 29.609375 31.011719 28.769531 31.703125 27.859375 32.308594 C 26.953125 32.917969 25.992188 33.429688 24.980469 33.847656 C 23.972656 34.269531 22.929688 34.582031 21.859375 34.796875 C 20.785156 35.011719 19.703125 35.117188 18.609375 35.117188 C 17.515625 35.117188 16.433594 35.011719 15.359375 34.796875 C 14.289062 34.582031 13.246094 34.269531 12.238281 33.847656 C 11.226562 33.429688 10.269531 32.917969 9.359375 32.308594 C 8.449219 31.703125 7.609375 31.011719 6.835938 30.238281 C 6.0625 29.464844 5.371094 28.625 4.765625 27.714844 C 4.15625 26.808594 3.644531 25.847656 3.226562 24.835938 C 2.808594 23.828125 2.492188 22.785156 2.277344 21.710938 C 2.066406 20.640625 1.957031 19.558594 1.957031 18.464844 Z M 1.957031 18.464844 " clip-rule="nonzero"/></clipPath><clipPath id="5df25ea587"><path d="M 11 6 L 23 6 L 23 16 L 11 16 Z M 11 6 " clip-rule="nonzero"/></clipPath><clipPath id="1bc9d943e8"><path d="M 1.957031 18.464844 C 1.957031 17.371094 2.066406 16.289062 2.277344 15.214844 C 2.492188 14.144531 2.808594 13.101562 3.226562 12.089844 C 3.644531 11.082031 4.15625 10.121094 4.765625 9.210938 C 5.371094 8.304688 6.0625 7.460938 6.835938 6.6875 C 7.609375 5.914062 8.449219 5.226562 9.359375 4.617188 C 10.269531 4.011719 11.226562 3.496094 12.238281 3.078125 C 13.246094 2.660156 14.289062 2.34375 15.359375 2.132812 C 16.433594 1.917969 17.515625 1.8125 18.609375 1.8125 C 19.703125 1.8125 20.785156 1.917969 21.859375 2.132812 C 22.929688 2.34375 23.972656 2.660156 24.980469 3.078125 C 25.992188 3.496094 26.953125 4.011719 27.859375 4.617188 C 28.769531 5.226562 29.609375 5.914062 30.382812 6.6875 C 31.15625 7.460938 31.847656 8.304688 32.457031 9.210938 C 33.0625 10.121094 33.574219 11.082031 33.992188 12.089844 C 34.414062 13.101562 34.726562 14.144531 34.941406 15.214844 C 35.15625 16.289062 35.261719 17.371094 35.261719 18.464844 C 35.261719 19.558594 35.15625 20.640625 34.941406 21.710938 C 34.726562 22.785156 34.414062 23.828125 33.992188 24.835938 C 33.574219 25.847656 33.0625 26.808594 32.457031 27.714844 C 31.847656 28.625 31.15625 29.464844 30.382812 30.238281 C 29.609375 31.011719 28.769531 31.703125 27.859375 32.308594 C 26.953125 32.917969 25.992188 33.429688 24.980469 33.847656 C 23.972656 34.269531 22.929688 34.582031 21.859375 34.796875 C 20.785156 35.011719 19.703125 35.117188 18.609375 35.117188 C 17.515625 35.117188 16.433594 35.011719 15.359375 34.796875 C 14.289062 34.582031 13.246094 34.269531 12.238281 33.847656 C 11.226562 33.429688 10.269531 32.917969 9.359375 32.308594 C 8.449219 31.703125 7.609375 31.011719 6.835938 30.238281 C 6.0625 29.464844 5.371094 28.625 4.765625 27.714844 C 4.15625 26.808594 3.644531 25.847656 3.226562 24.835938 C 2.808594 23.828125 2.492188 22.785156 2.277344 21.710938 C 2.066406 20.640625 1.957031 19.558594 1.957031 18.464844 Z M 1.957031 18.464844 " clip-rule="nonzero"/></clipPath></defs><g clip-path="url(#6bcdf19a56)"><path fill="#d6d6d6" d="M 35.261719 18.464844 C 35.261719 19.007812 35.234375 19.554688 35.179688 20.097656 C 35.128906 20.640625 35.046875 21.179688 34.941406 21.710938 C 34.835938 22.246094 34.703125 22.777344 34.542969 23.296875 C 34.386719 23.820312 34.203125 24.332031 33.992188 24.835938 C 33.785156 25.339844 33.550781 25.832031 33.296875 26.3125 C 33.039062 26.796875 32.757812 27.261719 32.457031 27.714844 C 32.152344 28.167969 31.828125 28.605469 31.480469 29.027344 C 31.136719 29.449219 30.769531 29.855469 30.382812 30.238281 C 30 30.625 29.59375 30.992188 29.171875 31.335938 C 28.753906 31.683594 28.316406 32.007812 27.859375 32.308594 C 27.40625 32.613281 26.941406 32.894531 26.460938 33.152344 C 25.976562 33.40625 25.484375 33.640625 24.980469 33.847656 C 24.476562 34.058594 23.964844 34.242188 23.445312 34.398438 C 22.921875 34.558594 22.394531 34.691406 21.859375 34.796875 C 21.324219 34.902344 20.785156 34.984375 20.242188 35.035156 C 19.699219 35.089844 19.15625 35.117188 18.609375 35.117188 C 18.0625 35.117188 17.519531 35.089844 16.976562 35.035156 C 16.433594 34.984375 15.894531 34.902344 15.359375 34.796875 C 14.828125 34.691406 14.296875 34.558594 13.777344 34.398438 C 13.253906 34.242188 12.742188 34.058594 12.238281 33.847656 C 11.734375 33.640625 11.242188 33.40625 10.761719 33.152344 C 10.277344 32.894531 9.8125 32.613281 9.359375 32.308594 C 8.90625 32.007812 8.46875 31.683594 8.046875 31.335938 C 7.625 30.992188 7.222656 30.625 6.835938 30.238281 C 6.449219 29.855469 6.082031 29.449219 5.738281 29.027344 C 5.390625 28.605469 5.066406 28.167969 4.765625 27.714844 C 4.460938 27.261719 4.179688 26.796875 3.925781 26.3125 C 3.667969 25.832031 3.433594 25.339844 3.226562 24.835938 C 3.015625 24.332031 2.832031 23.820312 2.675781 23.296875 C 2.515625 22.777344 2.382812 22.246094 2.277344 21.710938 C 2.171875 21.179688 2.089844 20.640625 2.039062 20.097656 C 1.984375 19.554688 1.957031 19.007812 1.957031 18.464844 C 1.957031 17.917969 1.984375 17.375 2.039062 16.832031 C 2.089844 16.289062 2.171875 15.75 2.277344 15.214844 C 2.382812 14.679688 2.515625 14.152344 2.675781 13.628906 C 2.832031 13.109375 3.015625 12.59375 3.226562 12.089844 C 3.433594 11.585938 3.667969 11.09375 3.925781 10.613281 C 4.179688 10.132812 4.460938 9.664062 4.765625 9.210938 C 5.066406 8.757812 5.390625 8.320312 5.738281 7.898438 C 6.082031 7.476562 6.449219 7.074219 6.835938 6.6875 C 7.222656 6.304688 7.625 5.9375 8.046875 5.589844 C 8.46875 5.246094 8.90625 4.921875 9.359375 4.617188 C 9.8125 4.3125 10.277344 4.035156 10.761719 3.777344 C 11.242188 3.519531 11.734375 3.289062 12.238281 3.078125 C 12.742188 2.871094 13.253906 2.6875 13.777344 2.527344 C 14.296875 2.371094 14.828125 2.238281 15.359375 2.132812 C 15.894531 2.023438 16.433594 1.945312 16.976562 1.890625 C 17.519531 1.835938 18.0625 1.8125 18.609375 1.8125 C 19.15625 1.8125 19.699219 1.835938 20.242188 1.890625 C 20.785156 1.945312 21.324219 2.023438 21.859375 2.132812 C 22.394531 2.238281 22.921875 2.371094 23.445312 2.527344 C 23.964844 2.6875 24.476562 2.871094 24.980469 3.078125 C 25.484375 3.289062 25.976562 3.519531 26.460938 3.777344 C 26.941406 4.035156 27.40625 4.3125 27.859375 4.617188 C 28.316406 4.921875 28.753906 5.246094 29.171875 5.589844 C 29.59375 5.9375 30 6.304688 30.382812 6.6875 C 30.769531 7.074219 31.136719 7.476562 31.480469 7.898438 C 31.828125 8.320312 32.152344 8.757812 32.457031 9.210938 C 32.757812 9.664062 33.039062 10.132812 33.296875 10.613281 C 33.550781 11.09375 33.785156 11.585938 33.992188 12.089844 C 34.203125 12.59375 34.386719 13.109375 34.542969 13.628906 C 34.703125 14.152344 34.835938 14.679688 34.941406 15.214844 C 35.046875 15.75 35.128906 16.289062 35.179688 16.832031 C 35.234375 17.375 35.261719 17.917969 35.261719 18.464844 Z M 35.261719 18.464844 " fill-opacity="1" fill-rule="nonzero"/></g><g clip-path="url(#b15de51e9a)"><g clip-path="url(#9473914352)"><path fill="#7b0000" d="M 14.761719 5.574219 C 12.265625 6.285156 10.96875 9.476562 10.824219 12.449219 C 10.703125 14.832031 11.796875 24.878906 11.007812 30.476562 C 16.148438 32.355469 22.761719 32.371094 27.921875 30.007812 C 25.40625 21.066406 26.542969 14.175781 26.269531 11.761719 C 25.730469 7.050781 21.878906 4.660156 20.234375 4.476562 C 18.652344 4.300781 16.445312 4.273438 14.761719 5.574219 Z M 14.761719 5.574219 " fill-opacity="1" fill-rule="evenodd"/></g></g><g clip-path="url(#de449bf7c8)"><g clip-path="url(#4854ebc07f)"><path fill="#ffc88d" d="M 15.941406 19.414062 C 15.914062 20.183594 16.171875 23.921875 16.027344 25.097656 C 17.964844 25.542969 20.476562 26.546875 22.371094 25.433594 C 22.097656 24.640625 22.085938 23.6875 22.046875 22.859375 C 21.972656 21.257812 21.707031 20.328125 21.902344 18.734375 Z M 15.941406 19.414062 " fill-opacity="1" fill-rule="evenodd"/></g></g><g clip-path="url(#947d35660c)"><g clip-path="url(#f1bca3dc3e)"><g clip-path="url(#b00bd14c20)"><path fill="#7b0000" d="M 13.027344 19.378906 C 13.425781 19.855469 14.578125 20.476562 14.984375 20.949219 C 16.167969 22.332031 18.46875 23.210938 19.925781 22.332031 C 21.417969 21.429688 22.164062 19.660156 22.523438 18.027344 Z M 13.027344 19.378906 " fill-opacity="1" fill-rule="evenodd"/></g></g></g><g clip-path="url(#835c1040e2)"><g clip-path="url(#be7f06332b)"><path fill="#e0714b" d="M 6.058594 33.757812 C 6.726562 32.011719 7.371094 28.230469 8.476562 26.683594 C 9.152344 25.738281 14.589844 24.019531 16.042969 23.253906 C 16.707031 23.910156 18.371094 25.34375 19.367188 25.144531 C 20.261719 24.96875 21.335938 24.210938 22.078125 23.113281 C 23.53125 23.890625 27.367188 24.585938 28.890625 25.902344 C 30.089844 26.945312 31.121094 30.375 31.679688 32.25 C 22.585938 40.730469 13.640625 42.0625 6.058594 33.757812 " fill-opacity="1" fill-rule="evenodd"/></g></g><g clip-path="url(#76d984a090)"><g clip-path="url(#305d750eaa)"><g clip-path="url(#abd4e3387b)"><path fill="#ffffff" d="M 18.484375 36.449219 C 18.394531 33.460938 18.761719 26.769531 19.15625 24.203125 C 19.210938 24.210938 19.4375 24.34375 19.550781 24.269531 C 19.296875 27.238281 18.9375 32.789062 18.996094 36.4375 Z M 18.484375 36.449219 " fill-opacity="1" fill-rule="evenodd"/></g></g></g><g clip-path="url(#5392488eed)"><g clip-path="url(#6f990c8dbd)"><g clip-path="url(#78644efe95)"><path fill="#ffffff" d="M 12.753906 22.972656 C 13.277344 24.285156 16.667969 27.742188 17.308594 27.53125 C 17.707031 27.398438 18.75 26.148438 19.242188 25.15625 C 19.65625 26.070312 20.90625 27.652344 21.289062 27.644531 C 21.289062 27.644531 24.625 25.023438 25.535156 22.433594 C 21.335938 21.40625 16.851562 21.59375 12.753906 22.972656 Z M 12.753906 22.972656 " fill-opacity="1" fill-rule="evenodd"/></g></g></g><g clip-path="url(#006dd6343a)"><g clip-path="url(#bf9f67afe0)"><path fill="#ffc88d" d="M 12.71875 11.484375 C 12.667969 13.945312 12.742188 17.246094 14.328125 19.292969 C 14.921875 20.0625 15.589844 20.714844 16.425781 21.1875 C 17.074219 21.554688 17.894531 21.914062 18.652344 21.859375 C 19.546875 21.789062 20.167969 21.398438 20.714844 20.933594 C 21.976562 19.867188 22.867188 18.292969 23.347656 16.722656 C 24.164062 16.273438 25.0625 15.382812 24.816406 14.351562 C 24.65625 13.695312 23.957031 13.488281 23.398438 13.800781 C 23.011719 14.019531 22.789062 14.382812 22.601562 14.773438 C 22.773438 13.050781 22.023438 10.855469 20.84375 9.527344 C 18.394531 6.769531 14.203125 7.703125 12.71875 11.484375 Z M 12.71875 11.484375 " fill-opacity="1" fill-rule="evenodd"/></g></g><g clip-path="url(#5df25ea587)"><g clip-path="url(#1bc9d943e8)"><path fill="#7b0000" d="M 12.488281 15.257812 C 13.523438 13.976562 13.65625 11.351562 14.234375 10.320312 C 14.777344 15 18.972656 14.203125 18.972656 14.203125 C 18.121094 13.628906 17.699219 12.953125 17.507812 11.355469 C 18.199219 13.519531 19.457031 14.644531 21.28125 14.136719 C 20.980469 13.902344 20.746094 13.550781 20.605469 13.136719 C 20.460938 12.707031 20.417969 12.210938 20.507812 11.707031 C 20.664062 13.480469 21.628906 14.136719 22.574219 14.800781 C 22.804688 14 22.710938 12.226562 22.511719 11.445312 C 22.363281 10.867188 22.164062 10.316406 21.910156 9.804688 C 21.386719 8.765625 20.625 7.875 19.59375 7.207031 C 18.246094 6.335938 12.96875 7.554688 12.382812 8.597656 C 12.015625 9.246094 10.875 14.105469 12.488281 15.257812 Z M 12.488281 15.257812 " fill-opacity="1" fill-rule="evenodd"/></g></g></svg>