<svg xmlns="http://www.w3.org/2000/svg" xmlns:xlink="http://www.w3.org/1999/xlink" width="50" zoomAndPan="magnify" viewBox="0 0 37.5 37.499999" height="50" preserveAspectRatio="xMidYMid meet" version="1.0"><defs><clipPath id="bea1afcca0"><path d="M 1.777344 1.777344 L 35.082031 1.777344 L 35.082031 35.082031 L 1.777344 35.082031 Z M 1.777344 1.777344 " clip-rule="nonzero"/></clipPath><clipPath id="bf349308d3"><path d="M 9 24 L 28 24 L 28 35.082031 L 9 35.082031 Z M 9 24 " clip-rule="nonzero"/></clipPath><clipPath id="fe7f46987b"><path d="M 9 25 L 19 25 L 19 35.082031 L 9 35.082031 Z M 9 25 " clip-rule="nonzero"/></clipPath></defs><g clip-path="url(#bea1afcca0)"><path fill="#4f5d69" d="M 35.085938 18.433594 C 35.085938 27.628906 27.628906 35.085938 18.433594 35.085938 C 9.234375 35.085938 1.777344 27.628906 1.777344 18.433594 C 1.777344 9.234375 9.234375 1.777344 18.433594 1.777344 C 27.628906 1.777344 35.085938 9.234375 35.085938 18.433594 " fill-opacity="1" fill-rule="nonzero"/></g><path fill="#785a51" d="M 25.253906 17.625 L 11.488281 17.625 C 11.488281 17.625 13.019531 25.75 11.488281 28.835938 L 25.253906 28.835938 C 23.722656 25.75 25.253906 17.625 25.253906 17.625 " fill-opacity="1" fill-rule="nonzero"/><g clip-path="url(#bf349308d3)"><path fill="#b89050" d="M 18.433594 35.085938 C 21.746094 35.085938 24.832031 34.113281 27.429688 32.441406 C 27.234375 30.683594 26.953125 28.640625 26.671875 28.257812 C 26.164062 27.554688 23.425781 24.6875 18.375 24.6875 C 13.328125 24.6875 10.589844 27.554688 10.078125 28.257812 C 9.800781 28.636719 9.527344 30.632812 9.332031 32.375 C 11.945312 34.085938 15.070312 35.085938 18.433594 35.085938 " fill-opacity="1" fill-rule="nonzero"/></g><g clip-path="url(#fe7f46987b)"><path fill="#a18557" d="M 18.375 35.082031 C 15.039062 35.074219 11.933594 34.078125 9.332031 32.375 C 9.527344 30.632812 9.800781 28.636719 10.078125 28.257812 C 10.460938 27.734375 12.082031 26.003906 14.980469 25.160156 C 14.757812 25.699219 14.632812 26.3125 14.632812 26.964844 L 14.632812 30.011719 C 14.632812 32.160156 16 33.898438 17.691406 33.898438 L 18.375 33.898438 L 18.375 35.082031 " fill-opacity="1" fill-rule="nonzero"/></g><path fill="#a07846" d="M 22.230469 30.011719 C 22.230469 32.160156 20.863281 33.898438 19.171875 33.898438 L 17.691406 33.898438 C 16 33.898438 14.632812 32.160156 14.632812 30.011719 L 14.632812 26.964844 C 14.632812 24.816406 16 23.078125 17.691406 23.078125 L 19.171875 23.078125 C 20.863281 23.078125 22.230469 24.816406 22.230469 26.964844 L 22.230469 30.011719 " fill-opacity="1" fill-rule="nonzero"/><path fill="#f8de9c" d="M 18.433594 23.449219 L 16.210938 22.265625 L 16.210938 24.90625 C 16.210938 24.90625 16.917969 26.117188 18.433594 26.117188 C 19.945312 26.117188 20.652344 24.90625 20.652344 24.90625 L 20.652344 22.265625 L 18.433594 23.449219 " fill-opacity="1" fill-rule="nonzero"/><path fill="#e9cc87" d="M 18.433594 23.449219 L 16.210938 24.90625 L 16.210938 22.269531 Z M 18.433594 23.449219 " fill-opacity="1" fill-rule="nonzero"/><path fill="#fde9ac" d="M 24.082031 14.191406 C 24.082031 6.335938 18.433594 7.015625 18.433594 7.015625 C 18.433594 7.015625 12.785156 6.335938 12.785156 14.191406 C 12.785156 14.191406 11.488281 13.832031 11.488281 15.421875 C 11.488281 17.015625 12.953125 17.84375 12.953125 17.84375 C 12.953125 17.84375 16.011719 23.449219 18.433594 23.449219 C 20.851562 23.449219 23.910156 17.84375 23.910156 17.84375 C 23.910156 17.84375 25.375 17.015625 25.375 15.421875 C 25.375 13.832031 24.082031 14.191406 24.082031 14.191406 " fill-opacity="1" fill-rule="nonzero"/><path fill="#f8de9c" d="M 18.433594 7.015625 C 18.433594 7.015625 12.785156 6.335938 12.785156 14.191406 C 12.785156 14.191406 11.488281 13.832031 11.488281 15.421875 C 11.488281 17.015625 12.953125 17.84375 12.953125 17.84375 C 12.953125 17.84375 16.011719 23.449219 18.433594 23.449219 L 18.433594 7.015625 " fill-opacity="1" fill-rule="nonzero"/><path fill="#89695c" d="M 12.578125 28.078125 C 12.578125 28.683594 13.429688 29.003906 13.535156 29.5 C 13.640625 29.996094 13.675781 30.351562 13.675781 30.351562 C 13.675781 30.351562 14.917969 29.464844 14.671875 28.683594 C 14.421875 27.902344 13.855469 27.015625 13.320312 27.015625 C 12.789062 27.015625 12.578125 27.441406 12.578125 28.078125 " fill-opacity="1" fill-rule="nonzero"/><path fill="#3e99b2" d="M 14.117188 27.015625 C 14.117188 27.21875 13.953125 27.382812 13.75 27.382812 L 12.800781 27.382812 C 12.597656 27.382812 12.429688 27.21875 12.429688 27.015625 C 12.429688 26.808594 12.597656 26.644531 12.800781 26.644531 L 13.75 26.644531 C 13.953125 26.644531 14.117188 26.808594 14.117188 27.015625 " fill-opacity="1" fill-rule="nonzero"/><path fill="#89695c" d="M 18.433594 6.367188 C 8.851562 6.367188 11.488281 17.625 11.488281 17.625 L 11.550781 17.632812 C 11.664062 18.324219 11.902344 19.773438 12.007812 20.488281 C 12.148438 21.445312 12.484375 26.183594 12.695312 26.644531 L 13.761719 26.644531 C 14.066406 26.097656 13.25 18.359375 13.25 18.359375 L 12.953125 17.84375 C 12.953125 17.84375 13.097656 13.226562 14.5625 12.144531 C 14.5625 12.144531 19.800781 17.460938 23.808594 17.835938 L 23.789062 17.84375 L 23.46875 18.582031 C 23.46875 18.582031 22.675781 26.097656 22.980469 26.644531 L 24.046875 26.644531 C 24.261719 26.183594 24.59375 21.445312 24.734375 20.488281 C 24.832031 19.839844 25.035156 18.585938 25.15625 17.84375 L 25.203125 17.84375 C 25.203125 17.84375 28.011719 6.367188 18.433594 6.367188 " fill-opacity="1" fill-rule="nonzero"/><path fill="#89695c" d="M 24.167969 28.078125 C 24.167969 28.683594 23.3125 29.003906 23.207031 29.5 C 23.101562 29.996094 23.066406 30.351562 23.066406 30.351562 C 23.066406 30.351562 21.824219 29.464844 22.070312 28.683594 C 22.320312 27.902344 22.886719 27.015625 23.421875 27.015625 C 23.953125 27.015625 24.167969 27.441406 24.167969 28.078125 " fill-opacity="1" fill-rule="nonzero"/><path fill="#3e99b2" d="M 22.625 27.015625 C 22.625 27.21875 22.789062 27.382812 22.996094 27.382812 L 23.941406 27.382812 C 24.148438 27.382812 24.3125 27.21875 24.3125 27.015625 C 24.3125 26.808594 24.148438 26.644531 23.941406 26.644531 L 22.996094 26.644531 C 22.789062 26.644531 22.625 26.808594 22.625 27.015625 " fill-opacity="1" fill-rule="nonzero"/><path fill="#90724d" d="M 19.171875 33.898438 L 17.691406 33.898438 C 16 33.898438 14.632812 32.160156 14.632812 30.011719 L 14.632812 29.5 C 14.632812 31.648438 16 33.390625 17.691406 33.390625 L 19.171875 33.390625 C 20.863281 33.390625 22.230469 31.648438 22.230469 29.5 L 22.230469 30.011719 C 22.230469 32.160156 20.863281 33.898438 19.171875 33.898438 " fill-opacity="1" fill-rule="nonzero"/></svg>