<svg xmlns="http://www.w3.org/2000/svg" xmlns:xlink="http://www.w3.org/1999/xlink" width="50" zoomAndPan="magnify" viewBox="0 0 37.5 37.499999" height="50" preserveAspectRatio="xMidYMid meet" version="1.0"><defs><clipPath id="57d9a62813"><path d="M 1.40625 1.40625 L 35.453125 1.40625 L 35.453125 35.453125 L 1.40625 35.453125 Z M 1.40625 1.40625 " clip-rule="nonzero"/></clipPath></defs><g clip-path="url(#57d9a62813)"><path fill="#e6e6e6" d="M 35.453125 18.429688 C 35.453125 18.988281 35.425781 19.542969 35.371094 20.097656 C 35.316406 20.652344 35.234375 21.203125 35.125 21.75 C 35.015625 22.296875 34.882812 22.835938 34.71875 23.371094 C 34.558594 23.902344 34.371094 24.429688 34.15625 24.945312 C 33.941406 25.457031 33.703125 25.960938 33.441406 26.453125 C 33.179688 26.945312 32.894531 27.421875 32.582031 27.886719 C 32.273438 28.351562 31.941406 28.796875 31.589844 29.226562 C 31.234375 29.660156 30.859375 30.070312 30.464844 30.464844 C 30.070312 30.859375 29.660156 31.234375 29.230469 31.589844 C 28.796875 31.941406 28.351562 32.273438 27.886719 32.582031 C 27.421875 32.894531 26.945312 33.179688 26.453125 33.441406 C 25.960938 33.703125 25.457031 33.941406 24.945312 34.15625 C 24.429688 34.371094 23.90625 34.558594 23.371094 34.71875 C 22.835938 34.878906 22.296875 35.015625 21.75 35.125 C 21.203125 35.234375 20.652344 35.316406 20.097656 35.371094 C 19.542969 35.425781 18.988281 35.453125 18.429688 35.453125 C 17.871094 35.453125 17.316406 35.425781 16.761719 35.371094 C 16.207031 35.316406 15.65625 35.234375 15.109375 35.125 C 14.5625 35.015625 14.019531 34.878906 13.488281 34.71875 C 12.953125 34.558594 12.429688 34.371094 11.914062 34.15625 C 11.398438 33.941406 10.894531 33.703125 10.40625 33.441406 C 9.914062 33.179688 9.433594 32.894531 8.972656 32.582031 C 8.507812 32.273438 8.0625 31.941406 7.628906 31.589844 C 7.199219 31.234375 6.785156 30.859375 6.390625 30.464844 C 5.996094 30.070312 5.625 29.660156 5.269531 29.226562 C 4.917969 28.796875 4.585938 28.351562 4.273438 27.886719 C 3.964844 27.421875 3.679688 26.945312 3.417969 26.453125 C 3.152344 25.960938 2.914062 25.457031 2.703125 24.945312 C 2.488281 24.429688 2.300781 23.902344 2.140625 23.371094 C 1.976562 22.835938 1.84375 22.296875 1.734375 21.75 C 1.625 21.203125 1.542969 20.652344 1.488281 20.097656 C 1.433594 19.542969 1.40625 18.988281 1.40625 18.429688 C 1.40625 17.871094 1.433594 17.316406 1.488281 16.761719 C 1.542969 16.207031 1.625 15.65625 1.734375 15.109375 C 1.84375 14.5625 1.976562 14.019531 2.140625 13.488281 C 2.300781 12.953125 2.488281 12.429688 2.703125 11.914062 C 2.914062 11.398438 3.152344 10.894531 3.417969 10.40625 C 3.679688 9.914062 3.964844 9.433594 4.273438 8.972656 C 4.585938 8.507812 4.917969 8.0625 5.269531 7.628906 C 5.625 7.199219 5.996094 6.785156 6.390625 6.390625 C 6.785156 5.996094 7.199219 5.625 7.628906 5.269531 C 8.0625 4.917969 8.507812 4.585938 8.972656 4.273438 C 9.433594 3.964844 9.914062 3.679688 10.40625 3.414062 C 10.894531 3.152344 11.398438 2.914062 11.914062 2.703125 C 12.429688 2.488281 12.953125 2.300781 13.488281 2.140625 C 14.019531 1.976562 14.5625 1.84375 15.109375 1.734375 C 15.65625 1.625 16.207031 1.542969 16.761719 1.488281 C 17.316406 1.433594 17.871094 1.40625 18.429688 1.40625 C 18.988281 1.40625 19.542969 1.433594 20.097656 1.488281 C 20.652344 1.542969 21.203125 1.625 21.75 1.734375 C 22.296875 1.84375 22.835938 1.976562 23.371094 2.140625 C 23.90625 2.300781 24.429688 2.488281 24.945312 2.703125 C 25.457031 2.914062 25.960938 3.152344 26.453125 3.414062 C 26.945312 3.679688 27.421875 3.964844 27.886719 4.273438 C 28.351562 4.585938 28.796875 4.917969 29.230469 5.269531 C 29.660156 5.625 30.070312 5.996094 30.464844 6.390625 C 30.859375 6.785156 31.234375 7.199219 31.589844 7.628906 C 31.941406 8.0625 32.273438 8.507812 32.582031 8.972656 C 32.894531 9.433594 33.179688 9.914062 33.441406 10.40625 C 33.703125 10.894531 33.941406 11.398438 34.15625 11.914062 C 34.371094 12.429688 34.558594 12.953125 34.71875 13.488281 C 34.882812 14.019531 35.015625 14.5625 35.125 15.109375 C 35.234375 15.65625 35.316406 16.207031 35.371094 16.761719 C 35.425781 17.316406 35.453125 17.871094 35.453125 18.429688 Z M 35.453125 18.429688 " fill-opacity="1" fill-rule="nonzero"/></g><path fill="#1a1617" d="M 13.167969 21.226562 C 13.109375 21.273438 13.023438 21.289062 12.796875 21.367188 C 11.625 21.773438 10.460938 22.253906 9.300781 22.824219 C 8.570312 23.179688 8.640625 23.050781 8.324219 23.789062 C 7.507812 25.6875 6.734375 27.671875 6.164062 29.578125 C 8.082031 31.648438 10.519531 33.230469 13.265625 34.117188 C 14.300781 34.398438 15.371094 34.628906 16.464844 34.816406 C 17.054688 34.882812 17.65625 34.925781 18.265625 34.929688 L 18.640625 34.929688 C 19.230469 34.921875 19.816406 34.882812 20.390625 34.816406 C 21.484375 34.628906 22.558594 34.398438 23.59375 34.117188 C 26.339844 33.230469 28.773438 31.648438 30.695312 29.578125 C 30.125 27.671875 29.351562 25.6875 28.535156 23.789062 C 28.21875 23.050781 28.289062 23.179688 27.554688 22.824219 C 26.398438 22.253906 25.230469 21.773438 24.058594 21.367188 C 23.902344 21.3125 23.816406 21.289062 23.753906 21.261719 L 23.738281 21.226562 C 23.515625 20.839844 23.25 20.484375 22.949219 20.148438 C 24.375 20.25 25.53125 19.894531 26.253906 19.019531 C 26.957031 18.164062 26.996094 17.53125 27.035156 16.5 C 27.105469 14.476562 26.949219 12.300781 26.390625 10.269531 C 25.847656 8.289062 24.925781 6.449219 23.457031 5.035156 C 22.054688 3.683594 20.414062 2.617188 18.429688 2.617188 C 17.03125 2.617188 15.820312 2.875 14.960938 4.230469 C 14.121094 4.121094 13.660156 4.496094 13.097656 5.035156 C 11.632812 6.449219 10.707031 8.289062 10.164062 10.269531 C 9.609375 12.300781 9.453125 14.476562 9.523438 16.5 C 9.5625 17.53125 9.597656 18.164062 10.300781 19.019531 C 11.078125 19.957031 12.347656 20.296875 13.910156 20.125 L 13.925781 20.125 C 13.640625 20.453125 13.386719 20.824219 13.167969 21.226562 Z M 13.167969 21.226562 " fill-opacity="1" fill-rule="nonzero"/><path fill="#3d3d3d" d="M 13.910156 20.128906 C 14.214844 19.800781 14.582031 19.492188 14.992188 19.199219 L 15.203125 18.207031 C 14.464844 17.347656 13.90625 16.195312 13.625 14.875 C 13.066406 14.886719 12.472656 14.234375 12.242188 13.296875 C 12.058594 12.554688 12.042969 11.953125 12.253906 11.570312 C 12.605469 10.921875 13.238281 11.324219 13.488281 11.804688 C 13.722656 9.839844 14.554688 8.152344 15.726562 7.117188 C 16.570312 8.074219 17.574219 8.863281 18.890625 9.007812 C 21.414062 9.289062 22.746094 10.183594 23.351562 11.671875 C 23.636719 11.257812 24.1875 10.984375 24.511719 11.570312 C 24.714844 11.953125 24.703125 12.554688 24.519531 13.296875 C 24.300781 14.179688 23.765625 14.808594 23.234375 14.871094 C 22.960938 16.144531 22.433594 17.261719 21.730469 18.117188 L 21.714844 18.207031 L 21.941406 19.253906 C 22.296875 19.492188 22.648438 19.792969 22.933594 20.15625 C 24.363281 20.257812 25.527344 19.90625 26.253906 19.023438 C 26.957031 18.171875 26.996094 17.539062 27.035156 16.507812 C 27.105469 14.480469 26.949219 12.300781 26.390625 10.273438 C 25.847656 8.292969 24.925781 6.453125 23.457031 5.042969 C 22.054688 3.691406 20.414062 2.621094 18.429688 2.621094 C 17.03125 2.621094 15.820312 2.882812 14.960938 4.234375 C 14.121094 4.125 13.660156 4.503906 13.097656 5.042969 C 11.632812 6.453125 10.707031 8.292969 10.164062 10.273438 C 9.609375 12.300781 9.453125 14.480469 9.523438 16.507812 C 9.5625 17.539062 9.597656 18.171875 10.300781 19.023438 C 11.078125 19.964844 12.347656 20.300781 13.910156 20.128906 Z M 13.910156 20.128906 " fill-opacity="1" fill-rule="nonzero"/><path fill="#f6d5b8" d="M 23.351562 11.671875 C 23.636719 11.257812 24.1875 10.984375 24.511719 11.570312 C 24.714844 11.953125 24.703125 12.554688 24.519531 13.296875 C 24.300781 14.179688 23.765625 14.808594 23.234375 14.871094 C 22.960938 16.144531 22.433594 17.261719 21.730469 18.117188 L 21.714844 18.207031 L 21.933594 19.203125 L 21.914062 19.199219 C 21.933594 19.261719 21.953125 19.316406 21.96875 19.371094 L 21.976562 19.40625 C 22.050781 19.679688 22.121094 19.96875 22.183594 20.273438 C 22.617188 22.746094 21.730469 25.058594 20.691406 27.457031 C 20.113281 28.070312 19.246094 28.542969 18.460938 28.507812 C 17.660156 28.542969 16.777344 28.054688 16.203125 27.421875 C 15.234375 25.191406 14.40625 23.03125 14.652344 20.746094 C 14.726562 20.265625 14.832031 19.8125 14.945312 19.40625 L 14.992188 19.199219 L 15.203125 18.207031 C 14.464844 17.347656 13.90625 16.195312 13.625 14.875 C 13.066406 14.886719 12.472656 14.234375 12.242188 13.296875 C 12.058594 12.554688 12.042969 11.953125 12.253906 11.570312 C 12.605469 10.921875 13.238281 11.324219 13.488281 11.804688 C 13.722656 9.839844 14.554688 8.152344 15.726562 7.117188 C 16.570312 8.074219 17.574219 8.863281 18.890625 9.007812 C 21.414062 9.289062 22.746094 10.183594 23.351562 11.671875 Z M 23.351562 11.671875 " fill-opacity="1" fill-rule="nonzero"/><path fill="#e6c6aa" d="M 13.582031 14.664062 C 13.472656 14.148438 13.414062 13.628906 13.398438 13.105469 C 13.390625 12.765625 13.402344 12.433594 13.433594 12.09375 C 13.40625 12.058594 13.378906 12.019531 13.34375 11.984375 C 13.238281 11.867188 13.046875 11.71875 12.871094 11.730469 C 12.742188 11.742188 12.660156 11.847656 12.605469 11.949219 C 12.386719 12.34375 12.53125 13.011719 12.648438 13.417969 C 12.75 13.765625 12.933594 14.125 13.195312 14.390625 C 13.296875 14.496094 13.433594 14.601562 13.582031 14.664062 Z M 23.246094 14.664062 C 23.355469 14.148438 23.414062 13.628906 23.425781 13.105469 C 23.4375 12.765625 23.425781 12.433594 23.394531 12.09375 C 23.421875 12.058594 23.449219 12.019531 23.484375 11.984375 C 23.589844 11.867188 23.78125 11.71875 23.953125 11.730469 C 24.085938 11.742188 24.167969 11.847656 24.222656 11.949219 C 24.441406 12.34375 24.296875 13.011719 24.179688 13.417969 C 24.074219 13.765625 23.894531 14.125 23.632812 14.390625 C 23.53125 14.496094 23.398438 14.601562 23.246094 14.664062 Z M 23.246094 14.664062 " fill-opacity="1" fill-rule="nonzero"/><path fill="#e6c6aa" d="M 15.203125 18.207031 Z M 21.933594 19.203125 L 21.714844 18.207031 L 21.730469 18.117188 C 20.851562 19.183594 19.695312 19.832031 18.429688 19.832031 C 17.203125 19.832031 16.074219 19.21875 15.203125 18.207031 L 15.140625 18.492188 C 15.503906 18.980469 15.921875 19.367188 16.382812 19.671875 C 17.007812 20.078125 17.710938 20.332031 18.480469 20.472656 C 19.277344 20.617188 20.140625 20.640625 21.050781 20.585938 C 21.285156 20.570312 21.246094 20.527344 21.308594 20.761719 C 22.0625 23.714844 20.78125 28.535156 16.230469 27.453125 C 16.804688 28.070312 17.671875 28.542969 18.460938 28.507812 C 19.246094 28.542969 20.113281 28.070312 20.691406 27.457031 C 21.820312 24.855469 22.871094 22.042969 21.933594 19.203125 Z M 21.933594 19.203125 " fill-opacity="1" fill-rule="nonzero"/><path fill="#e6c6aa" d="M 23.351562 11.671875 C 22.746094 10.183594 21.414062 9.289062 18.890625 9.007812 C 17.574219 8.863281 16.570312 8.074219 15.726562 7.117188 C 14.554688 8.152344 13.722656 9.839844 13.488281 11.800781 C 14.164062 10.414062 14.691406 8.820312 15.691406 7.839844 C 16.988281 10.90625 21.394531 8.984375 23.351562 11.671875 Z M 23.351562 11.671875 " fill-opacity="1" fill-rule="nonzero"/><path fill="#383032" d="M 23.738281 21.226562 C 23.894531 21.5625 24.027344 21.910156 24.132812 22.269531 C 24.238281 22.625 24.316406 22.992188 24.359375 23.371094 C 24.375 23.476562 24.390625 23.535156 24.386719 23.589844 C 24.386719 23.644531 24.363281 23.695312 24.304688 23.785156 C 24.1875 23.964844 24.046875 24.128906 23.882812 24.285156 C 23.71875 24.441406 23.53125 24.585938 23.328125 24.726562 L 24.066406 25.515625 L 24.808594 26.300781 L 21.628906 30.359375 L 18.453125 34.414062 L 15.277344 30.359375 L 12.097656 26.300781 L 12.839844 25.515625 L 13.578125 24.726562 C 13.371094 24.585938 13.1875 24.441406 13.023438 24.285156 C 12.859375 24.128906 12.71875 23.964844 12.601562 23.785156 C 12.542969 23.695312 12.519531 23.644531 12.519531 23.589844 C 12.515625 23.535156 12.53125 23.476562 12.542969 23.371094 C 12.589844 22.992188 12.667969 22.625 12.773438 22.269531 C 12.878906 21.910156 13.011719 21.5625 13.167969 21.226562 C 13.398438 20.808594 13.65625 20.425781 13.960938 20.085938 C 14.261719 19.742188 14.601562 19.449219 14.992188 19.199219 C 14.175781 21.667969 14.78125 23.957031 15.722656 26.28125 C 16.660156 28.613281 17.9375 30.980469 18.453125 33.617188 C 18.96875 30.980469 20.246094 28.613281 21.191406 26.285156 C 22.136719 23.957031 22.75 21.671875 21.933594 19.203125 C 22.3125 19.496094 22.648438 19.804688 22.949219 20.144531 C 23.25 20.480469 23.515625 20.839844 23.738281 21.226562 Z M 23.738281 21.226562 " fill-opacity="1" fill-rule="nonzero"/><path fill="#ffffff" d="M 18.453125 33.617188 C 18.882812 31.421875 19.835938 29.410156 20.691406 27.457031 C 20.113281 28.070312 19.246094 28.542969 18.460938 28.507812 C 17.671875 28.542969 16.804688 28.070312 16.230469 27.453125 C 16.222656 27.441406 16.210938 27.429688 16.203125 27.421875 C 17.054688 29.386719 18.019531 31.410156 18.453125 33.617188 Z M 18.453125 33.617188 " fill-opacity="1" fill-rule="nonzero"/></svg>