<svg xmlns="http://www.w3.org/2000/svg" xmlns:xlink="http://www.w3.org/1999/xlink" width="50" zoomAndPan="magnify" viewBox="0 0 37.5 37.499999" height="50" preserveAspectRatio="xMidYMid meet" version="1.0"><defs><clipPath id="d41bca3896"><path d="M 1.71875 1.835938 L 35.414062 1.835938 L 35.414062 35.140625 L 1.71875 35.140625 Z M 1.71875 1.835938 " clip-rule="nonzero"/></clipPath><clipPath id="e2f54ab344"><path d="M 28.515625 34.355469 C 21.890625 35.414062 15.265625 35.414062 8.644531 34.355469 C 5.917969 33.882812 3.101562 31.082031 2.625 28.371094 C 1.5625 21.785156 1.5625 15.195312 2.625 8.609375 C 3.101562 5.898438 5.917969 3.09375 8.644531 2.625 C 15.265625 1.566406 21.890625 1.566406 28.515625 2.625 C 31.238281 3.09375 34.058594 5.898438 34.53125 8.609375 C 35.59375 15.195312 35.59375 21.785156 34.53125 28.371094 C 34.058594 31.082031 31.238281 33.882812 28.515625 34.355469 Z M 28.515625 34.355469 " clip-rule="nonzero"/></clipPath><clipPath id="cfeeeaf7f8"><path d="M 4 21 L 34 21 L 34 35.140625 L 4 35.140625 Z M 4 21 " clip-rule="nonzero"/></clipPath><clipPath id="608efce123"><path d="M 28.515625 34.355469 C 21.890625 35.414062 15.265625 35.414062 8.644531 34.355469 C 5.917969 33.882812 3.101562 31.082031 2.625 28.371094 C 1.5625 21.785156 1.5625 15.195312 2.625 8.609375 C 3.101562 5.898438 5.917969 3.09375 8.644531 2.625 C 15.265625 1.566406 21.890625 1.566406 28.515625 2.625 C 31.238281 3.09375 34.058594 5.898438 34.53125 8.609375 C 35.59375 15.195312 35.59375 21.785156 34.53125 28.371094 C 34.058594 31.082031 31.238281 33.882812 28.515625 34.355469 Z M 28.515625 34.355469 " clip-rule="nonzero"/></clipPath><clipPath id="6fe581f9e5"><path d="M 16 23 L 21 23 L 21 35.140625 L 16 35.140625 Z M 16 23 " clip-rule="nonzero"/></clipPath><clipPath id="5704c85ece"><path d="M 28.515625 34.355469 C 21.890625 35.414062 15.265625 35.414062 8.644531 34.355469 C 5.917969 33.882812 3.101562 31.082031 2.625 28.371094 C 1.5625 21.785156 1.5625 15.195312 2.625 8.609375 C 3.101562 5.898438 5.917969 3.09375 8.644531 2.625 C 15.265625 1.566406 21.890625 1.566406 28.515625 2.625 C 31.238281 3.09375 34.058594 5.898438 34.53125 8.609375 C 35.59375 15.195312 35.59375 21.785156 34.53125 28.371094 C 34.058594 31.082031 31.238281 33.882812 28.515625 34.355469 Z M 28.515625 34.355469 " clip-rule="nonzero"/></clipPath><clipPath id="1f8c242df3"><path d="M 18 22 L 19 22 L 19 23 L 18 23 Z M 18 22 " clip-rule="nonzero"/></clipPath><clipPath id="798e14ed4f"><path d="M 28.515625 34.355469 C 21.890625 35.414062 15.265625 35.414062 8.644531 34.355469 C 5.917969 33.882812 3.101562 31.082031 2.625 28.371094 C 1.5625 21.785156 1.5625 15.195312 2.625 8.609375 C 3.101562 5.898438 5.917969 3.09375 8.644531 2.625 C 15.265625 1.566406 21.890625 1.566406 28.515625 2.625 C 31.238281 3.09375 34.058594 5.898438 34.53125 8.609375 C 35.59375 15.195312 35.59375 21.785156 34.53125 28.371094 C 34.058594 31.082031 31.238281 33.882812 28.515625 34.355469 Z M 28.515625 34.355469 " clip-rule="nonzero"/></clipPath><clipPath id="0c918f7850"><path d="M 16 16 L 22 16 L 22 24 L 16 24 Z M 16 16 " clip-rule="nonzero"/></clipPath><clipPath id="008b162b1b"><path d="M 28.515625 34.355469 C 21.890625 35.414062 15.265625 35.414062 8.644531 34.355469 C 5.917969 33.882812 3.101562 31.082031 2.625 28.371094 C 1.5625 21.785156 1.5625 15.195312 2.625 8.609375 C 3.101562 5.898438 5.917969 3.09375 8.644531 2.625 C 15.265625 1.566406 21.890625 1.566406 28.515625 2.625 C 31.238281 3.09375 34.058594 5.898438 34.53125 8.609375 C 35.59375 15.195312 35.59375 21.785156 34.53125 28.371094 C 34.058594 31.082031 31.238281 33.882812 28.515625 34.355469 Z M 28.515625 34.355469 " clip-rule="nonzero"/></clipPath><clipPath id="8759fb32d2"><path d="M 11 5 L 26 5 L 26 19 L 11 19 Z M 11 5 " clip-rule="nonzero"/></clipPath><clipPath id="3fa3c42a99"><path d="M 28.515625 34.355469 C 21.890625 35.414062 15.265625 35.414062 8.644531 34.355469 C 5.917969 33.882812 3.101562 31.082031 2.625 28.371094 C 1.5625 21.785156 1.5625 15.195312 2.625 8.609375 C 3.101562 5.898438 5.917969 3.09375 8.644531 2.625 C 15.265625 1.566406 21.890625 1.566406 28.515625 2.625 C 31.238281 3.09375 34.058594 5.898438 34.53125 8.609375 C 35.59375 15.195312 35.59375 21.785156 34.53125 28.371094 C 34.058594 31.082031 31.238281 33.882812 28.515625 34.355469 Z M 28.515625 34.355469 " clip-rule="nonzero"/></clipPath><clipPath id="0d29c1c434"><path d="M 13 10 L 26 10 L 26 21 L 13 21 Z M 13 10 " clip-rule="nonzero"/></clipPath><clipPath id="40ad944621"><path d="M 28.515625 34.355469 C 21.890625 35.414062 15.265625 35.414062 8.644531 34.355469 C 5.917969 33.882812 3.101562 31.082031 2.625 28.371094 C 1.5625 21.785156 1.5625 15.195312 2.625 8.609375 C 3.101562 5.898438 5.917969 3.09375 8.644531 2.625 C 15.265625 1.566406 21.890625 1.566406 28.515625 2.625 C 31.238281 3.09375 34.058594 5.898438 34.53125 8.609375 C 35.59375 15.195312 35.59375 21.785156 34.53125 28.371094 C 34.058594 31.082031 31.238281 33.882812 28.515625 34.355469 Z M 28.515625 34.355469 " clip-rule="nonzero"/></clipPath><clipPath id="c1b19cde0f"><path d="M 22 14 L 25 14 L 25 17 L 22 17 Z M 22 14 " clip-rule="nonzero"/></clipPath><clipPath id="85a0893bd9"><path d="M 28.515625 34.355469 C 21.890625 35.414062 15.265625 35.414062 8.644531 34.355469 C 5.917969 33.882812 3.101562 31.082031 2.625 28.371094 C 1.5625 21.785156 1.5625 15.195312 2.625 8.609375 C 3.101562 5.898438 5.917969 3.09375 8.644531 2.625 C 15.265625 1.566406 21.890625 1.566406 28.515625 2.625 C 31.238281 3.09375 34.058594 5.898438 34.53125 8.609375 C 35.59375 15.195312 35.59375 21.785156 34.53125 28.371094 C 34.058594 31.082031 31.238281 33.882812 28.515625 34.355469 Z M 28.515625 34.355469 " clip-rule="nonzero"/></clipPath><clipPath id="3cfbab3e65"><path d="M 22 15 L 24 15 L 24 16 L 22 16 Z M 22 15 " clip-rule="nonzero"/></clipPath><clipPath id="d0415583de"><path d="M 28.515625 34.355469 C 21.890625 35.414062 15.265625 35.414062 8.644531 34.355469 C 5.917969 33.882812 3.101562 31.082031 2.625 28.371094 C 1.5625 21.785156 1.5625 15.195312 2.625 8.609375 C 3.101562 5.898438 5.917969 3.09375 8.644531 2.625 C 15.265625 1.566406 21.890625 1.566406 28.515625 2.625 C 31.238281 3.09375 34.058594 5.898438 34.53125 8.609375 C 35.59375 15.195312 35.59375 21.785156 34.53125 28.371094 C 34.058594 31.082031 31.238281 33.882812 28.515625 34.355469 Z M 28.515625 34.355469 " clip-rule="nonzero"/></clipPath><clipPath id="57f19c1da0"><path d="M 18 20 L 23 20 L 23 26 L 18 26 Z M 18 20 " clip-rule="nonzero"/></clipPath><clipPath id="1a4f4c3a87"><path d="M 28.515625 34.355469 C 21.890625 35.414062 15.265625 35.414062 8.644531 34.355469 C 5.917969 33.882812 3.101562 31.082031 2.625 28.371094 C 1.5625 21.785156 1.5625 15.195312 2.625 8.609375 C 3.101562 5.898438 5.917969 3.09375 8.644531 2.625 C 15.265625 1.566406 21.890625 1.566406 28.515625 2.625 C 31.238281 3.09375 34.058594 5.898438 34.53125 8.609375 C 35.59375 15.195312 35.59375 21.785156 34.53125 28.371094 C 34.058594 31.082031 31.238281 33.882812 28.515625 34.355469 Z M 28.515625 34.355469 " clip-rule="nonzero"/></clipPath><clipPath id="e88d394866"><path d="M 15 21 L 19 21 L 19 26 L 15 26 Z M 15 21 " clip-rule="nonzero"/></clipPath><clipPath id="22644bf86a"><path d="M 28.515625 34.355469 C 21.890625 35.414062 15.265625 35.414062 8.644531 34.355469 C 5.917969 33.882812 3.101562 31.082031 2.625 28.371094 C 1.5625 21.785156 1.5625 15.195312 2.625 8.609375 C 3.101562 5.898438 5.917969 3.09375 8.644531 2.625 C 15.265625 1.566406 21.890625 1.566406 28.515625 2.625 C 31.238281 3.09375 34.058594 5.898438 34.53125 8.609375 C 35.59375 15.195312 35.59375 21.785156 34.53125 28.371094 C 34.058594 31.082031 31.238281 33.882812 28.515625 34.355469 Z M 28.515625 34.355469 " clip-rule="nonzero"/></clipPath><clipPath id="d142f2e8da"><path d="M 25 29 L 27 29 L 27 35.140625 L 25 35.140625 Z M 25 29 " clip-rule="nonzero"/></clipPath><clipPath id="234140f339"><path d="M 28.515625 34.355469 C 21.890625 35.414062 15.265625 35.414062 8.644531 34.355469 C 5.917969 33.882812 3.101562 31.082031 2.625 28.371094 C 1.5625 21.785156 1.5625 15.195312 2.625 8.609375 C 3.101562 5.898438 5.917969 3.09375 8.644531 2.625 C 15.265625 1.566406 21.890625 1.566406 28.515625 2.625 C 31.238281 3.09375 34.058594 5.898438 34.53125 8.609375 C 35.59375 15.195312 35.59375 21.785156 34.53125 28.371094 C 34.058594 31.082031 31.238281 33.882812 28.515625 34.355469 Z M 28.515625 34.355469 " clip-rule="nonzero"/></clipPath><clipPath id="ef9103c7c6"><path d="M 9 28 L 11 28 L 11 35.140625 L 9 35.140625 Z M 9 28 " clip-rule="nonzero"/></clipPath><clipPath id="59c9504dfb"><path d="M 28.515625 34.355469 C 21.890625 35.414062 15.265625 35.414062 8.644531 34.355469 C 5.917969 33.882812 3.101562 31.082031 2.625 28.371094 C 1.5625 21.785156 1.5625 15.195312 2.625 8.609375 C 3.101562 5.898438 5.917969 3.09375 8.644531 2.625 C 15.265625 1.566406 21.890625 1.566406 28.515625 2.625 C 31.238281 3.09375 34.058594 5.898438 34.53125 8.609375 C 35.59375 15.195312 35.59375 21.785156 34.53125 28.371094 C 34.058594 31.082031 31.238281 33.882812 28.515625 34.355469 Z M 28.515625 34.355469 " clip-rule="nonzero"/></clipPath></defs><g clip-path="url(#d41bca3896)"><g clip-path="url(#e2f54ab344)"><path fill="#00b2ff" d="M 28.515625 34.355469 C 21.890625 35.414062 15.265625 35.414062 8.644531 34.355469 C 5.917969 33.882812 3.101562 31.082031 2.625 28.371094 C 1.5625 21.785156 1.5625 15.195312 2.625 8.609375 C 3.101562 5.898438 5.917969 3.09375 8.644531 2.625 C 15.265625 1.566406 21.890625 1.566406 28.515625 2.625 C 31.238281 3.09375 34.058594 5.898438 34.53125 8.609375 C 35.59375 15.195312 35.59375 21.785156 34.53125 28.371094 C 34.058594 31.082031 31.238281 33.882812 28.515625 34.355469 Z M 28.515625 34.355469 " fill-opacity="1" fill-rule="nonzero"/></g></g><g clip-path="url(#cfeeeaf7f8)"><g clip-path="url(#608efce123)"><path fill="#fefefe" d="M 33.164062 37.066406 L 4.933594 37.066406 C 4.933594 37.066406 6.515625 26.957031 8.097656 25.457031 C 9.679688 23.953125 16.703125 22.40625 16.703125 22.40625 L 19.011719 21.953125 L 19.046875 21.945312 L 19.085938 21.953125 L 21.390625 22.40625 C 21.390625 22.40625 28.414062 23.953125 30 25.457031 C 31.582031 26.957031 33.164062 37.066406 33.164062 37.066406 Z M 33.164062 37.066406 " fill-opacity="1" fill-rule="nonzero"/></g></g><g clip-path="url(#6fe581f9e5)"><g clip-path="url(#5704c85ece)"><path fill="#00b2ff" d="M 17.476562 24.078125 C 16.859375 29.957031 16.203125 37.066406 16.203125 37.066406 L 20.566406 37.066406 L 19.191406 23.324219 L 18.046875 23.265625 Z M 17.476562 24.078125 " fill-opacity="1" fill-rule="nonzero"/></g></g><g clip-path="url(#1f8c242df3)"><g clip-path="url(#798e14ed4f)"><path fill="#fefefe" d="M 18.582031 22.292969 L 18.617188 22.300781 L 18.582031 22.304688 Z M 18.582031 22.292969 " fill-opacity="1" fill-rule="nonzero"/><path fill="#fefefe" d="M 18.65625 22.292969 L 18.65625 22.304688 L 18.617188 22.300781 Z M 18.65625 22.292969 " fill-opacity="1" fill-rule="nonzero"/></g></g><g clip-path="url(#0c918f7850)"><g clip-path="url(#008b162b1b)"><path fill="#eaa494" d="M 16.539062 19.800781 C 16.539062 19.800781 16.625 21.601562 16.609375 21.867188 C 16.59375 22.128906 17.351562 23.308594 18.367188 23.324219 C 19.378906 23.339844 21.589844 21.355469 21.554688 20.980469 C 21.523438 20.601562 21.277344 16.832031 21.277344 16.832031 Z M 16.539062 19.800781 " fill-opacity="1" fill-rule="nonzero"/></g></g><g clip-path="url(#8759fb32d2)"><g clip-path="url(#3fa3c42a99)"><path fill="#3c4966" d="M 14.085938 12.8125 C 11.886719 11.953125 11.878906 10.738281 11.902344 10.464844 C 11.929688 10.191406 12.828125 9.949219 12.828125 9.949219 C 12.828125 9.949219 11.976562 9.332031 11.957031 8.789062 C 11.933594 8.25 14.296875 7.628906 14.296875 7.628906 C 14.296875 7.628906 13.828125 7.054688 14.007812 6.675781 C 14.183594 6.296875 16.777344 5.738281 18.058594 6.363281 C 17.84375 5.667969 19.609375 5.316406 20.929688 5.851562 C 22.25 6.386719 22.726562 7.164062 22.726562 7.164062 C 22.726562 7.164062 22.804688 6.535156 23.523438 6.796875 C 24.238281 7.058594 25.929688 8.605469 25.125 11.933594 C 24.324219 15.261719 23.605469 18.539062 21.097656 17.996094 Z M 14.085938 12.8125 " fill-opacity="1" fill-rule="nonzero"/></g></g><g clip-path="url(#0d29c1c434)"><g clip-path="url(#40ad944621)"><path fill="#ffd5c2" d="M 13.675781 10.707031 C 14.796875 11.59375 17.164062 10.699219 17.164062 10.699219 C 17.164062 10.699219 16.390625 11.351562 16.347656 11.535156 C 16.304688 11.71875 16.65625 11.851562 18.726562 11.757812 C 20.796875 11.667969 21.726562 10.785156 21.726562 10.785156 C 21.726562 10.785156 20.808594 13.894531 22.082031 15.054688 C 22.546875 13.3125 24.316406 13.109375 24.878906 13.941406 C 25.4375 14.769531 24.429688 17.050781 23.332031 17.273438 C 22.238281 17.496094 22.019531 16.578125 22.019531 16.578125 C 22.019531 16.578125 20.9375 20.519531 17.167969 20.394531 C 15.375 20.335938 13.273438 18.839844 13.359375 16.199219 C 13.417969 14.441406 13.675781 10.707031 13.675781 10.707031 Z M 13.675781 10.707031 " fill-opacity="1" fill-rule="nonzero"/></g></g><g clip-path="url(#c1b19cde0f)"><g clip-path="url(#85a0893bd9)"><path stroke-linecap="round" transform="matrix(0.113443, 0, 0, 0.112825, 1.833088, 1.835223)" fill="none" stroke-linejoin="round" d="M 185.863632 127.346889 C 183.763178 113.913465 194.781953 113.117154 194.781953 113.117154 " stroke="#eaa494" stroke-width="2.253" stroke-opacity="1" stroke-miterlimit="4"/></g></g><g clip-path="url(#3cfbab3e65)"><g clip-path="url(#d0415583de)"><path stroke-linecap="round" transform="matrix(0.113443, 0, 0, 0.112825, 1.833088, 1.835223)" fill="none" stroke-linejoin="round" d="M 185.9325 120.976399 L 193.198004 121.218755 " stroke="#eaa494" stroke-width="2.253" stroke-opacity="1" stroke-miterlimit="4"/></g></g><g clip-path="url(#57f19c1da0)"><g clip-path="url(#1a4f4c3a87)"><path fill="#e8eff7" d="M 21.523438 20.523438 C 21.007812 21.515625 18.367188 23.242188 18.367188 23.324219 C 18.367188 23.40625 19.644531 25.195312 19.839844 25.195312 C 20.039062 25.195312 22.5625 22.957031 22.480469 22.65625 C 22.398438 22.359375 21.523438 20.523438 21.523438 20.523438 Z M 21.523438 20.523438 " fill-opacity="1" fill-rule="nonzero"/></g></g><g clip-path="url(#e88d394866)"><g clip-path="url(#22644bf86a)"><path fill="#e8eff7" d="M 16.59375 21.046875 C 16.742188 21.867188 18.367188 23.324219 18.367188 23.324219 C 18.367188 23.324219 16.941406 25.375 16.675781 25.195312 C 16.414062 25.015625 15.492188 23.328125 15.460938 22.933594 C 15.433594 22.539062 16.59375 21.046875 16.59375 21.046875 Z M 16.59375 21.046875 " fill-opacity="1" fill-rule="nonzero"/></g></g><g clip-path="url(#d142f2e8da)"><g clip-path="url(#234140f339)"><path stroke-linecap="round" transform="matrix(0.113443, 0, 0, 0.112825, 1.833088, 1.835223)" fill="none" stroke-linejoin="round" d="M 220.0907 312.264207 L 210.208237 245.235574 " stroke="#acc1d1" stroke-width="3.379" stroke-opacity="1" stroke-miterlimit="4"/></g></g><g clip-path="url(#ef9103c7c6)"><g clip-path="url(#59c9504dfb)"><path stroke-linecap="round" transform="matrix(0.113443, 0, 0, 0.112825, 1.833088, 1.835223)" fill="none" stroke-linejoin="round" d="M 69.649997 312.264207 L 73.368833 241.842596 " stroke="#acc1d1" stroke-width="3.379" stroke-opacity="1" stroke-miterlimit="4"/></g></g></svg>