<svg xmlns="http://www.w3.org/2000/svg" xmlns:xlink="http://www.w3.org/1999/xlink" width="50" zoomAndPan="magnify" viewBox="0 0 37.5 37.499999" height="50" preserveAspectRatio="xMidYMid meet" version="1.0"><defs><clipPath id="6ccc39101e"><path d="M 3.699219 6 L 33.304688 6 L 33.304688 36 L 3.699219 36 Z M 3.699219 6 " clip-rule="nonzero"/></clipPath></defs><g clip-path="url(#6ccc39101e)"><path fill="#7ccedc" d="M 33.3125 20.890625 C 33.3125 25.414062 31.269531 29.472656 28.039062 32.183594 C 27.929688 32.277344 26.429688 33.449219 26.292969 33.449219 C 21.78125 36.277344 15.777344 36.507812 10.710938 33.449219 C 10.710938 33.449219 10.710938 33.445312 10.707031 33.445312 C 9.320312 32.585938 8.039062 31.476562 6.941406 30.117188 C 6.941406 29.886719 3.695312 26.726562 3.695312 20.890625 C 3.695312 10.867188 13.515625 3.761719 23.039062 6.832031 C 29 8.738281 33.3125 14.308594 33.3125 20.890625 Z M 33.3125 20.890625 " fill-opacity="1" fill-rule="nonzero"/></g><path fill="#fdda7f" d="M 14.683594 5.898438 C 14.605469 5.699219 14.398438 5.5625 14.339844 5.355469 C 14.238281 4.976562 14.660156 4.667969 14.832031 4.421875 C 15.398438 3.625 14.816406 2.992188 17.390625 2.824219 C 17.527344 2.816406 17.660156 2.8125 17.792969 2.835938 C 17.953125 2.859375 18.105469 2.929688 18.265625 2.957031 C 18.648438 3.023438 19.03125 2.863281 19.417969 2.789062 C 19.804688 2.71875 20.199219 2.742188 20.59375 2.761719 C 20.792969 2.773438 20.71875 2.828125 20.816406 2.957031 C 20.894531 3.0625 21.0625 3.03125 21.183594 3.089844 C 21.269531 3.132812 21.328125 3.222656 21.375 3.304688 C 21.582031 3.644531 21.789062 3.984375 21.992188 4.324219 C 22.035156 4.394531 22.078125 4.464844 22.101562 4.542969 C 22.136719 4.671875 22.171875 5.574219 22.085938 6.113281 C 21.90625 7.230469 22.574219 6.921875 22.1875 7.894531 C 22.015625 8.324219 21.910156 8.441406 21.507812 8.558594 C 21 8.703125 20.46875 8.777344 19.941406 8.777344 C 19.773438 8.773438 19.730469 8.742188 19.660156 8.605469 C 19.3125 7.9375 19.257812 7.777344 19.132812 7.691406 C 18.550781 7.300781 17.445312 8.765625 16.917969 7.226562 C 16.6875 7.257812 16.449219 7.289062 16.21875 7.234375 C 15.992188 7.179688 15.769531 7.023438 15.714844 6.796875 C 15.742188 7.015625 15.4375 7.152344 15.425781 7.371094 C 15.421875 7.46875 15.644531 7.78125 15.496094 7.78125 C 15.382812 7.777344 15.160156 7.421875 15.101562 7.335938 C 14.648438 6.648438 14.777344 6.144531 14.683594 5.898438 Z M 14.683594 5.898438 " fill-opacity="1" fill-rule="nonzero"/><path fill="#f7bb52" d="M 21.949219 8.3125 L 21.949219 15.859375 L 18.503906 18.292969 L 15.980469 16.933594 L 14.992188 14.054688 L 15.058594 13.449219 L 15.058594 8.3125 Z M 21.949219 8.3125 " fill-opacity="1" fill-rule="nonzero"/><path fill="#ffffff" d="M 22.160156 15.394531 L 18.863281 16.433594 C 18.390625 16.433594 18.914062 16.507812 15.351562 15.867188 L 14.558594 15.199219 C 14.558594 15.199219 13.921875 16.4375 13.921875 16.433594 C 13.921875 16.433594 11.679688 25.8125 11.679688 25.8125 C 11.679688 25.8125 15.511719 32.046875 16.289062 32.59375 C 17.066406 33.144531 20.664062 33.722656 21.242188 33.644531 C 21.820312 33.566406 22.808594 32.4375 22.933594 31.652344 C 23.054688 30.867188 23.082031 29.242188 23.265625 28.796875 C 23.449219 28.351562 25.839844 20.023438 25.839844 20.023438 C 23.296875 15.855469 23.765625 16.585938 23.167969 15.789062 Z M 22.160156 15.394531 " fill-opacity="1" fill-rule="nonzero"/><path fill="#dad9d8" d="M 15.058594 13.449219 C 14.78125 14.269531 14.074219 15.015625 14.074219 15.015625 C 14.824219 16.90625 16.089844 18.753906 16.089844 18.753906 L 18.503906 16.433594 C 15.585938 15.183594 15.058594 13.449219 15.058594 13.449219 Z M 15.058594 13.449219 " fill-opacity="1" fill-rule="nonzero"/><path fill="#dad9d8" d="M 21.949219 13.449219 C 22.222656 14.269531 22.933594 15.015625 22.933594 15.015625 C 22.183594 16.90625 20.917969 18.753906 20.917969 18.753906 L 18.503906 16.433594 C 21.417969 15.183594 21.949219 13.449219 21.949219 13.449219 Z M 21.949219 13.449219 " fill-opacity="1" fill-rule="nonzero"/><path fill="#f2f2f2" d="M 19.164062 17.046875 L 19.164062 35.640625 C 19.113281 35.648438 18.269531 35.667969 17.777344 35.636719 L 17.777344 17.046875 Z M 19.164062 17.046875 " fill-opacity="1" fill-rule="nonzero"/><path fill="#464e58" d="M 18.726562 19.894531 C 18.726562 19.964844 18.699219 20.023438 18.648438 20.074219 C 18.601562 20.125 18.539062 20.148438 18.46875 20.148438 C 18.402344 20.148438 18.339844 20.125 18.289062 20.074219 C 18.242188 20.023438 18.214844 19.964844 18.214844 19.894531 C 18.214844 19.824219 18.242188 19.765625 18.289062 19.714844 C 18.339844 19.664062 18.402344 19.640625 18.46875 19.640625 C 18.539062 19.640625 18.601562 19.664062 18.648438 19.714844 C 18.699219 19.765625 18.726562 19.824219 18.726562 19.894531 Z M 18.726562 19.894531 " fill-opacity="1" fill-rule="nonzero"/><path fill="#464e58" d="M 18.214844 24.546875 C 18.214844 24.878906 18.726562 24.878906 18.726562 24.546875 C 18.726562 24.210938 18.214844 24.210938 18.214844 24.546875 Z M 18.214844 24.546875 " fill-opacity="1" fill-rule="nonzero"/><path fill="#464e58" d="M 18.214844 29.195312 C 18.214844 29.53125 18.726562 29.53125 18.726562 29.195312 C 18.726562 28.859375 18.214844 28.859375 18.214844 29.195312 Z M 18.214844 29.195312 " fill-opacity="1" fill-rule="nonzero"/><path fill="#f37c5a" d="M 19.125 33.339844 L 19.125 35.640625 C 16.164062 35.773438 13.347656 35.042969 10.710938 33.449219 C 10.710938 33.449219 10.710938 33.445312 10.707031 33.445312 C 9.320312 32.585938 8.039062 31.476562 6.941406 30.117188 C 6.941406 30.117188 6.191406 29.210938 5.539062 28.027344 C 5.667969 26.984375 5.832031 25.851562 6.136719 24.511719 C 7.230469 19.652344 6.265625 18.636719 7.417969 18.253906 C 8.046875 17.925781 9.023438 17.753906 9.632812 17.402344 C 10.519531 16.890625 10.609375 16.46875 12.050781 15.910156 C 13.125 15.496094 13.886719 15.007812 14.167969 14.765625 C 14.375 14.6875 14.289062 14.71875 14.597656 14.601562 L 14.613281 15.246094 L 14.625 15.59375 L 14.621094 16.226562 L 14.613281 18.078125 L 15.195312 22.085938 L 16.511719 27.332031 L 17.777344 30.421875 L 18.441406 32.035156 L 18.503906 32.1875 L 18.574219 32.355469 L 18.617188 32.4375 L 19.113281 33.316406 C 19.117188 33.324219 19.117188 33.332031 19.121094 33.332031 C 19.121094 33.335938 19.121094 33.335938 19.121094 33.335938 Z M 19.125 33.339844 " fill-opacity="1" fill-rule="nonzero"/><path fill="#c1503a" d="M 15.890625 23.695312 C 15.890625 23.695312 14.285156 17.902344 14.78125 14.054688 L 12.421875 16.492188 L 13.015625 16.859375 L 12.054688 17.523438 C 12.054688 17.523438 12.367188 24.929688 18.582031 32.679688 L 19.121094 33.339844 C 19.121094 33.339844 17.410156 29.6875 15.890625 23.695312 Z M 15.890625 23.695312 " fill-opacity="1" fill-rule="nonzero"/><path fill="#ef7559" d="M 31.46875 28.027344 C 30.5625 29.664062 29.386719 31.054688 28.039062 32.183594 C 27.929688 32.277344 26.429688 33.449219 26.292969 33.449219 C 23.941406 34.921875 20.933594 35.777344 17.882812 35.640625 L 17.882812 33.339844 L 17.890625 33.328125 C 17.890625 33.324219 17.894531 33.320312 17.898438 33.3125 L 17.976562 33.171875 L 18.386719 32.4375 L 18.433594 32.355469 L 18.503906 32.1875 L 18.566406 32.03125 L 19.164062 30.578125 L 20.496094 27.332031 L 21.808594 22.085938 L 22.394531 18.078125 L 22.386719 16.226562 L 22.382812 15.59375 L 22.386719 15.484375 L 22.410156 14.601562 L 22.664062 14.699219 L 22.835938 14.765625 C 23.117188 15.007812 23.878906 15.496094 24.953125 15.910156 C 26.394531 16.46875 26.484375 16.890625 27.375 17.402344 C 27.984375 17.75 28.960938 17.925781 29.589844 18.253906 C 29.59375 18.257812 29.601562 18.261719 29.609375 18.265625 C 29.890625 18.417969 30.097656 18.597656 30.167969 18.84375 C 30.394531 19.644531 30.023438 20.75 30.871094 24.511719 C 31.171875 25.851562 31.339844 26.984375 31.46875 28.027344 Z M 31.46875 28.027344 " fill-opacity="1" fill-rule="nonzero"/><path fill="#ef7559" d="M 11.96875 34.144531 C 11.710938 34.015625 11.457031 33.886719 11.210938 33.746094 C 11.039062 33.617188 10.863281 33.503906 10.710938 33.449219 C 10.710938 33.449219 10.710938 33.445312 10.707031 33.445312 C 10.097656 33.070312 9.515625 32.644531 8.964844 32.183594 C 9.300781 31.6875 9.566406 30.980469 9.40625 29.105469 C 9.164062 26.261719 9.621094 25.371094 8.480469 22.644531 C 7.632812 20.597656 7.402344 18.925781 7.398438 18.265625 C 7.402344 18.261719 7.410156 18.257812 7.417969 18.253906 C 7.445312 18.777344 7.722656 20.222656 9.183594 24.136719 C 11.324219 29.867188 12.847656 30.402344 11.460938 30.550781 C 10.136719 30.695312 11.726562 33.488281 11.96875 34.144531 Z M 11.96875 34.144531 " fill-opacity="1" fill-rule="nonzero"/><path fill="#f37c5a" d="M 27.597656 29.109375 C 27.4375 30.980469 27.707031 31.6875 28.039062 32.183594 C 27.929688 32.277344 26.429688 33.449219 26.292969 33.449219 C 26.140625 33.507812 25.96875 33.617188 25.800781 33.742188 C 25.550781 33.882812 25.296875 34.015625 25.039062 34.140625 C 25.28125 33.480469 26.867188 30.695312 25.546875 30.550781 C 24.15625 30.402344 25.683594 29.867188 27.824219 24.136719 C 29.285156 20.222656 29.558594 18.777344 29.589844 18.253906 C 29.59375 18.257812 29.601562 18.261719 29.609375 18.265625 C 29.601562 18.925781 29.375 20.597656 28.523438 22.644531 C 27.386719 25.371094 27.839844 26.261719 27.597656 29.109375 Z M 27.597656 29.109375 " fill-opacity="1" fill-rule="nonzero"/><path fill="#464e58" d="M 18.035156 16.589844 L 18.035156 17.507812 C 17.214844 18.324219 15.941406 18.574219 15.941406 18.574219 C 15.351562 18.574219 15.351562 15.523438 15.941406 15.523438 C 15.941406 15.523438 17.214844 15.769531 18.035156 16.589844 Z M 18.035156 16.589844 " fill-opacity="1" fill-rule="nonzero"/><path fill="#3d464f" d="M 18.035156 16.707031 L 18.035156 17.390625 L 16.882812 17.390625 L 17.773438 17.175781 L 16.082031 17.046875 L 17.773438 16.917969 L 16.882812 16.707031 Z M 18.035156 16.707031 " fill-opacity="1" fill-rule="nonzero"/><path fill="#464e58" d="M 18.90625 16.589844 L 18.90625 17.507812 C 19.726562 18.324219 21 18.574219 21 18.574219 C 21.589844 18.574219 21.589844 15.523438 21 15.523438 C 21 15.523438 19.726562 15.769531 18.90625 16.589844 Z M 18.90625 16.589844 " fill-opacity="1" fill-rule="nonzero"/><path fill="#3d464f" d="M 18.90625 16.707031 L 18.90625 17.390625 L 20.058594 17.390625 L 19.167969 17.175781 L 20.859375 17.046875 L 19.167969 16.917969 L 20.058594 16.707031 Z M 18.90625 16.707031 " fill-opacity="1" fill-rule="nonzero"/><path fill="#fdda7f" d="M 14.285156 7.652344 C 14.285156 10.542969 16.160156 13.652344 18.46875 13.652344 C 20.78125 13.652344 22.65625 10.542969 22.65625 7.652344 C 22.65625 1.667969 14.285156 1.664062 14.285156 7.652344 Z M 14.285156 7.652344 " fill-opacity="1" fill-rule="nonzero"/><path fill="#da664b" d="M 21.113281 23.695312 C 21.113281 23.695312 22.71875 17.902344 22.226562 14.054688 L 24.585938 16.492188 L 23.988281 16.859375 L 24.953125 17.523438 C 24.953125 17.523438 24.640625 24.929688 18.425781 32.679688 L 17.882812 33.339844 C 17.882812 33.339844 19.597656 29.6875 21.113281 23.695312 Z M 21.113281 23.695312 " fill-opacity="1" fill-rule="nonzero"/><path fill="#464e58" d="M 21.496094 3.140625 C 20.421875 0.355469 16.304688 0.492188 14.554688 3.234375 C 13.519531 4.859375 13.769531 6.707031 14.285156 8.796875 L 14.632812 8.796875 C 14.433594 6.253906 15.230469 5.808594 14.847656 4.851562 C 14.695312 4.480469 15.824219 2.828125 17.917969 3.300781 C 20.015625 3.773438 20.226562 3.132812 20.960938 3.214844 C 21.691406 3.300781 22.367188 5.710938 22.171875 6.835938 C 21.980469 7.960938 22.285156 7.332031 22.300781 8.582031 L 22.65625 8.582031 C 22.65625 8.582031 24.234375 3.78125 21.496094 3.140625 Z M 21.496094 3.140625 " fill-opacity="1" fill-rule="nonzero"/><path fill="#fdda7f" d="M 22.964844 8.050781 C 21.957031 7.789062 21.210938 10.628906 22.21875 10.894531 C 22.640625 11.003906 23.152344 10.457031 23.359375 9.671875 C 23.566406 8.886719 23.390625 8.164062 22.964844 8.050781 Z M 22.964844 8.050781 " fill-opacity="1" fill-rule="nonzero"/><path fill="#fdda7f" d="M 13.976562 8.050781 C 14.984375 7.789062 15.730469 10.628906 14.722656 10.894531 C 13.714844 11.15625 12.964844 8.316406 13.976562 8.050781 Z M 13.976562 8.050781 " fill-opacity="1" fill-rule="nonzero"/><path fill="#25313b" d="M 18.089844 16.472656 C 17.980469 16.472656 17.894531 16.558594 17.894531 16.667969 L 17.894531 17.425781 C 17.894531 17.535156 17.980469 17.625 18.089844 17.625 C 19.214844 17.625 19.046875 17.789062 19.046875 16.667969 C 19.046875 16.414062 18.800781 16.472656 18.089844 16.472656 Z M 18.089844 16.472656 " fill-opacity="1" fill-rule="nonzero"/><path fill="#da664b" d="M 19.597656 34.738281 L 18.800781 34.738281 C 18.753906 34.738281 18.714844 34.777344 18.714844 34.828125 C 18.714844 34.875 18.753906 34.914062 18.800781 34.914062 C 19.480469 34.914062 19.683594 34.96875 19.683594 34.828125 C 19.683594 34.777344 19.644531 34.738281 19.597656 34.738281 Z M 19.597656 34.738281 " fill-opacity="1" fill-rule="nonzero"/><path fill="#464e58" d="M 18.765625 34.277344 C 18.039062 34.277344 18.039062 35.375 18.765625 35.375 C 19.070312 35.375 19.320312 35.128906 19.320312 34.828125 C 19.320312 34.523438 19.070312 34.277344 18.765625 34.277344 Z M 18.765625 34.277344 " fill-opacity="1" fill-rule="nonzero"/><path fill="#25313b" d="M 18.765625 34.566406 C 18.625 34.566406 18.507812 34.683594 18.507812 34.828125 C 18.507812 35.171875 19.027344 35.171875 19.027344 34.828125 C 19.027344 34.683594 18.910156 34.566406 18.765625 34.566406 Z M 18.765625 34.566406 " fill-opacity="1" fill-rule="nonzero"/></svg>