<svg xmlns="http://www.w3.org/2000/svg" xmlns:xlink="http://www.w3.org/1999/xlink" width="50" zoomAndPan="magnify" viewBox="0 0 37.5 37.499999" height="50" preserveAspectRatio="xMidYMid meet" version="1.0"><defs><clipPath id="d2c05fbf67"><path d="M 1.628906 1.628906 L 35.675781 1.628906 L 35.675781 35.675781 L 1.628906 35.675781 Z M 1.628906 1.628906 " clip-rule="nonzero"/></clipPath><clipPath id="83f51d4dca"><path d="M 6.105469 21.027344 L 31.222656 21.027344 L 31.222656 30.726562 L 6.105469 30.726562 Z M 6.105469 21.027344 " clip-rule="nonzero"/></clipPath><clipPath id="e01c518b31"><path d="M 18.644531 1.628906 C 28.042969 1.628906 35.664062 9.246094 35.664062 18.644531 C 35.664062 28.042969 28.042969 35.664062 18.644531 35.664062 C 9.246094 35.664062 1.628906 28.042969 1.628906 18.644531 C 1.628906 9.246094 9.246094 1.628906 18.644531 1.628906 " clip-rule="nonzero"/></clipPath><clipPath id="850eb11516"><path d="M 15.554688 23.265625 L 23.511719 23.265625 L 23.511719 26 L 15.554688 26 Z M 15.554688 23.265625 " clip-rule="nonzero"/></clipPath><clipPath id="c3b47895e5"><path d="M 18.644531 1.628906 C 28.042969 1.628906 35.664062 9.246094 35.664062 18.644531 C 35.664062 28.042969 28.042969 35.664062 18.644531 35.664062 C 9.246094 35.664062 1.628906 28.042969 1.628906 18.644531 C 1.628906 9.246094 9.246094 1.628906 18.644531 1.628906 " clip-rule="nonzero"/></clipPath><clipPath id="f54a7a31f9"><path d="M 15.554688 21.027344 L 23.761719 21.027344 L 23.761719 26.25 L 15.554688 26.25 Z M 15.554688 21.027344 " clip-rule="nonzero"/></clipPath><clipPath id="eeea6a16b6"><path d="M 18.644531 1.628906 C 28.042969 1.628906 35.664062 9.246094 35.664062 18.644531 C 35.664062 28.042969 28.042969 35.664062 18.644531 35.664062 C 9.246094 35.664062 1.628906 28.042969 1.628906 18.644531 C 1.628906 9.246094 9.246094 1.628906 18.644531 1.628906 " clip-rule="nonzero"/></clipPath><clipPath id="972eb80c40"><path d="M 6 25.75 L 31.472656 25.75 L 31.472656 35.664062 L 6 35.664062 Z M 6 25.75 " clip-rule="nonzero"/></clipPath><clipPath id="7ba85e3164"><path d="M 18.644531 1.628906 C 28.042969 1.628906 35.664062 9.246094 35.664062 18.644531 C 35.664062 28.042969 28.042969 35.664062 18.644531 35.664062 C 9.246094 35.664062 1.628906 28.042969 1.628906 18.644531 C 1.628906 9.246094 9.246094 1.628906 18.644531 1.628906 " clip-rule="nonzero"/></clipPath><clipPath id="2810bb9887"><path d="M 27.242188 30.476562 L 32.714844 30.476562 L 32.714844 35.664062 L 27.242188 35.664062 Z M 27.242188 30.476562 " clip-rule="nonzero"/></clipPath><clipPath id="7954c72d0a"><path d="M 18.644531 1.628906 C 28.042969 1.628906 35.664062 9.246094 35.664062 18.644531 C 35.664062 28.042969 28.042969 35.664062 18.644531 35.664062 C 9.246094 35.664062 1.628906 28.042969 1.628906 18.644531 C 1.628906 9.246094 9.246094 1.628906 18.644531 1.628906 " clip-rule="nonzero"/></clipPath><clipPath id="c7ca0da8e6"><path d="M 4.363281 30.476562 L 10.082031 30.476562 L 10.082031 35.664062 L 4.363281 35.664062 Z M 4.363281 30.476562 " clip-rule="nonzero"/></clipPath><clipPath id="61e69e06a6"><path d="M 18.644531 1.628906 C 28.042969 1.628906 35.664062 9.246094 35.664062 18.644531 C 35.664062 28.042969 28.042969 35.664062 18.644531 35.664062 C 9.246094 35.664062 1.628906 28.042969 1.628906 18.644531 C 1.628906 9.246094 9.246094 1.628906 18.644531 1.628906 " clip-rule="nonzero"/></clipPath><clipPath id="a2191fc1ad"><path d="M 11.078125 4.113281 L 25.503906 4.113281 L 25.503906 22.519531 L 11.078125 22.519531 Z M 11.078125 4.113281 " clip-rule="nonzero"/></clipPath><clipPath id="bdbe8eda3b"><path d="M 18.644531 1.628906 C 28.042969 1.628906 35.664062 9.246094 35.664062 18.644531 C 35.664062 28.042969 28.042969 35.664062 18.644531 35.664062 C 9.246094 35.664062 1.628906 28.042969 1.628906 18.644531 C 1.628906 9.246094 9.246094 1.628906 18.644531 1.628906 " clip-rule="nonzero"/></clipPath><clipPath id="5d6d12a479"><path d="M 11.824219 14.558594 L 13.8125 14.558594 L 13.8125 18.289062 L 11.824219 18.289062 Z M 11.824219 14.558594 " clip-rule="nonzero"/></clipPath><clipPath id="8b2754b0ff"><path d="M 18.644531 1.628906 C 28.042969 1.628906 35.664062 9.246094 35.664062 18.644531 C 35.664062 28.042969 28.042969 35.664062 18.644531 35.664062 C 9.246094 35.664062 1.628906 28.042969 1.628906 18.644531 C 1.628906 9.246094 9.246094 1.628906 18.644531 1.628906 " clip-rule="nonzero"/></clipPath><clipPath id="b380dbcc95"><path d="M 23.761719 14.558594 L 25.75 14.558594 L 25.75 18.289062 L 23.761719 18.289062 Z M 23.761719 14.558594 " clip-rule="nonzero"/></clipPath><clipPath id="6706a3c412"><path d="M 18.644531 1.628906 C 28.042969 1.628906 35.664062 9.246094 35.664062 18.644531 C 35.664062 28.042969 28.042969 35.664062 18.644531 35.664062 C 9.246094 35.664062 1.628906 28.042969 1.628906 18.644531 C 1.628906 9.246094 9.246094 1.628906 18.644531 1.628906 " clip-rule="nonzero"/></clipPath><clipPath id="c2e18a67ea"><path d="M 13.066406 10.582031 L 24.257812 10.582031 L 24.257812 24.257812 L 13.066406 24.257812 Z M 13.066406 10.582031 " clip-rule="nonzero"/></clipPath><clipPath id="96277e84a5"><path d="M 18.644531 1.628906 C 28.042969 1.628906 35.664062 9.246094 35.664062 18.644531 C 35.664062 28.042969 28.042969 35.664062 18.644531 35.664062 C 9.246094 35.664062 1.628906 28.042969 1.628906 18.644531 C 1.628906 9.246094 9.246094 1.628906 18.644531 1.628906 " clip-rule="nonzero"/></clipPath></defs><g clip-path="url(#d2c05fbf67)"><path fill="#c42c39" d="M 18.644531 1.628906 C 28.042969 1.628906 35.664062 9.246094 35.664062 18.644531 C 35.664062 28.042969 28.042969 35.664062 18.644531 35.664062 C 9.246094 35.664062 1.628906 28.042969 1.628906 18.644531 C 1.628906 9.246094 9.246094 1.628906 18.644531 1.628906 " fill-opacity="1" fill-rule="nonzero"/></g><g clip-path="url(#83f51d4dca)"><g clip-path="url(#e01c518b31)"><path fill="#f4af76" d="M 21.699219 23.429688 L 21.699219 21.089844 L 15.589844 21.089844 L 15.589844 23.429688 C 15.589844 24.726562 14.367188 25.992188 12.855469 26.257812 L 8.875 27.429688 C 7.320312 27.75 6.1875 29.097656 6.140625 30.6875 L 31.136719 30.6875 C 31.089844 29.097656 29.957031 27.75 28.402344 27.429688 L 24.433594 26.25 C 22.921875 26 21.699219 24.726562 21.699219 23.429688 " fill-opacity="1" fill-rule="nonzero"/></g></g><g clip-path="url(#850eb11516)"><g clip-path="url(#c3b47895e5)"><path fill="#b02833" d="M 23.46875 25.9375 C 22.550781 25.484375 21.867188 24.652344 21.726562 23.769531 C 21.867188 24.652344 22.550781 25.476562 23.46875 25.9375 M 21.726562 23.769531 C 21.726562 23.769531 21.726562 23.765625 21.726562 23.765625 C 21.726562 23.765625 21.726562 23.769531 21.726562 23.769531 M 15.570312 23.726562 C 15.570312 23.726562 15.566406 23.726562 15.566406 23.726562 C 15.582031 23.628906 15.589844 23.53125 15.589844 23.429688 C 15.589844 23.53125 15.582031 23.628906 15.570312 23.726562 M 21.699219 23.441406 L 21.699219 23.441406 M 21.699219 23.4375 L 21.699219 23.4375 M 21.699219 23.433594 L 21.699219 23.433594 " fill-opacity="1" fill-rule="nonzero"/></g></g><g clip-path="url(#f54a7a31f9)"><g clip-path="url(#eeea6a16b6)"><path fill="#db9d6a" d="M 21.855469 26.246094 C 20.914062 26.246094 19.847656 26.074219 18.765625 25.699219 C 17.570312 25.28125 16.480469 24.609375 15.570312 23.726562 C 15.582031 23.628906 15.589844 23.53125 15.589844 23.429688 L 15.589844 21.089844 L 21.699219 21.089844 L 21.699219 23.429688 C 21.699219 23.433594 21.699219 23.433594 21.699219 23.433594 C 21.699219 23.4375 21.699219 23.4375 21.699219 23.4375 C 21.699219 23.441406 21.699219 23.441406 21.699219 23.441406 C 21.699219 23.445312 21.699219 23.445312 21.699219 23.449219 C 21.699219 23.449219 21.699219 23.453125 21.699219 23.453125 C 21.699219 23.453125 21.699219 23.457031 21.699219 23.457031 C 21.699219 23.558594 21.707031 23.660156 21.726562 23.765625 C 21.726562 23.765625 21.726562 23.769531 21.726562 23.769531 C 21.867188 24.652344 22.550781 25.484375 23.46875 25.9375 C 23.515625 25.960938 23.566406 25.984375 23.613281 26.003906 C 23.113281 26.164062 22.515625 26.246094 21.855469 26.246094 " fill-opacity="1" fill-rule="nonzero"/></g></g><g clip-path="url(#972eb80c40)"><g clip-path="url(#7ba85e3164)"><path fill="#86cbed" d="M 28.488281 27.351562 L 23.808594 25.859375 C 22 27.242188 18.648438 29.089844 13.484375 25.859375 L 8.808594 27.351562 C 7.238281 27.675781 6.097656 29.035156 6.050781 30.636719 L 10.007812 40.789062 L 9.9375 51.601562 L 9.625 55.25 L 18.527344 55.710938 L 27.671875 55.25 L 27.082031 51.601562 L 27.285156 40.789062 L 31.242188 30.636719 C 31.195312 29.035156 30.054688 27.675781 28.488281 27.351562 " fill-opacity="1" fill-rule="nonzero"/></g></g><g clip-path="url(#2810bb9887)"><g clip-path="url(#7954c72d0a)"><path fill="#86cbed" d="M 28.660156 56.777344 L 32.074219 56.777344 L 32.648438 49.25 C 32.714844 48.203125 32.707031 47.152344 32.628906 46.105469 L 31.238281 30.636719 L 27.285156 40.789062 L 28.460938 47.242188 L 28.660156 56.777344 " fill-opacity="1" fill-rule="nonzero"/></g></g><g clip-path="url(#c7ca0da8e6)"><g clip-path="url(#61e69e06a6)"><path fill="#86cbed" d="M 5.21875 56.777344 L 8.628906 56.777344 L 8.828125 47.242188 L 10.007812 40.789062 L 6.050781 30.636719 L 4.664062 46.105469 C 4.585938 47.152344 4.578125 48.203125 4.644531 49.25 L 5.21875 56.777344 " fill-opacity="1" fill-rule="nonzero"/></g></g><g clip-path="url(#a2191fc1ad)"><g clip-path="url(#bdbe8eda3b)"><path fill="#efda75" d="M 25.03125 13.675781 C 23.800781 18.523438 21.429688 22.519531 18.714844 22.519531 C 16.179688 22.519531 13.628906 17.648438 12.398438 13.675781 C 11.167969 9.707031 9.695312 5.667969 15.566406 4.128906 C 16.398438 5.535156 18.152344 6.503906 20.542969 6.617188 C 23.761719 6.75 26.25 8.839844 25.03125 13.675781 " fill-opacity="1" fill-rule="nonzero"/></g></g><g clip-path="url(#5d6d12a479)"><g clip-path="url(#8b2754b0ff)"><path fill="#f4af76" d="M 11.882812 16.207031 C 12.089844 17.144531 12.875 18.257812 13.238281 18.183594 C 13.601562 18.109375 13.710938 17.28125 13.503906 16.339844 C 13.296875 15.394531 12.847656 14.695312 12.492188 14.773438 C 12.140625 14.847656 11.675781 15.265625 11.882812 16.207031 " fill-opacity="1" fill-rule="nonzero"/></g></g><g clip-path="url(#b380dbcc95)"><g clip-path="url(#6706a3c412)"><path fill="#f4af76" d="M 25.554688 16.207031 C 25.347656 17.144531 24.558594 18.257812 24.195312 18.183594 C 23.832031 18.109375 23.726562 17.28125 23.933594 16.339844 C 24.140625 15.394531 24.589844 14.695312 24.941406 14.773438 C 25.296875 14.847656 25.75 15.265625 25.554688 16.207031 " fill-opacity="1" fill-rule="nonzero"/></g></g><g clip-path="url(#c2e18a67ea)"><g clip-path="url(#96277e84a5)"><path fill="#f4af76" d="M 24.21875 17.308594 C 23.539062 17.113281 23.660156 16.007812 23.929688 13.230469 C 24.65625 9.523438 18.644531 11.195312 18.644531 11.195312 C 18.644531 11.195312 12.71875 9.605469 13.46875 12.851562 C 13.835938 14.867188 13.886719 17.023438 13.21875 17.222656 C 13.46875 18.5 14.359375 21.699219 14.359375 21.699219 C 14.359375 21.699219 17.394531 24.160156 18.730469 24.160156 C 20.171875 24.160156 23.015625 21.699219 23.015625 21.699219 C 23.015625 21.699219 23.96875 18.507812 24.210938 17.308594 L 24.21875 17.308594 " fill-opacity="1" fill-rule="nonzero"/></g></g></svg>