<svg xmlns="http://www.w3.org/2000/svg" xmlns:xlink="http://www.w3.org/1999/xlink" width="50" zoomAndPan="magnify" viewBox="0 0 37.5 37.499999" height="50" preserveAspectRatio="xMidYMid meet" version="1.0"><defs><clipPath id="f338197e84"><path d="M 1.40625 1.40625 L 35.453125 1.40625 L 35.453125 35.453125 L 1.40625 35.453125 Z M 1.40625 1.40625 " clip-rule="nonzero"/></clipPath><clipPath id="270024f4c1"><path d="M 35.457031 18.433594 C 35.457031 9.03125 27.835938 1.40625 18.433594 1.40625 C 9.03125 1.40625 1.40625 9.03125 1.40625 18.433594 C 1.40625 27.835938 9.03125 35.457031 18.433594 35.457031 C 27.835938 35.457031 35.457031 27.835938 35.457031 18.433594 Z M 35.457031 18.433594 " clip-rule="nonzero"/></clipPath><clipPath id="4011c6871e"><path d="M 7.054688 19.769531 L 29.859375 19.769531 L 29.859375 35.453125 L 7.054688 35.453125 Z M 7.054688 19.769531 " clip-rule="nonzero"/></clipPath><clipPath id="abf4bee0b2"><path d="M 35.457031 18.433594 C 35.457031 9.03125 27.835938 1.40625 18.433594 1.40625 C 9.03125 1.40625 1.40625 9.03125 1.40625 18.433594 C 1.40625 27.835938 9.03125 35.457031 18.433594 35.457031 C 27.835938 35.457031 35.457031 27.835938 35.457031 18.433594 Z M 35.457031 18.433594 " clip-rule="nonzero"/></clipPath><clipPath id="79a445936c"><path d="M 20.945312 8.644531 L 25.78125 8.644531 L 25.78125 30.898438 L 20.945312 30.898438 Z M 20.945312 8.644531 " clip-rule="nonzero"/></clipPath><clipPath id="df23ddd9bf"><path d="M 35.457031 18.433594 C 35.457031 9.03125 27.835938 1.40625 18.433594 1.40625 C 9.03125 1.40625 1.40625 9.03125 1.40625 18.433594 C 1.40625 27.835938 9.03125 35.457031 18.433594 35.457031 C 27.835938 35.457031 35.457031 27.835938 35.457031 18.433594 Z M 35.457031 18.433594 " clip-rule="nonzero"/></clipPath><clipPath id="852c9bc60f"><path d="M 15.554688 19.769531 L 21.289062 19.769531 L 21.289062 23.640625 L 15.554688 23.640625 Z M 15.554688 19.769531 " clip-rule="nonzero"/></clipPath><clipPath id="1ce4ac50fc"><path d="M 35.457031 18.433594 C 35.457031 9.03125 27.835938 1.40625 18.433594 1.40625 C 9.03125 1.40625 1.40625 9.03125 1.40625 18.433594 C 1.40625 27.835938 9.03125 35.457031 18.433594 35.457031 C 27.835938 35.457031 35.457031 27.835938 35.457031 18.433594 Z M 35.457031 18.433594 " clip-rule="nonzero"/></clipPath><clipPath id="7e7ad8c341"><path d="M 23.917969 14.101562 L 25 14.101562 L 25 16.660156 L 23.917969 16.660156 Z M 23.917969 14.101562 " clip-rule="nonzero"/></clipPath><clipPath id="a8aa187e3a"><path d="M 35.457031 18.433594 C 35.457031 9.03125 27.835938 1.40625 18.433594 1.40625 C 9.03125 1.40625 1.40625 9.03125 1.40625 18.433594 C 1.40625 27.835938 9.03125 35.457031 18.433594 35.457031 C 27.835938 35.457031 35.457031 27.835938 35.457031 18.433594 Z M 35.457031 18.433594 " clip-rule="nonzero"/></clipPath><clipPath id="1af76f11c8"><path d="M 11.890625 14.101562 L 12.996094 14.101562 L 12.996094 16.660156 L 11.890625 16.660156 Z M 11.890625 14.101562 " clip-rule="nonzero"/></clipPath><clipPath id="f994c8ec05"><path d="M 35.457031 18.433594 C 35.457031 9.03125 27.835938 1.40625 18.433594 1.40625 C 9.03125 1.40625 1.40625 9.03125 1.40625 18.433594 C 1.40625 27.835938 9.03125 35.457031 18.433594 35.457031 C 27.835938 35.457031 35.457031 27.835938 35.457031 18.433594 Z M 35.457031 18.433594 " clip-rule="nonzero"/></clipPath><clipPath id="1198cc6417"><path d="M 12.652344 7.953125 L 24.332031 7.953125 L 24.332031 23.019531 L 12.652344 23.019531 Z M 12.652344 7.953125 " clip-rule="nonzero"/></clipPath><clipPath id="c20963d780"><path d="M 35.457031 18.433594 C 35.457031 9.03125 27.835938 1.40625 18.433594 1.40625 C 9.03125 1.40625 1.40625 9.03125 1.40625 18.433594 C 1.40625 27.835938 9.03125 35.457031 18.433594 35.457031 C 27.835938 35.457031 35.457031 27.835938 35.457031 18.433594 Z M 35.457031 18.433594 " clip-rule="nonzero"/></clipPath><clipPath id="5911ca834b"><path d="M 12.445312 6.777344 L 24.609375 6.777344 L 24.609375 18.59375 L 12.445312 18.59375 Z M 12.445312 6.777344 " clip-rule="nonzero"/></clipPath><clipPath id="974e3fa140"><path d="M 35.457031 18.433594 C 35.457031 9.03125 27.835938 1.40625 18.433594 1.40625 C 9.03125 1.40625 1.40625 9.03125 1.40625 18.433594 C 1.40625 27.835938 9.03125 35.457031 18.433594 35.457031 C 27.835938 35.457031 35.457031 27.835938 35.457031 18.433594 Z M 35.457031 18.433594 " clip-rule="nonzero"/></clipPath><clipPath id="fc13539731"><path d="M 7.054688 25.644531 L 29.859375 25.644531 L 29.859375 35.453125 L 7.054688 35.453125 Z M 7.054688 25.644531 " clip-rule="nonzero"/></clipPath><clipPath id="b8a62126b0"><path d="M 35.457031 18.433594 C 35.457031 9.03125 27.835938 1.40625 18.433594 1.40625 C 9.03125 1.40625 1.40625 9.03125 1.40625 18.433594 C 1.40625 27.835938 9.03125 35.457031 18.433594 35.457031 C 27.835938 35.457031 35.457031 27.835938 35.457031 18.433594 Z M 35.457031 18.433594 " clip-rule="nonzero"/></clipPath><clipPath id="735a184dfd"><path d="M 9.265625 25.367188 L 30.066406 25.367188 L 30.066406 31.863281 L 9.265625 31.863281 Z M 9.265625 25.367188 " clip-rule="nonzero"/></clipPath><clipPath id="e22864243f"><path d="M 35.457031 18.433594 C 35.457031 9.03125 27.835938 1.40625 18.433594 1.40625 C 9.03125 1.40625 1.40625 9.03125 1.40625 18.433594 C 1.40625 27.835938 9.03125 35.457031 18.433594 35.457031 C 27.835938 35.457031 35.457031 27.835938 35.457031 18.433594 Z M 35.457031 18.433594 " clip-rule="nonzero"/></clipPath></defs><g clip-path="url(#f338197e84)"><g clip-path="url(#270024f4c1)"><path fill="#63c886" d="M 35.457031 18.433594 C 35.457031 9.03125 27.835938 1.40625 18.433594 1.40625 C 9.03125 1.40625 1.40625 9.03125 1.40625 18.433594 C 1.40625 27.835938 9.03125 35.457031 18.433594 35.457031 C 27.835938 35.457031 35.457031 27.835938 35.457031 18.433594 " fill-opacity="1" fill-rule="nonzero"/></g></g><g clip-path="url(#4011c6871e)"><g clip-path="url(#abf4bee0b2)"><path fill="#e4c2b0" d="M 29.777344 28.613281 C 29.707031 26.78125 28.667969 25.417969 24.683594 25.238281 C 20.699219 25.058594 21.167969 20.394531 21.167969 20.394531 L 18.894531 19.988281 L 18.890625 19.820312 L 18.433594 19.902344 L 17.972656 19.820312 L 17.96875 19.988281 L 15.699219 20.394531 C 15.699219 20.394531 16.164062 25.058594 12.179688 25.238281 C 8.199219 25.417969 7.15625 26.78125 7.085938 28.613281 C 7.011719 30.441406 7.085938 35.894531 7.085938 35.894531 L 29.777344 35.894531 C 29.777344 35.894531 29.851562 30.441406 29.777344 28.613281 " fill-opacity="1" fill-rule="nonzero"/></g></g><g clip-path="url(#79a445936c)"><g clip-path="url(#df23ddd9bf)"><path fill="#100f0d" d="M 25.5625 30.652344 C 24.839844 30.175781 24.492188 29.214844 24.324219 28.289062 C 24.191406 27.542969 24.144531 26.777344 24.1875 26.019531 C 24.289062 24.113281 24.9375 22.296875 25.113281 20.394531 C 25.238281 18.996094 25.101562 17.570312 24.714844 16.234375 C 25.164062 13.929688 24.492188 11.3125 22.894531 9.792969 C 22.425781 9.347656 21.894531 8.988281 21.335938 8.707031 C 22.425781 10.457031 23.058594 12.554688 23.003906 14.695312 C 22.945312 16.839844 22.097656 18.839844 21.214844 20.738281 C 21.070312 21.050781 20.917969 21.410156 21.035156 21.738281 C 21.078125 21.851562 21.148438 21.945312 21.207031 22.050781 C 21.527344 22.628906 21.421875 23.375 21.351562 24.054688 C 21.246094 25.070312 21.242188 26.097656 21.339844 27.117188 C 21.457031 26.855469 21.570312 26.597656 21.683594 26.339844 C 21.902344 27.960938 22.648438 29.484375 23.753906 30.554688 C 23.585938 30.261719 23.503906 29.914062 23.515625 29.566406 C 24.136719 30.222656 24.925781 30.679688 25.761719 30.867188 C 25.714844 30.800781 25.625 30.695312 25.5625 30.652344 " fill-opacity="1" fill-rule="nonzero"/></g></g><g clip-path="url(#852c9bc60f)"><g clip-path="url(#1ce4ac50fc)"><path fill="#ddb7a2" d="M 18.484375 23.640625 C 19.046875 23.640625 20.15625 23.046875 21.257812 22.054688 C 21.09375 21.144531 21.167969 20.394531 21.167969 20.394531 L 18.894531 19.988281 L 18.890625 19.820312 L 18.433594 19.902344 L 17.972656 19.820312 L 17.96875 19.988281 L 15.699219 20.394531 C 15.699219 20.394531 15.777344 21.183594 15.59375 22.121094 C 16.644531 23.074219 17.75 23.640625 18.484375 23.640625 " fill-opacity="1" fill-rule="nonzero"/></g></g><g clip-path="url(#7e7ad8c341)"><g clip-path="url(#a8aa187e3a)"><path fill="#e4c2b0" d="M 24.4375 16.636719 C 24.292969 16.6875 24.128906 16.59375 24.050781 16.460938 C 23.972656 16.332031 23.957031 16.171875 23.949219 16.019531 C 23.921875 15.460938 23.96875 14.902344 24.082031 14.355469 C 24.085938 14.324219 24.09375 14.289062 24.113281 14.261719 C 24.152344 14.199219 24.234375 14.183594 24.308594 14.175781 C 24.542969 14.148438 24.824219 14.175781 24.941406 14.378906 C 25.058594 14.582031 24.9375 14.832031 24.851562 15.046875 C 24.730469 15.347656 24.667969 15.675781 24.671875 16 C 24.671875 16.121094 24.683594 16.246094 24.65625 16.363281 C 24.628906 16.484375 24.554688 16.601562 24.4375 16.636719 " fill-opacity="1" fill-rule="nonzero"/></g></g><g clip-path="url(#1af76f11c8)"><g clip-path="url(#f994c8ec05)"><path fill="#e4c2b0" d="M 12.476562 16.636719 C 12.621094 16.6875 12.785156 16.59375 12.863281 16.460938 C 12.941406 16.332031 12.957031 16.171875 12.964844 16.019531 C 12.992188 15.460938 12.945312 14.902344 12.832031 14.355469 C 12.824219 14.324219 12.820312 14.289062 12.800781 14.261719 C 12.761719 14.199219 12.675781 14.183594 12.605469 14.175781 C 12.371094 14.148438 12.089844 14.175781 11.972656 14.378906 C 11.855469 14.582031 11.972656 14.832031 12.0625 15.046875 C 12.183594 15.347656 12.246094 15.675781 12.242188 16 C 12.238281 16.121094 12.230469 16.246094 12.257812 16.363281 C 12.285156 16.484375 12.359375 16.601562 12.476562 16.636719 " fill-opacity="1" fill-rule="nonzero"/></g></g><g clip-path="url(#1198cc6417)"><g clip-path="url(#c20963d780)"><path fill="#e4c2b0" d="M 24.292969 15.503906 C 24.292969 19.652344 19.824219 23.019531 18.484375 23.019531 C 16.695312 23.019531 12.675781 19.652344 12.675781 15.503906 C 12.675781 11.351562 15.277344 7.984375 18.484375 7.984375 C 21.691406 7.984375 24.292969 11.351562 24.292969 15.503906 " fill-opacity="1" fill-rule="nonzero"/></g></g><g clip-path="url(#5911ca834b)"><g clip-path="url(#974e3fa140)"><path fill="#100f0d" d="M 24.585938 14.867188 C 24.632812 14.421875 24.5 13.496094 24.464844 13.046875 C 24.417969 12.414062 24.003906 11.3125 23.664062 10.46875 C 21.980469 6.296875 17.851562 6.421875 15.433594 7.253906 C 14.921875 7.429688 14.414062 7.683594 14.070312 8.105469 C 13.835938 8.390625 13.6875 8.738281 13.554688 9.082031 C 12.484375 11.8125 11.953125 14.960938 13.148438 17.640625 C 12.835938 13.441406 13.96875 14.117188 14.285156 11.644531 C 14.480469 12.410156 16.238281 12.792969 17.011719 12.96875 C 17.785156 13.140625 18.613281 13.160156 19.3125 13.535156 C 20.203125 14.007812 20.71875 14.957031 21.460938 15.640625 C 21.9375 16.074219 22.503906 16.402344 22.96875 16.84375 C 23.4375 17.289062 23.808594 17.90625 23.726562 18.546875 C 24.292969 17.425781 24.449219 16.128906 24.585938 14.867188 " fill-opacity="1" fill-rule="nonzero"/></g></g><g clip-path="url(#fc13539731)"><g clip-path="url(#b8a62126b0)"><path fill="#100f0d" d="M 29.8125 31.136719 C 29.050781 31.527344 28.417969 31.429688 27.734375 31.460938 C 27.007812 31.496094 25.886719 31.082031 25.886719 31.082031 C 25.886719 31.082031 24.898438 31.390625 22.597656 31.054688 C 21.488281 30.9375 20.390625 30.714844 19.324219 30.390625 C 18.84375 30.246094 18.371094 30.082031 17.898438 29.914062 C 17.304688 29.707031 16.710938 29.5 16.117188 29.289062 C 15.507812 29.078125 14.894531 28.863281 14.308594 28.597656 C 13.851562 28.390625 13.40625 28.152344 12.964844 27.914062 C 12.492188 27.65625 12.019531 27.402344 11.546875 27.148438 C 10.785156 26.738281 10.003906 26.3125 9.425781 25.671875 C 9.210938 25.742188 9.015625 25.816406 8.835938 25.902344 C 8.773438 25.933594 8.710938 25.964844 8.652344 25.996094 C 8.53125 26.058594 8.417969 26.128906 8.316406 26.199219 C 8.265625 26.234375 8.214844 26.269531 8.167969 26.304688 C 8.117188 26.34375 8.070312 26.382812 8.027344 26.417969 C 7.984375 26.457031 7.941406 26.496094 7.902344 26.539062 C 7.859375 26.578125 7.820312 26.617188 7.785156 26.660156 C 7.527344 26.953125 7.351562 27.28125 7.242188 27.636719 C 7.144531 27.941406 7.097656 28.269531 7.085938 28.613281 C 7.082031 28.667969 7.082031 28.730469 7.078125 28.792969 C 7.078125 28.859375 7.074219 28.925781 7.074219 28.996094 C 7.070312 29.171875 7.066406 29.363281 7.0625 29.574219 C 7.058594 29.742188 7.058594 29.917969 7.058594 30.097656 C 7.058594 30.191406 7.054688 30.285156 7.054688 30.378906 C 7.054688 30.472656 7.054688 30.570312 7.054688 30.667969 C 7.054688 30.765625 7.054688 30.863281 7.054688 30.960938 C 7.054688 31.0625 7.054688 31.164062 7.054688 31.261719 C 7.054688 31.3125 7.054688 31.363281 7.054688 31.414062 C 7.054688 31.464844 7.054688 31.515625 7.054688 31.566406 C 7.054688 31.667969 7.054688 31.773438 7.054688 31.875 C 7.054688 31.976562 7.054688 32.078125 7.054688 32.183594 C 7.054688 32.335938 7.054688 32.488281 7.058594 32.640625 C 7.058594 32.839844 7.058594 33.039062 7.058594 33.234375 C 7.0625 33.722656 7.066406 34.179688 7.070312 34.574219 C 7.078125 35.363281 7.085938 35.894531 7.085938 35.894531 L 29.777344 35.894531 C 29.777344 35.894531 29.8125 33.335938 29.8125 31.136719 " fill-opacity="1" fill-rule="nonzero"/></g></g><g clip-path="url(#735a184dfd)"><g clip-path="url(#e22864243f)"><path fill="#272626" d="M 9.921875 25.476562 C 9.84375 25.429688 9.761719 25.382812 9.667969 25.378906 C 9.46875 25.363281 9.316406 25.550781 9.320312 25.71875 C 9.324219 25.890625 9.910156 26.480469 10.351562 26.863281 C 10.773438 27.230469 11.226562 27.570312 11.699219 27.886719 C 13.042969 28.792969 14.539062 29.539062 16.125 30.089844 C 17.507812 30.570312 18.953125 30.90625 20.410156 31.175781 C 20.6875 31.226562 20.964844 31.277344 21.242188 31.320312 C 22.222656 31.46875 23.21875 31.53125 24.214844 31.507812 C 24.539062 31.503906 24.875 31.484375 25.160156 31.355469 C 25.691406 31.617188 26.3125 31.777344 26.921875 31.828125 C 27.523438 31.882812 28.128906 31.824219 28.730469 31.769531 C 29.003906 31.746094 29.285156 31.71875 29.535156 31.617188 C 29.785156 31.519531 30.007812 31.335938 30.050781 31.101562 C 30.0625 31.050781 30.0625 30.992188 30.035156 30.945312 C 29.96875 30.84375 29.800781 30.832031 29.664062 30.84375 C 28.75 30.910156 27.847656 31.203125 26.941406 31.085938 C 26.351562 31.007812 25.785156 30.753906 25.1875 30.792969 C 24.804688 30.820312 24.445312 30.964844 24.0625 30.957031 C 23.808594 30.957031 23.5625 30.886719 23.3125 30.84375 C 22.722656 30.738281 22.117188 30.78125 21.515625 30.753906 C 20.03125 30.683594 18.625 30.175781 17.253906 29.679688 C 16.355469 29.351562 15.453125 29.023438 14.554688 28.695312 C 14.339844 28.617188 14.117188 28.535156 13.945312 28.402344 C 13.804688 28.289062 13.703125 28.148438 13.566406 28.035156 C 13.40625 27.898438 13.199219 27.804688 13.003906 27.707031 C 12 27.21875 11.089844 26.59375 10.3125 25.867188 C 10.3125 25.8125 10.261719 25.683594 9.921875 25.476562 " fill-opacity="1" fill-rule="nonzero"/></g></g></svg>