<svg xmlns="http://www.w3.org/2000/svg" xmlns:xlink="http://www.w3.org/1999/xlink" width="50" zoomAndPan="magnify" viewBox="0 0 37.5 37.499999" height="50" preserveAspectRatio="xMidYMid meet" version="1.0"><defs><clipPath id="f3301bfe08"><path d="M 1.296875 1.296875 L 36.082031 1.296875 L 36.082031 36.082031 L 1.296875 36.082031 Z M 1.296875 1.296875 " clip-rule="nonzero"/></clipPath><clipPath id="00da975b92"><path d="M 1.296875 18.683594 C 1.296875 17.542969 1.40625 16.410156 1.628906 15.292969 C 1.851562 14.171875 2.183594 13.085938 2.617188 12.03125 C 3.054688 10.976562 3.589844 9.972656 4.226562 9.023438 C 4.859375 8.074219 5.582031 7.195312 6.386719 6.386719 C 7.195312 5.582031 8.074219 4.859375 9.023438 4.226562 C 9.972656 3.589844 10.976562 3.054688 12.03125 2.617188 C 13.085938 2.183594 14.171875 1.851562 15.292969 1.628906 C 16.410156 1.40625 17.542969 1.296875 18.683594 1.296875 C 19.824219 1.296875 20.957031 1.40625 22.078125 1.628906 C 23.195312 1.851562 24.285156 2.183594 25.339844 2.617188 C 26.394531 3.054688 27.394531 3.589844 28.34375 4.226562 C 29.292969 4.859375 30.171875 5.582031 30.980469 6.386719 C 31.789062 7.195312 32.507812 8.074219 33.140625 9.023438 C 33.777344 9.972656 34.3125 10.976562 34.75 12.03125 C 35.1875 13.085938 35.515625 14.171875 35.738281 15.292969 C 35.960938 16.410156 36.074219 17.542969 36.074219 18.683594 C 36.074219 19.824219 35.960938 20.957031 35.738281 22.078125 C 35.515625 23.195312 35.1875 24.285156 34.75 25.339844 C 34.3125 26.394531 33.777344 27.394531 33.140625 28.34375 C 32.507812 29.292969 31.789062 30.171875 30.980469 30.980469 C 30.171875 31.789062 29.292969 32.507812 28.34375 33.140625 C 27.394531 33.777344 26.394531 34.3125 25.339844 34.75 C 24.285156 35.1875 23.195312 35.515625 22.078125 35.738281 C 20.957031 35.960938 19.824219 36.074219 18.683594 36.074219 C 17.542969 36.074219 16.410156 35.960938 15.292969 35.738281 C 14.171875 35.515625 13.085938 35.1875 12.03125 34.75 C 10.976562 34.3125 9.972656 33.777344 9.023438 33.140625 C 8.074219 32.507812 7.195312 31.789062 6.386719 30.980469 C 5.582031 30.171875 4.859375 29.292969 4.226562 28.34375 C 3.589844 27.394531 3.054688 26.394531 2.617188 25.339844 C 2.183594 24.285156 1.851562 23.195312 1.628906 22.078125 C 1.40625 20.957031 1.296875 19.824219 1.296875 18.683594 Z M 1.296875 18.683594 " clip-rule="nonzero"/></clipPath><clipPath id="23d109644e"><path d="M 3 24 L 32 24 L 32 36.082031 L 3 36.082031 Z M 3 24 " clip-rule="nonzero"/></clipPath><clipPath id="389e3e8c04"><path d="M 1.296875 18.683594 C 1.296875 17.542969 1.40625 16.410156 1.628906 15.292969 C 1.851562 14.171875 2.183594 13.085938 2.617188 12.03125 C 3.054688 10.976562 3.589844 9.972656 4.226562 9.023438 C 4.859375 8.074219 5.582031 7.195312 6.386719 6.386719 C 7.195312 5.582031 8.074219 4.859375 9.023438 4.226562 C 9.972656 3.589844 10.976562 3.054688 12.03125 2.617188 C 13.085938 2.183594 14.171875 1.851562 15.292969 1.628906 C 16.410156 1.40625 17.542969 1.296875 18.683594 1.296875 C 19.824219 1.296875 20.957031 1.40625 22.078125 1.628906 C 23.195312 1.851562 24.285156 2.183594 25.339844 2.617188 C 26.394531 3.054688 27.394531 3.589844 28.34375 4.226562 C 29.292969 4.859375 30.171875 5.582031 30.980469 6.386719 C 31.789062 7.195312 32.507812 8.074219 33.140625 9.023438 C 33.777344 9.972656 34.3125 10.976562 34.75 12.03125 C 35.1875 13.085938 35.515625 14.171875 35.738281 15.292969 C 35.960938 16.410156 36.074219 17.542969 36.074219 18.683594 C 36.074219 19.824219 35.960938 20.957031 35.738281 22.078125 C 35.515625 23.195312 35.1875 24.285156 34.75 25.339844 C 34.3125 26.394531 33.777344 27.394531 33.140625 28.34375 C 32.507812 29.292969 31.789062 30.171875 30.980469 30.980469 C 30.171875 31.789062 29.292969 32.507812 28.34375 33.140625 C 27.394531 33.777344 26.394531 34.3125 25.339844 34.75 C 24.285156 35.1875 23.195312 35.515625 22.078125 35.738281 C 20.957031 35.960938 19.824219 36.074219 18.683594 36.074219 C 17.542969 36.074219 16.410156 35.960938 15.292969 35.738281 C 14.171875 35.515625 13.085938 35.1875 12.03125 34.75 C 10.976562 34.3125 9.972656 33.777344 9.023438 33.140625 C 8.074219 32.507812 7.195312 31.789062 6.386719 30.980469 C 5.582031 30.171875 4.859375 29.292969 4.226562 28.34375 C 3.589844 27.394531 3.054688 26.394531 2.617188 25.339844 C 2.183594 24.285156 1.851562 23.195312 1.628906 22.078125 C 1.40625 20.957031 1.296875 19.824219 1.296875 18.683594 Z M 1.296875 18.683594 " clip-rule="nonzero"/></clipPath><clipPath id="96bb4f7c92"><path d="M 15 22 L 24 22 L 24 36.082031 L 15 36.082031 Z M 15 22 " clip-rule="nonzero"/></clipPath><clipPath id="e58d8ed57a"><path d="M 1.296875 18.683594 C 1.296875 17.542969 1.40625 16.410156 1.628906 15.292969 C 1.851562 14.171875 2.183594 13.085938 2.617188 12.03125 C 3.054688 10.976562 3.589844 9.972656 4.226562 9.023438 C 4.859375 8.074219 5.582031 7.195312 6.386719 6.386719 C 7.195312 5.582031 8.074219 4.859375 9.023438 4.226562 C 9.972656 3.589844 10.976562 3.054688 12.03125 2.617188 C 13.085938 2.183594 14.171875 1.851562 15.292969 1.628906 C 16.410156 1.40625 17.542969 1.296875 18.683594 1.296875 C 19.824219 1.296875 20.957031 1.40625 22.078125 1.628906 C 23.195312 1.851562 24.285156 2.183594 25.339844 2.617188 C 26.394531 3.054688 27.394531 3.589844 28.34375 4.226562 C 29.292969 4.859375 30.171875 5.582031 30.980469 6.386719 C 31.789062 7.195312 32.507812 8.074219 33.140625 9.023438 C 33.777344 9.972656 34.3125 10.976562 34.75 12.03125 C 35.1875 13.085938 35.515625 14.171875 35.738281 15.292969 C 35.960938 16.410156 36.074219 17.542969 36.074219 18.683594 C 36.074219 19.824219 35.960938 20.957031 35.738281 22.078125 C 35.515625 23.195312 35.1875 24.285156 34.75 25.339844 C 34.3125 26.394531 33.777344 27.394531 33.140625 28.34375 C 32.507812 29.292969 31.789062 30.171875 30.980469 30.980469 C 30.171875 31.789062 29.292969 32.507812 28.34375 33.140625 C 27.394531 33.777344 26.394531 34.3125 25.339844 34.75 C 24.285156 35.1875 23.195312 35.515625 22.078125 35.738281 C 20.957031 35.960938 19.824219 36.074219 18.683594 36.074219 C 17.542969 36.074219 16.410156 35.960938 15.292969 35.738281 C 14.171875 35.515625 13.085938 35.1875 12.03125 34.75 C 10.976562 34.3125 9.972656 33.777344 9.023438 33.140625 C 8.074219 32.507812 7.195312 31.789062 6.386719 30.980469 C 5.582031 30.171875 4.859375 29.292969 4.226562 28.34375 C 3.589844 27.394531 3.054688 26.394531 2.617188 25.339844 C 2.183594 24.285156 1.851562 23.195312 1.628906 22.078125 C 1.40625 20.957031 1.296875 19.824219 1.296875 18.683594 Z M 1.296875 18.683594 " clip-rule="nonzero"/></clipPath><clipPath id="92cc1fd063"><path d="M 13 11 L 25 11 L 25 22 L 13 22 Z M 13 11 " clip-rule="nonzero"/></clipPath><clipPath id="60bbbe3260"><path d="M 1.296875 18.683594 C 1.296875 17.542969 1.40625 16.410156 1.628906 15.292969 C 1.851562 14.171875 2.183594 13.085938 2.617188 12.03125 C 3.054688 10.976562 3.589844 9.972656 4.226562 9.023438 C 4.859375 8.074219 5.582031 7.195312 6.386719 6.386719 C 7.195312 5.582031 8.074219 4.859375 9.023438 4.226562 C 9.972656 3.589844 10.976562 3.054688 12.03125 2.617188 C 13.085938 2.183594 14.171875 1.851562 15.292969 1.628906 C 16.410156 1.40625 17.542969 1.296875 18.683594 1.296875 C 19.824219 1.296875 20.957031 1.40625 22.078125 1.628906 C 23.195312 1.851562 24.285156 2.183594 25.339844 2.617188 C 26.394531 3.054688 27.394531 3.589844 28.34375 4.226562 C 29.292969 4.859375 30.171875 5.582031 30.980469 6.386719 C 31.789062 7.195312 32.507812 8.074219 33.140625 9.023438 C 33.777344 9.972656 34.3125 10.976562 34.75 12.03125 C 35.1875 13.085938 35.515625 14.171875 35.738281 15.292969 C 35.960938 16.410156 36.074219 17.542969 36.074219 18.683594 C 36.074219 19.824219 35.960938 20.957031 35.738281 22.078125 C 35.515625 23.195312 35.1875 24.285156 34.75 25.339844 C 34.3125 26.394531 33.777344 27.394531 33.140625 28.34375 C 32.507812 29.292969 31.789062 30.171875 30.980469 30.980469 C 30.171875 31.789062 29.292969 32.507812 28.34375 33.140625 C 27.394531 33.777344 26.394531 34.3125 25.339844 34.75 C 24.285156 35.1875 23.195312 35.515625 22.078125 35.738281 C 20.957031 35.960938 19.824219 36.074219 18.683594 36.074219 C 17.542969 36.074219 16.410156 35.960938 15.292969 35.738281 C 14.171875 35.515625 13.085938 35.1875 12.03125 34.75 C 10.976562 34.3125 9.972656 33.777344 9.023438 33.140625 C 8.074219 32.507812 7.195312 31.789062 6.386719 30.980469 C 5.582031 30.171875 4.859375 29.292969 4.226562 28.34375 C 3.589844 27.394531 3.054688 26.394531 2.617188 25.339844 C 2.183594 24.285156 1.851562 23.195312 1.628906 22.078125 C 1.40625 20.957031 1.296875 19.824219 1.296875 18.683594 Z M 1.296875 18.683594 " clip-rule="nonzero"/></clipPath><clipPath id="65abf6b0c9"><path d="M 15 23 L 21 23 L 21 27 L 15 27 Z M 15 23 " clip-rule="nonzero"/></clipPath><clipPath id="065e21c1cc"><path d="M 1.296875 18.683594 C 1.296875 17.542969 1.40625 16.410156 1.628906 15.292969 C 1.851562 14.171875 2.183594 13.085938 2.617188 12.03125 C 3.054688 10.976562 3.589844 9.972656 4.226562 9.023438 C 4.859375 8.074219 5.582031 7.195312 6.386719 6.386719 C 7.195312 5.582031 8.074219 4.859375 9.023438 4.226562 C 9.972656 3.589844 10.976562 3.054688 12.03125 2.617188 C 13.085938 2.183594 14.171875 1.851562 15.292969 1.628906 C 16.410156 1.40625 17.542969 1.296875 18.683594 1.296875 C 19.824219 1.296875 20.957031 1.40625 22.078125 1.628906 C 23.195312 1.851562 24.285156 2.183594 25.339844 2.617188 C 26.394531 3.054688 27.394531 3.589844 28.34375 4.226562 C 29.292969 4.859375 30.171875 5.582031 30.980469 6.386719 C 31.789062 7.195312 32.507812 8.074219 33.140625 9.023438 C 33.777344 9.972656 34.3125 10.976562 34.75 12.03125 C 35.1875 13.085938 35.515625 14.171875 35.738281 15.292969 C 35.960938 16.410156 36.074219 17.542969 36.074219 18.683594 C 36.074219 19.824219 35.960938 20.957031 35.738281 22.078125 C 35.515625 23.195312 35.1875 24.285156 34.75 25.339844 C 34.3125 26.394531 33.777344 27.394531 33.140625 28.34375 C 32.507812 29.292969 31.789062 30.171875 30.980469 30.980469 C 30.171875 31.789062 29.292969 32.507812 28.34375 33.140625 C 27.394531 33.777344 26.394531 34.3125 25.339844 34.75 C 24.285156 35.1875 23.195312 35.515625 22.078125 35.738281 C 20.957031 35.960938 19.824219 36.074219 18.683594 36.074219 C 17.542969 36.074219 16.410156 35.960938 15.292969 35.738281 C 14.171875 35.515625 13.085938 35.1875 12.03125 34.75 C 10.976562 34.3125 9.972656 33.777344 9.023438 33.140625 C 8.074219 32.507812 7.195312 31.789062 6.386719 30.980469 C 5.582031 30.171875 4.859375 29.292969 4.226562 28.34375 C 3.589844 27.394531 3.054688 26.394531 2.617188 25.339844 C 2.183594 24.285156 1.851562 23.195312 1.628906 22.078125 C 1.40625 20.957031 1.296875 19.824219 1.296875 18.683594 Z M 1.296875 18.683594 " clip-rule="nonzero"/></clipPath><clipPath id="bd0a3cd5f1"><path d="M 15 19 L 21 19 L 21 26 L 15 26 Z M 15 19 " clip-rule="nonzero"/></clipPath><clipPath id="558e35cba1"><path d="M 1.296875 18.683594 C 1.296875 17.542969 1.40625 16.410156 1.628906 15.292969 C 1.851562 14.171875 2.183594 13.085938 2.617188 12.03125 C 3.054688 10.976562 3.589844 9.972656 4.226562 9.023438 C 4.859375 8.074219 5.582031 7.195312 6.386719 6.386719 C 7.195312 5.582031 8.074219 4.859375 9.023438 4.226562 C 9.972656 3.589844 10.976562 3.054688 12.03125 2.617188 C 13.085938 2.183594 14.171875 1.851562 15.292969 1.628906 C 16.410156 1.40625 17.542969 1.296875 18.683594 1.296875 C 19.824219 1.296875 20.957031 1.40625 22.078125 1.628906 C 23.195312 1.851562 24.285156 2.183594 25.339844 2.617188 C 26.394531 3.054688 27.394531 3.589844 28.34375 4.226562 C 29.292969 4.859375 30.171875 5.582031 30.980469 6.386719 C 31.789062 7.195312 32.507812 8.074219 33.140625 9.023438 C 33.777344 9.972656 34.3125 10.976562 34.75 12.03125 C 35.1875 13.085938 35.515625 14.171875 35.738281 15.292969 C 35.960938 16.410156 36.074219 17.542969 36.074219 18.683594 C 36.074219 19.824219 35.960938 20.957031 35.738281 22.078125 C 35.515625 23.195312 35.1875 24.285156 34.75 25.339844 C 34.3125 26.394531 33.777344 27.394531 33.140625 28.34375 C 32.507812 29.292969 31.789062 30.171875 30.980469 30.980469 C 30.171875 31.789062 29.292969 32.507812 28.34375 33.140625 C 27.394531 33.777344 26.394531 34.3125 25.339844 34.75 C 24.285156 35.1875 23.195312 35.515625 22.078125 35.738281 C 20.957031 35.960938 19.824219 36.074219 18.683594 36.074219 C 17.542969 36.074219 16.410156 35.960938 15.292969 35.738281 C 14.171875 35.515625 13.085938 35.1875 12.03125 34.75 C 10.976562 34.3125 9.972656 33.777344 9.023438 33.140625 C 8.074219 32.507812 7.195312 31.789062 6.386719 30.980469 C 5.582031 30.171875 4.859375 29.292969 4.226562 28.34375 C 3.589844 27.394531 3.054688 26.394531 2.617188 25.339844 C 2.183594 24.285156 1.851562 23.195312 1.628906 22.078125 C 1.40625 20.957031 1.296875 19.824219 1.296875 18.683594 Z M 1.296875 18.683594 " clip-rule="nonzero"/></clipPath><clipPath id="cc8a863cef"><path d="M 16 19 L 21 19 L 21 24 L 16 24 Z M 16 19 " clip-rule="nonzero"/></clipPath><clipPath id="1fe8a44564"><path d="M 1.296875 18.683594 C 1.296875 17.542969 1.40625 16.410156 1.628906 15.292969 C 1.851562 14.171875 2.183594 13.085938 2.617188 12.03125 C 3.054688 10.976562 3.589844 9.972656 4.226562 9.023438 C 4.859375 8.074219 5.582031 7.195312 6.386719 6.386719 C 7.195312 5.582031 8.074219 4.859375 9.023438 4.226562 C 9.972656 3.589844 10.976562 3.054688 12.03125 2.617188 C 13.085938 2.183594 14.171875 1.851562 15.292969 1.628906 C 16.410156 1.40625 17.542969 1.296875 18.683594 1.296875 C 19.824219 1.296875 20.957031 1.40625 22.078125 1.628906 C 23.195312 1.851562 24.285156 2.183594 25.339844 2.617188 C 26.394531 3.054688 27.394531 3.589844 28.34375 4.226562 C 29.292969 4.859375 30.171875 5.582031 30.980469 6.386719 C 31.789062 7.195312 32.507812 8.074219 33.140625 9.023438 C 33.777344 9.972656 34.3125 10.976562 34.75 12.03125 C 35.1875 13.085938 35.515625 14.171875 35.738281 15.292969 C 35.960938 16.410156 36.074219 17.542969 36.074219 18.683594 C 36.074219 19.824219 35.960938 20.957031 35.738281 22.078125 C 35.515625 23.195312 35.1875 24.285156 34.75 25.339844 C 34.3125 26.394531 33.777344 27.394531 33.140625 28.34375 C 32.507812 29.292969 31.789062 30.171875 30.980469 30.980469 C 30.171875 31.789062 29.292969 32.507812 28.34375 33.140625 C 27.394531 33.777344 26.394531 34.3125 25.339844 34.75 C 24.285156 35.1875 23.195312 35.515625 22.078125 35.738281 C 20.957031 35.960938 19.824219 36.074219 18.683594 36.074219 C 17.542969 36.074219 16.410156 35.960938 15.292969 35.738281 C 14.171875 35.515625 13.085938 35.1875 12.03125 34.75 C 10.976562 34.3125 9.972656 33.777344 9.023438 33.140625 C 8.074219 32.507812 7.195312 31.789062 6.386719 30.980469 C 5.582031 30.171875 4.859375 29.292969 4.226562 28.34375 C 3.589844 27.394531 3.054688 26.394531 2.617188 25.339844 C 2.183594 24.285156 1.851562 23.195312 1.628906 22.078125 C 1.40625 20.957031 1.296875 19.824219 1.296875 18.683594 Z M 1.296875 18.683594 " clip-rule="nonzero"/></clipPath><clipPath id="9cf24173d6"><path d="M 14 14 L 24 14 L 24 23 L 14 23 Z M 14 14 " clip-rule="nonzero"/></clipPath><clipPath id="95c2c501c7"><path d="M 1.296875 18.683594 C 1.296875 17.542969 1.40625 16.410156 1.628906 15.292969 C 1.851562 14.171875 2.183594 13.085938 2.617188 12.03125 C 3.054688 10.976562 3.589844 9.972656 4.226562 9.023438 C 4.859375 8.074219 5.582031 7.195312 6.386719 6.386719 C 7.195312 5.582031 8.074219 4.859375 9.023438 4.226562 C 9.972656 3.589844 10.976562 3.054688 12.03125 2.617188 C 13.085938 2.183594 14.171875 1.851562 15.292969 1.628906 C 16.410156 1.40625 17.542969 1.296875 18.683594 1.296875 C 19.824219 1.296875 20.957031 1.40625 22.078125 1.628906 C 23.195312 1.851562 24.285156 2.183594 25.339844 2.617188 C 26.394531 3.054688 27.394531 3.589844 28.34375 4.226562 C 29.292969 4.859375 30.171875 5.582031 30.980469 6.386719 C 31.789062 7.195312 32.507812 8.074219 33.140625 9.023438 C 33.777344 9.972656 34.3125 10.976562 34.75 12.03125 C 35.1875 13.085938 35.515625 14.171875 35.738281 15.292969 C 35.960938 16.410156 36.074219 17.542969 36.074219 18.683594 C 36.074219 19.824219 35.960938 20.957031 35.738281 22.078125 C 35.515625 23.195312 35.1875 24.285156 34.75 25.339844 C 34.3125 26.394531 33.777344 27.394531 33.140625 28.34375 C 32.507812 29.292969 31.789062 30.171875 30.980469 30.980469 C 30.171875 31.789062 29.292969 32.507812 28.34375 33.140625 C 27.394531 33.777344 26.394531 34.3125 25.339844 34.75 C 24.285156 35.1875 23.195312 35.515625 22.078125 35.738281 C 20.957031 35.960938 19.824219 36.074219 18.683594 36.074219 C 17.542969 36.074219 16.410156 35.960938 15.292969 35.738281 C 14.171875 35.515625 13.085938 35.1875 12.03125 34.75 C 10.976562 34.3125 9.972656 33.777344 9.023438 33.140625 C 8.074219 32.507812 7.195312 31.789062 6.386719 30.980469 C 5.582031 30.171875 4.859375 29.292969 4.226562 28.34375 C 3.589844 27.394531 3.054688 26.394531 2.617188 25.339844 C 2.183594 24.285156 1.851562 23.195312 1.628906 22.078125 C 1.40625 20.957031 1.296875 19.824219 1.296875 18.683594 Z M 1.296875 18.683594 " clip-rule="nonzero"/></clipPath></defs><g clip-path="url(#f3301bfe08)"><g clip-path="url(#00da975b92)"><path fill="#8f4399" d="M 36.074219 18.683594 C 36.074219 19.253906 36.046875 19.820312 35.988281 20.386719 C 35.933594 20.957031 35.851562 21.519531 35.738281 22.078125 C 35.628906 22.636719 35.488281 23.1875 35.324219 23.730469 C 35.160156 24.277344 34.96875 24.8125 34.75 25.339844 C 34.53125 25.863281 34.289062 26.378906 34.019531 26.882812 C 33.75 27.382812 33.457031 27.871094 33.140625 28.34375 C 32.824219 28.820312 32.488281 29.273438 32.125 29.714844 C 31.765625 30.15625 31.382812 30.578125 30.980469 30.980469 C 30.578125 31.382812 30.15625 31.765625 29.714844 32.125 C 29.273438 32.488281 28.820312 32.824219 28.34375 33.140625 C 27.871094 33.457031 27.382812 33.75 26.882812 34.019531 C 26.378906 34.289062 25.863281 34.53125 25.339844 34.75 C 24.8125 34.96875 24.277344 35.160156 23.730469 35.324219 C 23.1875 35.488281 22.636719 35.628906 22.078125 35.738281 C 21.519531 35.851562 20.957031 35.933594 20.386719 35.988281 C 19.820312 36.046875 19.253906 36.074219 18.683594 36.074219 C 18.113281 36.074219 17.546875 36.046875 16.980469 35.988281 C 16.414062 35.933594 15.851562 35.851562 15.292969 35.738281 C 14.734375 35.628906 14.179688 35.488281 13.636719 35.324219 C 13.089844 35.160156 12.554688 34.96875 12.03125 34.75 C 11.503906 34.53125 10.988281 34.289062 10.488281 34.019531 C 9.984375 33.75 9.496094 33.457031 9.023438 33.140625 C 8.550781 32.824219 8.09375 32.488281 7.652344 32.125 C 7.210938 31.765625 6.792969 31.382812 6.386719 30.980469 C 5.984375 30.578125 5.605469 30.15625 5.242188 29.714844 C 4.882812 29.273438 4.542969 28.820312 4.226562 28.34375 C 3.910156 27.871094 3.617188 27.382812 3.347656 26.882812 C 3.078125 26.378906 2.835938 25.863281 2.617188 25.339844 C 2.402344 24.8125 2.210938 24.277344 2.042969 23.730469 C 1.878906 23.1875 1.742188 22.636719 1.628906 22.078125 C 1.519531 21.519531 1.433594 20.957031 1.378906 20.386719 C 1.324219 19.820312 1.296875 19.253906 1.296875 18.683594 C 1.296875 18.113281 1.324219 17.546875 1.378906 16.980469 C 1.433594 16.414062 1.519531 15.851562 1.628906 15.292969 C 1.742188 14.734375 1.878906 14.179688 2.042969 13.636719 C 2.210938 13.089844 2.402344 12.554688 2.617188 12.03125 C 2.835938 11.503906 3.078125 10.988281 3.347656 10.488281 C 3.617188 9.984375 3.910156 9.496094 4.226562 9.023438 C 4.542969 8.550781 4.882812 8.09375 5.242188 7.652344 C 5.605469 7.210938 5.984375 6.792969 6.386719 6.386719 C 6.792969 5.984375 7.210938 5.605469 7.652344 5.242188 C 8.09375 4.882812 8.550781 4.542969 9.023438 4.226562 C 9.496094 3.910156 9.984375 3.617188 10.488281 3.347656 C 10.988281 3.078125 11.503906 2.835938 12.03125 2.617188 C 12.554688 2.402344 13.089844 2.210938 13.636719 2.042969 C 14.179688 1.878906 14.734375 1.742188 15.292969 1.628906 C 15.851562 1.519531 16.414062 1.433594 16.980469 1.378906 C 17.546875 1.324219 18.113281 1.296875 18.683594 1.296875 C 19.253906 1.296875 19.820312 1.324219 20.386719 1.378906 C 20.957031 1.433594 21.519531 1.519531 22.078125 1.628906 C 22.636719 1.742188 23.1875 1.878906 23.730469 2.042969 C 24.277344 2.210938 24.8125 2.402344 25.339844 2.617188 C 25.863281 2.835938 26.378906 3.078125 26.882812 3.347656 C 27.382812 3.617188 27.871094 3.910156 28.34375 4.226562 C 28.820312 4.542969 29.273438 4.882812 29.714844 5.242188 C 30.15625 5.605469 30.578125 5.984375 30.980469 6.386719 C 31.382812 6.792969 31.765625 7.210938 32.125 7.652344 C 32.488281 8.09375 32.824219 8.550781 33.140625 9.023438 C 33.457031 9.496094 33.75 9.984375 34.019531 10.488281 C 34.289062 10.988281 34.53125 11.503906 34.75 12.03125 C 34.96875 12.554688 35.160156 13.089844 35.324219 13.636719 C 35.488281 14.179688 35.628906 14.734375 35.738281 15.292969 C 35.851562 15.851562 35.933594 16.414062 35.988281 16.980469 C 36.046875 17.546875 36.074219 18.113281 36.074219 18.683594 Z M 36.074219 18.683594 " fill-opacity="1" fill-rule="nonzero"/></g></g><g clip-path="url(#23d109644e)"><g clip-path="url(#389e3e8c04)"><path fill="#5d2b81" d="M 16.511719 24.132812 C 16.511719 24.132812 10.753906 24.378906 8.304688 26.296875 C 5.855469 28.21875 3.570312 34.953125 3.570312 34.953125 C 3.570312 34.953125 15.375 40.503906 21.25 39.808594 C 27.125 39.117188 31.246094 34.953125 31.246094 34.953125 C 31.246094 34.953125 28.007812 26.527344 24.824219 25.585938 C 21.640625 24.648438 18.972656 24.132812 18.972656 24.132812 " fill-opacity="1" fill-rule="nonzero"/></g></g><g clip-path="url(#96bb4f7c92)"><g clip-path="url(#e58d8ed57a)"><path fill="#ffffff" d="M 15.398438 24.21875 C 15.972656 28.394531 16.300781 41.105469 16.300781 41.105469 L 23.621094 40.609375 L 20.679688 24.710938 L 19.164062 22.066406 Z M 15.398438 24.21875 " fill-opacity="1" fill-rule="nonzero"/></g></g><g clip-path="url(#92cc1fd063)"><g clip-path="url(#60bbbe3260)"><path fill="#371952" d="M 16.632812 21.738281 C 14.679688 20.9375 12.480469 17.363281 13.441406 15.382812 C 14.402344 13.402344 15.667969 13.703125 15.667969 13.703125 C 15.667969 13.703125 15.503906 12.355469 18.363281 11.75 C 21.226562 11.144531 24.28125 12.492188 24.308594 14.5 C 24.335938 16.507812 22.4375 17.363281 22.4375 17.363281 " fill-opacity="1" fill-rule="nonzero"/></g></g><g clip-path="url(#65abf6b0c9)"><g clip-path="url(#065e21c1cc)"><path fill="#e3cde4" d="M 16.5625 23.152344 C 14.96875 23.523438 15.1875 24.929688 16.015625 26.414062 C 16.839844 27.898438 18.425781 25.65625 18.683594 25.753906 C 18.945312 25.851562 20.304688 27.226562 20.773438 26.480469 C 21.242188 25.738281 20.636719 23.808594 19.453125 23.566406 " fill-opacity="1" fill-rule="nonzero"/></g></g><g clip-path="url(#bd0a3cd5f1)"><g clip-path="url(#558e35cba1)"><path fill="#f7a8a7" d="M 20.210938 23.820312 C 20.144531 24.28125 20.101562 24.601562 20.101562 24.601562 C 20.101562 24.601562 20.328125 25.601562 18.511719 25.664062 C 17.984375 25.6875 17.488281 25.574219 17.027344 25.324219 C 16.5625 25.074219 16.199219 24.722656 15.929688 24.269531 C 15.929688 24.269531 16.328125 22.25 16.511719 20.820312 C 16.574219 20.433594 16.578125 20.050781 16.53125 19.664062 L 20.859375 20.847656 C 20.609375 21.304688 20.351562 22.863281 20.210938 23.820312 Z M 20.210938 23.820312 " fill-opacity="1" fill-rule="nonzero"/></g></g><g clip-path="url(#cc8a863cef)"><g clip-path="url(#1fe8a44564)"><path fill="#f38296" d="M 20.859375 20.847656 C 20.609375 21.304688 20.351562 22.863281 20.210938 23.820312 C 18.222656 23.890625 16.878906 22.402344 16.511719 20.820312 C 16.574219 20.433594 16.578125 20.050781 16.53125 19.664062 Z M 20.859375 20.847656 " fill-opacity="1" fill-rule="nonzero"/></g></g><g clip-path="url(#9cf24173d6)"><g clip-path="url(#95c2c501c7)"><path fill="#f7a8a7" d="M 23.226562 14.253906 C 21.0625 15.929688 17.285156 15.621094 17.285156 15.621094 L 16.785156 18.246094 C 16.785156 18.246094 16.117188 16.1875 15.128906 16.945312 C 14.136719 17.699219 15.070312 19.0625 16.164062 19.070312 C 16.164062 19.070312 17.101562 23.058594 20.566406 22.605469 C 22.589844 22.339844 23.203125 20.050781 23.222656 18.722656 C 23.246094 17.398438 23.226562 14.253906 23.226562 14.253906 Z M 23.226562 14.253906 " fill-opacity="1" fill-rule="nonzero"/></g></g></svg>