<svg xmlns="http://www.w3.org/2000/svg" xmlns:xlink="http://www.w3.org/1999/xlink" width="50" zoomAndPan="magnify" viewBox="0 0 37.5 37.499999" height="50" preserveAspectRatio="xMidYMid meet" version="1.0"><defs><clipPath id="c1a043bff6"><path d="M 1.628906 1.628906 L 35.378906 1.628906 L 35.378906 35.378906 L 1.628906 35.378906 Z M 1.628906 1.628906 " clip-rule="nonzero"/></clipPath><clipPath id="6b4d789f3e"><path d="M 18.503906 1.628906 C 9.183594 1.628906 1.628906 9.183594 1.628906 18.503906 C 1.628906 27.824219 9.183594 35.378906 18.503906 35.378906 C 27.824219 35.378906 35.378906 27.824219 35.378906 18.503906 C 35.378906 9.183594 27.824219 1.628906 18.503906 1.628906 Z M 18.503906 1.628906 " clip-rule="nonzero"/></clipPath><clipPath id="e2bd6876d9"><path d="M 0.628906 0.628906 L 34.378906 0.628906 L 34.378906 34.378906 L 0.628906 34.378906 Z M 0.628906 0.628906 " clip-rule="nonzero"/></clipPath><clipPath id="33e1b65644"><path d="M 17.503906 0.628906 C 8.183594 0.628906 0.628906 8.183594 0.628906 17.503906 C 0.628906 26.824219 8.183594 34.378906 17.503906 34.378906 C 26.824219 34.378906 34.378906 26.824219 34.378906 17.503906 C 34.378906 8.183594 26.824219 0.628906 17.503906 0.628906 Z M 17.503906 0.628906 " clip-rule="nonzero"/></clipPath><clipPath id="8d5b8511ed"><rect x="0" width="35" y="0" height="35"/></clipPath><clipPath id="aba49012e0"><path d="M 23 19 L 31.570312 19 L 31.570312 27.457031 L 23 27.457031 Z M 23 19 " clip-rule="nonzero"/></clipPath><clipPath id="972be3049c"><path d="M 8 9.695312 L 28 9.695312 L 28 23 L 8 23 Z M 8 9.695312 " clip-rule="nonzero"/></clipPath><clipPath id="ea1b962815"><path d="M 5.664062 22 L 24 22 L 24 26 L 5.664062 26 Z M 5.664062 22 " clip-rule="nonzero"/></clipPath></defs><g clip-path="url(#c1a043bff6)"><g clip-path="url(#6b4d789f3e)"><g transform="matrix(1, 0, 0, 1, 1, 1)"><g clip-path="url(#8d5b8511ed)"><g clip-path="url(#e2bd6876d9)"><g clip-path="url(#33e1b65644)"><path fill="#1c2b36" d="M 0.628906 0.628906 L 34.378906 0.628906 L 34.378906 34.378906 L 0.628906 34.378906 Z M 0.628906 0.628906 " fill-opacity="1" fill-rule="nonzero"/></g></g></g></g></g></g><g clip-path="url(#aba49012e0)"><path fill="#ffffff" d="M 26.789062 25.800781 C 26.78125 25.796875 26.773438 25.796875 26.765625 25.792969 C 26.675781 25.75 26.621094 25.671875 26.621094 25.582031 L 26.621094 21.648438 C 26.621094 21.554688 26.6875 21.464844 26.789062 21.429688 C 26.890625 21.394531 27.007812 21.414062 27.085938 21.480469 L 27.160156 21.546875 L 28.839844 22.996094 L 29.363281 23.449219 C 29.472656 23.542969 29.472656 23.691406 29.363281 23.78125 L 27.085938 25.75 C 27.066406 25.765625 27.046875 25.78125 27.023438 25.789062 C 26.953125 25.824219 26.867188 25.828125 26.789062 25.800781 Z M 27.582031 19.917969 C 27.4375 19.917969 27.300781 19.925781 27.160156 19.941406 C 26.890625 19.972656 26.632812 20.03125 26.382812 20.117188 C 25.820312 20.308594 25.320312 20.632812 24.914062 21.050781 C 24.515625 21.464844 24.210938 21.976562 24.039062 22.542969 C 23.992188 22.691406 23.957031 22.839844 23.933594 22.996094 C 23.898438 23.199219 23.878906 23.40625 23.878906 23.617188 C 23.878906 24.429688 24.144531 25.179688 24.589844 25.792969 C 25.261719 26.714844 26.351562 27.3125 27.582031 27.3125 C 29.621094 27.3125 31.277344 25.660156 31.277344 23.617188 C 31.277344 21.574219 29.621094 19.917969 27.582031 19.917969 " fill-opacity="1" fill-rule="nonzero"/></g><g clip-path="url(#972be3049c)"><path fill="#ffffff" d="M 17.726562 10.953125 C 17.457031 10.953125 17.238281 10.734375 17.238281 10.464844 C 17.238281 10.191406 17.457031 9.972656 17.726562 9.972656 C 17.996094 9.972656 18.214844 10.191406 18.214844 10.464844 C 18.214844 10.734375 17.996094 10.953125 17.726562 10.953125 Z M 26.007812 9.695312 L 9.445312 9.695312 C 8.804688 9.695312 8.289062 10.214844 8.289062 10.851562 L 8.289062 21.707031 C 8.289062 22.167969 8.664062 22.542969 9.125 22.542969 L 23.25 22.542969 C 23.386719 22 23.621094 21.496094 23.933594 21.050781 L 9.070312 21.050781 L 9.070312 11.191406 L 26.382812 11.191406 L 26.382812 19.320312 C 26.632812 19.25 26.894531 19.203125 27.160156 19.175781 L 27.160156 10.851562 C 27.160156 10.214844 26.644531 9.695312 26.007812 9.695312 " fill-opacity="1" fill-rule="nonzero"/></g><g clip-path="url(#ea1b962815)"><path fill="#ffffff" d="M 23.121094 23.617188 C 23.121094 24.40625 23.328125 25.148438 23.6875 25.792969 L 8.511719 25.792969 C 7.738281 25.792969 7.039062 25.476562 6.535156 24.972656 C 6.027344 24.464844 5.714844 23.765625 5.714844 22.996094 L 15.042969 22.996094 C 15.167969 23.539062 15.65625 23.945312 16.238281 23.945312 L 19.214844 23.945312 C 19.796875 23.945312 20.28125 23.539062 20.410156 22.996094 L 23.164062 22.996094 C 23.136719 23.199219 23.121094 23.40625 23.121094 23.617188 " fill-opacity="1" fill-rule="nonzero"/></g><path fill="#ffffff" d="M 17.296875 16.039062 C 17.398438 16.226562 17.367188 16.464844 17.207031 16.625 C 17.207031 16.625 17.203125 16.625 17.203125 16.628906 L 17.105469 16.695312 L 16.890625 16.839844 L 16.648438 17 L 16.445312 17.136719 L 16.011719 17.429688 L 15.605469 17.699219 L 15.605469 17.695312 C 15.539062 17.730469 15.464844 17.753906 15.386719 17.753906 C 15.121094 17.753906 14.902344 17.535156 14.902344 17.265625 L 14.902344 16.402344 L 14.585938 16.402344 L 14.585938 19.917969 L 13.277344 19.917969 L 13.277344 19.34375 L 12.984375 19.34375 L 12.984375 19.917969 L 11.671875 19.917969 L 11.671875 16.414062 L 11.371094 16.414062 L 11.371094 19.035156 L 11.367188 19.035156 C 11.371094 19.042969 11.371094 19.050781 11.371094 19.054688 C 11.371094 19.324219 11.152344 19.542969 10.882812 19.542969 C 10.613281 19.542969 10.398438 19.324219 10.398438 19.054688 C 10.398438 19.050781 10.398438 19.042969 10.398438 19.035156 L 10.398438 16.203125 C 10.398438 16.203125 10.339844 14.988281 11.992188 14.957031 L 12.601562 14.957031 L 12.792969 15.171875 L 12.960938 15.363281 L 12.878906 17.242188 L 13.144531 17.820312 L 13.425781 17.230469 L 13.359375 15.742188 L 13.597656 16.15625 L 13.828125 16.300781 L 13.792969 16.023438 C 13.792969 16.023438 13.433594 15.648438 13.34375 15.335938 L 13.339844 15.339844 L 13.339844 15.335938 L 13.332031 15.335938 L 13.484375 15.167969 L 13.667969 14.957031 L 14.300781 14.957031 C 14.300781 14.957031 15.765625 14.9375 15.875 16.203125 L 15.875 16.367188 L 16.011719 16.273438 L 16.445312 15.976562 L 16.507812 15.933594 C 16.511719 15.933594 16.511719 15.929688 16.511719 15.929688 C 16.550781 15.890625 16.597656 15.855469 16.648438 15.835938 C 16.722656 15.796875 16.804688 15.785156 16.886719 15.785156 C 16.960938 15.789062 17.039062 15.808594 17.105469 15.84375 C 17.125 15.855469 17.144531 15.867188 17.160156 15.878906 L 19.738281 14.132812 L 19.855469 14.304688 L 17.296875 16.039062 " fill-opacity="1" fill-rule="nonzero"/><path fill="#ffffff" d="M 24.734375 12.324219 L 16.328125 12.324219 C 16.152344 12.324219 16.011719 12.480469 16.011719 12.671875 L 16.011719 15.273438 C 16.082031 15.371094 16.144531 15.476562 16.195312 15.589844 L 16.21875 15.574219 C 16.339844 15.464844 16.488281 15.386719 16.648438 15.347656 L 16.648438 13.019531 L 24.417969 13.019531 L 24.417969 19.0625 L 16.648438 19.0625 L 16.648438 17.558594 L 16.011719 17.984375 L 16.011719 19.410156 C 16.011719 19.601562 16.152344 19.757812 16.328125 19.757812 L 24.734375 19.757812 C 24.910156 19.757812 25.054688 19.601562 25.054688 19.410156 L 25.054688 12.671875 C 25.054688 12.480469 24.910156 12.324219 24.734375 12.324219 " fill-opacity="1" fill-rule="nonzero"/><path fill="#ffffff" d="M 17.113281 15.355469 C 17.113281 15.355469 17.109375 15.351562 17.105469 15.351562 L 17.105469 13.496094 L 19.851562 13.496094 L 17.113281 15.355469 " fill-opacity="1" fill-rule="nonzero"/><path fill="#ffffff" d="M 23.960938 13.496094 L 23.960938 18.585938 L 17.105469 18.585938 L 17.105469 17.25 L 17.617188 16.90625 L 17.632812 16.832031 C 17.757812 16.660156 17.820312 16.453125 17.816406 16.246094 L 20.496094 14.425781 L 19.867188 13.496094 L 23.960938 13.496094 " fill-opacity="1" fill-rule="nonzero"/><path fill="#ffffff" d="M 13.125 14.746094 C 13.738281 14.746094 14.238281 14.246094 14.238281 13.632812 C 14.238281 13.019531 13.738281 12.519531 13.125 12.519531 C 12.511719 12.519531 12.011719 13.019531 12.011719 13.632812 C 12.011719 14.246094 12.511719 14.746094 13.125 14.746094 " fill-opacity="1" fill-rule="nonzero"/></svg>