<svg xmlns="http://www.w3.org/2000/svg" xmlns:xlink="http://www.w3.org/1999/xlink" width="50" zoomAndPan="magnify" viewBox="0 0 37.5 37.499999" height="50" preserveAspectRatio="xMidYMid meet" version="1.0"><defs><clipPath id="99d2765df0"><path d="M 1.628906 1.628906 L 35.378906 1.628906 L 35.378906 35.378906 L 1.628906 35.378906 Z M 1.628906 1.628906 " clip-rule="nonzero"/></clipPath><clipPath id="f6e161edde"><path d="M 18.503906 1.628906 C 9.183594 1.628906 1.628906 9.183594 1.628906 18.503906 C 1.628906 27.824219 9.183594 35.378906 18.503906 35.378906 C 27.824219 35.378906 35.378906 27.824219 35.378906 18.503906 C 35.378906 9.183594 27.824219 1.628906 18.503906 1.628906 Z M 18.503906 1.628906 " clip-rule="nonzero"/></clipPath><clipPath id="c371427fea"><path d="M 0.628906 0.628906 L 34.378906 0.628906 L 34.378906 34.378906 L 0.628906 34.378906 Z M 0.628906 0.628906 " clip-rule="nonzero"/></clipPath><clipPath id="3550c91922"><path d="M 17.503906 0.628906 C 8.183594 0.628906 0.628906 8.183594 0.628906 17.503906 C 0.628906 26.824219 8.183594 34.378906 17.503906 34.378906 C 26.824219 34.378906 34.378906 26.824219 34.378906 17.503906 C 34.378906 8.183594 26.824219 0.628906 17.503906 0.628906 Z M 17.503906 0.628906 " clip-rule="nonzero"/></clipPath><clipPath id="5499874d72"><rect x="0" width="35" y="0" height="35"/></clipPath><clipPath id="974290131e"><path d="M 7.328125 6.292969 L 29.53125 6.292969 L 29.53125 28.496094 L 7.328125 28.496094 Z M 7.328125 6.292969 " clip-rule="nonzero"/></clipPath></defs><g clip-path="url(#99d2765df0)"><g clip-path="url(#f6e161edde)"><g transform="matrix(1, 0, 0, 1, 1, 1)"><g clip-path="url(#5499874d72)"><g clip-path="url(#c371427fea)"><g clip-path="url(#3550c91922)"><path fill="#1c2b36" d="M 0.628906 0.628906 L 34.378906 0.628906 L 34.378906 34.378906 L 0.628906 34.378906 Z M 0.628906 0.628906 " fill-opacity="1" fill-rule="nonzero"/></g></g></g></g></g></g><g clip-path="url(#974290131e)"><path fill="#ffffff" d="M 27.648438 8.246094 L 20.703125 8.246094 C 20.5625 7.144531 19.621094 6.292969 18.480469 6.292969 C 17.339844 6.292969 16.398438 7.144531 16.253906 8.246094 L 9.351562 8.246094 C 8.234375 8.246094 7.328125 9.15625 7.328125 10.269531 L 7.328125 21.707031 C 7.328125 22.820312 8.234375 23.726562 9.351562 23.726562 L 14.742188 23.726562 L 14.742188 25.648438 L 12.570312 25.648438 C 11.589844 25.648438 10.792969 26.316406 10.792969 27.140625 L 10.792969 28.273438 C 10.792969 28.472656 10.953125 28.632812 11.152344 28.632812 L 25.84375 28.632812 C 26.042969 28.632812 26.203125 28.472656 26.203125 28.273438 L 26.203125 27.140625 C 26.203125 26.316406 25.40625 25.648438 24.425781 25.648438 L 22.257812 25.648438 L 22.257812 23.726562 L 27.648438 23.726562 C 28.761719 23.726562 29.671875 22.820312 29.671875 21.707031 L 29.671875 10.269531 C 29.671875 9.15625 28.761719 8.246094 27.648438 8.246094 Z M 18.859375 13.640625 C 19.410156 12.800781 20.65625 11.980469 22.328125 11.875 L 22.328125 15.933594 C 20.875 15.964844 19.734375 16.191406 18.859375 16.621094 Z M 18.492188 12.925781 C 18.050781 12.421875 17.324219 11.867188 16.378906 11.515625 C 16.972656 11.042969 17.710938 10.777344 18.480469 10.777344 C 19.246094 10.777344 19.988281 11.039062 20.578125 11.511719 C 19.675781 11.847656 18.960938 12.371094 18.492188 12.925781 Z M 18.136719 13.640625 L 18.136719 16.621094 C 17.265625 16.191406 16.121094 15.964844 14.671875 15.933594 L 14.671875 11.875 C 16.421875 11.996094 17.683594 12.964844 18.136719 13.640625 Z M 16.941406 10.359375 C 16.429688 10.566406 15.960938 10.875 15.566406 11.277344 C 15.175781 11.191406 14.757812 11.144531 14.308594 11.144531 C 14.113281 11.144531 13.949219 11.304688 13.949219 11.503906 L 13.949219 16.289062 C 13.949219 16.488281 14.113281 16.652344 14.308594 16.652344 C 16.128906 16.652344 17.429688 16.945312 18.292969 17.546875 C 18.355469 17.589844 18.425781 17.609375 18.5 17.609375 C 18.554688 17.609375 18.613281 17.597656 18.664062 17.570312 C 18.679688 17.5625 18.691406 17.554688 18.703125 17.546875 L 18.707031 17.546875 C 19.566406 16.945312 20.867188 16.652344 22.6875 16.652344 C 22.886719 16.652344 23.046875 16.488281 23.046875 16.289062 L 23.046875 11.503906 C 23.046875 11.304688 22.886719 11.144531 22.6875 11.144531 C 22.230469 11.144531 21.796875 11.191406 21.394531 11.277344 C 21 10.878906 20.53125 10.566406 20.019531 10.359375 L 27.558594 10.359375 L 27.558594 20.207031 L 9.4375 20.207031 L 9.4375 10.359375 Z M 18.480469 7.011719 C 19.320312 7.011719 20 7.695312 20 8.535156 C 20 9.375 19.320312 10.054688 18.480469 10.054688 C 17.640625 10.054688 16.957031 9.375 16.957031 8.535156 C 16.957031 7.695312 17.640625 7.011719 18.480469 7.011719 Z M 25.484375 27.140625 L 25.484375 27.914062 L 11.515625 27.914062 L 11.515625 27.140625 C 11.515625 26.722656 11.996094 26.367188 12.570312 26.367188 L 24.425781 26.367188 C 25 26.367188 25.484375 26.722656 25.484375 27.140625 Z M 21.535156 25.648438 L 15.460938 25.648438 L 15.460938 23.726562 L 21.535156 23.726562 Z M 28.949219 21.707031 C 28.949219 22.421875 28.367188 23.007812 27.648438 23.007812 L 9.351562 23.007812 C 8.632812 23.007812 8.046875 22.421875 8.046875 21.707031 L 8.046875 10.269531 C 8.046875 9.550781 8.632812 8.96875 9.351562 8.96875 L 16.277344 8.96875 C 16.328125 9.207031 16.410156 9.433594 16.527344 9.636719 L 9.308594 9.636719 C 8.980469 9.636719 8.71875 9.902344 8.71875 10.226562 L 8.71875 20.566406 C 8.71875 20.765625 8.878906 20.929688 9.078125 20.929688 L 27.917969 20.929688 C 28.117188 20.929688 28.28125 20.765625 28.28125 20.566406 L 28.28125 10.226562 C 28.28125 9.902344 28.015625 9.636719 27.6875 9.636719 L 20.429688 9.636719 C 20.546875 9.433594 20.632812 9.207031 20.679688 8.96875 L 27.648438 8.96875 C 28.367188 8.96875 28.949219 9.550781 28.949219 10.269531 Z M 16.273438 18.480469 C 16.273438 18.28125 16.433594 18.121094 16.632812 18.121094 L 25.394531 18.121094 C 25.59375 18.121094 25.753906 18.28125 25.753906 18.480469 C 25.753906 18.679688 25.59375 18.84375 25.394531 18.84375 L 16.632812 18.84375 C 16.433594 18.84375 16.273438 18.679688 16.273438 18.480469 Z M 11.421875 19.765625 C 11.480469 19.796875 11.539062 19.8125 11.601562 19.8125 C 11.664062 19.8125 11.726562 19.796875 11.78125 19.765625 L 13.464844 18.792969 C 13.574219 18.730469 13.644531 18.609375 13.644531 18.480469 C 13.644531 18.351562 13.574219 18.234375 13.464844 18.171875 L 11.78125 17.199219 C 11.671875 17.136719 11.535156 17.136719 11.421875 17.199219 C 11.3125 17.265625 11.242188 17.382812 11.242188 17.511719 L 11.242188 19.453125 C 11.242188 19.582031 11.3125 19.699219 11.421875 19.765625 Z M 11.964844 18.136719 L 12.5625 18.480469 L 11.964844 18.828125 Z M 13.867188 19.1875 L 13.867188 17.773438 C 13.867188 17.574219 14.027344 17.414062 14.226562 17.414062 C 14.425781 17.414062 14.585938 17.574219 14.585938 17.773438 L 14.585938 19.1875 C 14.585938 19.386719 14.425781 19.550781 14.226562 19.550781 C 14.027344 19.550781 13.867188 19.386719 13.867188 19.1875 Z M 15.214844 19.1875 L 15.214844 17.773438 C 15.214844 17.574219 15.378906 17.414062 15.578125 17.414062 C 15.777344 17.414062 15.9375 17.574219 15.9375 17.773438 L 15.9375 19.1875 C 15.9375 19.386719 15.777344 19.550781 15.578125 19.550781 C 15.378906 19.550781 15.214844 19.386719 15.214844 19.1875 Z M 15.214844 19.1875 " fill-opacity="1" fill-rule="nonzero"/></g></svg>