<svg xmlns="http://www.w3.org/2000/svg" xmlns:xlink="http://www.w3.org/1999/xlink" width="50" zoomAndPan="magnify" viewBox="0 0 37.5 37.499999" height="50" preserveAspectRatio="xMidYMid meet" version="1.0"><defs><clipPath id="6d3f955f50"><path d="M 1.628906 1.628906 L 35.378906 1.628906 L 35.378906 35.378906 L 1.628906 35.378906 Z M 1.628906 1.628906 " clip-rule="nonzero"/></clipPath><clipPath id="b27c2ee228"><path d="M 18.503906 1.628906 C 9.183594 1.628906 1.628906 9.183594 1.628906 18.503906 C 1.628906 27.824219 9.183594 35.378906 18.503906 35.378906 C 27.824219 35.378906 35.378906 27.824219 35.378906 18.503906 C 35.378906 9.183594 27.824219 1.628906 18.503906 1.628906 Z M 18.503906 1.628906 " clip-rule="nonzero"/></clipPath><clipPath id="99c6cf5a83"><path d="M 0.628906 0.628906 L 34.378906 0.628906 L 34.378906 34.378906 L 0.628906 34.378906 Z M 0.628906 0.628906 " clip-rule="nonzero"/></clipPath><clipPath id="f06da5b596"><path d="M 17.503906 0.628906 C 8.183594 0.628906 0.628906 8.183594 0.628906 17.503906 C 0.628906 26.824219 8.183594 34.378906 17.503906 34.378906 C 26.824219 34.378906 34.378906 26.824219 34.378906 17.503906 C 34.378906 8.183594 26.824219 0.628906 17.503906 0.628906 Z M 17.503906 0.628906 " clip-rule="nonzero"/></clipPath><clipPath id="8d5d4899fa"><rect x="0" width="35" y="0" height="35"/></clipPath><clipPath id="803d04f0b7"><path d="M 6.96875 9.152344 L 29.914062 9.152344 L 29.914062 27.652344 L 6.96875 27.652344 Z M 6.96875 9.152344 " clip-rule="nonzero"/></clipPath></defs><g clip-path="url(#6d3f955f50)"><g clip-path="url(#b27c2ee228)"><g transform="matrix(1, 0, 0, 1, 1, 1)"><g clip-path="url(#8d5d4899fa)"><g clip-path="url(#99c6cf5a83)"><g clip-path="url(#f06da5b596)"><path fill="#1c2b36" d="M 0.628906 0.628906 L 34.378906 0.628906 L 34.378906 34.378906 L 0.628906 34.378906 Z M 0.628906 0.628906 " fill-opacity="1" fill-rule="nonzero"/></g></g></g></g></g></g><g clip-path="url(#803d04f0b7)"><path fill="#ffffff" d="M 28.507812 9.15625 L 8.492188 9.15625 C 7.652344 9.15625 6.96875 9.839844 6.96875 10.679688 L 6.96875 26.324219 C 6.96875 27.164062 7.652344 27.84375 8.492188 27.84375 L 28.507812 27.84375 C 29.347656 27.84375 30.03125 27.164062 30.03125 26.324219 L 30.03125 10.679688 C 30.03125 9.839844 29.347656 9.15625 28.507812 9.15625 Z M 15.730469 10.929688 C 16.050781 10.929688 16.308594 11.1875 16.308594 11.507812 C 16.308594 11.828125 16.050781 12.085938 15.730469 12.085938 C 15.414062 12.085938 15.152344 11.828125 15.152344 11.507812 C 15.152344 11.1875 15.414062 10.929688 15.730469 10.929688 Z M 13.132812 10.929688 C 13.453125 10.929688 13.710938 11.1875 13.710938 11.507812 C 13.710938 11.828125 13.453125 12.085938 13.132812 12.085938 C 12.816406 12.085938 12.554688 11.828125 12.554688 11.507812 C 12.554688 11.1875 12.816406 10.929688 13.132812 10.929688 Z M 10.535156 10.929688 C 10.855469 10.929688 11.113281 11.1875 11.113281 11.507812 C 11.113281 11.828125 10.855469 12.085938 10.535156 12.085938 C 10.21875 12.085938 9.957031 11.828125 9.957031 11.507812 C 9.957031 11.1875 10.21875 10.929688 10.535156 10.929688 Z M 28.609375 26.324219 C 28.609375 26.375 28.5625 26.421875 28.507812 26.421875 L 8.492188 26.421875 C 8.4375 26.421875 8.390625 26.375 8.390625 26.324219 L 8.390625 13.753906 L 28.609375 13.753906 Z M 28.609375 26.324219 " fill-opacity="1" fill-rule="nonzero"/></g><path fill="#ffffff" d="M 12.894531 24.1875 C 14.773438 24.1875 16.300781 22.660156 16.300781 20.78125 C 16.300781 20.707031 16.238281 20.644531 16.164062 20.644531 L 13.03125 20.644531 L 13.03125 17.511719 C 13.03125 17.4375 12.96875 17.375 12.894531 17.375 C 11.015625 17.375 9.488281 18.902344 9.488281 20.78125 C 9.488281 22.660156 11.015625 24.1875 12.894531 24.1875 Z M 12.894531 24.1875 " fill-opacity="1" fill-rule="nonzero"/><path fill="#ffffff" d="M 13.796875 20.015625 L 17.066406 20.015625 C 17.140625 20.015625 17.203125 19.953125 17.203125 19.878906 C 17.203125 18 15.675781 16.472656 13.796875 16.472656 C 13.722656 16.472656 13.660156 16.535156 13.660156 16.609375 L 13.660156 19.878906 C 13.660156 19.953125 13.722656 20.015625 13.796875 20.015625 Z M 13.796875 20.015625 " fill-opacity="1" fill-rule="nonzero"/><path fill="#ffffff" d="M 22.128906 16.515625 L 23.804688 16.515625 C 23.894531 16.515625 23.941406 16.5625 23.941406 16.652344 L 23.941406 22.886719 C 23.941406 22.976562 23.894531 23.023438 23.804688 23.023438 L 22.128906 23.023438 C 22.039062 23.023438 21.992188 22.976562 21.992188 22.886719 L 21.992188 16.652344 C 21.992188 16.5625 22.039062 16.515625 22.128906 16.515625 Z M 22.128906 16.515625 " fill-opacity="1" fill-rule="nonzero"/><path fill="#ffffff" d="M 24.867188 17.625 L 26.542969 17.625 C 26.632812 17.625 26.679688 17.671875 26.679688 17.761719 L 26.679688 22.886719 C 26.679688 22.976562 26.632812 23.023438 26.542969 23.023438 L 24.867188 23.023438 C 24.777344 23.023438 24.730469 22.976562 24.730469 22.886719 L 24.730469 17.761719 C 24.730469 17.671875 24.777344 17.625 24.867188 17.625 Z M 24.867188 17.625 " fill-opacity="1" fill-rule="nonzero"/><path fill="#ffffff" d="M 19.359375 19.597656 L 21.097656 19.597656 C 21.191406 19.597656 21.234375 19.644531 21.234375 19.734375 L 21.234375 22.886719 C 21.234375 22.976562 21.191406 23.023438 21.097656 23.023438 L 19.359375 23.023438 C 19.269531 23.023438 19.222656 22.976562 19.222656 22.886719 L 19.222656 19.734375 C 19.222656 19.644531 19.269531 19.597656 19.359375 19.597656 Z M 19.359375 19.597656 " fill-opacity="1" fill-rule="nonzero"/><path fill="#ffffff" d="M 18.480469 23.246094 L 27.417969 23.246094 C 27.507812 23.246094 27.554688 23.289062 27.554688 23.382812 L 27.554688 24.140625 C 27.554688 24.234375 27.507812 24.277344 27.417969 24.277344 L 18.480469 24.277344 C 18.390625 24.277344 18.34375 24.234375 18.34375 24.140625 L 18.34375 23.382812 C 18.34375 23.289062 18.390625 23.246094 18.480469 23.246094 Z M 18.480469 23.246094 " fill-opacity="1" fill-rule="nonzero"/></svg>