<svg xmlns="http://www.w3.org/2000/svg" xmlns:xlink="http://www.w3.org/1999/xlink" width="50" zoomAndPan="magnify" viewBox="0 0 37.5 37.499999" height="50" preserveAspectRatio="xMidYMid meet" version="1.0"><defs><clipPath id="b63d952918"><path d="M 1.628906 1.628906 L 35.378906 1.628906 L 35.378906 35.378906 L 1.628906 35.378906 Z M 1.628906 1.628906 " clip-rule="nonzero"/></clipPath><clipPath id="5a306850a4"><path d="M 18.503906 1.628906 C 9.183594 1.628906 1.628906 9.183594 1.628906 18.503906 C 1.628906 27.824219 9.183594 35.378906 18.503906 35.378906 C 27.824219 35.378906 35.378906 27.824219 35.378906 18.503906 C 35.378906 9.183594 27.824219 1.628906 18.503906 1.628906 Z M 18.503906 1.628906 " clip-rule="nonzero"/></clipPath><clipPath id="7240e0e1bc"><path d="M 0.628906 0.628906 L 34.378906 0.628906 L 34.378906 34.378906 L 0.628906 34.378906 Z M 0.628906 0.628906 " clip-rule="nonzero"/></clipPath><clipPath id="6fd2bf5297"><path d="M 17.503906 0.628906 C 8.183594 0.628906 0.628906 8.183594 0.628906 17.503906 C 0.628906 26.824219 8.183594 34.378906 17.503906 34.378906 C 26.824219 34.378906 34.378906 26.824219 34.378906 17.503906 C 34.378906 8.183594 26.824219 0.628906 17.503906 0.628906 Z M 17.503906 0.628906 " clip-rule="nonzero"/></clipPath><clipPath id="54fc11c8c4"><rect x="0" width="35" y="0" height="35"/></clipPath><clipPath id="42e878cb0d"><path d="M 7.179688 8 L 30 8 L 30 24 L 7.179688 24 Z M 7.179688 8 " clip-rule="nonzero"/></clipPath><clipPath id="66f360ac0b"><path d="M 7.179688 20 L 30 20 L 30 21 L 7.179688 21 Z M 7.179688 20 " clip-rule="nonzero"/></clipPath></defs><g clip-path="url(#b63d952918)"><g clip-path="url(#5a306850a4)"><g transform="matrix(1, 0, 0, 1, 1, 1)"><g clip-path="url(#54fc11c8c4)"><g clip-path="url(#7240e0e1bc)"><g clip-path="url(#6fd2bf5297)"><path fill="#1c2b36" d="M 0.628906 0.628906 L 34.378906 0.628906 L 34.378906 34.378906 L 0.628906 34.378906 Z M 0.628906 0.628906 " fill-opacity="1" fill-rule="nonzero"/></g></g></g></g></g></g><path fill="#ffffff" d="M 21.414062 27.433594 L 15.574219 27.433594 C 15.429688 27.433594 15.3125 27.316406 15.3125 27.167969 L 15.3125 27.011719 C 13.890625 27.144531 13.253906 27.34375 13.027344 27.460938 C 13.507812 27.726562 15.523438 28.046875 18.496094 28.046875 C 21.464844 28.046875 23.480469 27.714844 23.960938 27.460938 C 23.746094 27.34375 23.097656 27.144531 21.679688 27.011719 L 21.679688 27.167969 C 21.679688 27.316406 21.558594 27.433594 21.414062 27.433594 Z M 15.3125 26.480469 L 15.3125 24.421875 C 15.3125 24.277344 15.429688 24.160156 15.574219 24.160156 L 21.414062 24.160156 C 21.558594 24.160156 21.679688 24.277344 21.679688 24.421875 L 21.679688 26.480469 C 24.570312 26.746094 24.570312 27.25 24.570312 27.460938 C 24.570312 27.753906 24.332031 28.070312 22.644531 28.324219 C 21.53125 28.484375 20.058594 28.574219 18.496094 28.574219 C 16.941406 28.574219 15.46875 28.484375 14.355469 28.324219 C 12.65625 28.070312 12.433594 27.753906 12.433594 27.460938 C 12.433594 27.25 12.433594 26.746094 15.3125 26.480469 Z M 21.148438 26.730469 C 21.148438 26.71875 21.148438 26.71875 21.148438 26.707031 L 21.148438 24.6875 L 20.007812 24.6875 L 20.007812 25.710938 C 20.007812 25.855469 19.886719 25.976562 19.742188 25.976562 L 17.261719 25.976562 C 17.113281 25.976562 16.996094 25.855469 16.996094 25.710938 L 16.996094 24.6875 L 15.839844 24.6875 L 15.839844 26.90625 L 21.148438 26.90625 Z M 17.527344 25.445312 L 19.476562 25.445312 L 19.476562 24.6875 L 17.527344 24.6875 Z M 17.527344 25.445312 " fill-opacity="1" fill-rule="evenodd"/><path fill="#ffffff" d="M 23.734375 24.6875 L 13.269531 24.6875 C 13.121094 24.6875 13.003906 24.570312 13.003906 24.421875 L 13.003906 23.363281 C 13.003906 23.214844 13.121094 23.097656 13.269531 23.097656 L 23.734375 23.097656 C 23.878906 23.097656 24 23.214844 24 23.363281 L 24 24.421875 C 24 24.570312 23.878906 24.6875 23.734375 24.6875 Z M 13.535156 24.160156 L 23.46875 24.160156 L 23.46875 23.628906 L 13.535156 23.628906 Z M 13.535156 24.160156 " fill-opacity="1" fill-rule="evenodd"/><g clip-path="url(#42e878cb0d)"><path fill="#ffffff" d="M 28.523438 23.628906 L 8.480469 23.628906 C 7.761719 23.628906 7.179688 23.042969 7.179688 22.328125 L 7.179688 9.714844 C 7.179688 8.996094 7.761719 8.425781 8.480469 8.425781 L 28.523438 8.425781 C 29.238281 8.425781 29.824219 8.996094 29.824219 9.714844 L 29.824219 22.328125 C 29.824219 23.042969 29.238281 23.628906 28.523438 23.628906 Z M 8.480469 8.957031 C 8.054688 8.957031 7.710938 9.289062 7.710938 9.714844 L 7.710938 22.328125 C 7.710938 22.753906 8.054688 23.097656 8.480469 23.097656 L 28.523438 23.097656 C 28.945312 23.097656 29.292969 22.753906 29.292969 22.328125 L 29.292969 9.714844 C 29.292969 9.289062 28.945312 8.957031 28.523438 8.957031 Z M 8.480469 8.957031 " fill-opacity="1" fill-rule="evenodd"/></g><path fill="#ffffff" d="M 28.441406 20.644531 L 8.546875 20.644531 C 8.398438 20.644531 8.28125 20.523438 8.28125 20.378906 L 8.28125 9.792969 C 8.28125 9.648438 8.398438 9.527344 8.546875 9.527344 L 28.441406 9.527344 C 28.589844 9.527344 28.707031 9.648438 28.707031 9.792969 L 28.707031 20.378906 C 28.707031 20.523438 28.589844 20.644531 28.441406 20.644531 Z M 8.8125 20.113281 L 28.179688 20.113281 L 28.179688 10.058594 L 8.8125 10.058594 Z M 8.8125 20.113281 " fill-opacity="1" fill-rule="evenodd"/><g clip-path="url(#66f360ac0b)"><path fill="#ffffff" d="M 29.558594 20.644531 L 7.445312 20.644531 C 7.296875 20.644531 7.179688 20.523438 7.179688 20.378906 C 7.179688 20.230469 7.296875 20.113281 7.445312 20.113281 L 29.558594 20.113281 C 29.703125 20.113281 29.824219 20.230469 29.824219 20.378906 C 29.824219 20.523438 29.703125 20.644531 29.558594 20.644531 Z M 29.558594 20.644531 " fill-opacity="1" fill-rule="evenodd"/></g><path fill="#ffffff" d="M 21.851562 22.660156 L 15.136719 22.660156 C 14.992188 22.660156 14.871094 22.539062 14.871094 22.394531 L 14.871094 21.347656 C 14.871094 21.199219 14.992188 21.082031 15.136719 21.082031 L 21.851562 21.082031 C 21.996094 21.082031 22.117188 21.199219 22.117188 21.347656 L 22.117188 22.394531 C 22.117188 22.539062 21.996094 22.660156 21.851562 22.660156 Z M 27.871094 22.140625 L 27.117188 22.140625 C 26.96875 22.140625 26.851562 22.023438 26.851562 21.875 C 26.851562 21.730469 26.96875 21.613281 27.117188 21.613281 L 27.871094 21.613281 C 28.019531 21.613281 28.136719 21.730469 28.136719 21.875 C 28.136719 22.023438 28.019531 22.140625 27.871094 22.140625 Z M 26.160156 22.140625 L 25.417969 22.140625 C 25.273438 22.140625 25.152344 22.023438 25.152344 21.875 C 25.152344 21.730469 25.273438 21.613281 25.417969 21.613281 L 26.160156 21.613281 C 26.320312 21.613281 26.425781 21.730469 26.425781 21.875 C 26.425781 22.023438 26.320312 22.140625 26.160156 22.140625 Z M 24.464844 22.140625 L 23.707031 22.140625 C 23.5625 22.140625 23.441406 22.023438 23.441406 21.875 C 23.441406 21.730469 23.5625 21.613281 23.707031 21.613281 L 24.464844 21.613281 C 24.609375 21.613281 24.730469 21.730469 24.730469 21.875 C 24.730469 22.023438 24.609375 22.140625 24.464844 22.140625 Z M 15.402344 22.128906 L 21.585938 22.128906 L 21.585938 21.613281 L 15.402344 21.613281 Z M 15.402344 22.128906 " fill-opacity="1" fill-rule="evenodd"/><path fill="#ffffff" d="M 12.207031 16.597656 C 10.5625 16.597656 9.222656 15.257812 9.222656 13.597656 C 9.222656 11.953125 10.5625 10.613281 12.207031 10.613281 C 13.851562 10.613281 15.191406 11.953125 15.191406 13.597656 C 15.191406 15.257812 13.851562 16.597656 12.207031 16.597656 Z M 12.207031 11.144531 C 10.855469 11.144531 9.753906 12.246094 9.753906 13.597656 C 9.753906 14.964844 10.855469 16.066406 12.207031 16.066406 C 13.558594 16.066406 14.660156 14.964844 14.660156 13.597656 C 14.660156 12.246094 13.558594 11.144531 12.207031 11.144531 Z M 12.207031 11.144531 " fill-opacity="1" fill-rule="evenodd"/><path fill="#ffffff" d="M 14.289062 15.628906 C 14.210938 15.628906 14.128906 15.601562 14.078125 15.535156 C 13.730469 15.125 13.242188 14.832031 12.710938 14.726562 C 12.390625 14.847656 12.019531 14.847656 11.714844 14.726562 C 11.171875 14.832031 10.695312 15.125 10.335938 15.535156 C 10.242188 15.65625 10.070312 15.667969 9.964844 15.5625 C 9.84375 15.46875 9.832031 15.3125 9.925781 15.191406 C 10.375 14.660156 11.011719 14.300781 11.6875 14.183594 C 11.742188 14.171875 11.796875 14.183594 11.847656 14.210938 C 12.074219 14.300781 12.339844 14.300781 12.566406 14.210938 C 12.617188 14.183594 12.671875 14.171875 12.722656 14.183594 C 13.414062 14.300781 14.039062 14.660156 14.488281 15.191406 C 14.582031 15.3125 14.566406 15.46875 14.460938 15.5625 C 14.410156 15.617188 14.34375 15.628906 14.289062 15.628906 Z M 14.289062 15.628906 " fill-opacity="1" fill-rule="evenodd"/><path fill="#ffffff" d="M 18.90625 18.640625 C 18.8125 18.640625 18.71875 18.585938 18.667969 18.496094 L 18.203125 17.566406 L 18.203125 18.375 C 18.203125 18.519531 18.082031 18.640625 17.9375 18.640625 C 17.792969 18.640625 17.671875 18.519531 17.671875 18.375 L 17.671875 16.4375 C 17.671875 16.320312 17.765625 16.210938 17.882812 16.1875 C 18.003906 16.160156 18.121094 16.210938 18.175781 16.320312 L 18.640625 17.261719 L 18.640625 16.4375 C 18.640625 16.292969 18.757812 16.171875 18.90625 16.171875 C 19.050781 16.171875 19.171875 16.292969 19.171875 16.4375 L 19.171875 18.375 C 19.171875 18.507812 19.089844 18.613281 18.972656 18.640625 C 18.945312 18.640625 18.933594 18.640625 18.90625 18.640625 Z M 18.90625 18.640625 " fill-opacity="1" fill-rule="evenodd"/><path fill="#ffffff" d="M 16.199219 18.640625 C 16.054688 18.640625 15.933594 18.519531 15.933594 18.375 L 15.933594 16.4375 C 15.933594 16.292969 16.054688 16.171875 16.199219 16.171875 C 16.34375 16.171875 16.464844 16.292969 16.464844 16.4375 L 16.464844 18.375 C 16.464844 18.519531 16.34375 18.640625 16.199219 18.640625 Z M 16.199219 18.640625 " fill-opacity="1" fill-rule="evenodd"/><path fill="#ffffff" d="M 17.089844 16.703125 L 16.199219 16.703125 C 16.054688 16.703125 15.933594 16.585938 15.933594 16.4375 C 15.933594 16.292969 16.054688 16.171875 16.199219 16.171875 L 17.089844 16.171875 C 17.234375 16.171875 17.355469 16.292969 17.355469 16.4375 C 17.355469 16.585938 17.234375 16.703125 17.089844 16.703125 Z M 17.089844 16.703125 " fill-opacity="1" fill-rule="evenodd"/><path fill="#ffffff" d="M 17.089844 17.671875 L 16.199219 17.671875 C 16.054688 17.671875 15.933594 17.550781 15.933594 17.40625 C 15.933594 17.261719 16.054688 17.140625 16.199219 17.140625 L 17.089844 17.140625 C 17.234375 17.140625 17.355469 17.261719 17.355469 17.40625 C 17.355469 17.550781 17.234375 17.671875 17.089844 17.671875 Z M 17.089844 17.671875 " fill-opacity="1" fill-rule="evenodd"/><path fill="#ffffff" d="M 17.300781 18.640625 L 16.410156 18.640625 C 16.265625 18.640625 16.144531 18.519531 16.144531 18.375 C 16.144531 18.230469 16.265625 18.109375 16.410156 18.109375 L 17.300781 18.109375 C 17.445312 18.109375 17.566406 18.230469 17.566406 18.375 C 17.566406 18.519531 17.445312 18.640625 17.300781 18.640625 Z M 17.300781 18.640625 " fill-opacity="1" fill-rule="evenodd"/><path fill="#ffffff" d="M 20.390625 17.765625 L 19.875 17.765625 C 19.726562 17.765625 19.609375 17.644531 19.609375 17.5 L 19.609375 16.4375 C 19.609375 16.292969 19.726562 16.171875 19.875 16.171875 L 20.390625 16.171875 C 20.828125 16.171875 21.175781 16.53125 21.175781 16.957031 L 21.175781 16.980469 C 21.175781 17.417969 20.828125 17.765625 20.390625 17.765625 Z M 20.140625 17.234375 L 20.390625 17.234375 C 20.539062 17.234375 20.644531 17.113281 20.644531 16.980469 L 20.644531 16.957031 C 20.644531 16.824219 20.539062 16.703125 20.390625 16.703125 L 20.140625 16.703125 Z M 20.140625 17.234375 " fill-opacity="1" fill-rule="evenodd"/><path fill="#ffffff" d="M 19.875 18.640625 C 19.726562 18.640625 19.609375 18.519531 19.609375 18.375 L 19.609375 16.4375 C 19.609375 16.292969 19.726562 16.171875 19.875 16.171875 C 20.019531 16.171875 20.140625 16.292969 20.140625 16.4375 L 20.140625 18.375 C 20.140625 18.519531 20.019531 18.640625 19.875 18.640625 Z M 19.875 18.640625 " fill-opacity="1" fill-rule="evenodd"/><path fill="#ffffff" d="M 20.976562 18.640625 C 20.894531 18.640625 20.816406 18.613281 20.761719 18.546875 L 20.074219 17.660156 C 19.992188 17.550781 20.007812 17.378906 20.125 17.289062 C 20.246094 17.207031 20.40625 17.222656 20.496094 17.339844 L 21.1875 18.214844 C 21.265625 18.335938 21.253906 18.496094 21.132812 18.585938 C 21.09375 18.628906 21.027344 18.640625 20.976562 18.640625 Z M 20.976562 18.640625 " fill-opacity="1" fill-rule="evenodd"/><path fill="#ffffff" d="M 22.511719 18.640625 L 22.25 18.640625 C 21.875 18.640625 21.570312 18.335938 21.570312 17.964844 L 21.570312 16.863281 C 21.570312 16.476562 21.875 16.171875 22.25 16.171875 L 22.511719 16.171875 C 22.898438 16.171875 23.203125 16.476562 23.203125 16.863281 L 23.203125 17.964844 C 23.203125 18.335938 22.898438 18.640625 22.511719 18.640625 Z M 22.25 16.703125 C 22.167969 16.703125 22.101562 16.78125 22.101562 16.863281 L 22.101562 17.964844 C 22.101562 18.042969 22.167969 18.109375 22.25 18.109375 L 22.511719 18.109375 C 22.605469 18.109375 22.671875 18.042969 22.671875 17.964844 L 22.671875 16.863281 C 22.671875 16.78125 22.605469 16.703125 22.511719 16.703125 Z M 22.25 16.703125 " fill-opacity="1" fill-rule="evenodd"/><path fill="#ffffff" d="M 24.808594 18.640625 L 23.800781 18.640625 C 23.65625 18.640625 23.535156 18.519531 23.535156 18.375 L 23.535156 16.4375 C 23.535156 16.292969 23.65625 16.171875 23.800781 16.171875 C 23.945312 16.171875 24.066406 16.292969 24.066406 16.4375 L 24.066406 18.109375 L 24.808594 18.109375 C 24.953125 18.109375 25.074219 18.230469 25.074219 18.375 C 25.074219 18.519531 24.953125 18.640625 24.808594 18.640625 Z M 24.808594 18.640625 " fill-opacity="1" fill-rule="evenodd"/><path fill="#ffffff" d="M 26.652344 18.640625 L 25.632812 18.640625 C 25.484375 18.640625 25.367188 18.519531 25.367188 18.375 L 25.367188 16.4375 C 25.367188 16.292969 25.484375 16.171875 25.632812 16.171875 C 25.777344 16.171875 25.894531 16.292969 25.894531 16.4375 L 25.894531 18.109375 L 26.652344 18.109375 C 26.796875 18.109375 26.917969 18.230469 26.917969 18.375 C 26.917969 18.519531 26.796875 18.640625 26.652344 18.640625 Z M 26.652344 18.640625 " fill-opacity="1" fill-rule="evenodd"/><path fill="#ffffff" d="M 27.183594 12.207031 L 20.472656 12.207031 C 20.324219 12.207031 20.207031 12.085938 20.207031 11.941406 L 20.207031 10.894531 C 20.207031 10.746094 20.324219 10.628906 20.472656 10.628906 L 27.183594 10.628906 C 27.328125 10.628906 27.449219 10.746094 27.449219 10.894531 L 27.449219 11.941406 C 27.449219 12.085938 27.328125 12.207031 27.183594 12.207031 Z M 17.195312 14.5 L 16.027344 14.5 C 15.882812 14.5 15.761719 14.382812 15.761719 14.234375 L 15.761719 10.894531 C 15.761719 10.746094 15.882812 10.628906 16.027344 10.628906 L 17.195312 10.628906 C 17.339844 10.628906 17.460938 10.746094 17.460938 10.894531 L 17.460938 14.234375 C 17.460938 14.382812 17.339844 14.5 17.195312 14.5 Z M 16.292969 13.972656 L 16.929688 13.972656 L 16.929688 11.160156 L 16.292969 11.160156 Z M 19.410156 14.5 L 18.230469 14.5 C 18.082031 14.5 17.964844 14.382812 17.964844 14.234375 L 17.964844 10.894531 C 17.964844 10.746094 18.082031 10.628906 18.230469 10.628906 L 19.410156 10.628906 C 19.554688 10.628906 19.675781 10.746094 19.675781 10.894531 L 19.675781 14.234375 C 19.675781 14.382812 19.554688 14.5 19.410156 14.5 Z M 18.496094 13.972656 L 19.144531 13.972656 L 19.144531 11.160156 L 18.496094 11.160156 Z M 27.183594 14.59375 L 20.472656 14.59375 C 20.324219 14.59375 20.207031 14.476562 20.207031 14.328125 L 20.207031 13.28125 C 20.207031 13.136719 20.324219 13.015625 20.472656 13.015625 L 27.183594 13.015625 C 27.328125 13.015625 27.449219 13.136719 27.449219 13.28125 L 27.449219 14.328125 C 27.449219 14.476562 27.328125 14.59375 27.183594 14.59375 Z M 20.734375 14.0625 L 26.917969 14.0625 L 26.917969 13.546875 L 20.734375 13.546875 Z M 20.734375 11.675781 L 26.917969 11.675781 L 26.917969 11.160156 L 20.734375 11.160156 Z M 20.734375 11.675781 " fill-opacity="1" fill-rule="evenodd"/><path fill="#ffffff" d="M 11.25 17.976562 L 9.5 17.976562 C 9.355469 17.976562 9.234375 17.859375 9.234375 17.710938 C 9.234375 17.566406 9.355469 17.445312 9.5 17.445312 L 11.25 17.445312 C 11.398438 17.445312 11.515625 17.566406 11.515625 17.710938 C 11.515625 17.859375 11.398438 17.976562 11.25 17.976562 Z M 11.25 17.976562 " fill-opacity="1" fill-rule="evenodd"/><path fill="#ffffff" d="M 13.972656 17.976562 L 12.21875 17.976562 C 12.074219 17.976562 11.953125 17.859375 11.953125 17.710938 C 11.953125 17.566406 12.074219 17.445312 12.21875 17.445312 L 13.972656 17.445312 C 14.117188 17.445312 14.234375 17.566406 14.234375 17.710938 C 14.234375 17.859375 14.117188 17.976562 13.972656 17.976562 Z M 13.972656 17.976562 " fill-opacity="1" fill-rule="evenodd"/><path fill="#ffffff" d="M 11.25 19.410156 L 9.5 19.410156 C 9.355469 19.410156 9.234375 19.289062 9.234375 19.144531 C 9.234375 19 9.355469 18.878906 9.5 18.878906 L 11.25 18.878906 C 11.398438 18.878906 11.515625 19 11.515625 19.144531 C 11.515625 19.289062 11.398438 19.410156 11.25 19.410156 Z M 11.25 19.410156 " fill-opacity="1" fill-rule="evenodd"/><path fill="#ffffff" d="M 13.972656 19.410156 L 12.21875 19.410156 C 12.074219 19.410156 11.953125 19.289062 11.953125 19.144531 C 11.953125 19 12.074219 18.878906 12.21875 18.878906 L 13.972656 18.878906 C 14.117188 18.878906 14.234375 19 14.234375 19.144531 C 14.234375 19.289062 14.117188 19.410156 13.972656 19.410156 Z M 13.972656 19.410156 " fill-opacity="1" fill-rule="evenodd"/><path fill="#ffffff" d="M 27.117188 19.554688 L 15.734375 19.554688 C 15.363281 19.554688 15.070312 19.265625 15.070312 18.890625 L 15.070312 15.921875 C 15.070312 15.5625 15.363281 15.257812 15.734375 15.257812 L 27.117188 15.257812 C 27.476562 15.257812 27.78125 15.5625 27.78125 15.921875 L 27.78125 18.890625 C 27.78125 19.265625 27.476562 19.554688 27.117188 19.554688 Z M 15.734375 15.789062 C 15.65625 15.789062 15.601562 15.855469 15.601562 15.921875 L 15.601562 18.890625 C 15.601562 18.972656 15.65625 19.023438 15.734375 19.023438 L 27.117188 19.023438 C 27.183594 19.023438 27.25 18.972656 27.25 18.890625 L 27.25 15.921875 C 27.25 15.855469 27.183594 15.789062 27.117188 15.789062 Z M 15.734375 15.789062 " fill-opacity="1" fill-rule="evenodd"/><path fill="#ffffff" d="M 12.207031 13.945312 C 11.515625 13.945312 10.960938 13.386719 10.960938 12.699219 C 10.960938 12.007812 11.515625 11.4375 12.207031 11.4375 C 12.898438 11.4375 13.453125 12.007812 13.453125 12.699219 C 13.453125 13.386719 12.898438 13.945312 12.207031 13.945312 Z M 12.207031 11.96875 C 11.808594 11.96875 11.492188 12.300781 11.492188 12.699219 C 11.492188 13.09375 11.808594 13.414062 12.207031 13.414062 C 12.605469 13.414062 12.921875 13.09375 12.921875 12.699219 C 12.921875 12.300781 12.605469 11.96875 12.207031 11.96875 Z M 12.207031 11.96875 " fill-opacity="1" fill-rule="evenodd"/></svg>