<svg xmlns="http://www.w3.org/2000/svg" xmlns:xlink="http://www.w3.org/1999/xlink" width="50" zoomAndPan="magnify" viewBox="0 0 37.5 37.499999" height="50" preserveAspectRatio="xMidYMid meet" version="1.0"><defs><clipPath id="d6f47ad570"><path d="M 1.628906 1.628906 L 35.378906 1.628906 L 35.378906 35.378906 L 1.628906 35.378906 Z M 1.628906 1.628906 " clip-rule="nonzero"/></clipPath><clipPath id="646954fc56"><path d="M 18.503906 1.628906 C 9.183594 1.628906 1.628906 9.183594 1.628906 18.503906 C 1.628906 27.824219 9.183594 35.378906 18.503906 35.378906 C 27.824219 35.378906 35.378906 27.824219 35.378906 18.503906 C 35.378906 9.183594 27.824219 1.628906 18.503906 1.628906 Z M 18.503906 1.628906 " clip-rule="nonzero"/></clipPath><clipPath id="419283824a"><path d="M 0.628906 0.628906 L 34.378906 0.628906 L 34.378906 34.378906 L 0.628906 34.378906 Z M 0.628906 0.628906 " clip-rule="nonzero"/></clipPath><clipPath id="30a6815fdd"><path d="M 17.503906 0.628906 C 8.183594 0.628906 0.628906 8.183594 0.628906 17.503906 C 0.628906 26.824219 8.183594 34.378906 17.503906 34.378906 C 26.824219 34.378906 34.378906 26.824219 34.378906 17.503906 C 34.378906 8.183594 26.824219 0.628906 17.503906 0.628906 Z M 17.503906 0.628906 " clip-rule="nonzero"/></clipPath><clipPath id="58a1a3ff44"><rect x="0" width="35" y="0" height="35"/></clipPath><clipPath id="e5add2e2a1"><path d="M 14 24 L 23 24 L 23 29.753906 L 14 29.753906 Z M 14 24 " clip-rule="nonzero"/></clipPath><clipPath id="2edf0603a4"><path d="M 17 7.550781 L 20 7.550781 L 20 11 L 17 11 Z M 17 7.550781 " clip-rule="nonzero"/></clipPath><clipPath id="7f335147e2"><path d="M 11 7.550781 L 15 7.550781 L 15 11 L 11 11 Z M 11 7.550781 " clip-rule="nonzero"/></clipPath><clipPath id="bfaa585426"><path d="M 22 7.550781 L 26 7.550781 L 26 11 L 22 11 Z M 22 7.550781 " clip-rule="nonzero"/></clipPath><clipPath id="2821a76381"><path d="M 7.550781 11 L 29.753906 11 L 29.753906 23 L 7.550781 23 Z M 7.550781 11 " clip-rule="nonzero"/></clipPath></defs><g clip-path="url(#d6f47ad570)"><g clip-path="url(#646954fc56)"><g transform="matrix(1, 0, 0, 1, 1, 1)"><g clip-path="url(#58a1a3ff44)"><g clip-path="url(#419283824a)"><g clip-path="url(#30a6815fdd)"><path fill="#1c2b36" d="M 0.628906 0.628906 L 34.378906 0.628906 L 34.378906 34.378906 L 0.628906 34.378906 Z M 0.628906 0.628906 " fill-opacity="1" fill-rule="nonzero"/></g></g></g></g></g></g><g clip-path="url(#e5add2e2a1)"><path fill="#ffffff" d="M 22.992188 28.507812 C 22.992188 28.964844 22.617188 29.339844 22.15625 29.339844 L 14.847656 29.339844 C 14.386719 29.339844 14.011719 28.964844 14.011719 28.507812 L 14.011719 24.976562 C 14.011719 24.511719 14.386719 24.140625 14.847656 24.140625 L 22.15625 24.140625 C 22.617188 24.140625 22.992188 24.511719 22.992188 24.976562 Z M 22.992188 28.507812 " fill-opacity="1" fill-rule="nonzero"/></g><path fill="#ffffff" d="M 20.320312 18.945312 C 20.339844 18.816406 20.351562 18.691406 20.351562 18.574219 C 20.351562 17.496094 19.519531 16.621094 18.5 16.621094 C 17.484375 16.621094 16.652344 17.496094 16.652344 18.574219 C 16.652344 18.691406 16.664062 18.816406 16.683594 18.945312 C 16.5625 19.089844 16.535156 19.335938 16.628906 19.574219 C 16.710938 19.777344 16.863281 19.917969 17.015625 19.960938 C 17.34375 20.605469 17.871094 21.136719 18.5 21.136719 C 19.132812 21.136719 19.660156 20.605469 19.984375 19.960938 C 20.140625 19.917969 20.289062 19.777344 20.371094 19.574219 C 20.464844 19.335938 20.4375 19.089844 20.320312 18.945312 Z M 20.320312 18.945312 " fill-opacity="1" fill-rule="nonzero"/><g clip-path="url(#2edf0603a4)"><path fill="#ffffff" d="M 17.207031 9.730469 C 17.261719 9.871094 17.367188 9.96875 17.472656 9.996094 C 17.699219 10.441406 18.0625 10.808594 18.5 10.808594 C 18.9375 10.808594 19.300781 10.441406 19.527344 9.996094 C 19.636719 9.96875 19.738281 9.871094 19.796875 9.730469 C 19.859375 9.566406 19.839844 9.394531 19.757812 9.292969 C 19.773438 9.207031 19.78125 9.121094 19.78125 9.039062 C 19.78125 8.292969 19.207031 7.6875 18.5 7.6875 C 17.796875 7.6875 17.222656 8.292969 17.222656 9.039062 C 17.222656 9.121094 17.230469 9.207031 17.242188 9.292969 C 17.160156 9.394531 17.144531 9.566406 17.207031 9.730469 Z M 17.207031 9.730469 " fill-opacity="1" fill-rule="nonzero"/></g><g clip-path="url(#7f335147e2)"><path fill="#ffffff" d="M 11.386719 9.730469 C 11.441406 9.871094 11.542969 9.96875 11.652344 9.996094 C 11.875 10.441406 12.242188 10.808594 12.679688 10.808594 C 13.113281 10.808594 13.480469 10.441406 13.707031 9.996094 C 13.8125 9.96875 13.917969 9.871094 13.972656 9.730469 C 14.039062 9.566406 14.019531 9.394531 13.9375 9.292969 C 13.949219 9.207031 13.957031 9.121094 13.957031 9.039062 C 13.957031 8.292969 13.382812 7.6875 12.679688 7.6875 C 11.972656 7.6875 11.398438 8.292969 11.398438 9.039062 C 11.398438 9.121094 11.40625 9.207031 11.421875 9.292969 C 11.339844 9.394531 11.320312 9.566406 11.386719 9.730469 Z M 11.386719 9.730469 " fill-opacity="1" fill-rule="nonzero"/></g><g clip-path="url(#bfaa585426)"><path fill="#ffffff" d="M 23.03125 9.730469 C 23.085938 9.871094 23.1875 9.96875 23.296875 9.996094 C 23.523438 10.441406 23.886719 10.808594 24.324219 10.808594 C 24.761719 10.808594 25.125 10.441406 25.351562 9.996094 C 25.457031 9.96875 25.5625 9.871094 25.617188 9.730469 C 25.683594 9.566406 25.664062 9.394531 25.582031 9.292969 C 25.597656 9.207031 25.601562 9.121094 25.601562 9.039062 C 25.601562 8.292969 25.027344 7.6875 24.324219 7.6875 C 23.617188 7.6875 23.046875 8.292969 23.046875 9.039062 C 23.046875 9.121094 23.054688 9.207031 23.066406 9.292969 C 22.984375 9.394531 22.964844 9.566406 23.03125 9.730469 Z M 23.03125 9.730469 " fill-opacity="1" fill-rule="nonzero"/></g><g clip-path="url(#2821a76381)"><path fill="#ffffff" d="M 28.273438 14.371094 L 26.894531 14.371094 C 26.863281 12.769531 26.621094 11.894531 26.621094 11.894531 C 26.539062 11.394531 25.125 11.007812 25.125 11.007812 L 24.652344 12.453125 C 24.601562 12.023438 24.554688 11.648438 24.550781 11.589844 C 24.851562 11.519531 24.847656 11.292969 24.8125 11.179688 C 24.765625 11.039062 24.53125 11 24.324219 11.007812 C 24.117188 11 23.882812 11.039062 23.835938 11.179688 C 23.800781 11.292969 23.792969 11.515625 24.097656 11.589844 C 24.089844 11.648438 24.046875 12.019531 23.996094 12.453125 L 23.523438 11.007812 C 23.523438 11.007812 22.109375 11.394531 22.027344 11.894531 C 22.027344 11.894531 21.785156 12.769531 21.753906 14.371094 L 21.074219 14.371094 C 21.039062 12.769531 20.800781 11.894531 20.800781 11.894531 C 20.71875 11.394531 19.300781 11.007812 19.300781 11.007812 L 18.832031 12.453125 C 18.78125 12.023438 18.734375 11.648438 18.726562 11.589844 C 19.03125 11.519531 19.023438 11.292969 18.988281 11.179688 C 18.941406 11.039062 18.707031 11 18.5 11.007812 C 18.296875 11 18.058594 11.039062 18.015625 11.179688 C 17.976562 11.292969 17.972656 11.515625 18.273438 11.589844 C 18.269531 11.648438 18.222656 12.019531 18.171875 12.453125 L 17.699219 11.007812 C 17.699219 11.007812 16.285156 11.394531 16.203125 11.894531 C 16.203125 11.894531 15.960938 12.769531 15.929688 14.371094 L 15.25 14.371094 C 15.21875 12.769531 14.976562 11.894531 14.976562 11.894531 C 14.894531 11.394531 13.480469 11.007812 13.480469 11.007812 L 13.007812 12.453125 C 12.957031 12.023438 12.910156 11.648438 12.90625 11.589844 C 13.207031 11.519531 13.203125 11.292969 13.167969 11.179688 C 13.121094 11.039062 12.886719 11 12.679688 11.007812 C 12.472656 11 12.238281 11.039062 12.191406 11.179688 C 12.15625 11.296875 12.148438 11.519531 12.453125 11.589844 C 12.445312 11.648438 12.402344 12.023438 12.347656 12.453125 L 11.878906 11.007812 C 11.878906 11.007812 10.464844 11.394531 10.382812 11.894531 C 10.382812 11.894531 10.140625 12.769531 10.105469 14.371094 L 8.730469 14.371094 C 8.078125 14.371094 7.550781 14.898438 7.550781 15.550781 L 7.550781 21.339844 C 7.550781 21.992188 8.078125 22.519531 8.730469 22.519531 L 14.625 22.519531 C 14.726562 22.328125 14.929688 22.089844 15.324219 21.832031 L 8.730469 21.832031 C 8.457031 21.832031 8.238281 21.613281 8.238281 21.339844 L 8.238281 15.550781 C 8.238281 15.277344 8.457031 15.058594 8.730469 15.058594 L 28.273438 15.058594 C 28.546875 15.058594 28.765625 15.277344 28.765625 15.550781 L 28.765625 21.339844 C 28.765625 21.613281 28.546875 21.832031 28.273438 21.832031 L 21.679688 21.832031 C 22.070312 22.089844 22.277344 22.328125 22.378906 22.519531 L 28.273438 22.519531 C 28.921875 22.519531 29.453125 21.992188 29.453125 21.339844 L 29.453125 15.550781 C 29.453125 14.898438 28.921875 14.371094 28.273438 14.371094 Z M 28.273438 14.371094 " fill-opacity="1" fill-rule="nonzero"/></g><path fill="#ffffff" d="M 21.988281 23.792969 C 21.898438 23.265625 21.824219 22.992188 21.824219 22.992188 C 21.730469 22.445312 20.527344 21.988281 19.957031 21.804688 C 19.867188 21.582031 19.652344 21.425781 19.402344 21.425781 L 17.601562 21.425781 C 17.347656 21.425781 17.132812 21.582031 17.042969 21.804688 C 16.476562 21.988281 15.269531 22.445312 15.179688 22.992188 C 15.179688 22.992188 15.101562 23.265625 15.019531 23.792969 Z M 21.988281 23.792969 " fill-opacity="1" fill-rule="nonzero"/></svg>