<svg xmlns="http://www.w3.org/2000/svg" xmlns:xlink="http://www.w3.org/1999/xlink" width="50" zoomAndPan="magnify" viewBox="0 0 37.5 37.499999" height="50" preserveAspectRatio="xMidYMid meet" version="1.0"><defs><clipPath id="e29342b6fc"><path d="M 1.628906 1.628906 L 35.378906 1.628906 L 35.378906 35.378906 L 1.628906 35.378906 Z M 1.628906 1.628906 " clip-rule="nonzero"/></clipPath><clipPath id="d493a6353f"><path d="M 18.503906 1.628906 C 9.183594 1.628906 1.628906 9.183594 1.628906 18.503906 C 1.628906 27.824219 9.183594 35.378906 18.503906 35.378906 C 27.824219 35.378906 35.378906 27.824219 35.378906 18.503906 C 35.378906 9.183594 27.824219 1.628906 18.503906 1.628906 Z M 18.503906 1.628906 " clip-rule="nonzero"/></clipPath><clipPath id="7f3bb947c7"><path d="M 0.628906 0.628906 L 34.378906 0.628906 L 34.378906 34.378906 L 0.628906 34.378906 Z M 0.628906 0.628906 " clip-rule="nonzero"/></clipPath><clipPath id="7601506c5e"><path d="M 17.503906 0.628906 C 8.183594 0.628906 0.628906 8.183594 0.628906 17.503906 C 0.628906 26.824219 8.183594 34.378906 17.503906 34.378906 C 26.824219 34.378906 34.378906 26.824219 34.378906 17.503906 C 34.378906 8.183594 26.824219 0.628906 17.503906 0.628906 Z M 17.503906 0.628906 " clip-rule="nonzero"/></clipPath><clipPath id="12a083d10a"><rect x="0" width="35" y="0" height="35"/></clipPath><clipPath id="5ea83ac5ae"><path d="M 8.578125 7.222656 L 28.5625 7.222656 L 28.5625 29.429688 L 8.578125 29.429688 Z M 8.578125 7.222656 " clip-rule="nonzero"/></clipPath></defs><g clip-path="url(#e29342b6fc)"><g clip-path="url(#d493a6353f)"><g transform="matrix(1, 0, 0, 1, 1, 1)"><g clip-path="url(#12a083d10a)"><g clip-path="url(#7f3bb947c7)"><g clip-path="url(#7601506c5e)"><path fill="#1c2b36" d="M 0.628906 0.628906 L 34.378906 0.628906 L 34.378906 34.378906 L 0.628906 34.378906 Z M 0.628906 0.628906 " fill-opacity="1" fill-rule="nonzero"/></g></g></g></g></g></g><g clip-path="url(#5ea83ac5ae)"><path fill="#ffffff" d="M 26.472656 7.222656 L 14.027344 7.222656 C 12.957031 7.222656 12.085938 8.09375 12.085938 9.167969 L 12.085938 18.109375 L 8.972656 18.109375 C 8.761719 18.109375 8.585938 18.285156 8.585938 18.5 L 8.585938 27.636719 C 8.585938 28.816406 9.546875 29.773438 10.722656 29.773438 L 26.472656 29.773438 C 27.542969 29.773438 28.414062 28.90625 28.414062 27.832031 L 28.414062 9.167969 C 28.414062 8.09375 27.542969 7.222656 26.472656 7.222656 Z M 9.363281 27.636719 L 9.363281 18.890625 L 12.085938 18.890625 L 12.085938 27.636719 C 12.085938 28.386719 11.472656 28.996094 10.722656 28.996094 C 9.972656 28.996094 9.363281 28.386719 9.363281 27.636719 Z M 27.636719 27.832031 C 27.636719 28.472656 27.113281 28.996094 26.472656 28.996094 L 12.863281 28.996094 L 12.863281 9.167969 C 12.863281 8.527344 13.386719 8.003906 14.027344 8.003906 L 26.472656 8.003906 C 27.113281 8.003906 27.636719 8.527344 27.636719 9.167969 Z M 27.636719 27.832031 " fill-opacity="1" fill-rule="nonzero"/></g><path fill="#ffffff" d="M 16.488281 14.742188 C 17.449219 14.742188 18.367188 14.332031 19.003906 13.613281 C 19.035156 13.578125 19.058594 13.539062 19.074219 13.5 C 19.105469 13.425781 19.109375 13.339844 19.089844 13.261719 C 18.898438 12.457031 18.347656 11.820312 17.636719 11.480469 C 17.890625 11.207031 18.050781 10.839844 18.050781 10.4375 C 18.050781 9.578125 17.347656 8.875 16.488281 8.875 C 15.632812 8.875 14.929688 9.578125 14.929688 10.4375 C 14.929688 10.839844 15.089844 11.207031 15.34375 11.480469 C 14.640625 11.816406 14.09375 12.441406 13.898438 13.234375 C 13.871094 13.320312 13.875 13.414062 13.910156 13.5 C 13.929688 13.546875 13.957031 13.589844 13.992188 13.628906 C 14.625 14.339844 15.535156 14.742188 16.488281 14.742188 Z M 15.707031 10.4375 C 15.707031 10.003906 16.058594 9.65625 16.488281 9.65625 C 16.921875 9.65625 17.273438 10.003906 17.273438 10.4375 C 17.273438 10.867188 16.921875 11.21875 16.492188 11.21875 C 16.492188 11.21875 16.488281 11.21875 16.488281 11.21875 C 16.488281 11.21875 16.484375 11.21875 16.484375 11.21875 C 16.058594 11.21875 15.707031 10.867188 15.707031 10.4375 Z M 16.484375 11.996094 C 16.484375 11.996094 16.488281 12 16.484375 11.996094 C 16.488281 11.996094 16.488281 11.996094 16.492188 11.996094 C 17.304688 11.996094 18.011719 12.5 18.277344 13.246094 C 17.800781 13.707031 17.160156 13.960938 16.488281 13.960938 C 15.820312 13.960938 15.179688 13.703125 14.707031 13.246094 C 14.972656 12.503906 15.675781 12 16.484375 11.996094 Z M 16.484375 11.996094 " fill-opacity="1" fill-rule="nonzero"/><path fill="#ffffff" d="M 20.65625 10.824219 L 22.652344 10.824219 C 22.867188 10.824219 23.042969 10.648438 23.042969 10.4375 C 23.042969 10.222656 22.867188 10.046875 22.652344 10.046875 L 20.65625 10.046875 C 20.441406 10.046875 20.265625 10.222656 20.265625 10.4375 C 20.265625 10.648438 20.4375 10.824219 20.65625 10.824219 Z M 20.65625 10.824219 " fill-opacity="1" fill-rule="nonzero"/><path fill="#ffffff" d="M 20.65625 13.042969 L 26.070312 13.042969 C 26.285156 13.042969 26.460938 12.867188 26.460938 12.652344 C 26.460938 12.4375 26.285156 12.261719 26.070312 12.261719 L 20.65625 12.261719 C 20.441406 12.261719 20.265625 12.4375 20.265625 12.652344 C 20.265625 12.867188 20.4375 13.042969 20.65625 13.042969 Z M 20.65625 13.042969 " fill-opacity="1" fill-rule="nonzero"/><path fill="#ffffff" d="M 26.152344 16.054688 L 14.347656 16.054688 C 14.132812 16.054688 13.960938 16.230469 13.960938 16.441406 C 13.960938 16.65625 14.132812 16.832031 14.347656 16.832031 L 26.148438 16.832031 C 26.363281 16.832031 26.535156 16.65625 26.535156 16.441406 C 26.535156 16.230469 26.367188 16.054688 26.152344 16.054688 Z M 26.152344 16.054688 " fill-opacity="1" fill-rule="nonzero"/><path fill="#ffffff" d="M 26.152344 18.554688 L 14.347656 18.554688 C 14.132812 18.554688 13.960938 18.730469 13.960938 18.941406 C 13.960938 19.15625 14.132812 19.332031 14.347656 19.332031 L 26.148438 19.332031 C 26.363281 19.332031 26.535156 19.15625 26.535156 18.941406 C 26.535156 18.730469 26.367188 18.554688 26.152344 18.554688 Z M 26.152344 18.554688 " fill-opacity="1" fill-rule="nonzero"/><path fill="#ffffff" d="M 26.152344 21.054688 L 14.347656 21.054688 C 14.132812 21.054688 13.960938 21.230469 13.960938 21.441406 C 13.960938 21.65625 14.132812 21.832031 14.347656 21.832031 L 26.148438 21.832031 C 26.363281 21.832031 26.535156 21.65625 26.535156 21.441406 C 26.535156 21.230469 26.367188 21.054688 26.152344 21.054688 Z M 26.152344 21.054688 " fill-opacity="1" fill-rule="nonzero"/><path fill="#ffffff" d="M 26.152344 23.554688 L 14.347656 23.554688 C 14.132812 23.554688 13.960938 23.730469 13.960938 23.941406 C 13.960938 24.15625 14.132812 24.332031 14.347656 24.332031 L 26.148438 24.332031 C 26.363281 24.332031 26.535156 24.15625 26.535156 23.941406 C 26.535156 23.730469 26.367188 23.554688 26.152344 23.554688 Z M 26.152344 23.554688 " fill-opacity="1" fill-rule="nonzero"/><path fill="#ffffff" d="M 26.152344 26.054688 L 14.347656 26.054688 C 14.132812 26.054688 13.960938 26.230469 13.960938 26.441406 C 13.960938 26.65625 14.132812 26.832031 14.347656 26.832031 L 26.148438 26.832031 C 26.363281 26.832031 26.535156 26.65625 26.535156 26.441406 C 26.535156 26.230469 26.367188 26.054688 26.152344 26.054688 Z M 26.152344 26.054688 " fill-opacity="1" fill-rule="nonzero"/></svg>